<svg width="200" height="200" viewBox="0 0 200 200" fill="none" xmlns="http://www.w3.org/2000/svg">
<path d="M106.161 156C104.401 156 102.721 156.08 101.041 156.08C96.4809 156.08 92.4809 156 88.9609 155.76C90.7209 159.12 93.7609 163.6 97.6809 164.72C97.9209 164.8 98.1609 164.8 98.4009 164.8C100.481 164.8 103.361 161.44 106.161 156Z" fill="#F6D40C"/>
<path d="M100.961 152.32C93.6812 152.32 87.7613 152 83.2812 151.44C83.8413 152.88 84.4813 154.48 85.2013 156.08C87.4413 160.88 91.3613 166.88 96.8013 168.4C97.2813 168.56 97.7613 168.64 98.2413 168.64C103.841 168.64 108.721 159.2 111.521 152.16C108.721 152.24 104.961 152.32 100.961 152.32ZM97.6013 164.72C93.6813 163.6 90.6413 159.12 88.8812 155.76C92.4012 156 96.4012 156.08 100.961 156.08C102.641 156.08 104.321 156.08 106.081 156C103.361 161.44 100.401 164.8 98.2413 164.8C98.0813 164.8 97.8413 164.8 97.6013 164.72Z" fill="#F6961E"/>
<path d="M100.964 148.16C92.3237 148.16 82.5637 147.76 77.8438 146.16C77.8438 146.16 82.8037 168.72 95.9237 172.4C96.7237 172.64 97.5237 172.72 98.2437 172.72C110.004 172.72 116.884 147.76 116.884 147.76C116.884 147.76 109.524 148.16 100.964 148.16ZM96.8037 168.4C91.3637 166.88 87.5237 160.88 85.2037 156.08C84.4037 154.48 83.7637 152.88 83.2837 151.44C87.7637 152 93.6037 152.32 100.964 152.32C104.964 152.32 108.644 152.24 111.524 152.16C108.804 159.2 103.844 168.64 98.2437 168.64C97.8437 168.56 97.3637 168.48 96.8037 168.4Z" fill="#ED3424"/>
<path d="M98.3202 173.76C97.4402 173.76 96.5602 173.6 95.6802 173.36C82.0802 169.52 77.0402 147.28 76.8802 146.32C76.8002 146 76.9602 145.6 77.2002 145.36C77.4402 145.12 77.8402 145.04 78.1602 145.2C81.9202 146.48 89.8402 147.12 100.96 147.12C109.44 147.12 116.8 146.72 116.88 146.72C117.2 146.72 117.52 146.88 117.68 147.12C117.92 147.36 117.92 147.68 117.84 148C117.6 149.04 110.64 173.76 98.3202 173.76ZM79.2002 147.6C80.6402 152.8 85.7602 168.56 96.1602 171.52C96.8802 171.68 97.5202 171.84 98.2402 171.84C107.6 171.84 113.92 154 115.52 148.88C112.96 148.96 107.2 149.2 100.88 149.2C90.8802 149.12 83.6002 148.64 79.2002 147.6Z" fill="#252468"/>
<path d="M43.5983 85.0399L45.1183 82.3999C45.0383 81.8399 44.4783 79.0399 42.7183 72.8799C40.8783 66.7999 37.9183 60.7999 37.2783 59.4399C31.1183 62.4799 22.2383 61.3599 20.5583 61.1199C20.3183 62.7999 19.1983 71.5999 21.1183 80.7999C23.0383 89.9999 27.3583 93.9999 28.1583 94.6399L32.1583 93.4399C37.7583 91.1199 43.1983 85.4399 43.5983 85.0399Z" fill="white"/>
<path d="M37.2017 58.88C37.4417 58.64 39.3617 56.72 39.3617 54.48C39.3617 53.04 38.0817 52.32 37.2017 52C35.5217 52.32 31.3617 53.6 31.3617 55.44C31.3617 56.08 31.5217 56.48 31.8417 56.8C32.5617 57.36 33.6817 57.12 33.6817 57.12C33.8417 57.12 34.0017 57.2 34.0017 57.36C34.0017 57.52 33.9217 57.68 33.7617 57.68C33.7617 57.68 33.4417 57.76 33.1217 57.76C32.6417 57.76 31.9217 57.68 31.4417 57.28C31.0417 56.96 30.8017 56.48 30.7217 55.92C30.1617 56.16 29.4417 56.24 28.8017 56.24C26.7217 56.24 24.4817 55.36 24.4017 55.36C24.2417 55.28 24.1617 55.12 24.2417 54.96C24.3217 54.8 24.4817 54.72 24.6417 54.8C24.7217 54.8 28.6417 56.32 30.8017 55.28C30.9617 53.36 34.3217 52.24 36.0817 51.76C36.0017 51.68 36.0017 51.6 36.0017 51.52C36.0017 51.52 35.8417 49.76 34.7217 48.64C34.0817 48.08 30.5617 47.68 27.1217 48.64C24.8817 49.2 21.9217 50.56 20.9617 53.6C20.3217 55.68 20.3217 57.44 21.1217 58.8C22.0017 60.4 23.7617 60.96 24.0017 61.04C27.4417 61.12 33.0417 60.96 37.2017 58.88Z" fill="#545580"/>
<path d="M46.0787 89.28C46.1587 88.8 46.2388 88.24 46.3188 87.68L43.9187 85.52C42.8787 86.56 37.9188 91.52 32.7188 93.76C33.8388 94.96 35.6787 96.88 37.4387 98.64C38.4787 98 43.7587 94.4 46.0787 89.28Z" fill="#5DB075"/>
<path d="M158.639 58.88C162.719 61.04 168.319 61.12 171.919 60.96C172.239 60.88 173.919 60.32 174.799 58.72C175.519 57.36 175.599 55.68 174.879 53.6C173.919 50.56 170.959 49.2 168.719 48.64C165.279 47.76 161.679 48.08 161.119 48.64C159.919 49.68 159.839 51.52 159.839 51.52C159.839 51.6 159.759 51.68 159.759 51.76C161.519 52.24 164.879 53.36 165.039 55.28C167.199 56.32 171.119 54.8 171.199 54.8C171.359 54.72 171.519 54.8 171.599 54.96C171.679 55.12 171.599 55.28 171.439 55.36C171.279 55.44 169.119 56.24 167.039 56.24C166.319 56.24 165.679 56.16 165.119 55.92C165.039 56.48 164.799 56.96 164.399 57.28C163.919 57.68 163.199 57.76 162.719 57.76C162.319 57.76 162.079 57.68 162.079 57.68C161.919 57.68 161.839 57.52 161.839 57.36C161.839 57.2 161.999 57.12 162.159 57.12C162.159 57.12 163.359 57.36 163.999 56.8C164.319 56.48 164.479 56.08 164.479 55.44C164.479 53.6 160.319 52.4 158.639 52C157.759 52.32 156.559 53.04 156.479 54.48C156.399 56.72 158.399 58.64 158.639 58.88Z" fill="#545580"/>
<path d="M37.8438 99.12C39.5237 100.72 41.1238 102.08 41.7638 102.32C43.2038 102.72 44.9638 102.8 45.6038 102.8C45.3638 100.64 45.2038 96.4 45.8438 91.04C43.3637 95.36 39.0438 98.32 37.8438 99.12Z" fill="url(#paint0_linear_1614_52682)"/>
<path d="M158.559 59.4399C157.919 60.7199 154.879 66.7999 153.119 72.8799C151.279 78.9599 150.799 81.8399 150.719 82.3999L152.239 85.0399C152.639 85.4399 158.079 91.1199 163.839 93.4399L167.839 94.6399C168.559 93.9999 172.959 89.9999 174.879 80.7999C176.799 71.5999 175.679 62.7999 175.439 61.1199C173.599 61.4399 164.719 62.5599 158.559 59.4399Z" fill="white"/>
<path d="M114.003 45.36C107.923 42.48 103.123 41.6 98.8834 41.6C94.9634 41.6 91.6034 42.4 88.3234 43.12C79.7634 45.12 72.2434 50 67.2834 56.88C63.1234 62.64 61.0434 69.2 60.9634 76.4C60.8834 82 62.7234 86.64 66.4034 90.32C74.6434 98.56 90.4834 100.32 102.323 100.32C110.003 100.32 135.203 99.04 136.243 82.16C136.963 67.52 127.443 51.68 114.003 45.36Z" fill="#252468"/>
<path d="M73.1225 126L68.0025 123.28C67.9225 123.28 67.9225 123.2 67.9225 123.2L63.7625 115.92C62.8825 115.44 55.9225 111.68 50.5625 108.16C51.3625 111.36 54.8825 124.96 60.8025 135.28C61.8425 135.68 70.0825 138.4 79.6825 139.84C78.0025 138 73.3625 132.64 73.1225 126Z" fill="white"/>
<path d="M151.921 85.6L148.961 88.08C151.201 93.2 157.281 97.84 158.481 98.72C160.241 96.96 162.081 95.04 163.201 93.84C157.921 91.52 152.961 86.64 151.921 85.6Z" fill="#5DB075"/>
<path d="M148.883 89.2C149.603 93.68 150.003 98.24 149.923 102.8C150.643 102.8 152.643 102.72 154.083 102.32C154.723 102.16 156.323 100.72 158.003 99.12C156.723 98.16 151.443 94 148.883 89.2Z" fill="url(#paint1_linear_1614_52682)"/>
<path d="M102.002 32.64C93.6016 32.64 84.0016 36.4 74.8816 43.2C66.0816 49.84 58.4016 58.72 53.4416 68.24C43.9216 86.48 46.0816 102.8 46.3216 104.24C50.5616 108.16 64.0016 115.36 64.0816 115.44C64.1616 115.44 64.1616 115.52 64.1616 115.52L68.3216 122.8L73.1216 125.36C73.5216 123.36 75.2816 115.68 76.8816 114.64C78.7216 113.44 106.562 113.68 110.322 114.96C114.162 116.24 116.882 125.44 117.362 126.96H119.682C120.242 126.32 123.602 120.96 125.682 117.6C125.682 117.52 125.762 117.52 125.842 117.44C137.442 114.64 147.922 107.52 149.042 106.64C150.322 85.2 142.322 63.04 127.442 47.2C119.122 38.32 109.282 32.64 102.002 32.64ZM136.722 82.32C135.682 99.68 110.082 101.04 102.242 101.04C90.3216 101.04 74.3216 99.28 65.9216 90.88C62.1616 87.12 60.3216 82.24 60.3216 76.56C60.4016 69.2 62.5616 62.56 66.7216 56.64C71.7616 49.6 79.3616 44.64 88.0816 42.64C94.8016 41.12 102.322 39.36 114.162 44.88C120.722 48 126.642 53.36 130.802 60.16C135.042 67.04 137.122 74.88 136.722 82.32Z" fill="white"/>
<path d="M119.923 127.6H117.443C115.923 134.08 112.563 139.6 111.523 141.2C114.323 140.96 126.163 139.6 134.483 136.08C140.243 126.08 144.163 113.2 145.043 110.08C140.643 112.64 133.683 116.24 126.243 118.08C120.403 127.6 120.083 127.6 119.923 127.6Z" fill="white"/>
<path d="M106.881 144.72C106.161 144.96 104.641 145.04 102.801 145.04C96.4013 145.04 85.4413 144.08 84.7213 143.92C83.4413 143.76 81.0413 141.04 80.4813 140.48C71.5213 139.2 63.6813 136.8 61.2812 136C63.3612 139.52 65.7613 142.56 68.4013 144.64C73.7613 148.88 84.4812 151.6 96.9613 151.92C109.121 152.24 120.081 150.24 125.521 146.72C128.641 144.72 131.441 141.12 134.001 136.96C124.961 140.56 112.561 141.76 111.121 141.92C110.801 142.32 109.441 143.92 106.881 144.72Z" fill="white"/>
<path d="M80.7978 140C81.5978 140.88 83.8378 143.28 84.7978 143.36C86.3178 143.52 103.918 145.04 106.718 144.16C109.518 143.28 110.718 141.44 110.718 141.36C110.798 141.28 115.198 134.96 116.958 127.28C116.718 126.4 113.918 116.72 110.238 115.52C108.238 114.88 100.078 114.48 92.8778 114.48C84.7178 114.4 77.9978 114.72 77.2778 115.2C75.9978 116.08 74.3178 123.2 73.7578 125.92C73.8378 133.76 80.7178 139.92 80.7978 140Z" fill="#5DB075"/>
<g opacity="0.25">
<path d="M25.6787 52.72C24.7187 52 24.2387 51.12 24.2387 51.12C21.1187 53.36 20.7188 58.16 20.7188 58.16C20.7988 58.32 20.8788 58.48 20.9588 58.72C21.8388 60.32 23.5987 60.88 23.8387 60.96C27.1987 61.12 32.2388 61.04 36.1588 59.36C36.2388 59.2 37.7588 56.32 35.7588 56C33.9988 55.68 32.1588 56.32 31.3588 56.16C31.4388 56.4 31.5988 56.64 31.7588 56.8C32.4788 57.36 33.5988 57.12 33.5988 57.12C33.7588 57.12 33.9188 57.2 33.9188 57.36C33.9188 57.52 33.8387 57.68 33.6787 57.68C33.6787 57.68 33.3588 57.76 33.0387 57.76C32.5588 57.76 31.8388 57.68 31.3588 57.28C30.9588 56.96 30.7188 56.48 30.6388 55.92C30.0787 56.16 29.3588 56.24 28.7188 56.24C26.6388 56.24 24.3988 55.36 24.3188 55.36C24.1588 55.28 24.0788 55.12 24.1588 54.96C24.2388 54.8 24.3988 54.72 24.5588 54.8C24.6388 54.8 28.5588 56.32 30.7188 55.28C30.7988 54.64 31.1988 54.08 31.7588 53.6C31.7588 53.6 26.6387 53.44 25.6787 52.72Z" fill="#232664"/>
</g>
<g opacity="0.15">
<path d="M33.6818 84.32C27.0418 84.96 24.5618 64.4 24.5618 64.4H21.9218L21.6018 66.32C21.6018 66.32 19.4418 81.44 29.2018 94.08H30.0818L32.1618 93.44C37.8418 91.12 43.3618 85.44 43.7618 85.04L44.2418 84.16C44.0018 83.2 43.4418 80.4 42.5618 78.24C42.4818 78.16 40.2418 83.68 33.6818 84.32Z" fill="#252468"/>
</g>
<g opacity="0.25">
<path d="M41.7613 96C40.8813 96.88 40.0012 97.6 39.2812 98.08C40.4013 99.2 41.4413 100.08 42.0812 100.4C43.5213 101.2 44.9613 101.28 45.5213 101.28C45.4413 100.32 45.4413 99.2 45.4413 97.84C45.2013 97.76 43.3613 97.2 42.5613 96.56C42.4013 96.56 42.1613 96.32 41.7613 96Z" fill="#252468"/>
</g>
<g opacity="0.25">
<path d="M42.3163 94.5601C42.4763 94.4001 42.6362 94.2401 42.7962 94.0001L39.1163 89.6801C38.7963 89.9201 38.4763 90.1601 38.1562 90.4001C38.3163 90.4001 41.5963 93.7601 42.3163 94.5601Z" fill="#252468"/>
</g>
<g opacity="0.25">
<path d="M38.8825 97.68C39.6025 97.12 40.4825 96.4 41.3625 95.6C39.7625 94 37.1225 91.28 37.1225 91.28C37.1225 91.28 37.1225 91.28 37.2025 91.28C36.8025 91.52 36.4025 91.84 36.0025 92.08L34.5625 93.2C34.5625 93.2 36.8025 95.6 38.8825 97.68Z" fill="#252468"/>
</g>
<g opacity="0.25">
<path d="M65.6025 125.6C65.7625 125.76 73.5225 129.2 73.5225 129.2C73.2825 128.24 73.1225 127.2 73.1225 126.08L68.0025 123.36C67.9225 123.36 67.9225 123.28 67.9225 123.28L63.7625 116C62.8825 115.52 55.9225 111.76 50.5625 108.24C50.7225 109.04 51.1225 110.48 51.6825 112.4C51.6825 112.4 59.6025 116.56 61.6025 117.84C63.6025 118.96 65.5225 125.36 65.6025 125.6Z" fill="#252468"/>
</g>
<g opacity="0.25">
<path d="M159.997 55.92C157.997 56.24 159.517 59.2 159.597 59.28C163.597 60.96 168.637 61.04 171.917 60.88C172.237 60.8 173.917 60.24 174.797 58.64C174.877 58.48 174.957 58.32 175.037 58.16C175.037 58.16 174.637 53.28 171.517 51.12C171.517 51.12 171.037 52.08 170.077 52.72C169.117 53.44 163.997 53.52 163.997 53.52C164.557 54 164.957 54.56 165.037 55.2C167.197 56.24 171.117 54.72 171.197 54.72C171.357 54.64 171.517 54.72 171.597 54.88C171.677 55.04 171.597 55.2 171.437 55.28C171.277 55.36 169.117 56.16 167.037 56.16C166.317 56.16 165.677 56.08 165.117 55.84C165.037 56.4 164.797 56.88 164.397 57.2C163.917 57.6 163.197 57.68 162.717 57.68C162.317 57.68 162.077 57.6 162.077 57.6C161.917 57.6 161.837 57.44 161.837 57.28C161.837 57.12 161.997 57.04 162.157 57.04C162.157 57.04 163.357 57.28 163.997 56.72C164.157 56.56 164.317 56.32 164.397 56.08C163.597 56.24 161.677 55.6 159.997 55.92Z" fill="#232664"/>
</g>
<g opacity="0.15">
<path d="M174.318 66.32L173.998 64.4H171.358C171.358 64.4 168.878 85.04 162.238 84.32C155.598 83.68 153.438 78.16 153.438 78.16C152.638 80.32 151.998 83.2 151.758 84.08L152.238 84.96C152.638 85.36 158.078 91.04 163.838 93.36L165.918 94H166.798C176.478 81.44 174.318 66.32 174.318 66.32Z" fill="#252468"/>
</g>
<g opacity="0.25">
<path d="M157.597 90.48C157.277 90.24 156.957 90 156.637 89.76L153.117 93.92C153.277 94.08 153.437 94.24 153.597 94.48C154.557 93.44 157.517 90.4 157.597 90.48Z" fill="#252468"/>
</g>
<g opacity="0.25">
<path d="M150.396 97.92L150.156 101.28C150.156 101.28 152.076 101.28 153.756 100.4C154.396 100.08 155.436 99.12 156.636 98C155.916 97.44 155.116 96.72 154.156 95.84C153.756 96.24 153.436 96.56 153.276 96.72C152.476 97.36 150.396 97.92 150.396 97.92Z" fill="#252468"/>
</g>
<g opacity="0.25">
<path d="M161.281 93.2L159.841 92.08C159.441 91.84 159.041 91.6 158.641 91.28H158.721C158.721 91.28 156.241 93.76 154.641 95.44C155.521 96.32 156.401 97.04 157.121 97.6C159.121 95.52 161.201 93.2 161.281 93.2Z" fill="#252468"/>
</g>
<g opacity="0.12">
<path d="M78.3172 147.36C85.3572 149.28 98.3172 150.16 98.3172 150.16C98.3172 150.16 111.277 149.36 118.317 147.36C125.357 145.44 128.637 141.2 128.637 141.2L131.597 137.92C123.037 140.72 112.797 141.76 111.517 141.84C111.197 142.32 109.917 143.92 107.277 144.72C106.557 144.96 105.037 145.04 103.197 145.04C101.917 145.04 100.557 145.04 99.0372 144.96C98.6372 144.96 98.3172 144.96 98.3172 144.96C98.3172 144.96 98.1572 144.96 97.8372 144.88C91.9972 144.56 85.5972 144 85.1172 143.92C83.8372 143.76 81.4372 141.04 80.8772 140.48C74.5572 139.52 68.7972 138.08 65.1172 137.04L68.0772 141.2C67.9972 141.2 71.2772 145.44 78.3172 147.36Z" fill="#252468"/>
</g>
<g opacity="0.25">
<path opacity="0.5" d="M122.561 129.2C122.721 129.04 126.481 121.04 128.721 120.16C130.961 119.28 142.641 114.56 143.841 114.08C144.401 112.24 144.801 110.88 145.041 110.08C140.641 112.64 133.681 116.24 126.241 118.08C120.401 127.6 120.161 127.6 119.921 127.6H117.441C117.201 128.56 116.961 129.52 116.641 130.4C116.721 130.4 122.401 129.36 122.561 129.2Z" fill="#252468"/>
</g>
<g opacity="0.1">
<path d="M81.8438 138.64C83.4437 140.72 85.8437 142 88.4837 142.24L95.3637 143.04L103.364 142.8C106.084 142.72 108.564 141.2 109.844 138.88C110.404 137.84 111.044 136.96 111.444 136C113.364 132.08 114.244 129.76 114.724 126.16C114.724 126.16 112.164 132.08 107.044 135.6C102.004 139.12 95.2837 138.24 95.2837 138.24C95.2837 138.24 88.5638 138.56 83.4437 135.12C78.4037 131.6 75.8438 126.24 75.8438 126.24C76.3238 129.84 78.0837 133.12 79.9237 136.08C80.5637 136.88 81.1238 137.76 81.8438 138.64Z" fill="#252468"/>
</g>
<g opacity="0.15">
<path d="M124.716 114.88L146.316 104.8C146.396 103.2 146.156 98.72 146.156 98.72C142.556 101.68 131.836 106.24 131.836 106.24L131.356 100.72C119.036 110.72 97.8361 110.4 97.8361 110.4C97.8361 110.4 76.7161 110.72 64.3161 100.72L63.8361 106.24C63.8361 106.24 53.1161 101.68 49.5161 98.72C49.5161 98.72 48.2361 101.2 48.3161 102.8L65.9161 113.04L69.6761 120.88L73.6761 122.88C74.3961 119.84 75.6761 115.52 76.7961 114.8C78.6361 113.6 106.476 113.84 110.236 115.12C113.196 116.08 115.516 121.84 116.636 125.12L119.116 124.8L124.716 114.88Z" fill="#252468"/>
</g>
<g opacity="0.4">
<path d="M38.9594 53.28C38.5594 52.64 37.7594 52.24 37.1994 52C35.8394 52.32 32.7994 53.2 31.6794 54.48C31.5994 54.64 31.5194 54.8 31.4394 54.88C31.3594 55.04 31.3594 55.2 31.3594 55.36C31.3594 55.6 31.3594 55.76 31.4394 56C31.5194 55.92 33.1194 54.4 35.5994 53.76C37.2794 53.2 38.3994 53.2 38.9594 53.28Z" fill="white"/>
</g>
<g opacity="0.4">
<path d="M23.5173 50.3999C23.5973 50.3999 30.7173 49.1199 32.3973 49.3599C33.8373 49.5999 34.4773 51.4399 34.6373 51.9999C35.1173 51.8399 35.5973 51.6799 35.9973 51.5999C35.9173 51.5199 35.9173 51.4399 35.9173 51.3599C35.9173 51.3599 35.7573 49.5999 34.6373 48.4799C33.9973 47.9199 30.4773 47.5199 27.0373 48.4799C25.8373 48.7999 24.5573 49.2799 23.3573 50.1599C23.1973 50.2399 23.5173 50.3999 23.5173 50.3999Z" fill="white"/>
</g>
<g opacity="0.4">
<path d="M46.0006 89.28C46.0806 88.72 46.1606 88.24 46.2406 87.68L43.8406 85.52C43.6006 85.76 43.2006 86.16 42.6406 86.72L45.7606 89.76C45.8406 89.6 45.9206 89.44 46.0006 89.28Z" fill="white"/>
</g>
<g opacity="0.4">
<path d="M67.2028 133.44C66.6428 133.12 63.4428 132.24 63.2828 132.08C63.1228 131.92 60.2428 127.28 58.8828 125.84C58.8828 125.84 62.0828 132.96 62.2428 133.2C62.4028 133.36 68.8028 135.44 68.8028 135.28C68.8028 135.12 67.7628 133.76 67.2028 133.44Z" fill="white"/>
</g>
<g opacity="0.4">
<path d="M163.524 49.4399C165.204 49.1999 172.404 50.4799 172.404 50.4799C172.404 50.4799 172.564 50.3999 172.564 50.3199C171.364 49.4399 170.004 48.8799 168.804 48.5599C165.364 47.6799 161.764 47.9999 161.204 48.5599C160.004 49.5999 159.924 51.4399 159.924 51.4399C159.924 51.5199 159.844 51.5999 159.844 51.6799C160.244 51.7599 160.804 51.9199 161.364 52.1599C161.364 51.5999 162.004 49.5999 163.524 49.4399Z" fill="white"/>
</g>
<g opacity="0.4">
<path d="M160.401 53.68C162.561 54.24 164.081 55.52 164.481 55.84C164.481 55.68 164.561 55.52 164.561 55.36C164.561 53.52 160.401 52.32 158.721 51.92C158.081 52.16 157.361 52.56 156.961 53.2C157.281 53.2 158.481 53.2 160.401 53.68Z" fill="white"/>
</g>
<g opacity="0.4">
<path d="M149.683 89.2C149.683 89.44 150.083 89.84 150.083 89.84L153.123 86.8C152.563 86.24 152.083 85.76 151.843 85.6C151.843 85.6 151.763 85.6 151.763 85.68L149.683 87.36C149.523 87.52 149.283 87.84 149.203 87.92C149.283 88 149.683 88.96 149.683 89.2Z" fill="white"/>
</g>
<g opacity="0.4">
<path d="M132.637 132.08C132.477 132.24 129.277 133.12 128.717 133.44C128.157 133.76 127.117 135.12 127.117 135.28C127.117 135.44 133.437 133.36 133.677 133.2C133.837 133.04 137.037 125.84 137.037 125.84C135.597 127.28 132.797 131.92 132.637 132.08Z" fill="white"/>
</g>
<g opacity="0.4">
<path d="M115.838 124C115.278 121.52 112.318 118 111.438 116.24C111.198 115.84 110.958 115.52 110.718 115.2L110.638 115.12C110.158 114.8 107.198 114.56 102.878 114.48C100.478 114.48 97.9181 114.4 95.6781 114.4C95.4381 114.4 95.1981 114.4 95.0381 114.4C94.6381 114.4 94.2381 114.4 93.9181 114.4C93.5181 114.4 93.1181 114.4 92.7981 114.4C92.5581 114.4 92.3181 114.4 92.1581 114.4C89.9181 114.4 87.3581 114.4 84.9581 114.48C80.6381 114.56 77.6781 114.8 77.1981 115.12L77.1181 115.2C76.8781 115.44 76.6381 115.84 76.3981 116.24C75.5981 117.92 74.6381 121.2 74.0781 123.68C74.0781 123.92 74.0781 124.16 74.1581 124.32C74.1581 124.32 78.1581 116.8 78.4781 116.72C78.6381 116.64 84.7181 116.64 89.9981 116.64V116.72C89.9981 116.72 108.238 116.8 109.518 117.76C111.278 119.04 116.158 126.16 116.158 126.16C116.318 126 115.838 124.24 115.838 124Z" fill="white"/>
</g>
<g opacity="0.25">
<path d="M84.9609 114.56C87.3609 114.56 89.9209 114.48 92.1609 114.48C89.6009 114.48 87.1209 114.48 84.9609 114.56Z" fill="#232664"/>
</g>
<g opacity="0.4">
<path d="M84.9609 114.56C87.3609 114.56 89.9209 114.48 92.1609 114.48C89.6009 114.48 87.1209 114.48 84.9609 114.56Z" fill="white"/>
</g>
<g opacity="0.4">
<path d="M23.6016 62.08C23.6016 62.08 30.1616 64.16 36.1616 62.08C36.1616 62.08 39.6016 68.4 40.8816 72.56C42.1616 76.72 43.7616 78.08 43.7616 78.08C43.7616 78.08 40.1616 64.48 37.2016 59.76C37.2016 59.76 29.6016 61.6 23.6816 61.52V62.08H23.6016Z" fill="white"/>
</g>
<g opacity="0.4">
<path d="M172.004 62.08C172.004 62.08 165.444 64.16 159.444 62.08C159.444 62.08 156.004 68.4 154.724 72.56C153.444 76.72 151.844 78.08 151.844 78.08C151.844 78.08 155.444 64.48 158.404 59.76C158.404 59.76 166.004 61.6 171.924 61.52V62.08H172.004Z" fill="white"/>
</g>
<g opacity="0.4">
<path d="M59.7632 73.6801C59.7632 73.6801 56.0832 83.7601 64.5632 92.1601C73.0432 100.56 84.3232 103.6 104.323 103.12C124.323 102.64 132.643 97.7601 136.483 90.4801C140.323 83.2001 136.483 73.8401 136.483 73.8401C136.483 73.8401 140.163 87.7601 127.763 95.0401C115.363 102.32 91.9233 102.72 75.8433 96.7201C59.6833 90.6401 60.3232 77.6801 59.7632 73.6801Z" fill="white"/>
</g>
<path d="M119.922 128.32H117.282C116.802 128.32 116.402 128 116.322 127.6C115.282 123.68 112.642 117.12 110.082 116.24C106.242 114.96 79.9215 114.96 77.6815 115.84C76.8815 116.56 75.3615 121.68 74.4815 126.08C74.4015 126.4 74.2415 126.64 73.9215 126.8C73.6015 126.96 73.2815 126.96 73.0415 126.8L67.8415 124C67.6815 123.92 67.5215 123.76 67.4415 123.6L63.3615 116.48C61.4415 115.44 49.5215 108.96 45.5215 105.2C45.3615 105.04 45.2815 104.88 45.2015 104.64C45.0415 103.92 42.3215 87.12 52.4015 67.76C57.4415 58.08 65.2015 49.04 74.1615 42.24C83.5215 35.2 93.3615 31.36 102.002 31.36C109.762 31.36 119.682 37.04 128.642 46.48C135.522 53.76 141.122 62.72 144.962 72.4C149.362 83.6 151.282 95.2 150.562 106.96C150.562 107.28 150.402 107.52 150.162 107.68C149.682 108 139.122 115.52 126.802 118.64C126.322 119.36 125.202 121.2 124.082 123.04C120.642 128.32 120.562 128.32 119.922 128.32ZM118.002 126.32H119.522C120.322 125.2 122.962 121.12 125.282 117.36C125.442 117.12 125.602 116.96 125.922 116.88C136.802 114.24 146.642 107.84 148.642 106.4C149.842 85.28 141.842 63.44 127.282 47.84C118.882 38.88 109.202 33.28 102.162 33.28C93.9215 33.28 84.4815 36.96 75.5215 43.76C66.5615 50.4 59.0415 59.2 54.0815 68.64C45.0415 86 46.6415 101.52 46.9615 103.92C51.3615 107.84 64.2415 114.8 64.4015 114.8C64.5615 114.88 64.7215 115.04 64.8015 115.2L68.8815 122.32L72.7215 124.32C73.5215 120.88 74.9615 115.12 76.5615 114.08C77.9215 113.12 88.4015 113.12 92.8815 113.2C100.002 113.28 108.402 113.6 110.642 114.32C114.562 115.6 117.202 123.68 118.002 126.32Z" fill="#252468"/>
<path d="M99.5999 153.2C98.7199 153.2 97.8399 153.2 96.9599 153.2C84.1599 152.88 73.1999 150 67.5999 145.68C55.6799 136.32 49.4399 108.96 49.1999 107.76C49.0399 107.2 49.4399 106.72 49.9199 106.56C50.4799 106.4 50.9599 106.8 51.1199 107.28C51.1999 107.52 57.5199 135.12 68.7999 144.08C74.0799 148.24 84.5599 150.88 96.9599 151.2C108.96 151.52 119.76 149.6 125.12 146.08C136.4 138.8 144.4 109.52 144.48 109.28C144.64 108.72 145.2 108.4 145.68 108.56C146.24 108.72 146.56 109.28 146.4 109.76C146.08 110.96 138.08 140.08 126.16 147.76C120.96 151.2 110.88 153.2 99.5999 153.2Z" fill="#252468"/>
<path d="M102.642 145.76C95.9222 145.76 84.7222 144.72 84.5622 144.64C83.2022 144.48 81.1222 142.32 80.0822 141.12C69.4422 139.52 60.4022 136.4 60.3222 136.4C59.8422 136.24 59.5222 135.68 59.6822 135.12C59.8422 134.64 60.4022 134.32 60.9622 134.48C61.0422 134.48 70.1622 137.68 80.7222 139.2C80.9622 139.2 81.2022 139.36 81.3622 139.52C82.7222 141.12 84.3222 142.56 84.8822 142.64C86.9622 142.88 103.922 144.32 106.482 143.44C109.042 142.64 110.082 141.04 110.162 140.96C110.322 140.72 110.642 140.56 110.882 140.48C111.042 140.48 124.962 139.28 134.322 135.28C134.802 135.04 135.442 135.28 135.602 135.84C135.842 136.32 135.602 136.96 135.042 137.12C126.242 140.88 113.922 142.16 111.442 142.4C110.882 143.12 109.442 144.48 107.042 145.28C106.242 145.68 104.642 145.76 102.642 145.76Z" fill="#252468"/>
<path d="M80.5566 141.2C80.3166 141.2 80.0766 141.12 79.9166 140.96C79.5966 140.72 72.5566 134.32 72.4766 125.84C72.4766 125.28 72.8766 124.88 73.4366 124.8C73.9966 124.8 74.3966 125.2 74.4766 125.76C74.5566 133.36 81.1966 139.36 81.2766 139.44C81.6766 139.84 81.7566 140.4 81.3566 140.88C81.1166 141.12 80.8766 141.2 80.5566 141.2Z" fill="#252468"/>
<path d="M110.961 142.56C110.801 142.56 110.561 142.48 110.401 142.4C109.921 142.08 109.841 141.44 110.161 141.04C110.241 140.96 114.561 134.72 116.321 127.12C116.481 126.56 116.961 126.24 117.521 126.4C118.081 126.56 118.401 127.04 118.241 127.6C116.401 135.6 112.001 141.92 111.761 142.24C111.601 142.4 111.281 142.56 110.961 142.56Z" fill="#252468"/>
<path d="M45.6037 104.08C44.8837 104.08 42.8837 104 41.2837 103.52C39.3637 102.96 33.2037 96.4 31.3637 94.4C31.1237 94.16 31.0438 93.84 31.1238 93.52C31.2038 93.2 31.4437 92.96 31.6837 92.8C37.4437 90.48 42.9637 84.56 43.0437 84.48C43.4437 84.08 44.0037 84.08 44.4037 84.4L47.1238 86.8C47.5238 87.2 47.6038 87.76 47.2037 88.24C46.8037 88.72 46.2437 88.72 45.7638 88.32L43.7638 86.56C42.2437 88.08 38.1637 91.84 33.6837 94.08C37.0437 97.68 40.8837 101.36 41.7638 101.68C43.4437 102.16 45.6837 102.16 45.6837 102.16C46.2437 102.16 46.7238 102.56 46.7238 103.12C46.7238 103.68 46.3237 104.16 45.7638 104.16C45.9237 104.08 45.7637 104.08 45.6037 104.08Z" fill="#252468"/>
<path d="M37.359 100.08C37.039 100.08 36.719 99.92 36.479 99.6C36.159 99.12 36.319 98.56 36.799 98.24C36.879 98.24 42.959 94.48 45.359 89.04C45.599 88.56 46.159 88.32 46.639 88.56C47.119 88.8 47.359 89.36 47.119 89.84C44.479 95.84 37.999 99.76 37.759 99.92C37.679 100 37.519 100.08 37.359 100.08Z" fill="#252468"/>
<path d="M28.0014 96C27.7614 96 27.6014 95.92 27.4414 95.84C27.2014 95.68 22.0814 91.68 19.8414 81.12C17.6814 70.72 19.2014 61.12 19.2814 60.72C19.3614 60.48 19.4414 60.24 19.6814 60.08C19.9214 59.92 20.1614 59.84 20.4014 59.92C20.4814 59.92 30.5614 61.6 36.8814 58.32C37.1214 58.16 37.3614 58.16 37.6014 58.24C37.8414 58.32 38.0814 58.48 38.1614 58.72C38.3214 59.04 41.7614 65.68 43.8414 72.64C45.9214 79.52 46.3214 82.32 46.3214 82.4C46.3214 82.64 46.3214 82.88 46.1614 83.04L44.5614 85.76C44.3214 86.24 43.6814 86.4 43.2014 86.16C42.7214 85.92 42.5614 85.28 42.8014 84.8L44.1614 82.4C44.0014 81.52 43.4414 78.64 41.7614 73.2C40.1614 67.84 37.6814 62.56 36.6414 60.56C30.9614 63.04 23.5214 62.4 20.8014 62.08C20.4814 64.8 19.7614 72.64 21.5214 80.8C23.2814 88.96 26.8814 92.88 28.0014 94L31.6014 92.88C32.1614 92.72 32.7214 93.04 32.8814 93.52C33.0414 94.08 32.7214 94.64 32.2414 94.8L28.0814 96.08C28.2414 96 28.0814 96 28.0014 96Z" fill="#252468"/>
<path d="M23.8401 62.16C23.7601 62.16 23.6801 62.16 23.6001 62.16C23.5201 62.16 21.1201 61.52 19.8401 59.28C18.8801 57.6 18.8001 55.52 19.6001 53.12C20.5601 50.32 22.9601 48.24 26.6401 47.28C30.0001 46.4 34.3201 46.56 35.4401 47.6C36.4801 48.56 36.8801 49.76 37.0401 50.56C38.5601 50.96 40.4801 52.08 40.5601 54.4C40.6401 57.44 38.0801 59.76 37.9201 59.84C37.5201 60.24 36.8801 60.16 36.4801 59.76C36.0801 59.36 36.1601 58.72 36.5601 58.32C36.5601 58.32 38.5601 56.48 38.4801 54.4C38.4801 52.64 36.0001 52.32 35.9201 52.32C35.4401 52.24 35.1201 51.84 35.0401 51.36C35.0401 51.36 34.9601 49.84 34.0001 48.96C33.4401 48.56 29.6801 48.16 26.1601 49.36C23.6001 50.24 22.0001 51.68 21.3601 53.6C20.7201 55.44 20.8001 57.0399 21.4401 58.1599C22.2401 59.6799 23.9201 60.08 23.9201 60.08C24.4801 60.24 24.8001 60.72 24.6401 61.28C24.7201 61.92 24.3201 62.16 23.8401 62.16Z" fill="#252468"/>
<path d="M33.12 58.32C32.48 58.32 31.68 58.16 30.96 57.68C30.48 57.28 30 56.64 30 55.36C30 52.16 35.84 50.88 36.96 50.64C37.52 50.56 38 50.88 38.16 51.44C38.24 52 37.92 52.48 37.36 52.64C34.88 53.12 32 54.4 32 55.36C32 55.92 32.16 56.08 32.24 56.16C32.56 56.4 33.28 56.4 33.52 56.32C34.08 56.24 34.56 56.56 34.72 57.12C34.8 57.68 34.48 58.16 33.92 58.32C33.92 58.32 33.6 58.32 33.12 58.32Z" fill="#252468"/>
<path d="M28.7972 56.8C26.6372 56.8 24.4772 56 24.1572 55.84C23.6772 55.68 23.3572 55.0399 23.5972 54.5599C23.7572 54.0799 24.3972 53.76 24.8772 54C25.8372 54.4 29.0372 55.2799 30.5572 54.4799C31.0372 54.2399 31.6772 54.3999 31.9172 54.8799C32.1572 55.3599 31.9972 56 31.5172 56.24C30.7172 56.64 29.7572 56.8 28.7972 56.8Z" fill="#252468"/>
<path d="M149.916 104.08C149.756 104.08 149.676 104.08 149.596 104.08C149.036 104.08 148.636 103.6 148.636 103.04C148.636 102.48 149.116 102.08 149.676 102.08C149.676 102.08 152.236 102.16 153.916 101.6C154.796 101.36 158.636 97.6 161.996 94C157.516 91.76 153.436 88 151.916 86.48L149.036 88.88C148.636 89.2 147.996 89.2 147.676 88.72C147.356 88.32 147.356 87.68 147.836 87.36L151.356 84.4C151.756 84.08 152.396 84.08 152.716 84.48C152.796 84.56 158.316 90.4 164.076 92.8C164.396 92.96 164.636 93.2 164.636 93.52C164.716 93.84 164.636 94.16 164.396 94.4C162.556 96.4 156.396 102.96 154.476 103.52C152.876 104 150.636 104.08 149.916 104.08Z" fill="#252468"/>
<path d="M158.478 100.08C158.318 100.08 158.078 99.9999 157.918 99.9199C157.598 99.6799 150.398 94.5599 147.758 88.5599C147.518 88.0799 147.758 87.4399 148.238 87.2799C148.718 87.0399 149.358 87.2799 149.518 87.7599C151.918 93.1999 158.878 98.2399 158.958 98.2399C159.438 98.5599 159.518 99.1999 159.198 99.5999C159.118 99.9199 158.798 100.08 158.478 100.08Z" fill="#252468"/>
<path d="M167.763 96C167.683 96 167.603 96 167.443 95.92L163.283 94.64C162.723 94.48 162.483 93.92 162.643 93.36C162.803 92.8 163.363 92.56 163.923 92.72L167.523 93.84C168.643 92.72 172.323 88.8 174.003 80.64C175.683 72.48 175.043 64.56 174.723 61.92C172.003 62.24 164.563 62.88 158.883 60.4C157.843 62.4 155.363 67.76 153.763 73.04C152.163 78.48 151.523 81.28 151.363 82.24L152.723 84.64C152.963 85.12 152.803 85.76 152.323 86C151.843 86.24 151.203 86.08 150.963 85.6L149.363 82.88C149.283 82.72 149.203 82.48 149.203 82.24C149.203 82.16 149.603 79.36 151.683 72.48C153.763 65.52 157.203 58.88 157.363 58.56C157.523 58.32 157.683 58.16 157.923 58.08C158.163 58 158.483 58 158.643 58.16C164.963 61.44 175.043 59.84 175.123 59.76C175.363 59.68 175.683 59.76 175.843 59.92C176.083 60.08 176.243 60.32 176.243 60.56C176.323 60.96 177.843 70.64 175.683 80.96C173.443 91.52 168.243 95.52 168.083 95.68C168.243 95.92 168.003 96 167.763 96Z" fill="#252468"/>
<path d="M172.003 62.16C171.523 62.16 171.123 61.84 171.043 61.36C170.883 60.8 171.283 60.32 171.763 60.16C171.843 60.16 173.443 59.68 174.243 58.24C174.883 57.04 174.883 55.52 174.323 53.68C173.683 51.76 172.083 50.32 169.523 49.44C166.003 48.24 162.243 48.72 161.683 49.04C160.723 49.92 160.643 51.44 160.643 51.44C160.643 51.92 160.243 52.32 159.763 52.4C159.683 52.4 157.283 52.8 157.203 54.48C157.123 56.56 159.123 58.32 159.123 58.4C159.523 58.8 159.603 59.36 159.203 59.84C158.803 60.24 158.243 60.32 157.843 59.92C157.763 59.84 155.203 57.52 155.203 54.48C155.283 52.16 157.203 51.04 158.723 50.64C158.883 49.84 159.283 48.56 160.323 47.68C161.523 46.64 165.763 46.48 169.123 47.36C172.803 48.32 175.283 50.32 176.163 53.2C176.963 55.6 176.883 57.68 175.923 59.36C174.643 61.6 172.243 62.24 172.163 62.24C172.083 62.16 172.003 62.16 172.003 62.16Z" fill="#252468"/>
<path d="M162.638 58.32C162.238 58.32 161.918 58.24 161.838 58.24C161.278 58.16 160.958 57.6 161.038 57.04C161.118 56.48 161.678 56.16 162.238 56.24C162.478 56.32 163.198 56.32 163.518 56.08C163.598 56 163.758 55.84 163.758 55.28C163.758 54.32 160.958 53.04 158.398 52.56C157.838 52.48 157.518 51.92 157.598 51.36C157.678 50.8 158.238 50.48 158.798 50.56C159.998 50.8 165.758 52.08 165.758 55.28C165.758 56.56 165.198 57.2 164.798 57.6C164.078 58.24 163.278 58.32 162.638 58.32Z" fill="#252468"/>
<path d="M166.957 56.8C165.997 56.8 165.037 56.64 164.237 56.16C163.757 55.92 163.597 55.28 163.837 54.8C164.077 54.32 164.717 54.16 165.197 54.4C166.637 55.28 169.837 54.32 170.877 53.92C171.357 53.76 171.997 54 172.157 54.48C172.317 54.96 172.077 55.6 171.597 55.76C171.277 56 169.117 56.8 166.957 56.8Z" fill="#252468"/>
<path d="M102.242 101.68C90.1616 101.68 74.0016 99.84 65.4416 91.28C61.5216 87.36 59.6016 82.4 59.6016 76.48C59.6816 68.96 61.8416 62.16 66.1616 56.16C71.3616 48.96 79.0416 43.92 87.9216 41.92C94.7216 40.4 102.402 38.56 114.482 44.24C121.202 47.36 127.202 52.88 131.442 59.84C135.762 66.88 137.842 74.88 137.442 82.4C137.042 89.6 132.562 94.88 124.162 98.24C116.322 101.2 107.042 101.68 102.242 101.68ZM88.4016 43.84C80.0016 45.76 72.6416 50.56 67.7616 57.36C63.6816 62.96 61.6016 69.44 61.6016 76.48C61.6016 81.84 63.2816 86.4 66.8016 89.92C74.8816 98 90.4816 99.68 102.162 99.68C109.682 99.68 134.402 98.4 135.362 82.16C136.242 67.76 126.882 52.16 113.602 46C102.242 40.64 95.2016 42.32 88.4016 43.84Z" fill="#252468"/>
<path d="M83.9205 66.1599C85.0405 66.3199 86.0005 66.7199 86.9605 67.2799C87.5205 67.5999 88.1605 67.1199 88.0805 66.5599C87.6005 63.5199 86.1605 61.2799 84.1605 60.9599C82.0005 60.6399 79.8405 62.5599 78.4005 65.7599C78.1605 66.3999 78.7205 66.9599 79.3605 66.7199C80.7205 66.0799 82.3205 65.9199 83.9205 66.1599Z" fill="#5DB075"/>
<path d="M112.881 70.48C114.001 70.64 114.961 71.04 115.921 71.6C116.481 71.92 117.121 71.44 117.041 70.88C116.561 67.84 115.121 65.6 113.121 65.28C110.961 64.96 108.801 66.88 107.361 70.08C107.121 70.72 107.681 71.28 108.321 71.04C109.761 70.48 111.281 70.24 112.881 70.48Z" fill="#5DB075"/>
<path d="M93.1179 76.64C94.7979 77.28 97.5179 77.92 100.558 76.96C101.438 76.64 102.398 77.36 102.398 78.32C102.398 80.24 101.998 82.96 100.238 84.96C97.5979 88 92.6379 86.64 91.6779 82.72C91.2779 81.2 91.1979 79.52 91.2779 77.84C91.1979 76.96 92.2379 76.32 93.1179 76.64Z" fill="#5DB075"/>
<path d="M135.68 28.64C136.24 27.28 136.24 26 135.68 24.72C134.72 22.4 132.16 20.88 130.72 20.4C128.88 19.84 127.04 20.88 126.32 21.36C129.68 23.2 132.8 25.6 135.68 28.64Z" fill="#5DB075"/>
<path d="M60.8844 54C61.6044 53.36 64.3244 51.04 68.8844 49.04C72.4044 47.52 77.6844 45.92 84.2444 45.92C86.6444 45.92 89.2844 46.16 92.0044 46.64C104.484 48.88 119.444 56.32 130.724 63.36C119.124 48 104.004 40.24 93.2844 36.4C81.3644 32.08 72.0844 31.68 72.0044 31.68C71.8444 31.68 59.0444 30.96 56.4044 37.92C53.8444 44.48 57.0444 50.48 60.8844 54Z" fill="#545580"/>
<path d="M127.204 35.6801C127.924 43.0401 122.404 50.9601 121.364 52.3201C125.124 55.6801 128.804 59.6001 132.084 64.16C137.364 67.5201 141.764 70.8 144.564 73.2801C145.444 70.64 150.084 55.1201 140.884 37.2001C139.364 34.1601 137.524 31.6001 135.604 29.4401L135.524 29.3601C132.564 26.0801 129.204 23.6001 125.764 21.7601C125.684 21.7601 125.684 21.7601 125.604 21.6801C121.764 19.6801 117.684 18.4001 113.844 17.6801C117.604 19.6801 126.004 25.2801 127.204 35.6801Z" fill="#5DB075"/>
<path d="M120.964 52.32C122.004 50.88 127.364 43.12 126.644 36.16C125.204 23.52 112.724 18.16 111.684 17.76C105.444 16.8 99.6844 17.2 96.0044 17.6C92.7244 18 89.6844 18.88 86.9644 20.16C79.2844 23.84 73.8444 29.92 72.4844 31.52C74.6444 31.68 83.0444 32.56 93.3644 36.24C101.364 39.04 111.524 43.92 120.964 52.32Z" fill="#5DB075"/>
<g opacity="0.25">
<path d="M61.7635 38.32C56.6435 43.92 61.3635 50.72 62.8035 52.56C64.1635 51.6 66.2435 50.24 68.9635 49.12C72.4835 47.6 77.7635 46 84.3235 46C86.7235 46 89.3635 46.24 92.0835 46.72C101.283 48.4 111.843 52.88 121.283 57.92C123.123 58.88 124.083 59.44 124.083 59.44C104.243 38.16 67.6835 31.84 61.7635 38.32Z" fill="#252468"/>
</g>
<g opacity="0.05">
<path d="M114.559 21.6801C114.559 26.6401 105.359 35.2001 94.5591 32.4801C83.7591 29.7601 84.5591 23.6801 84.5591 23.6801C78.8791 26.5601 75.0391 31.4401 75.0391 31.4401C78.7191 31.9201 85.5191 33.0401 93.5191 35.9201C100.879 38.5601 110.239 43.0401 119.199 50.4801C121.119 47.7601 124.079 42.8801 124.079 37.1201C123.119 25.8401 114.559 21.6801 114.559 21.6801Z" fill="#252468"/>
</g>
<g opacity="0.05">
<path d="M143.599 52C143.599 52 141.759 53.36 136.079 50.8C130.399 48.24 127.279 40.48 127.279 40.48C127.199 40.4 127.039 40.64 126.799 40.96C125.519 46.48 122.159 51.28 121.359 52.32C125.119 55.68 128.799 59.6 132.079 64.16C136.399 66.88 140.079 69.52 142.799 71.76C146.079 62.48 143.599 52 143.599 52Z" fill="#252468"/>
</g>
<g opacity="0.25">
<path d="M135.038 26.08C134.718 25.04 132.318 23.28 130.878 22.72C129.838 22.24 128.798 22.48 128.398 22.64C130.718 24.08 132.878 25.84 134.958 27.92C135.118 27.6 135.278 26.88 135.038 26.08Z" fill="#67BC45"/>
</g>
<g opacity="0.4">
<path d="M63.5245 34.16C71.5245 31.44 100.644 37.36 115.764 48.4C107.844 42.4 99.7645 38.64 93.2845 36.32C81.3645 32 72.0845 31.6 72.0045 31.6C71.8445 31.6 59.0445 30.88 56.4045 37.84C55.0445 41.52 55.3645 45.04 56.6445 48C56.4845 45.2 56.5645 36.56 63.5245 34.16Z" fill="white"/>
</g>
<g opacity="0.4">
<path d="M137.762 34.9601C142.162 41.6801 144.722 48.4001 145.842 51.6001C145.042 47.1201 143.522 42.3201 140.962 37.2001C139.442 34.1601 137.602 31.6001 135.682 29.4401L135.602 29.3601C132.642 26.0801 129.282 23.6001 125.842 21.7601C125.762 21.7601 125.762 21.7601 125.682 21.6801C121.842 19.6801 117.762 18.4001 113.922 17.6801C115.202 18.4001 117.042 19.4401 118.962 21.0401C120.562 21.6801 132.082 26.3201 137.762 34.9601Z" fill="white"/>
</g>
<path d="M144.722 74.8C144.482 74.8 144.242 74.72 144.082 74.56C137.122 68.24 112.162 51.6 91.8419 47.92C81.9219 46.16 74.2419 48.16 69.5219 50.16C64.4019 52.4 61.6019 55.04 61.6019 55.04C61.2019 55.36 60.6419 55.44 60.2419 55.04C55.9219 51.28 52.3219 44.64 55.1219 37.36C57.8419 30.32 68.8819 30.24 71.5219 30.32C72.8819 28.64 78.4019 22.4 86.4819 18.56C89.3619 17.2 92.5619 16.24 95.9219 15.84C102.322 15.04 111.922 14.88 121.362 18.32C130.642 21.76 137.602 27.84 142.082 36.56C147.442 47.04 148.162 56.64 147.842 62.88C147.442 69.68 145.762 73.92 145.682 74.08C145.522 74.4 145.282 74.64 144.962 74.64C144.882 74.8 144.802 74.8 144.722 74.8ZM84.2419 45.2C86.7219 45.2 89.3619 45.44 92.1619 45.92C110.722 49.28 134.722 63.92 144.242 72.08C144.722 70.32 145.522 67.12 145.762 62.8C146.082 56.88 145.442 47.6 140.242 37.6C129.282 16.4 105.762 16.72 96.0819 17.92C92.8819 18.32 89.9219 19.12 87.2819 20.4C78.5619 24.56 72.8019 31.92 72.8019 32C72.5619 32.24 72.2419 32.4 71.9219 32.4C71.7619 32.4 59.4419 31.68 57.0419 38.16C54.7219 44.16 57.4419 49.68 60.9619 53.04C62.1619 52.08 64.7219 50.16 68.6419 48.4C72.2419 46.8 77.6019 45.2 84.2419 45.2Z" fill="#252468"/>
<path d="M131.999 65.4399C131.679 65.4399 131.359 65.2799 131.199 65.0399C119.519 49.0399 104.079 40.9599 93.1191 37.0399C81.2791 32.7999 72.0791 32.3199 71.9991 32.3199C71.4391 32.3199 71.0391 31.8399 71.0391 31.2799C71.0391 30.7199 71.5191 30.3199 72.0791 30.3199C72.4791 30.3199 81.5991 30.7999 93.7591 35.1199C104.959 39.1199 120.799 47.3599 132.799 63.8399C133.119 64.3199 133.039 64.8799 132.559 65.1999C132.399 65.4399 132.159 65.4399 131.999 65.4399Z" fill="#252468"/>
<path d="M120.96 53.36C120.72 53.36 120.56 53.28 120.32 53.12C119.92 52.8 119.84 52.16 120.16 51.76C120.24 51.68 126.64 43.28 125.92 35.84C124.48 23.12 111.52 18 111.36 18C110.88 17.84 110.56 17.2 110.8 16.72C110.96 16.24 111.6 15.92 112.08 16.16C112.24 16.24 115.68 17.52 119.36 20.64C124.24 24.72 127.2 29.92 127.92 35.68C128.72 43.92 122.08 52.64 121.76 53.04C121.6 53.2 121.28 53.36 120.96 53.36Z" fill="#252468"/>
<path d="M135.763 30.24C135.603 30.24 135.443 30.24 135.363 30.16C134.883 29.92 134.643 29.36 134.883 28.8C135.523 27.52 135.603 26.24 135.043 25.04C134.163 22.96 131.843 21.6 130.563 21.12C128.563 20.48 126.483 22.24 126.403 22.24C126.003 22.56 125.363 22.56 125.043 22.16C124.723 21.76 124.723 21.12 125.123 20.8C125.203 20.72 128.083 18.32 131.123 19.28C133.123 19.92 135.763 21.76 136.883 24.32C137.603 26.08 137.523 27.92 136.643 29.76C136.483 30 136.163 30.24 135.763 30.24Z" fill="#252468"/>
<path d="M83.0428 87.68C94.1769 87.68 103.203 77.2213 103.203 64.32C103.203 51.4186 94.1769 40.96 83.0428 40.96C71.9088 40.96 62.8828 51.4186 62.8828 64.32C62.8828 77.2213 71.9088 87.68 83.0428 87.68Z" fill="url(#paint2_radial_1614_52682)"/>
<path d="M113.519 91.76C124.653 91.76 133.679 81.3014 133.679 68.4C133.679 55.4987 124.653 45.04 113.519 45.04C102.385 45.04 93.3594 55.4987 93.3594 68.4C93.3594 81.3014 102.385 91.76 113.519 91.76Z" fill="url(#paint3_radial_1614_52682)"/>
<path opacity="0.2" d="M98.4022 190.56C122.791 190.56 142.562 188.948 142.562 186.96C142.562 184.972 122.791 183.36 98.4022 183.36C74.0133 183.36 54.2422 184.972 54.2422 186.96C54.2422 188.948 74.0133 190.56 98.4022 190.56Z" fill="#232664"/>
<path d="M107.76 127.36H106V125.52H111.68V127.36H109.92V132.32H107.76V127.36Z" fill="#252468"/>
<path d="M99.1972 127.28V128.4H101.837V130.16H99.1972V132.32H97.1172V125.52H102.237V127.28H99.1972Z" fill="#252468"/>
<path d="M91.3594 125.52H93.4394V130.56H96.2394V132.32H91.3594V125.52Z" fill="#252468"/>
<path d="M90.4734 130.64V132.32H85.2734V125.52H90.3134V127.28H87.3534V128.08H89.9934V129.76H87.3534V130.64H90.4734Z" fill="#252468"/>
<path d="M81.5169 132.48C81.0369 132.48 80.4769 132.4 79.9969 132.32C79.5169 132.16 79.1169 132 78.7969 131.84L79.4369 130.16C79.7569 130.32 80.0769 130.48 80.3969 130.64C80.7969 130.72 81.1169 130.8 81.4369 130.8C81.7569 130.8 81.9169 130.8 82.0769 130.72C82.2369 130.64 82.2369 130.56 82.2369 130.48C82.2369 130.32 82.1569 130.24 81.9969 130.16C81.8369 130.08 81.5969 130 81.1969 129.92C80.7169 129.84 80.3169 129.68 79.9969 129.6C79.6769 129.44 79.3569 129.28 79.1969 128.96C78.9569 128.64 78.8769 128.32 78.8769 127.76C78.8769 127.36 78.9569 126.96 79.1969 126.56C79.4369 126.24 79.7569 125.92 80.1569 125.76C80.5569 125.52 81.1169 125.44 81.7569 125.44C82.1569 125.44 82.6369 125.52 83.0369 125.6C83.4369 125.68 83.8369 125.84 84.1569 126.08L83.5169 127.76C82.8769 127.44 82.3169 127.28 81.7569 127.28C81.1969 127.28 80.9569 127.44 80.9569 127.68C80.9569 127.84 81.0369 127.92 81.1969 128C81.3569 128.08 81.5969 128.16 81.9969 128.24C82.4769 128.32 82.8769 128.48 83.1969 128.56C83.5169 128.72 83.8369 128.88 84.0769 129.2C84.3169 129.52 84.4769 129.84 84.4769 130.4C84.4769 130.8 84.3969 131.2 84.1569 131.6C83.9169 131.92 83.5969 132.24 83.1969 132.4C82.6369 132.4 82.1569 132.48 81.5169 132.48Z" fill="#252468"/>
<path fill-rule="evenodd" clip-rule="evenodd" d="M104.079 124.56C104.639 124.56 105.119 125.04 105.119 125.6C105.119 126.16 104.639 126.64 104.079 126.64C103.519 126.64 103.039 126.16 103.039 125.6C103.039 124.96 103.519 124.56 104.079 124.56Z" fill="white"/>
<path fill-rule="evenodd" clip-rule="evenodd" d="M103.517 127.2H104.637C104.877 127.2 105.117 127.44 105.117 127.68V132.4H103.117V127.68C103.037 127.36 103.277 127.2 103.517 127.2Z" fill="white"/>
<path d="M113.435 35.76C112.955 35.44 112.475 35.04 111.995 34.72C112.315 34.24 112.635 33.68 112.875 33.2C114.395 34.24 115.915 35.36 117.275 36.64C116.955 37.12 116.635 37.68 116.315 38.16C115.915 37.76 115.435 37.36 114.955 36.96C114.075 38.4 113.195 39.84 112.395 41.2C111.915 40.72 111.435 40.32 110.875 39.92C111.675 38.64 112.555 37.2 113.435 35.76Z" fill="#252468"/>
<path d="M106.475 31.44C106.315 31.76 106.155 32.08 105.995 32.4C106.715 32.8 107.435 33.2 108.155 33.6C107.915 34.08 107.595 34.56 107.355 35.04C106.635 34.64 105.915 34.24 105.195 33.84C104.875 34.4 104.555 34.96 104.315 35.52C103.755 35.2 103.195 34.88 102.555 34.64C103.435 32.88 104.395 31.04 105.435 29.2C106.955 29.84 108.395 30.56 109.835 31.36C109.515 31.84 109.275 32.32 109.035 32.8C108.155 32.32 107.275 31.84 106.475 31.44Z" fill="#252468"/>
<path d="M100.162 27.36C100.802 27.52 101.442 27.76 102.082 27.92C101.362 29.28 100.722 30.56 100.082 31.92C100.882 32.24 101.762 32.56 102.562 32.88C102.322 33.36 102.082 33.84 101.842 34.24C100.482 33.6 99.0416 33.04 97.6016 32.56C98.3216 30.96 99.2016 29.2 100.162 27.36Z" fill="#252468"/>
<path d="M97.36 31.12C97.12 31.52 96.96 32 96.72 32.4C95.2 31.92 93.6 31.52 92 31.28C92.72 29.68 93.44 28 94.32 26.24C95.92 26.48 97.6 26.8 99.12 27.2C98.88 27.68 98.64 28.08 98.48 28.56C97.52 28.32 96.64 28.08 95.68 27.92C95.6 28.16 95.52 28.32 95.36 28.56C96.16 28.72 97.04 28.88 97.84 29.12C97.6 29.52 97.44 30 97.2 30.4C96.4 30.16 95.6 30 94.8 29.84C94.72 30.08 94.56 30.32 94.48 30.48C95.52 30.56 96.48 30.8 97.36 31.12Z" fill="#252468"/>
<path d="M88.4781 30.88C87.9981 30.8 87.5181 30.72 87.1181 30.64C86.7181 30.56 86.3181 30.4 86.0781 30.24C86.4781 29.84 86.7981 29.52 87.1981 29.12C87.4381 29.28 87.6781 29.36 87.9981 29.44C88.3181 29.52 88.6381 29.6 88.9581 29.6C89.1981 29.6 89.4381 29.6 89.5981 29.6C89.7581 29.6 89.8381 29.52 89.8381 29.44C89.9181 29.36 89.8381 29.28 89.6781 29.2C89.5181 29.12 89.2781 29.04 88.9581 28.96C88.5581 28.88 88.1581 28.72 87.9181 28.64C87.6781 28.56 87.4381 28.4 87.2781 28.16C87.1181 27.92 87.1181 27.68 87.2781 27.28C87.4381 26.96 87.5981 26.72 87.9981 26.4C88.3181 26.16 88.7181 25.92 89.1981 25.76C89.6781 25.6 90.2381 25.52 90.8781 25.6C91.2781 25.6 91.6781 25.68 92.0781 25.84C92.4781 25.92 92.7181 26.08 92.9581 26.32C92.5581 26.72 92.1581 27.12 91.7581 27.52C91.2781 27.2 90.7981 27.04 90.2381 27.04C89.6781 27.04 89.4381 27.12 89.2781 27.28C89.1981 27.36 89.2781 27.44 89.4381 27.52C89.5981 27.6 89.8381 27.68 90.1581 27.76C90.5581 27.84 90.9581 28 91.1981 28.08C91.4381 28.24 91.6781 28.4 91.8381 28.64C91.9981 28.88 91.9181 29.2 91.8381 29.52C91.6781 29.84 91.4381 30.08 91.1981 30.32C90.8781 30.56 90.4781 30.72 89.9981 30.8C89.5981 30.96 89.1181 30.96 88.4781 30.88Z" fill="#252468"/>
<path fill-rule="evenodd" clip-rule="evenodd" d="M111.839 31.36C112.319 31.6 112.399 32.24 112.159 32.72C111.839 33.2 111.279 33.36 110.799 33.04C110.319 32.72 110.159 32.16 110.479 31.68C110.799 31.28 111.439 31.12 111.839 31.36Z" fill="white"/>
<path fill-rule="evenodd" clip-rule="evenodd" d="M110.079 33.36C110.399 33.52 110.639 33.76 110.959 33.92C111.199 34.08 111.199 34.32 111.119 34.56C110.319 35.84 109.599 37.2 108.879 38.4C108.399 38 107.839 37.68 107.359 37.36C108.079 36.08 108.719 34.8 109.519 33.52C109.599 33.28 109.919 33.2 110.079 33.36Z" fill="white"/>
<defs>
<linearGradient id="paint0_linear_1614_52682" x1="41.8144" y1="90.9752" x2="41.8144" y2="102.769" gradientUnits="userSpaceOnUse">
<stop stop-color="white"/>
<stop offset="1" stop-color="#B4B7DC"/>
</linearGradient>
<linearGradient id="paint1_linear_1614_52682" x1="153.451" y1="89.2034" x2="153.451" y2="102.771" gradientUnits="userSpaceOnUse">
<stop stop-color="white"/>
<stop offset="1" stop-color="#B4B7DC"/>
</linearGradient>
<radialGradient id="paint2_radial_1614_52682" cx="0" cy="0" r="1" gradientUnits="userSpaceOnUse" gradientTransform="translate(82.5876 64.5409) scale(24.1999 25.9883)">
<stop stop-color="#54B848"/>
<stop offset="0.7056" stop-color="#54B848" stop-opacity="0"/>
</radialGradient>
<radialGradient id="paint3_radial_1614_52682" cx="0" cy="0" r="1" gradientUnits="userSpaceOnUse" gradientTransform="translate(113.044 68.6236) scale(24.1999 25.9883)">
<stop stop-color="#54B848"/>
<stop offset="0.7056" stop-color="#54B848" stop-opacity="0"/>
</radialGradient>
</defs>
</svg>
