<svg width="178" height="232" viewBox="0 0 178 232" fill="none" xmlns="http://www.w3.org/2000/svg">
<path d="M88.9976 206.218C138.093 206.218 177.894 166.418 177.894 117.322C177.894 68.2259 138.093 28.4258 88.9976 28.4258C39.9017 28.4258 0.101562 68.2259 0.101562 117.322C0.101562 166.418 39.9017 206.218 88.9976 206.218Z" fill="#F2F2F2"/>
<path fill-rule="evenodd" clip-rule="evenodd" d="M85.0722 40.3801C85.0722 40.3801 81.5565 39.3757 81.1547 36.9649C80.7529 34.4537 79.2462 32.8466 79.2462 32.8466L73.9225 29.9336C73.9225 30.1345 74.3243 31.139 74.3243 31.3399C75.0274 32.7461 75.9315 35.3578 74.023 37.7685C71.5118 40.8824 73.0185 42.7909 72.6167 44.398C72.2149 46.1056 66.5898 49.0186 66.5898 49.0186L86.2776 46.7083L85.0722 40.3801Z" fill="#2A2866"/>
<path fill-rule="evenodd" clip-rule="evenodd" d="M105.16 40.2778C105.16 40.2778 104.657 44.5971 106.968 46.2042C109.278 47.7109 110.383 51.3271 110.383 51.3271L100.74 55.5458L99.1328 50.8248L99.5346 45.3002L105.16 40.2778Z" fill="#2A2866"/>
<path d="M58.5518 230.225C56.2415 230.225 55.237 229.02 54.9357 228.317C54.4334 227.413 54.5339 226.107 55.0361 225.504C55.1366 225.303 55.4379 225.002 57.1455 223.897L57.5473 223.696C59.054 222.893 60.1589 222.29 60.8621 221.989C61.5652 221.687 66.2862 219.276 67.4916 218.473C67.6925 217.77 67.7929 215.459 67.7929 213.451V212.145L78.0386 210.136L78.139 211.843C78.2395 214.756 78.5408 218.372 78.6413 218.875C78.7417 219.176 79.0431 219.578 79.3444 220.08C80.2484 221.788 82.0565 224.902 79.244 227.011C77.9381 228.015 76.2305 228.116 74.7238 228.116C74.1211 228.116 73.418 228.116 72.7149 228.015C72.0117 228.015 71.4091 227.915 70.7059 227.915C69.8019 227.915 68.4961 227.915 67.592 228.417C65.2818 229.522 63.2728 229.723 61.967 229.723C61.5652 229.723 61.2639 229.723 61.063 229.723C60.0585 230.125 59.2549 230.225 58.5518 230.225Z" fill="#FFA083"/>
<path d="M76.5285 211.943C76.5285 211.943 76.8298 218.673 77.1312 219.376C77.8343 221.285 80.5464 224.097 78.2361 225.905C77.4325 226.609 76.1267 226.709 74.62 226.709C73.3142 226.709 71.9079 226.609 70.6021 226.609C69.1958 226.609 67.89 226.709 66.7851 227.211C64.6757 228.216 62.8676 228.316 61.8631 228.316C61.2605 228.316 60.8587 228.216 60.8587 228.216C59.9546 228.417 59.2515 228.517 58.6488 228.517C55.9368 228.517 56.1376 226.408 56.3385 226.207C56.5394 225.905 58.0461 225.001 58.0461 225.001C59.6533 224.097 60.8587 223.495 61.5618 223.193C62.2649 222.892 67.89 219.979 68.6936 219.376C69.5976 218.673 69.3967 213.149 69.3967 213.149L76.5285 211.943ZM79.341 208.327L75.9258 209.03L68.6936 210.437L66.1824 210.939L66.2828 213.55C66.3833 215.057 66.2828 216.664 66.1824 217.669C64.5752 218.573 60.9591 220.481 60.3564 220.783C59.5529 221.084 58.4479 221.687 56.9412 222.591L56.5394 222.792H56.439H56.3385C54.43 223.997 54.0282 224.499 53.8274 224.7C53.0238 225.805 52.9233 227.613 53.6265 229.12C54.0282 229.923 55.3341 231.832 58.6488 231.832C59.352 231.832 60.1555 231.731 61.0596 231.531C61.2605 231.531 61.5618 231.531 61.8631 231.531C63.2694 231.531 65.4793 231.33 68.0909 230.124C68.794 229.823 70.2003 229.823 70.6021 229.823C71.2048 229.823 71.9079 229.823 72.5106 229.923C73.2137 229.923 73.9168 230.024 74.62 230.024C76.3276 230.024 78.437 229.823 80.1446 228.517C83.9616 225.504 81.5508 221.184 80.6468 219.577C80.4459 219.276 80.245 218.874 80.1446 218.573C80.0441 217.669 79.8432 214.454 79.7428 211.843L79.341 208.327Z" fill="#2A2866"/>
<path d="M115.807 230.224C115.104 230.224 114.4 230.123 113.496 229.923C113.296 229.923 112.994 229.923 112.592 229.923C111.287 229.923 109.278 229.722 106.967 228.617C106.063 228.215 104.757 228.115 103.853 228.115C103.15 228.115 102.548 228.115 101.845 228.215C101.141 228.215 100.438 228.315 99.8356 228.315C98.3288 228.315 96.5208 228.215 95.3154 227.21C92.5029 225.001 94.3109 221.887 95.215 220.28C95.5163 219.777 95.7172 219.275 95.9181 218.974C96.0186 218.472 96.2194 214.956 96.4203 211.942L96.5208 210.235L106.766 212.244V213.55C106.666 215.659 106.766 217.869 107.068 218.572C108.273 219.376 112.994 221.786 113.697 222.088C114.4 222.389 115.505 222.992 117.012 223.795L117.313 223.996C119.021 225.101 119.322 225.402 119.423 225.603C119.925 226.306 119.925 227.512 119.523 228.416C119.021 229.019 118.117 230.224 115.807 230.224Z" fill="#FFA083"/>
<path d="M97.8268 211.943L105.059 213.35C105.059 213.35 104.858 218.874 105.762 219.577C106.666 220.28 112.191 223.093 112.894 223.394C113.597 223.696 114.802 224.298 116.41 225.202C116.41 225.202 117.816 226.106 118.117 226.408C118.318 226.709 118.519 228.718 115.807 228.718C115.204 228.718 114.501 228.618 113.597 228.417C113.597 228.417 113.195 228.517 112.593 228.517C111.588 228.517 109.78 228.316 107.671 227.412C106.566 226.91 105.26 226.809 103.854 226.809C102.548 226.809 101.142 226.91 99.8357 226.91C98.329 226.91 97.0232 226.709 96.2196 226.106C93.9093 224.298 96.6214 221.385 97.3246 219.577C97.5254 218.673 97.8268 211.943 97.8268 211.943ZM95.0143 208.327L94.8134 211.843C94.7129 214.454 94.512 217.568 94.4116 218.573C94.3111 218.874 94.1102 219.175 93.9093 219.577C93.0053 221.184 90.5946 225.504 94.4116 228.517C96.1192 229.823 98.2286 230.024 99.9362 230.024C100.639 230.024 101.342 230.024 102.046 229.923C102.749 229.923 103.351 229.823 103.954 229.823C104.356 229.823 105.762 229.823 106.465 230.124C108.976 231.33 111.287 231.531 112.693 231.531C112.994 231.531 113.296 231.531 113.497 231.531C114.401 231.731 115.104 231.832 115.907 231.832C119.122 231.832 120.427 229.923 120.93 229.12C121.633 227.613 121.532 225.805 120.729 224.7C120.528 224.399 120.126 223.897 118.218 222.792H118.117H118.017L117.615 222.591C116.108 221.787 114.903 221.184 114.2 220.783C113.597 220.481 109.981 218.673 108.374 217.769C108.273 216.865 108.173 215.158 108.273 213.651L108.374 211.039L105.863 210.537L98.6304 209.131L95.0143 208.327Z" fill="#2A2866"/>
<path d="M59.055 139.722C58.1509 139.722 57.4478 139.22 56.7447 138.517C56.0416 139.12 55.3384 139.12 55.1375 139.12H54.5348L54.1331 138.718C48.3071 132.992 49.412 118.93 49.5125 117.021C47.4031 102.858 51.2201 80.86 51.421 79.956L51.6219 78.9515L63.2738 76.7417L63.776 77.8466C66.9903 85.9829 58.8541 110.994 57.1465 116.017C58.5527 118.829 62.4702 127.568 61.0639 131.285C60.9635 131.586 60.5617 132.49 59.7581 132.892C61.1644 134.901 62.1688 136.809 61.1644 138.416C60.4612 139.521 59.5572 139.722 59.055 139.722Z" fill="#FFA083"/>
<path d="M62.3669 78.4504C65.6816 86.6871 55.5364 116.219 55.5364 116.219C55.5364 116.219 61.0611 127.268 59.6548 130.784C59.4539 131.286 59.253 131.487 59.1526 131.487C58.349 131.487 57.8467 126.062 56.4405 126.062C56.1391 126.062 55.9382 126.263 55.5364 126.665C53.6279 129.277 61.3624 135.505 59.9561 137.714C59.7552 138.116 59.4539 138.317 59.1526 138.317C57.8467 138.317 56.34 135.002 56.34 135.002C56.6414 137.714 55.2351 137.714 55.2351 137.714C49.5096 132.089 51.1168 117.022 51.1168 117.022C48.9069 102.96 53.0253 80.2584 53.0253 80.2584L62.3669 78.4504ZM64.2754 75.0352L61.8646 75.5374L52.4226 77.3454L50.4136 77.7472L50.0118 79.7562C49.8109 80.6602 45.8935 102.759 48.1033 117.123C47.802 120.036 46.9984 133.696 53.1257 139.824L54.0297 140.728H55.2351C55.7373 140.728 56.1391 140.627 56.6414 140.426C57.3445 140.929 58.1481 141.23 59.0521 141.23C60.3579 141.23 61.6637 140.527 62.4673 139.221C63.6727 137.212 62.9696 135.103 61.7642 133.094C62.0655 132.792 62.2664 132.29 62.4673 131.788C63.974 127.871 60.7597 120.036 58.7508 115.917C61.1615 108.886 68.4942 85.5821 65.1794 77.245L64.2754 75.0352Z" fill="#2A2866"/>
<path d="M115.103 139.722C114.6 139.722 113.696 139.521 112.993 138.416C111.989 136.809 112.993 134.9 114.399 132.891C113.596 132.59 113.194 131.686 113.094 131.284C111.687 127.568 115.605 118.829 117.011 116.016C115.303 110.994 107.268 85.681 110.582 77.5447L111.085 76.3394L122.536 78.951L122.737 79.9555C122.938 80.8595 126.754 102.857 124.645 117.021C124.846 118.929 125.85 132.891 120.025 138.717L119.623 139.119H119.02C118.819 139.119 118.116 139.119 117.413 138.516C116.71 139.219 116.007 139.722 115.103 139.722Z" fill="#FFA083"/>
<path d="M111.992 78.1485L121.233 80.2579C121.233 80.2579 125.351 102.959 123.141 117.022C123.141 117.022 124.749 132.089 119.023 137.714C119.023 137.714 117.617 137.714 117.918 135.002C117.918 135.002 116.411 138.317 115.106 138.317C114.804 138.317 114.503 138.116 114.302 137.714C112.896 135.504 120.63 129.276 118.722 126.665C118.42 126.263 118.119 126.062 117.818 126.062C116.411 126.062 115.909 131.486 115.106 131.486C114.905 131.486 114.804 131.285 114.603 130.783C113.197 127.167 118.722 116.218 118.722 116.218C118.722 116.218 108.677 86.3852 111.992 78.1485ZM110.184 74.6328L109.179 77.0436C105.865 85.3807 113.097 108.885 115.407 116.017C113.398 120.136 110.184 127.97 111.69 131.888C111.891 132.39 112.193 132.892 112.394 133.194C111.188 135.203 110.385 137.312 111.69 139.321C112.494 140.627 113.699 141.33 115.106 141.33C116.01 141.33 116.813 141.029 117.516 140.526C118.019 140.727 118.42 140.828 118.923 140.828H120.128L121.032 139.924C127.159 133.796 126.356 120.136 126.054 117.223C128.164 102.859 124.246 80.7601 124.146 79.8561L123.744 77.8471L121.836 77.4453L112.594 75.3359L110.184 74.6328Z" fill="#2A2866"/>
<path d="M100.941 217.267C98.5298 217.267 97.3244 216.162 96.7217 215.258L96.6213 215.057V214.856C96.6213 214.555 92.0007 185.927 91.9003 160.916C91.9003 158.706 91.398 155.19 90.7954 153.181C89.9918 150.369 88.8868 146.451 88.0833 142.333C86.8779 146.351 85.3712 150.268 84.2663 153.081C83.4627 155.19 82.6591 158.806 82.5587 161.217C81.8555 185.023 77.7372 214.655 77.7372 214.957V215.158L77.6367 215.358C77.034 216.262 75.8287 217.367 73.4179 217.367C71.1076 217.367 68.7974 216.363 68.6969 216.262L68.1947 216.062L68.0942 215.559C63.775 193.16 66.2862 159.309 66.4871 157.099C63.5741 132.69 66.1857 108.784 66.1857 108.583L66.2862 107.679H108.072L108.173 108.583C108.173 108.784 110.784 132.69 107.871 157.099C108.072 159.71 110.182 196.876 106.264 215.559L106.164 216.062L105.662 216.262C105.561 216.262 103.251 217.267 100.941 217.267Z" fill="#2A2866"/>
<path d="M107.065 108.683C107.065 108.683 109.777 132.489 106.764 157.099C106.764 157.099 109.174 196.374 105.156 215.358C105.156 215.358 102.947 216.363 100.837 216.363C99.5313 216.363 98.2255 215.961 97.5224 214.856C97.5224 214.856 92.9018 186.329 92.8013 161.016C92.8013 158.706 92.2991 155.09 91.596 152.981C90.3906 149.063 88.8839 143.338 88.0803 137.813C86.7745 143.237 84.6651 148.862 83.0579 152.78C82.1539 154.99 81.3503 158.807 81.2499 161.217C80.5468 185.224 76.4284 214.856 76.4284 214.856C75.7253 216.062 74.4195 216.363 73.1136 216.363C71.0042 216.363 68.7944 215.358 68.7944 215.358C64.2743 192.155 67.1872 157.099 67.1872 157.099C64.1738 132.489 66.8859 108.683 66.8859 108.683H107.065ZM108.873 106.674H107.065H67.0868H65.2787L65.0778 108.482C65.0778 108.683 62.3658 132.69 65.3792 157.099C65.0778 160.313 62.6671 193.16 66.9863 215.66L67.1872 216.664L68.0913 217.066C68.3926 217.167 70.7029 218.171 73.2141 218.171C76.0266 218.171 77.5333 216.865 78.2365 215.66L78.4374 215.258L78.5378 214.856C78.5378 214.555 82.6562 184.822 83.3593 161.016C83.4597 158.807 84.1629 155.291 84.9664 153.282C85.77 151.273 86.7745 148.762 87.6785 145.949C88.3817 148.762 89.0848 151.273 89.6875 153.282C90.2902 155.19 90.7924 158.706 90.7924 160.815C90.9933 186.028 95.5134 214.655 95.6139 214.957L95.7143 215.358L95.9152 215.66C96.6184 216.765 98.1251 218.171 100.938 218.171C103.449 218.171 105.759 217.167 106.06 217.066L106.964 216.664L107.165 215.66C111.083 197.077 108.973 160.313 108.772 157.099C111.685 132.59 109.074 108.683 109.074 108.382L108.873 106.674Z" fill="#2A2866"/>
<path d="M87.0802 113.807C79.848 113.807 73.2184 112.802 68.1961 110.894C67.0911 110.492 66.388 110.191 66.388 110.191L65.1826 109.688L65.5844 108.483C69.8032 94.2195 68.9996 81.8644 68.0956 75.7371C65.8858 80.1568 64.379 84.2752 64.379 84.2752L63.8768 85.6814L51.0195 81.3622L51.4213 79.9559C56.4437 62.679 61.8679 55.3463 64.7808 52.4333L64.8813 52.3329C67.9952 48.4154 79.2453 45.3016 80.4506 44.8998L80.752 44.7993L87.0802 45.7033L94.1115 44.8998L94.4128 45.0002C94.8146 45.1007 104.658 47.5114 108.475 51.3284L108.576 51.4288C114.402 56.3508 119.424 66.496 122.639 79.8555L122.94 81.1613L110.183 85.3801L109.681 83.9738C109.681 83.8734 108.074 79.5541 106.065 75.4358C105.161 82.2662 104.156 96.128 108.475 107.981L108.978 109.287L107.672 109.889C107.672 109.889 106.969 110.191 105.864 110.592C101.042 112.702 94.3124 113.807 87.0802 113.807Z" fill="white"/>
<path d="M80.8452 46.4062L87.0729 47.3102L94.1043 46.5067C94.1043 46.5067 103.848 48.817 107.363 52.4331C107.966 53.0357 115.901 58.4599 121.225 80.257L111.18 83.5718C111.18 83.5718 108.267 75.6364 105.354 71.0159C105.354 71.0159 100.935 91.708 107.162 108.684C107.162 108.684 106.56 108.985 105.455 109.387C100.533 111.295 93.8029 112.199 87.1734 112.199C80.4434 112.199 73.8139 111.295 68.8919 109.387C67.787 108.985 67.1843 108.684 67.1843 108.684C73.3116 87.891 68.8919 71.1163 68.8919 71.1163C65.4767 76.8418 63.066 83.6722 63.066 83.6722L53.0212 80.3575C58.9476 59.5648 65.6776 53.8393 66.0794 53.4375C68.8919 49.6205 80.8452 46.4062 80.8452 46.4062ZM80.6443 43.2923L80.0416 43.4932C77.9322 44.0959 67.0839 47.2098 63.6687 51.3281C60.7557 54.3416 55.0302 61.8751 50.1083 79.353L49.3047 82.1655L52.0168 83.0695L62.0615 86.3843L64.874 87.2883L65.8785 84.4758C65.8785 84.4758 66.3808 83.0695 67.1843 81.0606C67.5861 87.6901 67.2848 97.1322 64.1709 107.679L63.4678 110.19L65.7781 111.295C65.8785 111.295 66.4812 111.597 67.6866 112.099C72.8094 114.108 79.6398 115.112 87.0729 115.112C94.5061 115.112 101.336 114.007 106.459 112.099C107.665 111.697 108.267 111.295 108.368 111.295L110.879 110.09L109.875 107.478C106.56 98.5385 106.459 88.3933 106.962 81.161C107.765 83.0695 108.267 84.4758 108.267 84.4758L109.272 87.1879L112.084 86.2839L122.129 82.9691L124.741 82.0651L124.038 79.353C120.622 65.4912 115.6 55.346 109.473 50.1228L109.372 50.0223C105.254 45.904 95.7114 43.5937 94.7069 43.2923L94.2047 43.1919L93.7025 43.2923L87.0729 44.0959L81.247 43.2923H80.6443Z" fill="#2A2866"/>
<path d="M77.1334 48.9174C78.3387 52.1318 84.8678 53.0358 88.4839 53.0358C90.8947 53.0358 96.6202 52.7344 98.0264 49.6206C98.2273 49.1183 98.4282 48.5156 98.2273 47.7121C95.8166 46.9085 94.0085 46.5067 94.0085 46.5067L86.9772 47.3103L80.7495 46.4062C80.7495 46.4062 79.0419 46.9085 76.832 47.6116C76.9325 48.1139 77.0329 48.6161 77.1334 48.9174Z" fill="url(#paint0_linear_1614_51644)"/>
<path d="M88.3864 52.9376C85.1721 52.9376 79.547 52.2345 78.5425 49.422C78.2412 48.6184 78.2412 47.2121 79.9488 45.7054C81.0537 44.7009 82.5604 42.8929 83.0627 40.3817L83.1631 39.5781H93.911L93.7101 40.7835C93.7101 40.8839 93.3083 43.3951 95.6186 46.0068C97.2258 47.8148 97.0249 49.1206 96.7235 50.0247C95.5182 52.6363 90.4958 52.9376 88.3864 52.9376Z" fill="#FFA083"/>
<path d="M92.7054 40.5821C92.7054 40.5821 92.2032 43.5955 94.9153 46.6089C98.1296 50.225 93.509 51.8322 88.4866 51.8322C82.8616 51.8322 76.8347 49.8232 80.6517 46.408C81.8571 45.3031 83.5647 43.3946 84.067 40.5821H92.7054ZM95.1162 38.4727H92.7054H84.067H82.3594L82.058 40.1803C81.6562 42.3901 80.3504 43.9973 79.3459 44.9013C77.0356 46.9102 77.337 48.8187 77.6383 49.7228C79.145 53.6402 86.8795 53.8411 88.4866 53.8411C91.2992 53.8411 96.2211 53.3389 97.6274 50.3255C98.1296 49.2205 98.3305 47.4125 96.422 45.3031C94.5135 43.0932 94.7144 40.8834 94.7144 40.8834L95.1162 38.4727Z" fill="#2A2866"/>
<path opacity="0.65" d="M92.7021 40.5811H84.0636C83.8627 41.8869 83.3605 42.9918 82.7578 43.8958C83.8627 44.7998 85.269 45.503 86.7757 46.1057C87.5793 46.407 88.3829 46.407 89.1864 46.1057C90.1909 45.7039 91.5972 44.9003 93.0035 43.5945C92.5012 41.7864 92.7021 40.5811 92.7021 40.5811Z" fill="url(#paint1_linear_1614_51644)"/>
<path fill-rule="evenodd" clip-rule="evenodd" d="M96.0353 46.3069C94.5286 46.3069 92.9214 45.7042 90.9125 45.001H90.812H90.7116C90.0084 44.6997 89.3053 44.3984 88.7026 44.097C84.1825 42.0881 79.361 40.0791 79.0596 30.637C77.9547 25.3133 79.4614 19.8892 82.9771 16.474C84.5843 14.9672 86.7941 14.0632 89.4057 13.7619C90.9125 12.9583 92.6201 12.4561 94.4281 12.4561C97.542 12.4561 100.555 13.7619 102.564 15.8713C105.98 18.9851 105.377 23.1035 104.875 26.5187L104.774 27.4227C104.674 28.4272 104.674 29.2308 104.875 29.8335C106.783 34.3536 104.573 39.9787 101.56 43.4943L101.459 43.5948C99.7518 45.1015 98.1447 46.3069 96.0353 46.3069Z" fill="#FFA083"/>
<path d="M94.4297 13.8621C97.1418 13.8621 99.7534 14.967 101.461 16.775C104.575 19.5876 103.671 23.505 103.169 27.0207C103.068 28.0252 103.068 29.1301 103.37 30.1346C105.178 34.3533 102.767 39.4762 100.256 42.2887C98.4476 44.0968 97.3427 44.7999 95.836 44.7999C94.6306 44.7999 93.2243 44.2976 91.2154 43.5945C85.8917 41.0833 80.7688 40.2797 80.367 30.3354C79.3626 25.8153 80.367 20.6925 83.7823 17.3777C85.3894 15.871 87.4988 15.2683 89.7087 15.0674C91.2154 14.2638 92.8225 13.8621 94.4297 13.8621ZM94.4297 10.8486C92.4207 10.8486 90.5122 11.3509 88.9051 12.1545C86.0926 12.5562 83.6818 13.4603 81.9742 15.1679C78.1572 18.8844 76.4496 24.8108 77.655 30.6368C78.1572 40.8824 83.4809 43.2932 88.2019 45.3021C88.9051 45.6035 89.5078 45.9048 90.2109 46.2061L90.3113 46.3066L90.4118 46.407C92.6216 47.2106 94.3292 47.8133 96.0368 47.8133C98.8494 47.8133 100.858 46.2062 102.566 44.4985L102.666 44.3981L102.767 44.2976C105.78 40.6815 108.593 34.6547 106.383 29.1301C106.282 28.7283 106.282 28.1256 106.383 27.4225C106.383 27.1211 106.483 26.8198 106.483 26.6189C106.986 23.1032 107.588 18.3822 103.771 14.7661C101.361 12.2549 97.9454 10.8486 94.4297 10.8486Z" fill="#2A2866"/>
<path d="M106.271 20.3911C106.271 20.3911 105.467 19.3866 104.262 18.1812C103.458 17.3777 101.851 16.0718 100.445 14.9669C98.3354 13.2593 97.5318 12.5562 97.3309 12.2548L97.2305 11.9535L97.4314 11.6522C98.5363 10.3463 100.043 9.74365 101.55 9.74365C101.851 9.74365 102.052 9.74365 102.353 9.8441C102.856 9.94455 103.358 10.045 103.86 10.2459C104.362 10.5472 104.864 10.949 105.367 11.4513C107.777 14.3642 107.074 19.9893 107.074 20.1902L106.873 21.3956L106.271 20.3911Z" fill="#252468"/>
<path d="M101.652 10.2462C101.853 10.2462 102.155 10.2462 102.356 10.3466C102.858 10.4471 103.26 10.5475 103.661 10.7484C104.164 11.0498 104.565 11.3511 104.967 11.7529C107.277 14.5654 106.574 20.09 106.574 20.09C106.574 20.09 105.771 19.0856 104.565 17.8802C102.958 16.1726 98.1367 12.6569 97.8354 12.0542C98.7394 11.0498 99.9448 10.2462 101.652 10.2462ZM101.652 9.2417C99.9448 9.2417 98.3376 9.94483 97.1323 11.3511L96.7305 11.8533L97.0318 12.456C97.2327 12.8578 97.8354 13.4605 100.246 15.369C101.652 16.4739 103.159 17.7797 103.963 18.5833C105.168 19.7887 105.871 20.6927 105.972 20.7932L107.478 22.6012L107.78 20.2909C107.78 20.09 108.583 14.1636 105.972 11.1502C105.469 10.5475 104.967 10.1457 104.364 9.84438C103.862 9.54304 103.26 9.44259 102.657 9.34215C102.255 9.2417 101.954 9.2417 101.652 9.2417Z" fill="#252468"/>
<path d="M85.2812 24.2079C85.2812 24.2079 86.6875 22.8016 87.4911 22.7012C88.3951 22.6007 92.9153 22.7012 93.0157 21.9981C93.1162 20.7927 93.317 20.3909 92.0112 20.4913C91.3081 20.4913 87.692 20.8931 86.8884 21.4958C85.8839 22.0985 85.683 22.7012 85.2812 24.2079Z" fill="#2A2866"/>
<path d="M102.86 24.0071C102.86 24.0071 101.956 22.6008 101.253 22.6008C100.449 22.5004 96.5316 22.6008 96.8329 21.8977C97.2347 20.6923 97.0338 20.4914 98.1387 20.5919C98.641 20.5919 101.453 20.8932 101.956 21.3955C102.759 21.8977 102.759 22.5004 102.86 24.0071Z" fill="#2A2866"/>
<path d="M98.3398 26.9195C98.3398 27.8235 98.8421 28.6271 99.4448 28.6271C100.047 28.6271 100.55 27.8235 100.55 26.9195C100.55 26.0155 100.047 25.2119 99.4448 25.2119C98.8421 25.2119 98.3398 26.0155 98.3398 26.9195Z" fill="#252468"/>
<path d="M88.7969 26.6192C88.7969 27.5233 89.2991 28.3268 89.9018 28.3268C90.5045 28.3268 91.0067 27.5233 91.0067 26.6192C91.0067 25.7152 90.5045 24.9116 89.9018 24.9116C89.2991 24.9116 88.7969 25.7152 88.7969 26.6192Z" fill="#252468"/>
<path d="M93.4219 32.144C93.4219 32.144 94.2255 32.8472 95.1295 32.8472C96.0335 32.8472 96.8371 32.144 96.8371 32.144C96.8371 32.144 96.134 32.2445 95.1295 32.2445C94.2255 32.2445 93.4219 32.144 93.4219 32.144Z" fill="#2A2866"/>
<path fill-rule="evenodd" clip-rule="evenodd" d="M85.7852 3.01356C92.2138 -2.51105 104.569 13.5605 104.468 13.3597C104.468 13.2592 85.7852 3.01356 85.7852 3.01356Z" fill="#2A2866"/>
<path fill-rule="evenodd" clip-rule="evenodd" d="M100.852 5.62402C106.979 10.4455 104.769 17.9791 104.769 17.9791L100.852 5.62402Z" fill="url(#paint2_linear_1614_51644)"/>
<path fill-rule="evenodd" clip-rule="evenodd" d="M103.262 10.2465L101.354 11.7532L100.751 12.2555L100.55 12.4564L100.249 15.1684L94.4226 17.2778L93.0164 18.4832L92.2128 19.1863L90.907 20.2913L90.3043 20.7935L88.9985 21.798L87.5922 22.9029L87.3913 23.0033L86.9895 23.3047L86.8891 23.4051L86.4873 23.7065L85.4828 24.5101L83.7752 25.9163L83.1725 26.4186L81.6658 27.6239L81.264 27.9253L80.6613 28.4275L80.36 28.6284L79.8578 29.0302L79.7573 29.1306L79.6569 29.2311L79.5564 29.3315L78.9537 29.6329L78.8533 29.7333L78.3511 30.1351C78.2506 30.0347 78.0497 29.8338 77.7484 29.3315C77.6479 29.2311 77.6479 29.2311 77.6479 29.1306L77.5475 29.0302C77.5475 28.9298 77.447 28.9297 77.447 28.8293L77.3466 28.7289L77.2461 28.6284C77.1457 28.528 77.1457 28.528 77.1457 28.4275C77.0452 28.3271 76.9448 28.1262 76.8443 28.0257C76.8443 28.0257 76.8443 28.0257 76.8443 27.9253C76.6434 27.6239 76.4425 27.2221 76.1412 26.9208C76.0408 26.8204 76.0408 26.8204 76.0408 26.7199C75.9403 26.6195 75.8399 26.519 75.8399 26.3181C75.8399 26.2177 75.7394 26.1172 75.7394 26.1172C75.7394 26.1172 75.7394 26.0168 75.639 26.0168C75.639 25.9163 75.5385 25.9163 75.5385 25.8159C75.5385 25.8159 75.5385 25.8159 75.5385 25.7154C75.5385 25.615 75.4381 25.615 75.4381 25.5145C75.4381 25.5145 75.4381 25.5145 75.4381 25.4141C75.3376 25.3136 75.3376 25.2132 75.2372 25.1127C75.0363 24.711 74.7349 24.3092 74.6345 23.9074C74.534 23.8069 74.534 23.7065 74.4336 23.606C74.3332 23.4051 74.2327 23.3047 74.2327 23.1038C74.2327 23.0033 74.1323 23.0033 74.1323 22.9029C74.1323 22.9029 74.1323 22.8025 74.0318 22.8025C73.9314 22.6016 73.9314 22.4007 73.8309 22.1998C73.7305 21.9989 73.7305 21.798 73.7305 21.5971C73.7305 21.4966 73.7305 21.3962 73.7305 21.2957V21.1953C73.7305 20.9944 73.7305 20.894 73.7305 20.6931C73.7305 19.3872 73.7305 18.1819 73.8309 16.8761C73.8309 16.4743 73.9314 16.0725 73.9314 15.7711C73.9314 15.7711 73.9314 15.7711 73.9314 15.6707C73.9314 15.4698 74.0318 15.1684 74.0318 14.9676C74.2327 14.0635 74.4336 13.1595 74.6345 12.2555C74.8354 11.7532 75.0363 11.1505 75.2372 10.6483C75.3376 10.5479 75.3376 10.347 75.4381 10.2465C75.5385 10.0456 75.639 9.84473 75.7394 9.54339C75.8399 9.44294 75.8399 9.34249 75.9403 9.24204C76.0408 9.04115 76.1412 8.84025 76.2417 8.7398C76.3421 8.63936 76.4425 8.43846 76.543 8.33802L76.6434 8.23757C76.8443 8.03667 76.9448 7.83578 77.1457 7.63488C77.447 7.23309 77.7484 6.93175 78.0497 6.52996C78.1502 6.42951 78.351 6.22862 78.4515 6.12817C78.5519 6.02772 78.6524 5.92728 78.8533 5.82683C79.0542 5.72638 79.1546 5.52549 79.3555 5.42504C79.456 5.32459 79.6569 5.22414 79.8578 5.1237C79.9582 5.02325 80.0587 5.02325 80.1591 4.9228C80.1591 4.9228 80.1591 4.9228 80.2596 4.82235C81.264 4.21967 82.3689 3.71743 83.6748 3.41609C83.8757 3.31564 84.0766 3.31564 84.2775 3.31564C84.8801 3.21519 85.4828 3.11475 86.186 3.11475C86.5877 3.11475 86.9895 3.11475 87.3913 3.11475C90.8065 3.31564 96.8334 9.04115 99.8468 10.6483C99.9473 10.7488 97.637 6.42951 97.7374 6.52996C97.8379 6.52996 97.9383 6.63041 97.9383 6.63041C98.0388 6.73086 98.2397 6.73086 98.3401 6.8313C99.1437 7.33354 99.8468 7.73533 100.55 8.13712C102.057 9.24204 103.262 10.2465 103.262 10.2465Z" fill="#2A2866"/>
<path fill-rule="evenodd" clip-rule="evenodd" d="M107.784 34.8564C109.793 31.7425 111.601 27.7246 110.898 26.1174C110.898 26.017 110.797 26.017 110.797 25.9165C109.993 24.9121 109.29 24.6107 108.286 24.1085C106.88 23.5058 105.172 22.7022 103.063 19.8897C102.359 18.9857 101.656 17.8808 101.154 16.8763C99.9487 14.6664 99.2456 12.7579 98.8438 11.5526L93.9219 11.653L94.5246 9.64406C96.3326 3.21542 100.853 1.50781 103.163 1.50781C103.464 1.50781 103.665 1.50781 103.866 1.60826L104.067 1.70871L104.168 1.80915C105.072 2.31139 105.072 3.11497 104.971 4.92303V5.02347C104.871 6.22884 104.77 7.93645 104.871 9.7445V9.84495C104.871 10.9499 104.971 11.8539 105.072 12.6575C105.373 14.9678 106.076 16.4745 107.08 17.1776C109.29 18.8852 111.4 20.8942 112.906 22.7022C116.322 27.1219 115.92 29.834 114.915 31.3407C112.706 34.7559 110.094 36.564 109.993 36.6644L103.766 40.7828L107.784 34.8564Z" fill="#5DB075"/>
<path d="M103.063 3.11387C103.163 3.11387 103.264 3.11387 103.364 3.11387C103.464 3.11387 103.364 3.91745 103.364 4.92193C103.264 6.22774 103.163 8.0358 103.264 9.9443C103.264 10.9488 103.364 11.9532 103.565 12.9577C103.866 15.268 104.67 17.3774 106.176 18.4823C108.085 19.989 110.194 21.8975 111.701 23.8061C113.71 26.3172 114.815 28.9289 113.71 30.7369C111.701 33.8508 109.391 35.458 109.19 35.5584C109.391 35.2571 113.911 28.5271 112.404 25.3128C112.304 25.1119 112.203 25.0114 112.103 24.911C109.793 21.998 107.683 23.4043 104.368 18.9846C103.665 17.9801 103.063 17.0761 102.56 16.172C100.752 12.8573 100.049 10.0447 100.049 10.0447L96.0313 10.1452C97.6385 4.0179 101.857 3.11387 103.063 3.11387ZM103.063 0.100447C100.25 0.100447 95.0268 2.00895 92.9174 9.34161L91.8125 13.2591L95.9308 13.1586H97.7389C98.1407 14.364 98.8438 15.9711 99.7478 17.6788C100.351 18.7837 101.054 19.8886 101.757 20.8931C104.067 24.0069 106.076 24.911 107.583 25.5137C108.487 25.9154 108.989 26.1163 109.491 26.8195C109.692 27.7235 108.487 30.9378 106.478 33.9512L98.1407 46.4067L110.596 38.0696C110.898 37.8687 113.61 35.9602 115.92 32.3441C117.125 30.4356 117.828 27.0204 113.81 21.8976C112.304 19.989 110.094 17.8797 107.784 16.0716C107.482 15.8707 106.779 15.0671 106.377 12.4555C106.277 11.6519 106.176 10.7479 106.176 9.7434V9.54251C106.176 7.73446 106.277 6.1273 106.277 5.02237V4.92193C106.377 3.11387 106.478 1.40626 104.871 0.40179L104.67 0.200895L104.168 0C103.866 0.200895 103.565 0.100447 103.063 0.100447Z" fill="#2A2866"/>
<path fill-rule="evenodd" clip-rule="evenodd" d="M99.0413 6.52812C100.347 7.5326 100.448 11.9523 103.16 17.4769C102.356 16.0706 101.753 14.9657 101.753 14.9657C101.753 14.9657 98.5391 9.24021 95.9275 11.0483C95.827 11.0483 95.827 11.0483 95.7266 11.0483C95.7266 10.9478 97.5346 5.32275 99.0413 6.52812Z" fill="#2A2866"/>
<path fill-rule="evenodd" clip-rule="evenodd" d="M73.3281 19.3871C73.3281 19.3871 72.625 25.3135 74.0313 30.4363C75.4375 35.5591 77.0447 36.3627 75.6384 38.9743C74.2322 41.586 82.5693 41.7869 82.5693 41.7869L80.0581 34.4542C80.0581 34.4542 72.9263 27.3224 80.6608 20.1907C88.3952 13.0589 73.3281 19.3871 73.3281 19.3871Z" fill="#2A2866"/>
<path fill-rule="evenodd" clip-rule="evenodd" d="M75.3409 25.7155C75.3409 25.7155 76.948 22.7021 80.9659 26.1173C80.9659 26.1173 81.5686 26.72 82.2717 28.4276C82.2717 28.2267 82.2717 28.1263 82.3722 27.9254C82.3722 27.9254 82.3722 30.4366 82.6735 32.2446C82.2717 32.7469 81.9704 33.3495 81.669 33.9522C80.8655 34.1531 78.8565 33.8518 77.5507 32.7469C74.2359 29.633 75.3409 25.7155 75.3409 25.7155Z" fill="#F79F84"/>
<path fill-rule="evenodd" clip-rule="evenodd" d="M98.4387 36.5632C98.1374 37.2663 97.5347 38.6726 96.028 38.8735C93.7177 39.1748 89.3984 36.3623 89.3984 36.3623C89.5993 36.4628 89.6998 36.4628 89.9007 36.4628C93.7177 37.5677 96.8316 36.965 98.4387 36.5632Z" fill="#2A2866"/>
<path fill-rule="evenodd" clip-rule="evenodd" d="M99.3405 35.6592C99.1396 35.7596 98.8383 36.3623 98.4365 36.5632C96.8293 37.0654 93.7154 37.5677 89.8984 36.4628C93.3137 37.3668 94.2177 35.6592 97.7333 36.061C98.2356 36.1614 98.1351 36.2619 98.6374 36.2619C98.9387 36.2619 99.2401 35.6592 99.3405 35.6592Z" fill="#2A2866"/>
<path d="M90.3003 25.313C90.1998 25.313 90.1998 25.313 90.0994 25.313H89.9989C89.5971 25.313 89.1953 25.4135 88.6931 25.7148C88.6931 25.7148 88.5927 25.8153 88.4922 25.9157L88.3918 26.0162C87.4877 26.3175 86.5837 26.0162 86.3828 25.8153C86.3828 25.8153 87.0859 25.7148 87.4877 25.6144C88.1909 25.313 89.0949 25.0117 89.6976 25.0117C90.702 24.9112 91.4052 25.8153 91.4052 25.8153C91.3047 25.7148 90.8025 25.4135 90.3003 25.313Z" fill="#2A2866" stroke="#2A2866" stroke-width="0.5" stroke-miterlimit="10"/>
<path d="M98.6433 25.513C98.7437 25.513 98.7437 25.513 98.8442 25.513H98.9446C99.3464 25.513 99.7482 25.513 100.351 25.7139C100.351 25.7139 100.451 25.7139 100.552 25.8143C100.652 25.8143 100.652 25.9148 100.753 25.9148C101.757 26.0152 102.561 25.6134 102.661 25.513C102.661 25.513 101.958 25.513 101.556 25.4125C100.853 25.2116 99.8487 25.0107 99.3464 25.1112C98.342 25.2116 97.8397 26.1157 97.8397 26.1157C97.7393 26.1157 98.1411 25.7139 98.6433 25.513Z" fill="#2A2866" stroke="#2A2866" stroke-width="0.5" stroke-miterlimit="10"/>
<path d="M80.9609 24.3085C84.3762 18.1812 92.3115 11.7526 99.5437 14.2637C97.6352 13.5606 95.6263 13.0584 93.6173 13.3597C83.673 15.1678 80.9609 24.3085 80.9609 24.3085Z" fill="#5DB075"/>
<path d="M77.4453 17.3778C82.4677 12.4559 91.9097 8.63886 98.1375 13.0585C96.5303 11.8532 94.7223 10.8487 92.7133 10.5474C82.4677 9.04065 77.4453 17.3778 77.4453 17.3778Z" fill="#5DB075"/>
<path d="M95.624 11.05C93.615 7.23299 88.7936 3.21509 84.2734 4.62136C85.3784 4.21957 86.6842 3.91823 87.8895 4.11912C94.2177 5.22404 95.624 11.05 95.624 11.05Z" fill="#5DB075"/>
<path d="M77.4414 218.07C78.1446 218.572 80.254 219.677 80.7562 220.38C82.1625 222.289 83.7696 226.005 83.5687 229.521C83.4683 230.525 82.6647 231.831 80.7562 231.831C74.1267 231.831 65.0864 231.831 58.4569 231.731C56.8497 231.731 55.1421 231.731 53.5349 231.731C52.43 231.731 48.7135 230.525 50.622 227.612C54.3385 222.188 61.2694 220.481 67.1958 218.271C67.8989 220.882 68.7025 221.585 71.4146 221.385C72.5195 221.284 73.7249 221.184 74.8298 221.083C76.6379 220.782 77.2405 220.079 77.4414 218.07Z" fill="#2A2866"/>
<path d="M97.121 218.07C96.4178 218.572 94.3084 219.677 93.8062 220.38C92.3999 222.289 90.7928 226.005 90.9937 229.521C91.0941 230.525 91.8977 231.831 93.8062 231.831C100.436 231.831 109.476 231.831 116.106 231.731C117.713 231.731 119.42 231.731 121.027 231.731C122.132 231.731 125.849 230.525 123.94 227.612C120.224 222.188 113.293 220.481 107.367 218.271C106.663 220.882 105.86 221.585 103.148 221.385C102.043 221.284 100.838 221.184 99.7326 221.083C97.8241 220.782 97.3219 220.079 97.121 218.07Z" fill="#2A2866"/>
<mask id="mask0_1614_51644" style="mask-type:luminance" maskUnits="userSpaceOnUse" x="0" y="28" width="178" height="179">
<path d="M177.386 117.322C177.386 166.142 137.81 205.718 88.9898 205.718C40.17 205.718 0.59375 166.142 0.59375 117.322C0.59375 68.502 40.17 28.9258 88.9898 28.9258C137.81 28.9258 177.386 68.502 177.386 117.322Z" fill="white" stroke="white"/>
</mask>
<g mask="url(#mask0_1614_51644)">
<path d="M141.625 40.3794H164.828" stroke="#D7D8DA" stroke-width="2" stroke-miterlimit="10" stroke-linecap="round" stroke-linejoin="round"/>
<path d="M141.625 50.0225H164.828" stroke="#D7D8DA" stroke-width="2" stroke-miterlimit="10" stroke-linecap="round" stroke-linejoin="round"/>
<path d="M141.625 59.666H164.828" stroke="#D7D8DA" stroke-width="2" stroke-miterlimit="10" stroke-linecap="round" stroke-linejoin="round"/>
<path d="M141.625 69.3091H164.828" stroke="#D7D8DA" stroke-width="2" stroke-miterlimit="10" stroke-linecap="round" stroke-linejoin="round"/>
<path d="M141.625 78.9502H164.828" stroke="#D7D8DA" stroke-width="2" stroke-miterlimit="10" stroke-linecap="round" stroke-linejoin="round"/>
<path d="M141.625 88.4941H164.828" stroke="#D7D8DA" stroke-width="2" stroke-miterlimit="10" stroke-linecap="round" stroke-linejoin="round"/>
<path d="M141.625 98.1372H164.828" stroke="#D7D8DA" stroke-width="2" stroke-miterlimit="10" stroke-linecap="round" stroke-linejoin="round"/>
<path d="M141.625 107.781H164.828" stroke="#D7D8DA" stroke-width="2" stroke-miterlimit="10" stroke-linecap="round" stroke-linejoin="round"/>
<path d="M141.625 117.422H164.828" stroke="#D7D8DA" stroke-width="2" stroke-miterlimit="10" stroke-linecap="round" stroke-linejoin="round"/>
<path d="M141.625 127.065H164.828" stroke="#D7D8DA" stroke-width="2" stroke-miterlimit="10" stroke-linecap="round" stroke-linejoin="round"/>
<path d="M141.625 136.609H164.828" stroke="#D7D8DA" stroke-width="2" stroke-miterlimit="10" stroke-linecap="round" stroke-linejoin="round"/>
<path d="M141.625 146.252H164.828" stroke="#D7D8DA" stroke-width="2" stroke-miterlimit="10" stroke-linecap="round" stroke-linejoin="round"/>
<path d="M141.625 155.893H164.828" stroke="#D7D8DA" stroke-width="2" stroke-miterlimit="10" stroke-linecap="round" stroke-linejoin="round"/>
<path d="M141.625 165.536H164.828" stroke="#D7D8DA" stroke-width="2" stroke-miterlimit="10" stroke-linecap="round" stroke-linejoin="round"/>
<path d="M141.625 175.18H164.828" stroke="#D7D8DA" stroke-width="2" stroke-miterlimit="10" stroke-linecap="round" stroke-linejoin="round"/>
<path d="M141.625 184.723H164.828" stroke="#D7D8DA" stroke-width="2" stroke-miterlimit="10" stroke-linecap="round" stroke-linejoin="round"/>
</g>
<defs>
<linearGradient id="paint0_linear_1614_51644" x1="79.1696" y1="28.5059" x2="90.6234" y2="55.0131" gradientUnits="userSpaceOnUse">
<stop stop-color="#0E042C"/>
<stop offset="1" stop-color="#27008C"/>
</linearGradient>
<linearGradient id="paint1_linear_1614_51644" x1="80.7821" y1="-14.0748" x2="88.8985" y2="51.7106" gradientUnits="userSpaceOnUse">
<stop stop-color="#FFEFB0"/>
<stop offset="1" stop-color="#FF9F1D"/>
</linearGradient>
<linearGradient id="paint2_linear_1614_51644" x1="117.651" y1="20.1101" x2="106.152" y2="13.6615" gradientUnits="userSpaceOnUse">
<stop offset="0.0104009" stop-color="#E3214D"/>
<stop offset="1" stop-color="#98143E"/>
</linearGradient>
</defs>
</svg>
