<svg width="173" height="234" viewBox="0 0 173 234" fill="none" xmlns="http://www.w3.org/2000/svg">
<path d="M86.4078 206.013C134.13 206.013 172.816 167.509 172.816 120.013C172.816 72.5162 134.13 34.0127 86.4078 34.0127C38.6861 34.0127 0 72.5162 0 120.013C0 167.509 38.6861 206.013 86.4078 206.013Z" fill="#F2F2F2"/>
<path fill-rule="evenodd" clip-rule="evenodd" d="M81.3517 39.0667C81.3517 39.0667 77.9345 38.0949 77.5439 35.7627C77.1534 33.3333 75.6889 31.7785 75.6889 31.7785L70.5141 29.0576C70.5141 29.252 70.9047 30.2237 70.9047 30.4181C71.5881 31.7785 72.4669 34.3051 70.6118 36.6373C68.1709 39.6497 69.6354 41.496 69.2449 43.0508C68.8543 44.7028 63.3867 47.5209 63.3867 47.5209L82.5234 45.2859L81.3517 39.0667Z" fill="#2A2866"/>
<path fill-rule="evenodd" clip-rule="evenodd" d="M100.979 39.0645C100.979 39.0645 100.491 43.243 102.737 44.7978C104.982 46.2554 106.056 49.7537 106.056 49.7537L96.6833 53.8351L95.1211 49.2678L95.5116 43.9232L100.979 39.0645Z" fill="#2A2866"/>
<mask id="mask0_1614_51929" style="mask-type:luminance" maskUnits="userSpaceOnUse" x="0" y="34" width="173" height="173">
<path d="M172.327 120.014C172.327 167.232 133.867 205.514 86.4196 205.514C38.9717 205.514 0.511719 167.232 0.511719 120.014C0.511719 72.796 38.9717 34.5142 86.4196 34.5142C133.867 34.5142 172.327 72.796 172.327 120.014Z" fill="white" stroke="white"/>
</mask>
<g mask="url(#mask0_1614_51929)">
<path d="M89.1602 14.3838V52.1849" stroke="#D7D8DA" stroke-width="2" stroke-miterlimit="10" stroke-linecap="round" stroke-linejoin="round"/>
<path d="M56.2539 18.6606L67.9702 54.6154" stroke="#D7D8DA" stroke-width="2" stroke-miterlimit="10" stroke-linecap="round" stroke-linejoin="round"/>
<path d="M26.1758 32.9463L48.5344 63.5564" stroke="#D7D8DA" stroke-width="2" stroke-miterlimit="10" stroke-linecap="round" stroke-linejoin="round"/>
<path d="M2.16016 55.6821L32.9155 77.9352" stroke="#D7D8DA" stroke-width="2" stroke-miterlimit="10" stroke-linecap="round" stroke-linejoin="round"/>
<path d="M-13.7617 84.7373L22.4612 96.3983" stroke="#D7D8DA" stroke-width="2" stroke-miterlimit="10" stroke-linecap="round" stroke-linejoin="round"/>
<path d="M-19.8086 117.29H18.2694" stroke="#D7D8DA" stroke-width="2" stroke-miterlimit="10" stroke-linecap="round" stroke-linejoin="round"/>
<path d="M-15.418 150.04L20.7073 138.379" stroke="#D7D8DA" stroke-width="2" stroke-miterlimit="10" stroke-linecap="round" stroke-linejoin="round"/>
<path d="M-1.15625 179.873L29.5991 157.62" stroke="#D7D8DA" stroke-width="2" stroke-miterlimit="10" stroke-linecap="round" stroke-linejoin="round"/>
<path d="M170.681 184.342L139.926 162.089" stroke="#D7D8DA" stroke-width="2" stroke-miterlimit="10" stroke-linecap="round" stroke-linejoin="round"/>
<path d="M186.496 155.287L150.371 143.626" stroke="#D7D8DA" stroke-width="2" stroke-miterlimit="10" stroke-linecap="round" stroke-linejoin="round"/>
<path d="M192.547 122.733H154.566" stroke="#D7D8DA" stroke-width="2" stroke-miterlimit="10" stroke-linecap="round" stroke-linejoin="round"/>
<path d="M188.258 89.9858L152.035 101.647" stroke="#D7D8DA" stroke-width="2" stroke-miterlimit="10" stroke-linecap="round" stroke-linejoin="round"/>
<path d="M173.896 60.1528L143.141 82.4059" stroke="#D7D8DA" stroke-width="2" stroke-miterlimit="10" stroke-linecap="round" stroke-linejoin="round"/>
<path d="M151.058 36.1519L128.699 66.762" stroke="#D7D8DA" stroke-width="2" stroke-miterlimit="10" stroke-linecap="round" stroke-linejoin="round"/>
<path d="M121.861 20.4077L110.047 56.3625" stroke="#D7D8DA" stroke-width="2" stroke-miterlimit="10" stroke-linecap="round" stroke-linejoin="round"/>
</g>
<path d="M137.49 220.686L129.972 218.354L121.673 207.471C120.99 206.596 119.916 206.013 118.842 206.013H91.0157L78.2254 201.932L68.95 206.013H52.9377C51.8637 206.013 50.7897 206.596 50.1063 207.568L42.9788 217.382L35.0703 220.784V229.724C35.0703 231.862 36.6325 233.999 38.7805 233.999H133.78C136.026 233.999 137.49 231.959 137.49 229.724V220.686Z" fill="#2A2866"/>
<path d="M53.7352 199.598H118.077C119.151 199.598 120.128 200.084 120.811 201.055L135.359 220.49C137.409 223.211 135.749 227.584 132.625 227.584H39.9685C36.8441 227.584 35.1843 223.406 37.1371 220.587L50.9037 201.152C51.6848 200.181 52.6612 199.598 53.7352 199.598Z" fill="white" stroke="#2A2866" stroke-width="3" stroke-miterlimit="10"/>
<path d="M91.7116 222.433H80.7764C78.3355 222.433 76.2852 220.392 76.2852 217.963C76.2852 215.533 78.3355 213.493 80.7764 213.493H91.7116C94.1525 213.493 96.2029 215.533 96.2029 217.963C96.2029 220.489 94.1525 222.433 91.7116 222.433Z" fill="white" stroke="#2A2866" stroke-width="2" stroke-miterlimit="10"/>
<path d="M84.0938 213.592L86.2417 219.034L90.0495 213.592H84.0938Z" fill="#E85F59" stroke="#2A2866" stroke-width="2" stroke-miterlimit="10" stroke-linecap="round" stroke-linejoin="round"/>
<path d="M58.0174 136.142C57.1387 136.142 56.4552 135.656 55.7718 134.975C55.0883 135.558 54.4049 135.558 54.2096 135.558H53.6238L53.2333 135.17C47.668 129.631 48.5467 116.318 48.742 114.277C44.3484 96.1054 49.2302 79.4884 49.4255 78.711L49.816 77.4478L61.9229 80.0715L61.8252 81.3348C61.337 88.7201 56.8458 109.613 56.0647 113.208C57.334 115.832 61.337 124.383 59.8725 128.076C59.7749 128.368 59.3843 129.242 58.6032 129.631C59.9701 131.574 60.9465 133.421 59.9701 134.975C59.2867 135.947 58.408 136.142 58.0174 136.142Z" fill="#FFA083"/>
<path d="M50.8952 79.0994L60.3658 81.14C59.8777 89.1084 54.5077 113.305 54.5077 113.305C54.5077 113.305 59.8777 123.994 58.5108 127.395C58.3155 127.881 58.1202 128.076 58.0226 128.076C57.2415 128.076 56.7533 122.828 55.3864 122.828C55.0935 122.828 54.8982 123.023 54.5077 123.411C52.6526 125.938 60.1706 131.963 58.8037 134.1C58.6084 134.489 58.3155 134.684 58.0226 134.684C56.7533 134.684 55.2888 131.477 55.2888 131.477C55.5817 134.1 54.2148 134.1 54.2148 134.1C48.6495 128.659 50.2117 114.082 50.2117 114.082C45.7204 96.0078 50.8952 79.0994 50.8952 79.0994ZM48.8448 75.6982L48.0637 78.322C47.8684 79.0022 42.889 95.9107 47.2826 114.374C46.9897 117.484 46.3063 130.408 52.1644 136.238L53.0431 137.113H54.2148C54.703 137.113 55.0935 137.016 55.5817 136.821C56.2651 137.307 57.0462 137.599 57.9249 137.599C59.1942 137.599 60.4635 136.919 61.2446 135.655C62.4162 133.712 61.7328 131.671 60.5611 129.728C60.854 129.436 61.0493 128.95 61.2446 128.464C62.7091 124.577 59.4871 116.9 57.5344 112.916C58.6084 108.155 62.8067 88.5254 63.2949 81.3344L63.4902 78.8078L61.0493 78.322L51.5786 76.2813L48.8448 75.6982Z" fill="#2A2866"/>
<path d="M112.399 136.142C111.911 136.142 111.032 135.948 110.349 134.879C109.372 133.324 110.349 131.478 111.716 129.534C110.935 129.243 110.544 128.368 110.446 127.98C109.08 124.384 112.985 115.833 114.254 113.209C112.887 108.35 106.248 83.0846 109.47 75.2135L109.958 73.9502L121.772 78.0315L121.87 78.9061C121.967 79.7807 124.897 99.7988 121.577 114.181C121.772 116.221 122.749 129.534 117.086 135.073L116.695 135.462H116.109C115.914 135.462 115.231 135.462 114.547 134.879C113.961 135.656 113.278 136.142 112.399 136.142Z" fill="#FFA083"/>
<path d="M110.938 75.7981L120.604 79.1992C120.604 79.1992 123.729 99.8004 120.214 114.182C120.214 114.182 121.776 128.759 116.211 134.2C116.211 134.2 114.844 134.2 115.137 131.577C115.137 131.577 113.672 134.783 112.403 134.783C112.11 134.783 111.817 134.589 111.622 134.2C110.255 132.062 117.773 126.038 115.918 123.511C115.625 123.122 115.332 122.928 115.039 122.928C113.672 122.928 113.184 128.176 112.403 128.176C112.208 128.176 112.11 127.981 111.915 127.495C110.548 123.997 115.918 113.405 115.918 113.405C115.918 113.405 107.716 83.7665 110.938 75.7981ZM109.181 72.1055L108.107 74.7292C104.885 82.6976 110.841 106.117 112.696 113.113C110.743 117.098 107.619 124.677 109.083 128.564C109.278 129.05 109.571 129.536 109.767 129.827C108.595 131.771 107.814 133.812 109.083 135.755C109.864 137.018 111.036 137.699 112.403 137.699C113.282 137.699 114.063 137.407 114.746 136.921C115.234 137.116 115.625 137.213 116.113 137.213H117.285L118.163 136.338C124.119 130.508 123.338 117.583 123.045 114.474C126.462 99.8004 123.436 79.6851 123.338 78.8106L123.045 77.0614L121.385 76.4783L111.719 73.0772L109.181 72.1055Z" fill="#2A2866"/>
<path d="M98.6343 197.752C96.291 197.752 95.1194 196.683 94.5336 195.808V195.711V195.614C94.3383 195.128 89.2612 182.884 89.1636 158.493C89.1636 158.104 89.1636 157.521 89.1636 156.938C89.1636 154.606 89.2612 150.622 88.7731 149.067C88.0896 146.735 87.4062 137.795 86.7227 129.146C86.5274 126.717 86.3322 124.482 86.2345 122.441C84.2818 131.09 81.3527 144.986 80.5716 150.233C80.2787 152.274 80.1811 155.772 80.1811 158.104V158.785C79.4976 181.912 76.0804 195.42 76.0804 195.517V195.711L75.9827 195.808C75.3969 196.683 74.2253 197.752 71.882 197.752C69.6364 197.752 67.3908 196.78 67.2931 196.683L66.805 196.489L66.7073 195.906C64.4617 176.859 65.0475 154.801 65.1452 152.954C57.8225 120.303 63.4853 106.31 63.7783 105.727L64.0712 105.144H106.543L106.738 105.921C106.933 106.602 110.351 123.413 105.371 153.149C105.371 153.246 103.516 175.888 103.809 195.906V196.586L103.223 196.877C103.126 196.78 100.88 197.752 98.6343 197.752Z" fill="#2A2866"/>
<path d="M105.76 106.115C105.76 106.115 109.47 123.121 104.393 152.954C104.393 152.954 102.538 175.596 102.831 195.905C102.831 195.905 100.683 196.877 98.6323 196.877C97.363 196.877 96.0938 196.488 95.4103 195.419C95.4103 195.419 90.2356 183.175 90.0403 158.687C90.0403 156.452 90.2356 151.01 89.6498 148.97C88.4781 145.18 87.3065 121.955 86.5254 116.513C85.2562 121.761 80.472 143.333 79.5933 150.136C79.3004 152.468 79.2027 156.452 79.1051 158.784C78.4216 182.009 75.0044 195.322 75.0044 195.322C74.3209 196.488 73.0517 196.78 71.7824 196.78C69.732 196.78 67.584 195.808 67.584 195.808C65.2408 175.887 66.0219 152.857 66.0219 152.857C58.7968 120.011 64.655 106.115 64.655 106.115H105.76ZM107.322 104.172H105.76H64.655H63.3857L62.8975 105.338C62.6046 105.921 56.8441 120.109 64.0691 153.051C63.9715 155.577 63.4833 177.248 65.6313 196.002L65.729 197.071L66.7053 197.557C66.9982 197.654 69.2439 198.626 71.6847 198.626C74.4186 198.626 75.8831 197.363 76.5665 196.197L76.7618 195.905L76.8595 195.614C76.9571 195.031 80.3744 181.815 81.0578 158.59V157.91C81.1554 155.577 81.2531 152.176 81.4483 150.136C81.9365 146.152 83.8892 136.823 85.6467 128.854C85.6467 128.952 85.6467 128.952 85.6467 129.049C86.4278 139.349 87.0136 146.929 87.6971 149.164C88.0876 150.622 88.0876 154.606 88.0876 156.744C88.0876 157.424 88.0876 157.91 88.0876 158.396C88.2829 182.981 93.3599 195.322 93.5552 195.905L93.6528 196.099L93.7505 196.197C94.4339 197.266 95.8985 198.626 98.6323 198.626C101.073 198.626 103.319 197.654 103.612 197.557L104.783 197.071V195.808C104.49 176.47 106.15 154.606 106.346 153.148C111.325 123.315 107.81 106.407 107.712 105.727L107.322 104.172Z" fill="#2A2866"/>
<path d="M85.1642 110.98C78.1344 110.98 71.6904 110.009 66.8086 108.162C65.7346 107.774 65.0512 107.482 65.0512 107.482L63.8795 106.899L64.2701 105.636C69.4448 89.3104 67.1992 76.6777 65.637 71.0415C63.7819 75.9974 63.1961 81.8279 63.1961 81.9251L63.0008 83.8686L48.0625 77.6494L48.453 76.3861C53.2372 60.5466 56.9474 53.3556 62.6103 48.9828C66.4181 46.0675 77.6462 44.5127 78.9155 44.4155H79.1107L85.1642 45.2901L91.9011 44.5127H92.0963C93.5609 44.7071 106.644 46.1647 110.452 49.8573C110.452 49.8573 110.55 49.9545 110.647 49.9545C116.505 53.4528 120.899 62.7816 123.926 77.4551L124.219 78.7183L107.23 83.7714L107.132 81.9251C107.035 79.9816 106.546 75.5116 105.57 71.8189C104.398 79.3014 102.836 93.9748 106.058 105.733L106.351 106.899L105.277 107.385C105.277 107.385 104.594 107.677 103.52 108.065C98.7356 110.009 92.194 110.98 85.1642 110.98Z" fill="white"/>
<path d="M79.1104 45.8728L85.1638 46.7474L91.9983 45.97C91.9983 45.97 106.058 47.4276 109.573 50.9259C110.159 51.5089 117.677 53.8411 122.461 77.7462L108.596 81.8276C108.596 81.8276 107.913 70.9439 105.082 66.5711C105.082 66.5711 99.9068 89.1157 104.691 106.121C104.691 106.121 104.105 106.413 103.031 106.802C98.247 108.648 91.7054 109.522 85.2614 109.522C78.7198 109.522 72.2759 108.648 67.4917 106.802C66.4177 106.413 65.8319 106.121 65.8319 106.121C73.1546 82.8965 66.0272 67.1541 66.0272 67.1541C62.7075 72.6931 61.8288 81.8276 61.8288 81.8276L49.9172 76.8716C54.8967 60.3519 58.5092 54.1327 63.4886 50.1485C67.1012 47.3304 79.1104 45.8728 79.1104 45.8728ZM79.1104 42.8604L78.7198 42.9575C76.5718 43.2491 65.6366 44.7067 61.6335 47.9135C55.7754 52.4807 51.9676 59.866 46.9881 75.9971L46.3047 78.5236L48.7456 79.4954L60.6572 84.4513L64.3673 86.0061L64.7579 82.0219C64.7579 82.0219 64.9532 79.8841 65.539 77.1632C66.5153 83.6739 66.7106 93.4886 63.0004 105.247L62.2194 107.676L64.5626 108.745C64.6603 108.745 65.2461 109.037 66.4177 109.522C71.3971 111.466 78.0364 112.438 85.2614 112.438C92.4865 112.438 99.1258 111.369 104.105 109.522C105.277 109.134 105.863 108.745 105.96 108.745L108.206 107.676L107.522 105.344C105.57 98.4445 105.374 90.4761 105.765 83.5767L105.863 85.6174L109.378 84.5485L123.339 80.4671L125.878 79.6897L125.39 77.066C122.363 61.9067 117.677 52.2863 111.428 48.5937C107.23 44.7067 94.8298 43.2491 92.2912 42.9575H91.9983H91.7054L85.2614 43.7349L79.5986 42.9575L79.1104 42.8604Z" fill="#2A2866"/>
<path d="M75.5038 48.2985C76.6755 51.4081 83.0218 52.2827 86.5367 52.2827C88.88 52.2827 94.4452 51.9912 95.8121 48.9787C96.0074 48.4929 96.2027 47.9098 96.0074 47.1324C93.6641 46.355 91.9067 45.9663 91.9067 45.9663L85.0722 46.7437L79.0187 45.8691C79.0187 45.8691 77.3589 46.355 75.2109 47.0352C75.3086 47.5211 75.4062 47.9098 75.5038 48.2985Z" fill="url(#paint0_linear_1614_51929)"/>
<path d="M86.5324 52.0874C83.408 52.0874 77.9404 51.4071 76.9641 48.6862C76.6712 47.9088 76.6712 46.5484 78.331 45.0908C79.405 44.119 80.8695 42.3699 81.3577 39.9405L81.4553 39.1631H91.9024L91.7071 40.3292C91.7071 40.4264 91.3166 42.8557 93.5622 45.3823C95.1244 47.1314 94.9291 48.3947 94.6362 49.2693C93.3669 51.7958 88.4851 52.0874 86.5324 52.0874Z" fill="#FFA083"/>
<path d="M90.6256 40.1344C90.6256 40.1344 90.1375 43.0497 92.7736 45.9649C95.898 49.4632 91.4067 51.018 86.5249 51.018C81.0573 51.018 75.1992 49.0745 78.9093 45.7706C80.081 44.7016 81.7408 42.8553 82.2289 40.1344H90.6256ZM92.9689 38.1909H90.6256H82.2289H80.5691L80.2762 39.8429C79.8857 41.9807 78.6164 43.5355 77.6401 44.4101C75.3944 46.3536 75.6873 48.2 75.9802 49.0745C77.4448 52.8644 84.9628 53.0587 86.5249 53.0587C89.2587 53.0587 94.0429 52.5728 95.4098 49.6576C95.898 48.5887 96.0933 46.8395 94.2382 44.7988C92.3831 42.661 92.5784 40.5231 92.5784 40.5231L92.9689 38.1909Z" fill="#2A2866"/>
<path opacity="0.65" d="M90.6347 40.1343H82.238C82.0427 41.3976 81.5546 42.4665 80.9688 43.3411C82.0427 44.2156 83.4096 44.8959 84.8742 45.4789C85.6553 45.7704 86.4364 45.7704 87.2175 45.4789C88.1938 45.0902 89.5607 44.3128 90.9276 43.0495C90.4394 41.3976 90.6347 40.1343 90.6347 40.1343Z" fill="url(#paint1_linear_1614_51929)"/>
<path d="M103.127 199.404C104.494 200.085 105.763 200.668 107.032 201.348C110.254 203.097 112.988 205.332 115.234 208.247C115.526 208.733 115.819 209.122 115.624 209.705C115.331 210.288 114.843 210.288 114.257 210.288C107.325 210.288 100.49 210.288 93.5583 210.288C92.4843 210.288 92.1914 210.094 92.1914 208.927C92.1914 206.304 92.4843 203.68 93.1678 201.056C93.363 200.279 93.9489 199.793 94.1441 199.113C94.2418 199.404 94.2418 199.696 94.3394 199.987C94.5347 200.765 94.9252 201.445 95.7063 201.542C97.2685 201.737 98.9283 201.931 100.49 201.931C101.857 201.834 102.541 201.251 102.834 199.987C102.931 199.89 103.029 199.696 103.127 199.404Z" fill="#2A2866"/>
<path d="M76.0846 199.506C76.6704 199.895 76.9633 200.575 77.1586 201.256C77.9397 203.976 78.2326 206.697 78.0373 209.515C78.0373 210.293 77.5492 210.487 76.8657 210.487C71.2028 210.487 65.5399 210.487 59.877 210.487C58.5101 210.487 57.0456 210.487 55.6787 210.487C54.7023 210.487 54.2142 209.613 54.8 208.835C58.022 204.462 62.2203 201.547 67.2974 199.701C67.8832 201.839 68.5667 202.324 70.9099 202.13C71.8863 202.033 72.8626 202.033 73.839 201.936C75.4988 201.644 75.987 201.158 76.0846 199.506Z" fill="#2A2866"/>
<path d="M102.838 199.403C102.741 199.597 102.643 199.889 102.643 200.083C102.35 201.347 101.764 201.93 100.593 202.027C99.2257 202.124 97.7611 201.93 96.3942 201.638C95.7108 201.541 95.3202 200.861 95.2226 200.083C95.1249 199.792 95.1249 199.5 95.1249 199.209C95.2226 198.043 94.9297 196.877 94.832 195.808C95.8084 195.71 96.8824 195.808 97.8587 195.71C99.5186 195.516 101.178 195.71 102.838 195.419C103.131 195.419 103.522 195.419 103.815 195.419C103.619 196.391 103.326 197.362 103.131 198.334C102.838 198.82 102.838 199.112 102.838 199.403Z" fill="#FFA083" stroke="#2A2866" stroke-width="3" stroke-miterlimit="10" stroke-linecap="round" stroke-linejoin="round"/>
<path d="M75.3029 199.503C75.2053 201.155 74.7171 201.641 73.3502 201.835C72.4715 201.932 71.6904 202.029 70.8117 202.029C68.859 202.224 68.1755 201.738 67.6873 199.6C67.3944 198.337 67.1015 196.976 66.8086 195.713C69.7377 195.616 72.6668 195.616 75.5958 195.713C75.4982 196.879 75.4006 198.24 75.3029 199.503Z" fill="#FFA083" stroke="#2A2866" stroke-width="3" stroke-miterlimit="10" stroke-linecap="round" stroke-linejoin="round"/>
<path fill-rule="evenodd" clip-rule="evenodd" d="M92.097 44.7973C90.6325 44.7973 89.0703 44.2143 87.1176 43.534H87.02H86.9223C86.2389 43.2425 85.5554 42.951 84.9696 42.6595C80.576 40.716 75.8895 38.7725 75.5965 29.638C74.5226 24.4877 75.9871 19.2403 79.4044 15.9363C80.9665 14.4787 83.1145 13.6041 85.6531 13.3126C87.1176 12.5352 88.7774 12.0493 90.5349 12.0493C93.5616 12.0493 96.4906 13.3126 98.4434 15.3533C101.763 18.3657 101.177 22.3499 100.689 25.6538L100.591 26.5284C100.494 27.5002 100.494 28.2776 100.689 28.8606C102.544 33.2335 100.396 38.6753 97.467 42.0764L97.3694 42.1736C95.6119 43.7284 94.1474 44.7973 92.097 44.7973Z" fill="#FFA083"/>
<path d="M90.5354 13.4094C93.1716 13.4094 95.7101 14.4783 97.3699 16.2275C100.397 18.9484 99.5179 22.7382 99.0298 26.1393C98.9321 27.1111 98.9321 28.18 99.225 29.1518C100.982 33.2331 98.6392 38.189 96.1983 40.9099C94.4409 42.6591 93.3669 43.3393 91.9023 43.3393C90.7307 43.3393 89.3638 42.8534 87.4111 42.1732C82.2364 39.7438 77.2569 38.9664 76.8664 29.3461C75.89 24.9732 76.8664 20.0173 80.186 16.8105C81.7482 15.3529 83.7985 14.7698 85.9465 14.5755C87.4111 13.7981 88.9732 13.4094 90.5354 13.4094ZM90.5354 10.4941C88.5827 10.4941 86.7276 10.98 85.1654 11.7574C82.4316 12.1461 80.0884 13.0207 78.4286 14.6727C74.7184 18.2681 73.0586 24.0015 74.2302 29.6376C74.7184 39.5495 79.8931 41.8817 84.482 43.8252C85.1654 44.1167 85.7513 44.4082 86.4347 44.6998L86.5324 44.7969L86.63 44.8941C88.778 45.6715 90.4378 46.2546 92.0976 46.2546C94.8314 46.2546 96.7841 44.6998 98.4439 43.0478L98.5416 42.9506L98.6392 42.8534C101.568 39.3551 104.302 33.5246 102.154 28.18C102.056 27.7913 102.056 27.2083 102.154 26.528C102.154 26.2365 102.252 25.945 102.252 25.7506C102.74 22.3495 103.326 17.7823 99.6156 14.284C97.2723 11.9518 93.9527 10.4941 90.5354 10.4941Z" fill="#2A2866"/>
<path d="M102.053 19.7249C102.053 19.7249 101.272 18.7531 100.1 17.587C99.3191 16.8096 97.7569 15.5463 96.39 14.4774C94.3396 12.8254 93.5585 12.1452 93.3633 11.8537L93.2656 11.5622L93.4609 11.2706C94.5349 10.0074 95.9994 9.42432 97.464 9.42432C97.7569 9.42432 97.9522 9.42432 98.2451 9.52149C98.7332 9.61867 99.2214 9.71584 99.7096 9.91019C100.198 10.2017 100.686 10.5904 101.174 11.0763C103.517 13.8944 102.834 19.3362 102.834 19.5305L102.639 20.6966L102.053 19.7249Z" fill="#252468"/>
<path d="M97.5615 9.91218C97.7568 9.91218 98.0497 9.91218 98.245 10.0094C98.7331 10.1065 99.1237 10.2037 99.5142 10.3981C100.002 10.6896 100.393 10.9811 100.783 11.3698C103.029 14.0907 102.346 19.4353 102.346 19.4353C102.346 19.4353 101.565 18.4636 100.393 17.2975C98.8308 15.6455 94.1442 12.2444 93.8513 11.6613C94.6324 10.7868 95.9017 9.91218 97.5615 9.91218ZM97.5615 8.94043C95.9017 8.94043 94.3395 9.62066 93.1679 10.9811L92.7773 11.467L93.0702 12.05C93.2655 12.4387 93.8513 13.0218 96.1946 14.8681C97.5615 15.937 99.026 17.2003 99.8071 17.9777C100.979 19.1438 101.662 20.0184 101.76 20.1156L103.224 21.8647L103.517 19.6297C103.517 19.4353 104.298 13.702 101.76 10.7868C101.272 10.2037 100.783 9.81501 100.198 9.52348C99.7095 9.23196 99.1237 9.13478 98.5379 9.03761C98.0497 8.94043 97.8544 8.94043 97.5615 8.94043Z" fill="#252468"/>
<path d="M81.6562 23.517C81.6562 23.517 83.0232 22.1565 83.8042 22.0594C84.683 21.9622 89.0766 22.0594 89.1742 21.3792C89.2719 20.213 89.4671 19.8243 88.1979 19.9215C87.5144 19.9215 83.9995 20.3102 83.2184 20.8933C82.2421 21.3792 82.0468 22.0594 81.6562 23.517Z" fill="#2A2866"/>
<path d="M98.7453 23.2242C98.7453 23.2242 97.8666 21.8638 97.1831 21.8638C96.402 21.7666 92.5942 21.8638 92.8871 21.1835C93.2777 20.0174 93.0824 19.8231 94.1564 19.9203C94.6446 19.9203 97.3784 20.2118 97.8666 20.6977C98.6476 21.1835 98.6476 21.8638 98.7453 23.2242Z" fill="#2A2866"/>
<path d="M94.3477 26.0436C94.3477 26.9182 94.8358 27.6956 95.4217 27.6956C96.0075 27.6956 96.4956 26.9182 96.4956 26.0436C96.4956 25.169 96.0075 24.3916 95.4217 24.3916C94.8358 24.3916 94.3477 25.169 94.3477 26.0436Z" fill="#252468"/>
<path d="M85.0664 25.8517C85.0664 26.7263 85.5546 27.5037 86.1404 27.5037C86.7262 27.5037 87.2144 26.7263 87.2144 25.8517C87.2144 24.9771 86.7262 24.1025 86.1404 24.1025C85.5546 24.1025 85.0664 24.8799 85.0664 25.8517Z" fill="#252468"/>
<path d="M89.5586 31.1938C89.5586 31.1938 90.3397 31.8741 91.2184 31.8741C92.0971 31.8741 92.8782 31.1938 92.8782 31.1938C92.8782 31.1938 92.1948 31.291 91.2184 31.291C90.242 31.1938 89.5586 31.1938 89.5586 31.1938Z" fill="#2A2866"/>
<path fill-rule="evenodd" clip-rule="evenodd" d="M82.0469 2.91387C88.2956 -2.43076 100.305 13.1173 100.207 12.9229C100.207 12.8257 82.0469 2.91387 82.0469 2.91387Z" fill="#2A2866"/>
<path fill-rule="evenodd" clip-rule="evenodd" d="M96.7812 5.44092C102.737 10.1053 100.589 17.3935 100.589 17.3935L96.7812 5.44092Z" fill="url(#paint2_linear_1614_51929)"/>
<path fill-rule="evenodd" clip-rule="evenodd" d="M99.0331 9.91261L97.178 11.3702L96.5922 11.8561L96.3969 12.0505L96.104 14.6742L90.4412 16.7149L89.0743 17.881L88.2932 18.5612L87.0239 19.6301L86.4381 20.116L85.1688 21.0877L83.8019 22.1567L83.6066 22.2539L83.2161 22.5454L83.1185 22.6426L82.7279 22.9341L81.7516 23.7115L80.0917 25.0719L79.5059 25.5578L78.0414 26.7239L77.6508 27.0154L77.065 27.5013L76.7721 27.6957L76.2839 28.0844L76.1863 28.1815L76.0887 28.2787L75.991 28.3759L75.4052 28.6674V28.7646L74.917 29.1533C74.8194 29.0561 74.6241 28.8618 74.3312 28.3759C74.2336 28.2787 74.2336 28.2787 74.2336 28.1815L74.1359 28.0844C74.1359 27.9872 74.0383 27.9872 74.0383 27.89L73.9407 27.7928L73.843 27.6957C73.7454 27.5985 73.7454 27.5985 73.7454 27.5013C73.6478 27.4041 73.5501 27.2098 73.4525 27.1126C73.4525 27.1126 73.4525 27.1126 73.4525 27.0154C73.2572 26.7239 73.062 26.3352 72.769 26.0437C72.6714 25.9465 72.6714 25.9465 72.6714 25.8493C72.5738 25.7522 72.4761 25.655 72.4761 25.4606C72.4761 25.3635 72.3785 25.2663 72.3785 25.2663C72.3785 25.2663 72.3785 25.1691 72.2809 25.1691C72.2809 25.0719 72.1832 25.0719 72.1832 24.9748C72.1832 24.9748 72.1832 24.9748 72.1832 24.8776C72.1832 24.7804 72.0856 24.7804 72.0856 24.6832C72.0856 24.6832 72.0856 24.6832 72.0856 24.5861C71.988 24.4889 71.988 24.3917 71.8903 24.2945C71.695 23.9058 71.4021 23.5171 71.3045 23.1284C71.2069 23.0313 71.2069 22.9341 71.1092 22.8369C71.0116 22.6426 70.914 22.5454 70.914 22.351C70.914 22.2539 70.8163 22.2539 70.8163 22.1567C70.8163 22.1567 70.8163 22.0595 70.7187 22.0595C70.621 21.8652 70.6211 21.6708 70.5234 21.4765C70.4258 21.2821 70.4258 21.0878 70.4258 20.8934C70.4258 20.7962 70.4258 20.699 70.4258 20.6019V20.5047C70.4258 20.3104 70.4258 20.2132 70.4258 20.0188C70.4258 18.7555 70.4258 17.5894 70.5234 16.3262C70.5234 15.9375 70.6211 15.5488 70.6211 15.2572C70.6211 15.2572 70.6211 15.2572 70.6211 15.1601C70.6211 14.9657 70.7187 14.6742 70.7187 14.4798C70.914 13.6053 71.1092 12.7307 71.3045 11.8561C71.4998 11.3702 71.695 10.7872 71.8903 10.3013C71.988 10.2041 71.988 10.0098 72.0856 9.91261C72.1832 9.71826 72.2809 9.52391 72.3785 9.23239C72.4761 9.13521 72.4761 9.03804 72.5738 8.94086C72.6714 8.74651 72.769 8.55216 72.8667 8.45499C72.9643 8.35781 73.0619 8.16346 73.1596 8.06629L73.2572 7.96911C73.4525 7.77476 73.5501 7.58041 73.7454 7.38606C74.0383 6.99736 74.3312 6.70584 74.6241 6.31714C74.7218 6.21996 74.917 6.02561 75.0147 5.92844C75.1123 5.83126 75.2099 5.73409 75.4052 5.63691C75.6005 5.53974 75.6981 5.34539 75.8934 5.24821C75.991 5.15104 76.1863 5.05386 76.3816 4.95669C76.4792 4.85951 76.5768 4.85951 76.6745 4.76234C76.6745 4.76234 76.6745 4.76234 76.7721 4.66516C77.7485 4.08211 78.8225 3.59623 80.0917 3.30471C80.287 3.20753 80.4823 3.20753 80.6776 3.20753C81.2634 3.11036 81.8492 3.01318 82.5326 3.01318C82.9232 3.01318 83.3137 3.01318 83.7043 3.01318C87.0239 3.20753 92.8821 8.74651 95.8111 10.3013C95.9088 10.3985 93.6631 6.21996 93.7608 6.31714C93.8584 6.31714 93.9561 6.41431 93.9561 6.41431C94.0537 6.51149 94.249 6.51149 94.3466 6.60866C95.1277 7.09454 95.8111 7.48324 96.4946 7.87194C97.8615 8.94086 99.0331 9.91261 99.0331 9.91261Z" fill="#2A2866"/>
<path fill-rule="evenodd" clip-rule="evenodd" d="M103.521 33.7201C105.473 30.7077 107.231 26.8207 106.547 25.2659C106.547 25.1687 106.45 25.1687 106.45 25.0716C105.669 24.0998 104.985 23.8083 104.009 23.3224C102.642 22.7394 100.982 21.962 98.9317 19.2411C98.2483 18.3665 97.5648 17.2975 97.0767 16.3258C95.905 14.1879 95.2216 12.3416 94.831 11.1755L90.0469 11.2727L90.6327 9.32919C92.3901 3.10998 96.7838 1.45801 99.0294 1.45801C99.3223 1.45801 99.5176 1.45801 99.7128 1.55518L99.9081 1.65236L100.006 1.74953C100.884 2.23541 100.884 3.01281 100.787 4.76196V4.85914C100.689 6.02524 100.592 7.67721 100.689 9.42637V9.52354C100.689 10.5925 100.787 11.467 100.884 12.2444C101.177 14.4795 101.861 15.9371 102.837 16.6173C104.985 18.2693 107.036 20.2128 108.5 21.962C111.82 26.2377 111.429 28.8614 110.453 30.319C108.305 33.623 105.766 35.3721 105.669 35.4693L99.6152 39.4535L103.521 33.7201Z" fill="#5DB075"/>
<path d="M98.9313 3.01243C99.029 3.01243 99.1266 3.01243 99.2242 3.01243C99.3219 3.01243 99.2242 3.78983 99.2242 4.76158C99.1266 6.02486 99.029 7.77401 99.1266 9.62033C99.1266 10.5921 99.2242 11.5638 99.4195 12.5356C99.7124 14.7706 100.493 16.8113 101.958 17.8802C103.813 19.3378 105.863 21.1842 107.328 23.0305C109.281 25.4599 110.355 27.9864 109.281 29.7356C107.328 32.748 105.082 34.3028 104.887 34.4C105.082 34.1085 109.476 27.5977 108.011 24.4881C107.914 24.2938 107.816 24.1966 107.719 24.0994C105.473 21.2813 103.423 22.6418 100.201 18.3661C99.5171 17.3943 98.9313 16.5198 98.4431 15.6452C96.6857 12.4384 96.0022 9.71751 96.0022 9.71751L92.0968 9.81468C93.659 3.98418 97.7597 3.01243 98.9313 3.01243ZM98.9313 0.0971755C96.1975 0.0971755 91.1204 1.9435 89.0701 9.03728L87.9961 12.8271L91.9992 12.7299H93.7566C94.1472 13.896 94.8306 15.4508 95.7093 17.1028C96.2952 18.1717 96.9786 19.2407 97.6621 20.2124C99.9077 23.2248 101.86 24.0994 103.325 24.6825C104.204 25.0712 104.692 25.2655 105.18 25.9457C105.375 26.8203 104.204 29.9299 102.251 32.8452L94.1472 44.8949L106.254 36.8294C106.547 36.635 109.183 34.7887 111.429 31.2904C112.6 29.4441 113.284 26.1401 109.378 21.1842C107.914 19.3378 105.766 17.2972 103.52 15.548C103.227 15.3537 102.544 14.5763 102.153 12.0497C102.056 11.2723 101.958 10.3977 101.958 9.42598V9.23163C101.958 7.48248 102.056 5.92768 102.056 4.85875V4.76158C102.153 3.01243 102.251 1.36045 100.689 0.3887L100.493 0.19435L100.005 0C99.7124 0.19435 99.3219 0.0971755 98.9313 0.0971755Z" fill="#2A2866"/>
<path fill-rule="evenodd" clip-rule="evenodd" d="M95.0306 6.31411C96.2998 7.28587 96.3975 11.5616 99.0337 16.9062C98.2526 15.5457 97.6668 14.4768 97.6668 14.4768C97.6668 14.4768 94.5424 8.93784 92.0039 10.687C91.9062 10.687 91.9062 10.687 91.8086 10.687C91.8086 10.5898 93.566 5.14801 95.0306 6.31411Z" fill="#2A2866"/>
<path fill-rule="evenodd" clip-rule="evenodd" d="M70.0341 18.7549C70.0341 18.7549 69.3507 24.4882 70.7176 29.4442C72.0845 34.4001 73.6467 35.1775 72.2798 37.704C70.9129 40.2306 79.0167 40.4249 79.0167 40.4249L76.5758 33.3312C76.5758 33.3312 69.6436 26.4317 77.1616 19.5323C84.6795 12.6329 70.0341 18.7549 70.0341 18.7549Z" fill="#2A2866"/>
<path fill-rule="evenodd" clip-rule="evenodd" d="M71.8944 24.9753C71.8944 24.9753 73.4566 22.0601 77.362 25.364C77.362 25.364 77.9479 25.9471 78.6313 27.5991C78.6313 27.4047 78.6313 27.3075 78.729 27.1132C78.729 27.1132 78.7289 29.5426 79.0219 31.2917C78.6313 31.7776 78.3384 32.3606 78.0455 32.9437C77.2644 33.138 75.3117 32.8465 74.0424 31.7776C70.9181 28.7652 71.8944 24.9753 71.8944 24.9753Z" fill="#F79F84"/>
<path fill-rule="evenodd" clip-rule="evenodd" d="M94.4435 35.3711C94.1506 36.0513 93.5648 37.4118 92.1002 37.6061C89.8546 37.8977 85.6562 35.1768 85.6562 35.1768C85.8515 35.2739 85.9492 35.2739 86.1444 35.2739C89.8546 36.3429 92.8813 35.857 94.4435 35.3711Z" fill="#2A2866"/>
<path fill-rule="evenodd" clip-rule="evenodd" d="M95.3223 34.4966C95.127 34.5938 94.8341 35.1768 94.4436 35.3712C92.8814 35.857 89.8547 36.3429 86.1445 35.274C89.4642 36.1486 90.3429 34.4966 93.7601 34.8853C94.2483 34.9825 94.1507 35.0796 94.6389 35.0796C94.9318 35.0796 95.2247 34.4966 95.3223 34.4966Z" fill="#2A2866"/>
<path d="M86.5344 24.4885C86.4367 24.4885 86.4367 24.4885 86.3391 24.4885H86.2415C85.8509 24.4885 85.4604 24.5857 84.9722 24.8772C84.9722 24.8772 84.8746 24.9744 84.7769 25.0716L84.6793 25.1687C83.8006 25.4603 82.9218 25.1687 82.7266 24.9744C82.7266 24.9744 83.41 24.8772 83.8006 24.78C84.484 24.4885 85.3627 24.197 85.9486 24.197C86.9249 24.0998 87.6084 24.9744 87.6084 24.9744C87.4131 24.9744 87.0225 24.5857 86.5344 24.4885Z" fill="#2A2866" stroke="#2A2866" stroke-width="0.5" stroke-miterlimit="10"/>
<path d="M94.6399 24.6826C94.7375 24.6826 94.7375 24.6826 94.8352 24.6826H94.9328C95.3234 24.6826 95.7139 24.6826 96.2997 24.877C96.2997 24.877 96.3973 24.877 96.495 24.9741C96.5926 24.9741 96.5926 25.0713 96.6903 25.0713C97.6666 25.1685 98.4477 24.7798 98.5453 24.6826C98.5453 24.6826 97.8619 24.6826 97.4713 24.5854C96.7879 24.3911 95.8115 24.1967 95.3234 24.2939C94.347 24.3911 93.8588 25.2657 93.8588 25.2657C93.7612 25.2657 94.1517 24.877 94.6399 24.6826Z" fill="#2A2866" stroke="#2A2866" stroke-width="0.5" stroke-miterlimit="10"/>
<path d="M77.4492 23.5168C80.7688 17.5891 88.4821 11.3699 95.5119 13.7993C93.6568 13.119 91.7041 12.6332 89.7514 12.9247C80.0854 14.6738 77.4492 23.5168 77.4492 23.5168Z" fill="#5DB075"/>
<path d="M74.0391 16.8125C78.9209 12.051 88.0986 8.35831 94.1521 12.634C92.5899 11.4679 90.8325 10.4962 88.8797 10.2046C78.9209 8.84418 74.0391 16.8125 74.0391 16.8125Z" fill="#5DB075"/>
<path d="M91.6149 10.6878C89.6622 6.99519 84.9757 3.10818 80.582 4.46864C81.656 4.07994 82.9253 3.78841 84.0969 3.98276C90.3456 5.05169 91.6149 10.6878 91.6149 10.6878Z" fill="#5DB075"/>
<defs>
<linearGradient id="paint0_linear_1614_51929" x1="77.4937" y1="28.5347" x2="88.5383" y2="54.2163" gradientUnits="userSpaceOnUse">
<stop stop-color="#0E042C"/>
<stop offset="1" stop-color="#27008C"/>
</linearGradient>
<linearGradient id="paint1_linear_1614_51929" x1="79.0589" y1="-12.661" x2="86.8749" y2="50.9902" gradientUnits="userSpaceOnUse">
<stop stop-color="#FFEFB0"/>
<stop offset="1" stop-color="#FF9F1D"/>
</linearGradient>
<linearGradient id="paint2_linear_1614_51929" x1="113.089" y1="19.4794" x2="101.936" y2="13.1958" gradientUnits="userSpaceOnUse">
<stop offset="0.0104009" stop-color="#E3214D"/>
<stop offset="1" stop-color="#98143E"/>
</linearGradient>
</defs>
</svg>
