<svg width="31" height="8" viewBox="0 0 31 8" fill="none" xmlns="http://www.w3.org/2000/svg">
<path fill-rule="evenodd" clip-rule="evenodd" d="M26.6442 3.31963H25.0114V1.7325H30.1519V3.31963H28.5214V7.80698H26.6442V3.31963ZM19.0077 3.27624V4.31758H21.3325V5.8636H19.0077V7.80698H17.1306V1.7325H21.6567V3.27624H19.0077ZM11.9581 1.7325H13.8375V6.21985H16.3518V7.80698H11.9581V1.7325ZM11.1817 6.26324V7.80698H6.54817V1.7325H11.0766V3.27624H8.39563V3.98873H10.7501V5.46397H8.39563V6.26324H11.1817ZM3.17751 7.94629C2.72233 7.94667 2.26891 7.88989 1.82788 7.7773C1.44529 7.68726 1.0808 7.53281 0.75 7.32057L1.35517 5.82935C1.63289 6.00225 1.93239 6.13742 2.24579 6.23127C2.55208 6.33013 2.87165 6.38172 3.1935 6.38427C3.38213 6.39941 3.57185 6.3753 3.7507 6.31348C3.80018 6.2934 3.84251 6.25895 3.87223 6.21459C3.90194 6.17022 3.91768 6.11796 3.91741 6.06457C3.91477 5.99885 3.89119 5.9357 3.8501 5.88434C3.80902 5.83298 3.75258 5.79611 3.68905 5.77911C3.45559 5.68958 3.21494 5.62006 2.9697 5.5713C2.60376 5.49242 2.24423 5.38631 1.8941 5.25387C1.60147 5.13644 1.34421 4.94527 1.14735 4.69895C0.921779 4.39446 0.811709 4.01973 0.836778 3.64162C0.832996 3.27343 0.935263 2.91193 1.13137 2.60028C1.34508 2.27291 1.65104 2.01623 2.01057 1.86266C2.45896 1.67109 2.9436 1.57915 3.43099 1.59319C3.8103 1.5931 4.18826 1.63833 4.55683 1.72793C4.90081 1.80692 5.22999 1.94029 5.53195 2.123L4.96789 3.60737C4.49747 3.32566 3.96303 3.16847 3.41501 3.15064C2.93316 3.15064 2.6911 3.27852 2.6911 3.53201C2.69474 3.59357 2.71731 3.65251 2.75574 3.70074C2.79417 3.74898 2.84656 3.78416 2.90576 3.80148C3.13567 3.88709 3.37252 3.9528 3.61369 3.99787C3.97994 4.0674 4.33973 4.16747 4.68928 4.29703C4.98602 4.41176 5.248 4.60137 5.44973 4.84738C5.68174 5.14658 5.797 5.51995 5.77401 5.89786C5.77834 6.26469 5.676 6.62488 5.47942 6.93463C5.26535 7.26531 4.95883 7.52578 4.59794 7.68367C4.14936 7.87402 3.66449 7.96367 3.17751 7.94629Z" fill="white"/>
<path d="M23.3373 2.63447C23.8342 2.63447 24.237 2.23164 24.237 1.73472C24.237 1.23779 23.8342 0.834961 23.3373 0.834961C22.8403 0.834961 22.4375 1.23779 22.4375 1.73472C22.4375 2.23164 22.8403 2.63447 23.3373 2.63447Z" fill="#5DB075"/>
<path fill-rule="evenodd" clip-rule="evenodd" d="M22.8449 3.19141H23.8269C23.9349 3.1914 24.0386 3.23416 24.1152 3.31032C24.1918 3.38649 24.2351 3.48988 24.2357 3.59789V7.81121H22.4453V3.59789C22.4459 3.49144 22.488 3.38941 22.5626 3.3135C22.6372 3.23759 22.7385 3.19378 22.8449 3.19141Z" fill="#5DB075"/>
</svg>
