<svg width="165" height="165" viewBox="0 0 165 165" fill="none" xmlns="http://www.w3.org/2000/svg">
<g clip-path="url(#clip0_1614_51472)">
<path d="M89.8906 89.694C89.8906 89.694 96.5566 81.906 108.767 76.824C115.697 84.15 114.113 88.638 112.925 106.392C120.383 117.15 121.109 139.062 121.571 140.118C122.099 141.174 125.201 149.754 125.201 149.754L120.251 151.14L118.337 152.658C118.337 152.658 116.423 156.288 115.235 157.08C114.047 157.872 112.199 157.476 112.199 157.476L116.027 142.164C116.027 142.164 110.483 136.686 104.147 116.622C94.3126 105.534 96.4246 95.502 89.8906 89.694Z" fill="#FFA083" stroke="#2A2866" stroke-width="3" stroke-miterlimit="10"/>
<path d="M120.511 87.516C115.891 87.516 112.195 82.236 112.195 75.702C112.195 69.168 115.957 63.888 120.511 63.888C125.065 63.888 128.827 69.168 128.827 75.702C128.827 82.236 125.065 87.516 120.511 87.516Z" fill="#5DB075"/>
<path d="M120.509 64.878C124.469 64.878 127.835 69.828 127.835 75.702C127.835 81.576 124.469 86.526 120.509 86.526C116.549 86.526 113.183 81.576 113.183 75.702C113.117 69.828 116.483 64.878 120.509 64.878ZM120.509 62.898C115.361 62.898 111.203 68.64 111.203 75.702C111.203 82.764 115.361 88.506 120.509 88.506C125.657 88.506 129.815 82.764 129.815 75.702C129.815 68.64 125.657 62.898 120.509 62.898Z" fill="#2A2866"/>
<path d="M115.626 88.506C120.766 88.506 124.932 82.7735 124.932 75.702C124.932 68.6306 120.766 62.898 115.626 62.898C110.487 62.898 106.32 68.6306 106.32 75.702C106.32 82.7735 110.487 88.506 115.626 88.506Z" fill="#2A2866"/>
<path d="M112.923 88.506C118.063 88.506 122.229 82.7735 122.229 75.702C122.229 68.6306 118.063 62.898 112.923 62.898C107.784 62.898 103.617 68.6306 103.617 75.702C103.617 82.7735 107.784 88.506 112.923 88.506Z" fill="#5DB075"/>
<path d="M111.602 87.846C116.486 87.846 120.446 82.4089 120.446 75.702C120.446 68.995 116.486 63.558 111.602 63.558C106.717 63.558 102.758 68.995 102.758 75.702C102.758 82.4089 106.717 87.846 111.602 87.846Z" fill="#2A2866"/>
<path d="M120.382 65.604C120.382 65.604 113.716 60.06 108.766 66.198" stroke="#2A2866" stroke-width="3" stroke-miterlimit="10"/>
<path d="M108.172 85.8C108.172 85.8 114.772 91.344 120.514 85.206" stroke="#2A2866" stroke-width="2.8" stroke-miterlimit="10"/>
<path d="M112.921 165C110.017 154.638 110.413 150.678 107.773 134.31C68.0411 122.562 48.4391 140.778 48.4391 140.778C47.5151 154.704 46.7891 157.938 46.7891 165H112.921Z" fill="#2A2866" stroke="#2A2866" stroke-width="3" stroke-miterlimit="10"/>
<path d="M69.5604 61.974C69.5604 61.974 63.5544 62.04 57.2844 62.04C45.0744 62.04 39.0684 67.056 38.4744 75.966C38.1444 80.982 40.6524 87.252 44.4804 92.928C48.3084 98.604 54.3804 107.646 54.1164 111.474C53.9184 115.302 48.3744 136.224 48.3744 140.778C69.8904 136.62 91.2084 153.648 108.632 139.524C106.19 125.796 104.012 116.49 102.692 106.524C102.494 105.006 101.702 77.88 101.702 77.88C101.702 77.88 109.094 74.052 94.9044 69.498C86.3244 66.792 69.5604 61.974 69.5604 61.974Z" fill="white"/>
<mask id="mask0_1614_51472" style="mask-type:luminance" maskUnits="userSpaceOnUse" x="54" y="50" width="100" height="86">
<path d="M68.0239 69.5614C68.0239 69.5614 64.3386 74.304 60.4374 79.2122C52.8403 88.7702 53.0299 96.5926 59.6351 102.601C63.3563 105.981 69.8249 107.919 76.6499 108.454C83.4748 108.989 94.3309 109.861 97.1632 112.45C100.037 114.987 112.965 132.344 116.53 135.178C126.662 115.748 153.256 109.655 153.041 87.2275C140.775 80.5975 132.135 76.5123 123.512 71.3447C122.201 70.5552 100.474 54.2974 100.474 54.2974C100.474 54.2974 102.077 46.1292 89.6827 54.4036C82.226 59.4363 68.0239 69.5614 68.0239 69.5614Z" fill="white"/>
</mask>
<g mask="url(#mask0_1614_51472)">
<path d="M84.817 73.8889C86.9262 71.2353 84.9814 66.1792 80.473 62.5958C75.9647 59.0124 70.6001 58.2587 68.4909 60.9123C66.3817 63.566 68.3266 68.6221 72.8349 72.2055C77.3432 75.7889 82.7078 76.5426 84.817 73.8889Z" fill="#FFA083"/>
</g>
<mask id="mask1_1614_51472" style="mask-type:luminance" maskUnits="userSpaceOnUse" x="38" y="61" width="71" height="85">
<path d="M69.5604 61.974C69.5604 61.974 63.5544 62.04 57.2844 62.04C45.0744 62.04 39.0684 67.056 38.4744 75.966C38.1444 80.982 40.6524 87.252 44.4804 92.928C48.3084 98.604 54.3804 107.646 54.1164 111.474C53.9184 115.302 48.3744 136.224 48.3744 140.778C69.8904 136.62 91.2084 153.648 108.632 139.524C106.19 125.796 104.012 116.49 102.692 106.524C102.494 105.006 101.702 77.88 101.702 77.88C101.702 77.88 109.094 74.052 94.9044 69.498C86.3244 66.792 69.5604 61.974 69.5604 61.974Z" fill="white"/>
</mask>
<g mask="url(#mask1_1614_51472)">
<path opacity="0.2" d="M73.6562 36.828C73.6562 61.908 88.9683 82.236 107.778 82.236C126.588 82.236 141.9 61.908 141.9 36.828C141.9 11.748 125.4 44.682 106.524 44.682C87.6482 44.682 73.6562 11.682 73.6562 36.828Z" fill="#002634"/>
</g>
<mask id="mask2_1614_51472" style="mask-type:luminance" maskUnits="userSpaceOnUse" x="38" y="61" width="71" height="85">
<path d="M69.5604 61.974C69.5604 61.974 63.5544 62.04 57.2844 62.04C45.0744 62.04 39.0684 67.056 38.4744 75.966C38.1444 80.982 40.6524 87.252 44.4804 92.928C48.3084 98.604 54.3804 107.646 54.1164 111.474C53.9184 115.302 48.3744 136.224 48.3744 140.778C69.8904 136.62 91.2084 153.648 108.632 139.524C106.19 125.796 104.012 116.49 102.692 106.524C102.494 105.006 101.702 77.88 101.702 77.88C101.702 77.88 109.094 74.052 94.9044 69.498C86.3244 66.792 69.5604 61.974 69.5604 61.974Z" fill="white"/>
</mask>
<g mask="url(#mask2_1614_51472)">
<path opacity="0.2" d="M61.7734 112.596C63.2254 113.52 106.521 121.506 115.827 150.348C125.133 179.19 134.505 73.062 134.505 73.062L74.2474 95.7L61.7734 112.596Z" fill="#002634"/>
</g>
<path d="M69.5604 61.974C69.5604 61.974 63.5544 62.04 57.2844 62.04C45.0744 62.04 39.0684 67.056 38.4744 75.966C38.1444 80.982 40.6524 87.252 44.4804 92.928C48.3084 98.604 54.3804 107.646 54.1164 111.474C53.9184 115.302 48.3744 136.224 48.3744 140.778C69.8904 136.62 91.2084 153.648 108.632 139.524C106.19 125.796 104.012 116.49 102.692 106.524C102.494 105.006 101.702 77.88 101.702 77.88C101.702 77.88 109.094 74.052 94.9044 69.498C86.3244 66.792 69.5604 61.974 69.5604 61.974Z" stroke="#2A2866" stroke-width="3" stroke-miterlimit="10" stroke-linecap="round" stroke-linejoin="round"/>
<path d="M78.2703 51.942C78.2703 51.942 79.7883 66.33 79.7883 67.782C79.7883 72.138 71.8023 70.092 68.8983 67.254C66.0603 64.416 63.1562 42.174 63.1562 42.174C63.1562 42.174 72.0003 59.466 78.2703 51.942Z" fill="#FFA083"/>
<mask id="mask3_1614_51472" style="mask-type:luminance" maskUnits="userSpaceOnUse" x="63" y="42" width="17" height="29">
<path d="M78.2703 51.942C78.2703 51.942 79.7883 66.33 79.7883 67.782C79.7883 72.138 71.8023 70.092 68.8983 67.254C66.0603 64.416 63.1562 42.174 63.1562 42.174C63.1562 42.174 72.0003 59.466 78.2703 51.942Z" fill="white"/>
</mask>
<g mask="url(#mask3_1614_51472)">
<path opacity="0.5" d="M65.6641 48.576C65.6641 48.576 68.7001 67.122 88.5001 65.736L84.6721 54.846L65.6641 48.576Z" fill="#D86D50"/>
</g>
<path d="M63.9524 78.87C63.9524 78.87 45.9344 79.53 42.8984 88.44C42.8984 88.44 52.3364 112.794 65.2064 115.632C74.5124 117.678 103.486 89.43 103.486 89.43C103.486 89.43 104.674 84.15 99.5264 84.81C76.5584 87.78 68.9684 96.624 68.9684 96.624C69.3644 86.988 65.4704 81.51 63.9524 78.87Z" fill="#FFA083"/>
<mask id="mask4_1614_51472" style="mask-type:luminance" maskUnits="userSpaceOnUse" x="42" y="78" width="62" height="38">
<path d="M63.9524 78.87C63.9524 78.87 45.9344 79.53 42.8984 88.44C42.8984 88.44 52.3364 112.794 65.2064 115.632C74.5124 117.678 103.486 89.43 103.486 89.43C103.486 89.43 104.674 84.15 99.5264 84.81C76.5584 87.78 68.9684 96.624 68.9684 96.624C69.3644 86.988 65.4704 81.51 63.9524 78.87Z" fill="white"/>
</mask>
<g mask="url(#mask4_1614_51472)">
<path opacity="0.5" d="M39.463 82.104C39.463 82.104 51.409 106.722 63.949 112.662C67.777 114.51 98.203 94.314 98.203 94.314L69.559 124.938L47.647 117.678L36.625 96.69L39.463 82.104Z" fill="#D86D50"/>
</g>
<path d="M63.9524 78.87C63.9524 78.87 45.9344 79.53 42.8984 88.44C42.8984 88.44 52.3364 112.794 65.2064 115.632C74.5124 117.678 103.486 89.43 103.486 89.43C103.486 89.43 104.674 84.15 99.5264 84.81C76.5584 87.78 68.9684 96.624 68.9684 96.624C69.3644 86.988 65.4704 81.51 63.9524 78.87Z" stroke="#2A2866" stroke-width="3" stroke-miterlimit="10"/>
<path d="M101.898 91.08C101.898 91.08 110.61 82.236 111.138 79.926C112.326 74.448 103.614 70.488 103.614 70.488L94.8359 72.006L95.7599 84.018" fill="#FFA083"/>
<path d="M101.898 91.08C101.898 91.08 110.61 82.236 111.138 79.926C112.326 74.448 103.614 70.488 103.614 70.488L94.8359 72.006L95.7599 84.018" stroke="#2A2866" stroke-width="3" stroke-miterlimit="10"/>
<path d="M95.1051 87.516C90.4851 87.516 86.7891 82.236 86.7891 75.702C86.7891 69.168 90.5511 63.888 95.1051 63.888C99.6591 63.888 103.421 69.168 103.421 75.702C103.421 82.236 99.6591 87.516 95.1051 87.516Z" fill="#5DB075"/>
<path d="M95.1029 64.878C99.0629 64.878 102.429 69.828 102.429 75.702C102.429 81.576 99.0629 86.526 95.1029 86.526C91.1429 86.526 87.7769 81.576 87.7769 75.702C87.7109 69.828 91.0769 64.878 95.1029 64.878ZM95.1029 62.898C89.9549 62.898 85.7969 68.64 85.7969 75.702C85.7969 82.764 89.9549 88.506 95.1029 88.506C100.251 88.506 104.409 82.764 104.409 75.702C104.409 68.64 100.251 62.898 95.1029 62.898Z" fill="#2A2866"/>
<path d="M90.1576 88.506C95.2971 88.506 99.4636 82.7735 99.4636 75.702C99.4636 68.6306 95.2971 62.898 90.1576 62.898C85.018 62.898 80.8516 68.6306 80.8516 75.702C80.8516 82.7735 85.018 88.506 90.1576 88.506Z" fill="#2A2866"/>
<path d="M87.5169 88.506C92.6565 88.506 96.8229 82.7735 96.8229 75.702C96.8229 68.6306 92.6565 62.898 87.5169 62.898C82.3774 62.898 78.2109 68.6306 78.2109 75.702C78.2109 82.7735 82.3774 88.506 87.5169 88.506Z" fill="#5DB075"/>
<path d="M86.1956 87.846C91.08 87.846 95.0396 82.4089 95.0396 75.702C95.0396 68.995 91.08 63.558 86.1956 63.558C81.3112 63.558 77.3516 68.995 77.3516 75.702C77.3516 82.4089 81.3112 87.846 86.1956 87.846Z" fill="#2A2866"/>
<path d="M94.8426 65.34C94.8426 65.34 88.1766 59.796 83.2266 65.934" stroke="#2A2866" stroke-width="3" stroke-miterlimit="10"/>
<path d="M82.6328 85.536C82.6328 85.536 89.7608 91.08 95.4368 84.942" stroke="#2A2866" stroke-width="2.8" stroke-miterlimit="10"/>
<path d="M119.785 161.238C115.165 161.238 111.469 155.958 111.469 149.424C111.469 142.89 115.231 137.61 119.785 137.61C124.339 137.61 128.101 142.89 128.101 149.424C128.101 155.958 124.405 161.238 119.785 161.238Z" fill="#5DB075"/>
<path d="M119.783 138.666C123.743 138.666 127.109 143.616 127.109 149.49C127.109 155.364 123.743 160.314 119.783 160.314C115.823 160.314 112.457 155.364 112.457 149.49C112.457 143.616 115.823 138.666 119.783 138.666ZM119.783 136.686C114.635 136.686 110.477 142.428 110.477 149.49C110.477 156.552 114.635 162.294 119.783 162.294C124.931 162.294 129.089 156.552 129.089 149.49C129.089 142.362 124.931 136.686 119.783 136.686Z" fill="#2A2866"/>
<path d="M124.665 162.228C129.805 162.228 133.971 156.495 133.971 149.424C133.971 142.353 129.805 136.62 124.665 136.62C119.526 136.62 115.359 142.353 115.359 149.424C115.359 156.495 119.526 162.228 124.665 162.228Z" fill="#2A2866"/>
<path d="M127.376 162.228C132.516 162.228 136.682 156.495 136.682 149.424C136.682 142.353 132.516 136.62 127.376 136.62C122.237 136.62 118.07 142.353 118.07 149.424C118.07 156.495 122.237 162.228 127.376 162.228Z" fill="#5DB075"/>
<path d="M128.625 161.568C133.51 161.568 137.469 156.131 137.469 149.424C137.469 142.717 133.51 137.28 128.625 137.28C123.741 137.28 119.781 142.717 119.781 149.424C119.781 156.131 123.741 161.568 128.625 161.568Z" fill="#2A2866"/>
<path d="M119.914 159.522C119.914 159.522 126.58 165.066 131.53 158.928" stroke="#2A2866" stroke-width="3" stroke-miterlimit="10"/>
<path d="M132.123 139.392C132.123 139.392 125.523 133.848 119.781 139.986" stroke="#2A2866" stroke-width="2.8" stroke-miterlimit="10"/>
<path d="M56.5586 39.732C56.4926 39.006 56.3606 38.214 56.1626 37.356C55.1726 32.406 52.9946 27.06 51.8066 24.156C51.4106 23.166 51.1466 22.572 51.0806 22.308C50.6846 20.724 61.8386 11.55 63.8186 10.89C63.9506 10.824 64.1486 10.824 64.3466 10.824C64.8746 10.824 65.4026 11.022 65.9966 11.22C66.7886 11.484 67.7126 11.814 68.7026 11.814C68.9666 11.814 69.2306 11.814 69.4946 11.748C69.6266 11.748 69.7586 11.682 69.8246 11.682H69.8906H69.9566C70.0226 11.682 70.0226 11.682 70.0886 11.616C71.4086 11.22 73.1246 10.758 74.7746 10.758C76.6886 10.758 78.2726 11.286 79.5926 12.408C79.9226 12.672 80.3186 13.068 80.7806 13.53C81.0446 13.86 81.3086 14.124 81.5726 14.52C82.2326 15.444 82.9586 16.5 83.6186 17.556C85.0046 19.932 86.5886 23.232 86.7866 25.41C86.8526 25.938 86.7866 26.4 86.6546 26.73C86.4566 27.126 85.9946 28.248 73.8506 33.396C70.6826 34.716 66.9866 36.234 62.7626 37.884C61.9706 38.214 59.3306 39.204 59.3306 39.204C57.8786 39.732 56.9546 40.128 56.9546 40.128L56.5586 40.26V39.732Z" fill="#252468"/>
<path d="M74.8402 11.022C76.4242 11.022 78.0082 11.418 79.4602 12.606C79.7902 12.87 80.1862 13.266 80.5822 13.728C80.8462 13.992 81.1102 14.322 81.3742 14.718C82.0342 15.576 82.6942 16.632 83.3542 17.688C84.9382 20.394 86.3242 23.496 86.4562 25.344C86.5222 25.806 86.4562 26.202 86.3242 26.532C85.8622 27.654 80.0542 30.36 73.7182 33C69.8902 34.65 65.7982 36.234 62.6302 37.488C61.8382 37.818 61.0462 38.082 60.3862 38.346C59.9242 38.544 59.5282 38.676 59.1982 38.808C57.7462 39.336 56.8222 39.732 56.8222 39.732C56.7562 38.94 56.6242 38.148 56.4262 37.356C55.1062 30.69 51.6082 23.298 51.3442 22.242C51.1462 21.12 61.6402 12.012 63.9502 11.22C64.0822 11.154 64.2142 11.154 64.3462 11.154C65.4022 11.154 66.8542 12.144 68.7022 12.144C68.9662 12.144 69.2962 12.144 69.5602 12.078C69.6922 12.078 69.8242 12.012 70.0222 12.012C70.0882 12.012 70.1542 12.012 70.2202 11.946C71.6722 11.418 73.2562 11.022 74.8402 11.022ZM74.8402 10.362C73.1242 10.362 71.3422 10.824 70.0222 11.22H69.9562H69.8242L69.7582 11.286C69.6262 11.286 69.5602 11.352 69.4282 11.352C69.1642 11.418 68.9002 11.418 68.6362 11.418C67.6462 11.418 66.7882 11.154 66.0622 10.89C65.4022 10.692 64.8742 10.494 64.2802 10.494C64.0822 10.494 63.8182 10.56 63.6202 10.626C62.3002 11.088 58.9342 13.728 56.1622 16.17C50.3542 21.252 50.5522 22.11 50.6842 22.506C50.7502 22.77 50.9482 23.364 51.4102 24.42C52.5982 27.258 54.7102 32.604 55.7002 37.554C55.8982 38.346 55.9642 39.138 56.0962 39.864L56.1622 40.722L56.9542 40.458C56.9542 40.458 57.8122 40.128 59.3302 39.534C59.5942 39.468 59.8582 39.336 60.1222 39.204L60.5182 39.072C61.1782 38.808 61.9702 38.544 62.7622 38.214C66.9862 36.564 70.6822 35.046 73.8502 33.726C86.1262 28.578 86.5882 27.456 86.8522 26.928C86.9842 26.532 87.0502 26.07 86.9842 25.41C86.8522 23.562 85.5982 20.592 83.7502 17.424C83.0902 16.368 82.4302 15.312 81.7702 14.388C81.5062 13.992 81.2422 13.662 80.9782 13.398C80.5162 12.87 80.1202 12.474 79.7902 12.21C78.4702 10.956 76.8202 10.362 74.8402 10.362Z" fill="#252468"/>
<path fill-rule="evenodd" clip-rule="evenodd" d="M77.2886 60.786C76.5626 60.786 75.7706 60.72 75.0446 60.654C73.9226 60.522 72.2726 59.796 69.9626 58.608C66.9266 56.958 63.6926 54.846 63.0986 54.384C62.2406 53.724 61.2506 51.15 60.7886 48.312C60.7226 48.048 60.7226 47.784 60.6566 47.454C60.5906 47.454 60.4586 47.454 60.3926 47.454C59.0726 47.454 56.9606 46.992 55.5086 45.672C51.1526 41.646 52.5386 36.564 52.6046 36.366V36.3L52.6706 36.234C52.7366 36.168 53.7266 34.188 56.1686 34.188C57.6206 34.188 59.2706 34.914 60.9866 36.366C60.9866 36.366 61.0526 36.432 61.1186 36.498C61.2506 34.452 61.5806 31.68 62.4386 29.238C62.6366 28.71 62.8346 28.182 63.0326 27.72V27.654L63.1646 27.39C63.2306 27.258 63.2966 27.126 63.3626 26.994L63.4286 26.862C63.8906 25.608 64.0226 23.826 64.0226 23.826L64.0886 22.902H65.2766L65.4086 22.968C66.0026 23.1 68.2466 23.496 71.5466 23.496C72.7346 23.496 73.9226 23.43 75.1106 23.364L78.3446 23.1L77.8826 23.496C80.9846 23.562 84.4826 23.892 85.6706 24.816C86.7266 25.674 87.1886 27.786 87.3206 32.67C87.3206 32.67 87.3206 32.934 87.3206 33C87.3206 33.924 87.3206 34.848 87.3206 35.772C87.3206 37.224 87.3206 38.61 87.3866 39.666C87.4526 40.392 87.5186 41.118 87.5846 41.91C87.7166 42.9 87.8486 43.824 87.9806 44.748C88.3766 47.124 88.6406 48.972 88.2446 50.16C87.6506 51.942 82.1066 58.806 80.9846 60.126L80.7866 60.324L80.5226 60.39C80.4566 60.39 79.2686 60.786 77.2886 60.786Z" fill="#FFA083"/>
<path d="M64.8798 23.826C65.2098 23.892 67.5198 24.42 71.4138 24.42C72.5358 24.42 73.7238 24.354 75.0438 24.288C75.0438 24.288 74.9778 24.354 74.9118 24.42C75.3738 24.42 75.8358 24.42 76.2978 24.42C80.6538 24.42 84.0198 24.816 84.9438 25.542C85.8678 26.268 86.1318 29.37 86.1978 32.67C86.1978 32.802 86.1978 32.868 86.1978 32.934C86.2638 35.376 86.1978 37.95 86.2638 39.666C86.3298 40.458 86.3958 41.184 86.4618 41.976C86.8578 45.342 87.6498 48.444 87.1878 49.83C86.6598 51.48 80.1918 59.4 80.1918 59.4C80.1918 59.4 79.1358 59.796 77.2878 59.796C76.6938 59.796 75.9678 59.73 75.1758 59.664C73.9878 59.532 72.2718 58.674 70.4238 57.75C67.3878 56.1 64.2198 53.988 63.6918 53.592C63.2298 53.262 62.3058 51.216 61.7778 48.18C61.6458 47.52 61.5798 46.86 61.5798 46.134C61.5138 46.2 61.5138 46.266 61.4478 46.332C61.2498 46.464 60.9198 46.53 60.4578 46.53C59.2698 46.53 57.4878 46.134 56.2998 45.012C52.3398 41.316 53.6598 36.696 53.6598 36.696C53.6598 36.696 54.4518 35.178 56.2338 35.178C57.2898 35.178 58.6098 35.64 60.3918 37.158C60.3918 37.158 61.1838 37.884 61.9098 39.93C61.9098 39.732 61.9758 39.534 61.9758 39.336C61.9758 39.336 61.9758 33.792 63.3618 29.568C63.5598 29.04 63.7578 28.446 64.0218 27.984C64.0878 27.852 64.2198 27.654 64.2858 27.522C64.7478 25.938 64.8798 23.826 64.8798 23.826ZM81.4458 21.714L74.9118 22.242C73.7238 22.308 72.5358 22.374 71.4138 22.374C68.3778 22.374 66.3318 22.044 65.6058 21.912L65.4078 21.846H64.9458H63.0318L62.8998 23.694C62.8998 24.156 62.7018 25.542 62.3718 26.466L62.3058 26.532C62.2398 26.664 62.2398 26.73 62.1738 26.796L61.9098 27.258V27.39C61.7118 27.852 61.5138 28.314 61.3818 28.842C60.7878 30.69 60.3918 32.736 60.1938 34.518C58.7418 33.594 57.4218 33.132 56.1018 33.132C53.7258 33.132 52.2078 34.782 51.7458 35.706L51.6798 35.904L51.6138 36.102C51.5478 36.366 50.0298 41.976 54.8478 46.464C56.2998 47.784 58.2798 48.378 59.7978 48.51C59.7978 48.51 59.7978 48.51 59.7978 48.576C60.2598 51.216 61.2498 54.252 62.4378 55.242C63.0978 55.704 66.3318 57.882 69.4338 59.532C71.8758 60.786 73.5918 61.512 74.8458 61.644C75.6378 61.776 76.4298 61.842 77.2218 61.842C79.3338 61.842 80.6538 61.446 80.7858 61.38L81.3138 61.182L81.6438 60.72C83.6898 58.212 88.4418 52.272 89.0358 50.424C89.4978 48.972 89.1678 47.058 88.7718 44.55C88.6398 43.626 88.4418 42.702 88.3758 41.712C88.2438 40.986 88.1778 40.26 88.1778 39.534C88.1118 38.478 88.1118 37.158 88.1118 35.706C88.1118 34.782 88.1118 33.858 88.1118 32.868C88.1118 32.802 88.1118 32.736 88.1118 32.67V32.604V32.538C87.9798 27.192 87.5178 24.948 86.1318 23.892C85.7358 23.628 84.7458 22.836 80.4558 22.506L81.4458 21.714Z" fill="#2A2866"/>
<path d="M90.685 30.03C90.685 30.03 89.695 28.842 88.309 27.39C87.319 26.4 85.471 24.882 83.755 23.496C81.313 21.516 80.323 20.724 80.191 20.328L80.125 20.13L80.257 19.998C81.577 18.48 83.161 17.754 85.009 17.754C85.339 17.754 85.603 17.754 85.933 17.82C86.527 17.886 87.121 18.084 87.649 18.348C88.243 18.678 88.837 19.074 89.365 19.668C92.203 23.034 91.345 29.634 91.345 29.898L91.213 30.69L90.685 30.03Z" fill="#252468"/>
<path d="M85.0066 18.084C85.2706 18.084 85.6006 18.084 85.9306 18.15C86.5246 18.216 87.0526 18.414 87.5146 18.612C88.1086 18.942 88.6366 19.338 89.0986 19.866C91.8706 23.166 91.0126 29.832 91.0126 29.832C91.0126 29.832 90.0226 28.644 88.5706 27.192C86.5906 25.212 80.8486 20.922 80.5186 20.196C81.4426 19.074 82.9606 18.084 85.0066 18.084ZM85.0066 17.424C83.0926 17.424 81.3766 18.216 79.9906 19.8L79.7266 20.13L79.8586 20.46C80.0566 20.922 80.9806 21.648 83.5546 23.76C85.2046 25.146 87.1186 26.664 88.0426 27.588C89.4286 28.974 90.4186 30.228 90.4186 30.228L91.4086 31.416L91.6066 29.898C91.6726 29.634 92.5306 22.902 89.5606 19.404C89.0326 18.81 88.4386 18.348 87.7786 18.018C87.1846 17.754 86.5906 17.556 85.9306 17.49C85.6666 17.424 85.2706 17.424 85.0066 17.424Z" fill="#252468"/>
<path d="M65.4688 34.584C65.4688 34.584 67.1187 32.868 68.1087 32.802C69.2307 32.67 74.5768 32.802 74.6428 31.944C74.7748 30.492 74.9727 30.03 73.3887 30.096C72.5967 30.162 68.2408 30.624 67.3168 31.218C66.1288 32.01 65.9967 32.802 65.4688 34.584Z" fill="#2A2866"/>
<path d="M86.5285 34.452C86.5285 34.452 85.4725 32.802 84.6145 32.736C83.6905 32.604 79.0045 32.736 79.2685 31.878C79.7305 30.492 79.5985 30.162 80.8525 30.294C81.5125 30.36 84.7465 30.69 85.4725 31.284C86.3305 32.01 86.3965 32.736 86.5285 34.452Z" fill="#2A2866"/>
<path d="M81.0469 38.016C81.0469 39.138 81.6409 40.062 82.3009 40.062C83.0269 40.062 83.5549 39.138 83.5549 38.016C83.5549 36.894 82.9609 35.97 82.3009 35.97C81.5749 35.97 81.0469 36.894 81.0469 38.016Z" fill="#252468"/>
<path d="M69.6953 37.686C69.6953 38.808 70.2893 39.732 71.0153 39.732C71.7413 39.732 72.3353 38.808 72.3353 37.686C72.3353 36.564 71.7413 35.64 71.0153 35.64C70.2893 35.64 69.6953 36.498 69.6953 37.686Z" fill="#252468"/>
<path d="M65.0781 56.232C65.0781 56.232 66.3321 72.996 78.2121 75.636" stroke="#2A2866" stroke-width="3" stroke-miterlimit="10" stroke-linecap="round" stroke-linejoin="round"/>
<path d="M79.3281 61.116L80.0541 67.914" stroke="#2A2866" stroke-width="3" stroke-miterlimit="10" stroke-linecap="round" stroke-linejoin="round"/>
<path d="M78.1448 50.82C73.3928 51.216 71.2148 47.652 71.2148 47.652C71.1488 47.52 71.2148 47.388 71.2808 47.322C71.4128 47.256 71.5448 47.322 71.6108 47.388C71.6108 47.454 73.6568 50.688 78.0788 50.358C78.2108 50.358 78.2768 50.424 78.3428 50.556C78.3428 50.688 78.2768 50.82 78.1448 50.82Z" fill="#2A2866" stroke="#2A2866" stroke-miterlimit="10"/>
<path d="M75.4375 44.286C75.4375 44.286 76.3615 45.144 77.4835 45.144C78.6055 45.144 79.5295 44.286 79.5295 44.286C79.5295 44.286 78.6715 44.352 77.5495 44.352C76.4275 44.352 75.4375 44.286 75.4375 44.286Z" fill="#2A2866"/>
<path d="M67.7812 35.904C67.7812 35.904 71.0153 34.848 72.8633 35.574C72.6653 35.838 72.3353 35.97 72.0053 35.97L67.7812 35.904Z" fill="#252468"/>
<path d="M85.0088 36.696C85.0088 36.696 82.4348 35.244 80.7188 35.508C80.8508 35.772 81.0488 35.97 81.3788 36.036L85.0088 36.696Z" fill="#252468"/>
<path d="M91.1474 137.412C86.5274 137.412 81.3134 137.016 76.2314 135.63C56.7614 130.482 50.4914 134.442 50.3594 134.442L52.4714 124.542C53.0654 124.41 63.3614 122.496 78.4754 126.39C90.8834 129.624 104.875 125.4 105.007 125.4L106.591 132.924C106.129 133.056 100.123 137.412 91.1474 137.412Z" fill="#252468"/>
<path d="M63.9576 78.87C63.9576 78.87 61.7796 73.986 59.6016 72.204L63.9576 78.87Z" fill="#FFA083"/>
<path d="M63.9576 78.87C63.9576 78.87 61.7796 73.986 59.6016 72.204" stroke="#2A2866" stroke-width="3" stroke-miterlimit="10" stroke-linecap="round" stroke-linejoin="round"/>
</g>
<defs>
<clipPath id="clip0_1614_51472">
<rect width="165" height="165" fill="white"/>
</clipPath>
</defs>
</svg>
