<svg width="67" height="67" viewBox="0 0 67 67" fill="none" xmlns="http://www.w3.org/2000/svg">
<path d="M10.7055 20.9943C8.23323 24.4489 6.35589 28.2933 5.30801 32.3388C4.49463 35.4784 0.711807 53.5362 26.5309 57.7103C54.4619 62.2261 60.2815 50 61.982 39.2612C64.9729 20.3846 56.0618 9.46499 43.3225 6.57461C37.6529 5.28955 31.6229 5.75319 26.3822 8.10355C20.2517 10.8532 14.7001 15.4159 10.7055 20.9943Z" fill="#455A64"/>
<path d="M47.1483 17.9434C48.5426 18.1054 49.9114 18.4398 51.2233 18.939C53.2614 19.743 54.4808 21.5587 56.9116 22.0933C56.9116 22.0933 59.9574 25.8453 56.9116 31.5578L52.653 30.9079C52.0292 30.8103 51.3925 30.8326 50.777 30.9735C49.9382 31.1692 48.4267 31.3648 46.3242 31.0231L47.1483 17.9434Z" fill="#FFA8A7"/>
<path d="M32.0851 33.3438L35.3145 35.2251V48.2405L32.0703 46.335L32.0851 33.3438Z" fill="#BA68C8"/>
<path opacity="0.2" d="M32.0851 33.3438L35.3145 35.2251V48.2405L32.0703 46.335L32.0851 33.3438Z" fill="black"/>
<path d="M32.8633 35.4516L34.0693 31.4316C34.9403 30.2082 35.5071 28.7034 35.5071 27.3714C35.5071 25.1778 33.9675 24.2894 32.0687 25.3855C30.1699 26.4816 28.6289 29.1496 28.6289 31.3432C28.6289 32.4219 29.0014 33.1843 29.6058 33.5515L29.6607 33.5836L32.8633 35.4516Z" fill="#BA68C8"/>
<path d="M32.0851 12.3945L35.3145 14.2759V27.2927L32.0703 25.3858L32.0851 12.3945Z" fill="#BA68C8"/>
<path opacity="0.2" d="M32.0851 12.3945L35.3145 14.2759V27.2927L32.0703 25.3858L32.0851 12.3945Z" fill="black"/>
<path d="M45.8738 13.3439L45.8242 13.3145L45.8725 13.3439H45.8738Z" fill="#FFA8A7"/>
<path d="M45.6338 13.2029L42.6791 11.4823C39.9991 9.81938 36.2471 9.99224 32.0851 12.3949C32.0797 12.3972 32.0747 12.4003 32.0703 12.4042L35.3145 14.2802C39.3358 11.9553 42.9793 11.7155 45.6338 13.2029Z" fill="#BA68C8"/>
<path d="M45.8725 13.3444L45.8243 13.315L45.6327 13.2037C42.9781 11.7163 39.3347 11.9562 35.3147 14.2757V27.2912C33.4172 28.3873 31.8789 31.0512 31.8789 33.2408C31.8789 35.4303 33.4172 36.3228 35.3147 35.224V48.2407C43.4351 43.5507 50.0198 32.1473 50.0198 22.7687C50.0198 18.1738 48.4386 14.9189 45.8725 13.3444Z" fill="#BA68C8"/>
<path opacity="0.3" d="M45.8725 13.3444L45.8243 13.315L45.6327 13.2037C42.9781 11.7163 39.3347 11.9562 35.3147 14.2757V27.2912C33.4172 28.3873 31.8789 31.0512 31.8789 33.2408C31.8789 35.4303 33.4172 36.3228 35.3147 35.224V48.2407C43.4351 43.5507 50.0198 32.1473 50.0198 22.7687C50.0198 18.1738 48.4386 14.9189 45.8725 13.3444Z" fill="white"/>
<path d="M46.704 19.0971C46.1195 17.8792 45.1868 16.8621 44.024 16.1746C41.6575 14.8091 38.5755 15.0463 35.314 16.8446V18.2382C35.4131 18.1766 35.5136 18.1176 35.6155 18.0586C37.395 17.0309 39.0995 16.5123 40.6204 16.5123C41.5974 16.497 42.561 16.7411 43.4129 17.2198C45.3492 18.3374 46.4641 20.6703 46.582 23.8233C46.5901 24.0109 46.5941 24.2012 46.5941 24.3942C46.5941 31.6556 41.5584 40.4916 35.3086 44.2851V45.6774L35.6101 45.5085C42.3315 41.6225 47.8041 32.1554 47.8041 24.3942C47.8041 22.3265 47.4249 20.535 46.704 19.0971Z" fill="white"/>
<path d="M44.986 26.0222C44.986 23.0005 43.9354 20.7292 42.0272 19.6278C40.1928 18.5692 37.8183 18.7367 35.3125 20.0954V21.4904C35.4117 21.4287 35.5122 21.3657 35.614 21.3081C36.954 20.5363 38.2257 20.1463 39.366 20.1463C40.0883 20.1354 40.8005 20.3167 41.4296 20.6716C42.9492 21.5493 43.7853 23.4494 43.7853 26.0222C43.7853 31.4894 40.0132 38.1318 35.3179 41.0303V42.4252C35.417 42.3716 35.5175 42.3153 35.6194 42.2563C40.781 39.2722 44.986 31.9893 44.986 26.0222Z" fill="white"/>
<path d="M42.1679 27.6478C42.1679 25.4944 41.4108 23.8716 40.0347 23.0784C38.7335 22.3266 37.0666 22.4271 35.3125 23.3464V24.7386C35.4117 24.6756 35.5122 24.614 35.614 24.5564C36.5051 24.0418 37.356 23.7805 38.1024 23.7805C38.5676 23.7733 39.0263 23.8898 39.4317 24.1182C40.4179 24.6877 40.9619 25.9406 40.9619 27.6437C40.9619 31.3167 38.4535 35.7735 35.3125 37.7688V39.1597C35.4117 39.1074 35.5122 39.0552 35.614 38.9962C39.228 36.9139 42.1679 31.8205 42.1679 27.6478Z" fill="white"/>
<path d="M37.746 32.6703C39.0892 30.3438 39.0891 27.8291 37.7458 27.0535C36.4024 26.2779 34.2245 27.5352 32.8813 29.8617C31.5381 32.1882 31.5382 34.703 32.8816 35.4785C34.2249 36.2541 36.4028 34.9969 37.746 32.6703Z" fill="white"/>
<path d="M36.5449 31.9364C37.2246 30.7591 37.2244 29.4864 36.5444 29.0938C35.8644 28.7012 34.7621 29.3373 34.0824 30.5147C33.4026 31.692 33.4028 32.9648 34.0828 33.3574C34.7628 33.75 35.8651 33.1138 36.5449 31.9364Z" fill="#BA68C8"/>
<path opacity="0.3" d="M36.5449 31.9364C37.2246 30.7591 37.2244 29.4864 36.5444 29.0938C35.8644 28.7012 34.7621 29.3373 34.0824 30.5147C33.4026 31.692 33.4028 32.9648 34.0828 33.3574C34.7628 33.75 35.8651 33.1138 36.5449 31.9364Z" fill="white"/>
<path d="M50.6826 21.3058L49.0947 20.8663C48.7159 20.7616 48.3197 20.7352 47.9302 20.7886C46.8113 20.944 44.4462 21.271 43.8915 21.338C43.1679 21.4264 42.8047 22.3818 43.3072 23.1684C43.8097 23.955 44.9863 25.0109 48.607 24.7483C48.607 24.7483 50.3851 29.3686 54.8125 26.8132C56.1203 26.0615 55.2051 22.7798 50.6826 21.3058Z" fill="#FFA8A7"/>
<path d="M51.74 21.9131C51.7119 21.9132 51.684 21.9072 51.6583 21.8957C51.3313 21.751 50.9883 21.6183 50.6211 21.4937L49.7274 21.2458C49.7012 21.2394 49.6767 21.2278 49.6551 21.2118C49.6335 21.1957 49.6154 21.1755 49.6018 21.1522C49.5882 21.129 49.5794 21.1033 49.5759 21.0767C49.5724 21.05 49.5743 21.0229 49.5815 20.997C49.5887 20.9711 49.601 20.9468 49.6177 20.9258C49.6344 20.9047 49.6552 20.8872 49.6788 20.8743C49.7024 20.8614 49.7283 20.8533 49.7551 20.8506C49.7818 20.8479 49.8089 20.8506 49.8346 20.8586L50.7377 21.1091C51.1059 21.228 51.4678 21.3658 51.8218 21.5219C51.8638 21.5406 51.8982 21.5732 51.919 21.6142C51.9399 21.6553 51.9461 21.7022 51.9365 21.7472C51.927 21.7923 51.9022 21.8326 51.8665 21.8616C51.8307 21.8906 51.7861 21.9064 51.74 21.9064V21.9131Z" fill="#F28F8F"/>
<path d="M52.2929 27.7901C50.8698 27.7901 49.8809 26.9861 49.2431 26.1982C49.21 26.1565 49.1946 26.1034 49.2004 26.0505C49.2062 25.9976 49.2326 25.9491 49.2739 25.9155C49.2945 25.8989 49.3181 25.8866 49.3435 25.8792C49.3688 25.8718 49.3954 25.8694 49.4216 25.8723C49.4479 25.8751 49.4733 25.8831 49.4965 25.8958C49.5197 25.9085 49.5401 25.9257 49.5566 25.9463C50.307 26.8843 51.6229 27.8437 53.6369 27.1429C53.6874 27.1251 53.7428 27.1281 53.7911 27.1513C53.8393 27.1744 53.8764 27.2157 53.8942 27.2662C53.912 27.3167 53.909 27.3721 53.8858 27.4204C53.8627 27.4686 53.8214 27.5057 53.7709 27.5235C53.2968 27.6949 52.7971 27.785 52.2929 27.7901Z" fill="#F28F8F"/>
<path d="M57.0618 22.5685C57.4545 23.9259 58.3469 27.9097 56.3543 30.8765C56.246 31.0374 56.0941 31.1642 55.9163 31.2418C55.7385 31.3194 55.5423 31.3447 55.3507 31.3147L54.7383 31.2222C54.7385 31.3565 54.7846 31.4867 54.8689 31.5912C54.9533 31.6958 55.0707 31.7684 55.2019 31.7971L61.5053 33.1786V21.3438L55.7433 21.7136L56.1118 21.8744C56.2158 21.9205 56.3239 21.9569 56.4347 21.9829C56.582 22.0156 56.7179 22.0871 56.8282 22.1901C56.9385 22.2931 57.0192 22.4238 57.0618 22.5685Z" fill="#BA68C8"/>
<path d="M59.4671 22.2439C59.9897 23.8277 60.8728 27.7124 58.8051 31.7954C58.7 32.0011 58.5295 32.1661 58.3205 32.2646C58.1114 32.363 57.8757 32.3894 57.6501 32.3394L57.2186 32.2456C57.2095 32.3293 57.217 32.4139 57.2408 32.4946C57.2645 32.5753 57.304 32.6505 57.3569 32.7159C57.4099 32.7813 57.4752 32.8356 57.5492 32.8756C57.6232 32.9156 57.7044 32.9406 57.7881 32.9491L64.7976 33.6754C64.7976 33.6754 65.7973 32.0969 65.7973 26.966C65.7973 21.8352 64.3501 20.873 64.3501 20.873L58.5961 21.074C58.4688 21.0782 58.3482 21.1317 58.2597 21.2233C58.1711 21.3148 58.1217 21.4372 58.1217 21.5645L58.4313 21.5444C58.6571 21.5295 58.8814 21.5902 59.0689 21.7168C59.2564 21.8435 59.3965 22.0289 59.4671 22.2439Z" fill="#263238"/>
<path d="M62.041 31.7105C62.0412 31.8765 61.9923 32.0388 61.9002 32.1769C61.8082 32.3151 61.6773 32.4228 61.5241 32.4865C61.3708 32.5502 61.2021 32.567 61.0393 32.5348C60.8765 32.5026 60.7269 32.4228 60.6094 32.3055C60.492 32.1883 60.412 32.0388 60.3795 31.876C60.347 31.7133 60.3636 31.5445 60.427 31.3912C60.4905 31.2378 60.598 31.1067 60.736 31.0145C60.8739 30.9223 61.0362 30.873 61.2021 30.873C61.4244 30.873 61.6375 30.9612 61.7948 31.1183C61.9521 31.2753 62.0406 31.4883 62.041 31.7105Z" fill="white"/>
<path d="M51.1268 21.5241C51.1103 21.526 51.0937 21.526 51.0772 21.5241C51.0256 21.5105 50.9814 21.4772 50.954 21.4314C50.9267 21.3855 50.9185 21.3308 50.9312 21.2789C50.995 21.0217 50.9596 20.75 50.832 20.5178C50.8074 20.4713 50.8019 20.4171 50.8168 20.3667C50.8318 20.3162 50.8658 20.2737 50.9118 20.2481C50.9577 20.2225 51.0118 20.2159 51.0625 20.2298C51.1132 20.2436 51.1565 20.2768 51.1831 20.3221C51.3593 20.6446 51.4072 21.0218 51.3171 21.3781C51.3055 21.4197 51.2806 21.4565 51.2463 21.4828C51.212 21.5092 51.1701 21.5237 51.1268 21.5241Z" fill="#F28F8F"/>
<path d="M52.0079 30.909C51.9633 30.9086 51.9201 30.8934 51.8851 30.8658C51.8501 30.8382 51.8253 30.7997 51.8145 30.7564C51.8038 30.7131 51.8077 30.6675 51.8258 30.6267C51.8438 30.5859 51.8749 30.5523 51.9141 30.5311C52.1776 30.3861 52.4028 30.1804 52.571 29.9311C52.7393 29.6817 52.8457 29.3959 52.8816 29.0973C52.8843 29.0709 52.8922 29.0453 52.9049 29.022C52.9175 28.9986 52.9346 28.978 52.9552 28.9613C52.9758 28.9445 52.9995 28.932 53.0249 28.9244C53.0503 28.9169 53.077 28.9144 53.1034 28.9171C53.1298 28.9198 53.1554 28.9277 53.1787 28.9403C53.2021 28.953 53.2227 28.9701 53.2394 28.9906C53.2562 29.0112 53.2687 29.0349 53.2763 29.0604C53.2838 29.0858 53.2863 29.1125 53.2836 29.1389C53.2417 29.5025 53.1127 29.8507 52.9077 30.1539C52.7027 30.4571 52.4276 30.7065 52.1058 30.8809C52.0761 30.8984 52.0424 30.9081 52.0079 30.909Z" fill="#F28F8F"/>
<path d="M44.9382 22.6742C44.8899 22.6742 44.8404 22.6742 44.7921 22.6742C44.2883 22.6381 43.8541 22.3848 43.6585 22.0136C43.6429 21.9823 43.6403 21.9461 43.6511 21.9128C43.6618 21.8795 43.6852 21.8518 43.7162 21.8355C43.7472 21.8192 43.7833 21.8157 43.8168 21.8257C43.8504 21.8357 43.8787 21.8584 43.8957 21.889C44.0779 22.2361 44.4879 22.3835 44.8122 22.4076C45.2035 22.4357 45.5988 22.3272 45.9807 22.2227C46.0946 22.1918 46.2031 22.153 46.234 22.0887C46.2493 22.0339 46.2493 21.9759 46.234 21.9212C46.1966 21.746 46.1319 21.5778 46.0423 21.4227C46.0326 21.4074 46.0261 21.3904 46.0232 21.3725C46.0203 21.3547 46.021 21.3365 46.0253 21.3189C46.0296 21.3014 46.0374 21.2849 46.0482 21.2704C46.0591 21.2559 46.0727 21.2438 46.0884 21.2348C46.104 21.2257 46.1213 21.22 46.1393 21.2178C46.1572 21.2156 46.1754 21.2171 46.1928 21.2221C46.2101 21.2271 46.2263 21.2356 46.2403 21.2471C46.2543 21.2585 46.2658 21.2727 46.2742 21.2887C46.3775 21.4647 46.4521 21.656 46.4953 21.8555C46.5257 21.9635 46.5215 22.0783 46.4832 22.1838C46.3974 22.3821 46.1737 22.4438 46.0531 22.4759C45.692 22.5915 45.317 22.6582 44.9382 22.6742Z" fill="#F28F8F"/>
<path d="M15.9075 35.5898C15.9075 35.5898 12.6768 36.903 12.0497 37.9228C11.4225 38.9425 10.5623 42.5042 10.1442 44.9578C9.7261 47.4113 8.08594 49.3717 8.08594 49.3717L10.6185 51.8266L16.67 39.839L15.9075 35.5898Z" fill="#FFA8A7"/>
<path d="M18.6265 40.7367C18.6265 31.3567 25.2113 19.9533 33.333 15.2647L30.0889 13.3887C21.9765 18.0907 15.3984 29.4807 15.3984 38.8607C15.3984 43.7477 17.1873 47.1192 20.0496 48.565L22.9145 50.2427C20.2626 48.699 18.6265 45.4107 18.6265 40.7367Z" fill="#BA68C8"/>
<path opacity="0.3" d="M18.6265 40.7367C18.6265 31.3567 25.2113 19.9533 33.333 15.2647L30.0889 13.3887C21.9765 18.0907 15.3984 29.4807 15.3984 38.8607C15.3984 43.7477 17.1873 47.1192 20.0496 48.565L22.9145 50.2427C20.2626 48.699 18.6265 45.4107 18.6265 40.7367Z" fill="white"/>
<path d="M18.625 40.7363C18.625 45.4089 20.2598 48.6973 22.905 50.241C25.5501 51.7846 29.2566 51.581 33.3315 49.2279V36.2125C31.4354 37.3086 29.8971 36.4202 29.8971 34.2306C29.8971 32.0411 31.4354 29.3758 33.3315 28.281V15.2656C25.2111 19.9543 18.625 31.3563 18.625 40.7363Z" fill="#BA68C8"/>
<path d="M33.3314 19.2199V17.8223C33.2314 17.8768 33.1309 17.933 33.0299 17.9911C26.3085 21.8771 20.8359 31.3442 20.8359 39.1055C20.8359 42.9915 22.1759 45.9154 24.6201 47.325C25.6546 47.9133 26.827 48.2158 28.017 48.2014C28.1577 48.2014 28.2997 48.2014 28.4431 48.1893C29.9721 48.1076 31.6256 47.5971 33.3274 46.6604V45.2735C33.2283 45.3351 33.1278 45.3941 33.0259 45.4531C32.8383 45.5612 32.6507 45.6639 32.4631 45.7613C29.6974 47.2058 27.1433 47.3947 25.2271 46.2852C23.1756 45.1006 22.046 42.5533 22.046 39.1108C22.046 31.8494 27.0817 23.0134 33.3314 19.2199Z" fill="white"/>
<path d="M33.0321 42.1978C30.8037 43.4855 28.7441 43.7106 27.2219 42.8329C25.6996 41.9552 24.8662 40.0564 24.8662 37.4836C24.8662 32.0164 28.6383 25.3741 33.3336 22.4756V21.082C33.2331 21.137 33.1326 21.1919 33.0321 21.2509C27.8718 24.2337 23.6602 31.5166 23.6602 37.4836C23.6602 40.5053 24.7107 42.7766 26.6189 43.8781C27.4296 44.3398 28.3485 44.5776 29.2815 44.5669C30.5411 44.5669 31.9159 44.1796 33.3336 43.4104V42.0155C33.2318 42.0758 33.134 42.1401 33.0321 42.1978Z" fill="white"/>
<path d="M33.0305 38.9445C31.5565 39.7967 30.1991 39.9522 29.2128 39.3827C28.2266 38.8132 27.6826 37.5603 27.6826 35.8571C27.6826 32.1842 30.1897 27.7274 33.332 25.7321V24.3398C33.2315 24.3921 33.1323 24.4457 33.0305 24.5047C29.4125 26.591 26.4766 31.683 26.4766 35.8571C26.4766 38.0092 27.2337 39.6333 28.6098 40.4265C29.1965 40.7622 29.8622 40.9352 30.5381 40.9277C31.4104 40.9277 32.3578 40.6597 33.332 40.1532V38.7623C33.2302 38.8252 33.1323 38.8855 33.0305 38.9445Z" fill="white"/>
<path opacity="0.5" d="M18.625 40.7363C18.625 45.4089 20.2598 48.6973 22.905 50.241C25.5501 51.7846 29.2566 51.581 33.3315 49.2279V36.2125C31.4354 37.3086 29.8971 36.4202 29.8971 34.2306C29.8971 32.0411 31.4354 29.3758 33.3315 28.281V15.2656C25.2111 19.9543 18.625 31.3563 18.625 40.7363Z" fill="white"/>
<path d="M21.393 46.1364C22.8576 45.7787 24.0435 43.9523 24.0435 43.9523C24.0435 43.9523 25.3285 38.7597 27.293 38.8348C27.3879 38.839 27.4809 38.8626 27.5663 38.9041C27.6518 38.9455 27.7279 39.004 27.79 39.0758C27.8521 39.1477 27.8989 39.2315 27.9275 39.3221C27.956 39.4127 27.9659 39.5081 27.9563 39.6026C27.8719 40.4535 26.9727 43.8477 26.4943 45.4798C25.9128 47.4671 22.4301 50.5075 22.4301 50.5075C22.4301 50.5075 19.9297 46.4982 21.393 46.1364Z" fill="#FFA8A7"/>
<path d="M20.5604 43.7112C22.0103 43.2945 23.1212 41.4212 23.1212 41.4212C23.1212 41.4212 24.1932 36.1818 26.1603 36.1777C26.2551 36.1781 26.3489 36.1978 26.4358 36.2356C26.5228 36.2735 26.6011 36.3286 26.6661 36.3977C26.731 36.4668 26.7812 36.5484 26.8136 36.6375C26.846 36.7266 26.8599 36.8214 26.8544 36.9161C26.8048 37.771 26.0504 41.1974 25.631 42.8483C25.1298 44.8583 21.7745 48.0367 21.7745 48.0367C21.7745 48.0367 19.1119 44.1293 20.5604 43.7112Z" fill="#FFA8A7"/>
<path d="M23.4916 46.9817C23.4494 46.9816 23.4081 46.9693 23.3728 46.9463C23.3374 46.9233 23.3094 46.8906 23.2923 46.852C23.2751 46.8135 23.2695 46.7708 23.2761 46.7291C23.2827 46.6874 23.3012 46.6486 23.3295 46.6172C24.2259 45.6175 25.1251 43.976 25.4185 42.7968C25.6142 42.0143 25.9317 40.6528 26.2011 39.3624C26.2066 39.334 26.2177 39.3069 26.2338 39.2828C26.2498 39.2587 26.2705 39.238 26.2947 39.222C26.3188 39.206 26.3459 39.1949 26.3743 39.1895C26.4028 39.184 26.4321 39.1843 26.4604 39.1902C26.4888 39.1962 26.5156 39.2077 26.5395 39.2241C26.5633 39.2406 26.5837 39.2616 26.5993 39.286C26.615 39.3104 26.6256 39.3376 26.6306 39.3662C26.6356 39.3947 26.6349 39.4239 26.6285 39.4522C26.394 40.5711 26.0778 41.958 25.8433 42.9027C25.5284 44.1623 24.6078 45.8507 23.6537 46.9093C23.6334 46.9322 23.6085 46.9506 23.5805 46.9631C23.5525 46.9755 23.5222 46.9819 23.4916 46.9817Z" fill="#F28F8F"/>
<path d="M19.44 41.6325C20.8885 41.2144 21.9994 39.3411 21.9994 39.3411C21.9994 39.3411 23.0714 34.1017 25.0385 34.0977C25.1335 34.0985 25.2272 34.1188 25.3141 34.1572C25.401 34.1956 25.4791 34.2513 25.5437 34.3209C25.6083 34.3905 25.658 34.4726 25.6898 34.5621C25.7216 34.6516 25.7348 34.7466 25.7286 34.8414C25.679 35.6949 24.9179 39.1227 24.5065 40.7735C24.0054 42.7835 20.6487 45.962 20.6487 45.962C20.6487 45.962 17.9914 42.0492 19.44 41.6325Z" fill="#FFA8A7"/>
<path d="M14.8283 40.5527C14.8283 40.5527 15.8855 41.8109 17.3341 41.3942C18.7826 40.9775 19.8935 39.1028 19.8935 39.1028C19.8935 39.1028 20.9655 33.8634 22.9326 33.8594C23.0275 33.8598 23.1214 33.8795 23.2085 33.9174C23.2955 33.9553 23.3739 34.0105 23.4389 34.0798C23.5039 34.149 23.554 34.2308 23.5863 34.3201C23.6186 34.4093 23.6324 34.5043 23.6267 34.5991C23.5771 35.4526 22.816 38.8804 22.4046 40.5312C21.9035 42.5412 18.5468 45.7197 18.5468 45.7197L13.9023 42.9151L14.8283 40.5527Z" fill="#FFA8A7"/>
<path d="M22.4293 50.5078C22.4293 50.5078 19.5577 53.6153 13.7193 55.7003L10.6172 51.8143L13.9015 42.4785L19.1744 43.1485C19.1744 43.1485 23.9837 45.7213 22.4293 50.5078Z" fill="#FFA8A7"/>
<path d="M20.0001 44.4293C19.9463 44.4298 19.8942 44.4103 19.8541 44.3744C19.8109 44.3358 19.7849 44.2816 19.7816 44.2239C19.7783 44.1661 19.7981 44.1093 19.8367 44.0662C21.1659 42.5761 21.9807 41.3366 22.1951 40.479C22.648 38.6606 23.3649 35.387 23.4118 34.583C23.418 34.5274 23.4452 34.4762 23.488 34.4402C23.5308 34.4041 23.5858 34.3858 23.6416 34.389C23.6975 34.3923 23.7499 34.4169 23.7882 34.4577C23.8265 34.4985 23.8476 34.5525 23.8473 34.6084C23.795 35.5049 23.0192 38.9728 22.6185 40.5808C22.3264 41.7506 21.1217 43.2769 20.1623 44.3529C20.1423 44.3765 20.1174 44.3954 20.0895 44.4086C20.0615 44.4218 20.031 44.4288 20.0001 44.4293Z" fill="#F28F8F"/>
<path d="M21.8402 45.56C21.7842 45.5602 21.7303 45.5386 21.6901 45.4997C21.6691 45.4801 21.6523 45.4566 21.6404 45.4305C21.6286 45.4044 21.6221 45.3762 21.6212 45.3475C21.6203 45.3189 21.6251 45.2903 21.6354 45.2635C21.6456 45.2367 21.661 45.2122 21.6807 45.1915C22.6429 44.169 23.9587 42.0398 24.2937 40.7185C24.5698 39.6104 25.0093 37.6754 25.28 36.2738C25.2853 36.2455 25.2962 36.2186 25.312 36.1946C25.3277 36.1705 25.3481 36.1498 25.3719 36.1336C25.3956 36.1175 25.4223 36.1061 25.4505 36.1003C25.4786 36.0944 25.5077 36.0942 25.5359 36.0996C25.5642 36.1049 25.5911 36.1158 25.6151 36.1316C25.6391 36.1473 25.6598 36.1677 25.676 36.1914C25.6922 36.2152 25.7035 36.2419 25.7094 36.2701C25.7152 36.2982 25.7155 36.3272 25.7101 36.3555C25.4421 37.7652 24.9946 39.7055 24.7172 40.8244C24.3621 42.2488 22.9993 44.4277 21.9983 45.4903C21.9781 45.512 21.9536 45.5294 21.9264 45.5414C21.8992 45.5534 21.8699 45.5597 21.8402 45.56Z" fill="#F28F8F"/>
<path d="M6.13281 50.9553L8.23661 48.9453C8.23661 48.9453 13.9638 50.6471 14.2666 55.9977L12.4067 57.3257L6.13281 50.9553Z" fill="#BA68C8"/>
<path opacity="0.3" d="M6.13281 50.9553L8.23661 48.9453C8.23661 48.9453 13.9638 50.6471 14.2666 55.9977L12.4067 57.3257L6.13281 50.9553Z" fill="white"/>
<path d="M6.14587 50.0478C7.36125 50.3641 12.4305 52.0484 13.0187 58.1736C13.0267 58.2593 13.016 58.3458 12.9873 58.427C12.9586 58.5082 12.9127 58.5822 12.8526 58.6439L8.96657 62.6827C8.96657 62.6827 0.0100054 59.9263 1.35671 53.229L5.67687 50.1349C5.74373 50.0866 5.82047 50.0537 5.90158 50.0387C5.98268 50.0236 6.06612 50.0267 6.14587 50.0478Z" fill="#263238"/>
<path d="M11.7322 57.8114C11.7322 57.963 11.6872 58.1112 11.603 58.2372C11.5188 58.3633 11.3991 58.4615 11.259 58.5195C11.119 58.5776 10.9648 58.5927 10.8162 58.5632C10.6675 58.5336 10.5309 58.4606 10.4237 58.3534C10.3165 58.2462 10.2435 58.1096 10.2139 57.9609C10.1844 57.8123 10.1996 57.6581 10.2576 57.5181C10.3156 57.378 10.4138 57.2583 10.5399 57.1741C10.6659 57.0899 10.8141 57.0449 10.9657 57.0449C11.0664 57.0449 11.166 57.0647 11.259 57.1033C11.352 57.1418 11.4365 57.1982 11.5077 57.2694C11.5789 57.3406 11.6353 57.4251 11.6738 57.5181C11.7124 57.6111 11.7322 57.7107 11.7322 57.8114Z" fill="white"/>
<path d="M16.3473 41.6206C16.326 41.6207 16.3048 41.618 16.2843 41.6126C15.7912 41.46 15.3469 41.1803 14.9962 40.8016C14.6455 40.4229 14.4007 39.9585 14.2863 39.4552C14.2739 39.3985 14.2845 39.3392 14.3158 39.2903C14.3471 39.2414 14.3965 39.207 14.4532 39.1945C14.5099 39.1821 14.5692 39.1927 14.618 39.224C14.6669 39.2553 14.7014 39.3047 14.7138 39.3614C14.8136 39.7875 15.0225 40.1804 15.3199 40.5015C15.6173 40.8226 15.993 41.061 16.4102 41.1932C16.4603 41.2083 16.5033 41.241 16.5314 41.2852C16.5594 41.3294 16.5706 41.3822 16.563 41.434C16.5554 41.4858 16.5294 41.5332 16.4898 41.5674C16.4502 41.6016 16.3996 41.6205 16.3473 41.6206Z" fill="#F28F8F"/>
<path d="M20.8447 15.6739C21.2962 15.6739 21.6621 15.3079 21.6621 14.8565C21.6621 14.405 21.2962 14.0391 20.8447 14.0391C20.3933 14.0391 20.0273 14.405 20.0273 14.8565C20.0273 15.3079 20.3933 15.6739 20.8447 15.6739Z" fill="#FAFAFA"/>
<path d="M44.9893 51.3243C45.4407 51.3243 45.8067 50.9583 45.8067 50.5069C45.8067 50.0554 45.4407 49.6895 44.9893 49.6895C44.5378 49.6895 44.1719 50.0554 44.1719 50.5069C44.1719 50.9583 44.5378 51.3243 44.9893 51.3243Z" fill="#FAFAFA"/>
<path d="M10.7857 33.016C10.7849 33.1314 10.7499 33.244 10.6851 33.3396C10.6204 33.4352 10.5288 33.5095 10.4219 33.553C10.315 33.5966 10.1976 33.6075 10.0845 33.5844C9.97139 33.5613 9.86767 33.5052 9.78642 33.4232C9.70517 33.3412 9.65003 33.237 9.62796 33.1237C9.60589 33.0104 9.61789 32.893 9.66243 32.7865C9.70697 32.6801 9.78206 32.5891 9.87822 32.5253C9.97439 32.4614 10.0873 32.4275 10.2028 32.4277C10.2797 32.4279 10.3559 32.4433 10.4269 32.473C10.4978 32.5027 10.5623 32.5461 10.6164 32.6007C10.6706 32.6554 10.7134 32.7202 10.7425 32.7915C10.7715 32.8628 10.7862 32.939 10.7857 33.016Z" fill="#FAFAFA"/>
<path d="M48.7431 12.2674C49.065 12.2674 49.326 12.0064 49.326 11.6845C49.326 11.3625 49.065 11.1016 48.7431 11.1016C48.4211 11.1016 48.1602 11.3625 48.1602 11.6845C48.1602 12.0064 48.4211 12.2674 48.7431 12.2674Z" fill="#FAFAFA"/>
<path d="M17.1907 22.4185C17.1893 22.4977 17.1646 22.5747 17.1197 22.64C17.0747 22.7052 17.0115 22.7557 16.9379 22.7851C16.8644 22.8145 16.7837 22.8215 16.7062 22.8052C16.6287 22.7889 16.5577 22.7501 16.5021 22.6937C16.4466 22.6372 16.4089 22.5656 16.394 22.4878C16.379 22.41 16.3873 22.3295 16.4179 22.2564C16.4486 22.1834 16.5001 22.121 16.566 22.0771C16.632 22.0332 16.7094 22.0098 16.7887 22.0098C16.8958 22.0119 16.9978 22.0558 17.073 22.1322C17.1481 22.2086 17.1903 22.3113 17.1907 22.4185Z" fill="#FAFAFA"/>
<path d="M42.5813 49.0904C42.58 49.1693 42.5554 49.2461 42.5108 49.3112C42.4661 49.3762 42.4032 49.4267 42.3301 49.4563C42.2569 49.4859 42.1766 49.4933 42.0993 49.4776C42.0219 49.4619 41.9509 49.4237 41.8951 49.3679C41.8393 49.3121 41.8011 49.2411 41.7854 49.1637C41.7697 49.0864 41.7771 49.0061 41.8067 48.9329C41.8363 48.8598 41.8867 48.7969 41.9518 48.7522C42.0169 48.7076 42.0937 48.683 42.1726 48.6817C42.2265 48.6808 42.2801 48.6907 42.3301 48.711C42.38 48.7312 42.4255 48.7613 42.4636 48.7994C42.5017 48.8375 42.5318 48.8829 42.552 48.9329C42.5722 48.9829 42.5822 49.0365 42.5813 49.0904Z" fill="#FAFAFA"/>
<path d="M23.458 15.2653C23.4593 15.3464 23.4365 15.4261 23.3924 15.4942C23.3483 15.5623 23.2849 15.6157 23.2104 15.6477C23.1358 15.6796 23.0534 15.6887 22.9737 15.6737C22.894 15.6587 22.8206 15.6203 22.7627 15.5634C22.7049 15.5065 22.6653 15.4337 22.649 15.3543C22.6327 15.2748 22.6404 15.1923 22.6711 15.1172C22.7018 15.0422 22.7542 14.9779 22.8215 14.9327C22.8889 14.8875 22.9682 14.8633 23.0493 14.8633C23.1026 14.8624 23.1556 14.8722 23.2052 14.892C23.2547 14.9118 23.2998 14.9413 23.3379 14.9787C23.3759 15.0161 23.4061 15.0607 23.4267 15.1099C23.4474 15.1592 23.458 15.212 23.458 15.2653Z" fill="#FAFAFA"/>
<path d="M48.5205 46.7661C48.5205 46.847 48.4966 46.926 48.4516 46.9932C48.4067 47.0604 48.3429 47.1128 48.2682 47.1437C48.1935 47.1746 48.1114 47.1827 48.0321 47.167C47.9528 47.1512 47.88 47.1123 47.8228 47.0551C47.7657 46.998 47.7267 46.9251 47.711 46.8459C47.6952 46.7666 47.7033 46.6844 47.7342 46.6097C47.7652 46.535 47.8176 46.4712 47.8848 46.4263C47.952 46.3814 48.031 46.3574 48.1118 46.3574C48.2201 46.3578 48.3239 46.4009 48.4004 46.4775C48.477 46.5541 48.5202 46.6578 48.5205 46.7661Z" fill="#FAFAFA"/>
<path d="M14.3134 33.0153C14.3148 33.0967 14.2918 33.1767 14.2474 33.2449C14.203 33.3131 14.1392 33.3665 14.0643 33.3983C13.9893 33.43 13.9066 33.4387 13.8267 33.4231C13.7468 33.4076 13.6734 33.3685 13.6158 33.311C13.5582 33.2534 13.5192 33.18 13.5036 33.1001C13.4881 33.0202 13.4967 32.9375 13.5285 32.8625C13.5602 32.7876 13.6137 32.7238 13.6819 32.6794C13.7501 32.635 13.8301 32.612 13.9114 32.6133C14.0181 32.6133 14.1203 32.6557 14.1957 32.7311C14.2711 32.8065 14.3134 32.9087 14.3134 33.0153Z" fill="#FAFAFA"/>
<path d="M51.9133 15.811C51.912 15.8903 51.8873 15.9673 51.8423 16.0325C51.7974 16.0978 51.7341 16.1482 51.6606 16.1776C51.587 16.207 51.5064 16.214 51.4289 16.1978C51.3513 16.1815 51.2803 16.1427 51.2248 16.0862C51.1692 16.0298 51.1316 15.9581 51.1166 15.8803C51.1016 15.8025 51.11 15.7221 51.1406 15.649C51.1712 15.5759 51.2227 15.5135 51.2887 15.4697C51.3547 15.4258 51.4321 15.4024 51.5113 15.4023C51.6184 15.4044 51.7205 15.4484 51.7956 15.5248C51.8707 15.6012 51.913 15.7039 51.9133 15.811Z" fill="#FAFAFA"/>
<path d="M12.4945 27.8345L13.5009 28.3852L12.4945 28.9346L11.9438 29.9423L11.3931 28.9346L10.3867 28.3852L11.3931 27.8345L11.9438 26.8281L12.4945 27.8345Z" fill="#BA68C8"/>
<path d="M39.4047 52.2427L40.411 52.7934L39.4047 53.3441L38.854 54.3505L38.3032 53.3441L37.2969 52.7934L38.3032 52.2427L38.854 51.2363L39.4047 52.2427Z" fill="#BA68C8"/>
<path d="M42.725 5.94384L43.7313 6.49458L42.725 7.04532L42.1743 8.05166L41.6235 7.04532L40.6172 6.49458L41.6235 5.94384L42.1743 4.9375L42.725 5.94384Z" fill="#BA68C8"/>
<path d="M45.3593 8.55328L45.8618 8.82798L45.3593 9.10402L45.0832 9.60652L44.8085 9.10402L44.3047 8.82798L44.8085 8.55328L45.0832 8.05078L45.3593 8.55328Z" fill="#BA68C8"/>
<path d="M32.2551 8.18658L32.9345 8.55776L32.2551 8.92894L31.8826 9.60832L31.5114 8.92894L30.832 8.55776L31.5114 8.18658L31.8826 7.50586L32.2551 8.18658Z" fill="#BA68C8"/>
<path d="M32.1561 52.5175L32.6586 52.7922L32.1561 53.0683L31.8801 53.5708L31.6054 53.0683L31.1016 52.7922L31.6054 52.5175L31.8801 52.0137L32.1561 52.5175Z" fill="#BA68C8"/>
<path d="M53.3579 34.0175L53.8618 34.2922L53.3579 34.5669L53.0832 35.0708L52.8072 34.5669L52.3047 34.2922L52.8072 34.0175L53.0832 33.5137L53.3579 34.0175Z" fill="#BA68C8"/>
<path d="M55.9509 38.8262L48.0462 34.293L42.5938 35.4628L44.3398 40.7585L52.2444 45.2917L50.4984 39.9947L55.9509 38.8262Z" fill="#BA68C8"/>
<path opacity="0.3" d="M55.9509 38.8262L48.0462 34.293L42.5938 35.4628L44.3398 40.7585L52.2444 45.2917L50.4984 39.9947L55.9509 38.8262Z" fill="black"/>
<path d="M45.5715 40.8017C45.5432 40.8017 45.5157 40.7927 45.4928 40.7761C45.4699 40.7595 45.4529 40.7361 45.4442 40.7092L44.0586 36.5083L45.8931 36.1144C45.9103 36.1106 45.9281 36.1103 45.9455 36.1135C45.9628 36.1167 45.9794 36.1232 45.9942 36.1328C46.009 36.1424 46.0218 36.1548 46.0318 36.1694C46.0418 36.1839 46.0489 36.2003 46.0525 36.2175C46.0597 36.2522 46.0528 36.2882 46.0335 36.3179C46.0142 36.3475 45.9839 36.3683 45.9493 36.3757L44.407 36.7066L45.6947 40.6261C45.7057 40.6599 45.7029 40.6967 45.6868 40.7283C45.6707 40.76 45.6427 40.7839 45.609 40.795C45.5968 40.7987 45.5842 40.801 45.5715 40.8017Z" fill="#BA68C8"/>
<path d="M47.0121 36.1466C46.9765 36.1504 46.941 36.1398 46.9132 36.1173C46.8854 36.0948 46.8678 36.0622 46.864 36.0267C46.8603 35.9912 46.8708 35.9556 46.8933 35.9278C46.9158 35.9001 46.9484 35.8824 46.9839 35.8786L48.7139 35.5115C48.7315 35.5073 48.7497 35.5067 48.7676 35.5096C48.7854 35.5125 48.8025 35.5189 48.8179 35.5284C48.8332 35.538 48.8466 35.5504 48.8571 35.5651C48.8677 35.5798 48.8752 35.5964 48.8794 35.614C48.8835 35.6316 48.8841 35.6498 48.8812 35.6676C48.8783 35.6855 48.8719 35.7026 48.8624 35.7179C48.8529 35.7333 48.8404 35.7467 48.8258 35.7572C48.8111 35.7678 48.7945 35.7753 48.7769 35.7795L47.0349 36.1439L47.0121 36.1466Z" fill="#BA68C8"/>
<path d="M45.7582 37.1932C45.7226 37.1969 45.6871 37.1864 45.6593 37.1639C45.6315 37.1414 45.6138 37.1088 45.6101 37.0733C45.6064 37.0377 45.6169 37.0022 45.6394 36.9744C45.6619 36.9466 45.6945 36.9289 45.73 36.9252L48.8737 36.2552C48.9072 36.2505 48.9413 36.2587 48.969 36.278C48.9968 36.2974 49.0162 36.3266 49.0233 36.3597C49.0304 36.3928 49.0248 36.4274 49.0075 36.4564C48.9901 36.4855 48.9625 36.507 48.93 36.5165L45.7863 37.1865C45.7773 37.1901 45.7678 37.1923 45.7582 37.1932Z" fill="#BA68C8"/>
<path d="M46.589 41.3684C46.5608 41.3684 46.5333 41.3595 46.5104 41.3429C46.4875 41.3263 46.4705 41.3028 46.4617 41.276L45.9485 39.7162C45.9428 39.6995 45.9405 39.6818 45.9417 39.6642C45.9429 39.6466 45.9475 39.6294 45.9554 39.6136C45.9632 39.5978 45.9741 39.5837 45.9874 39.5721C46.0007 39.5605 46.0162 39.5516 46.0329 39.546C46.0497 39.5404 46.0675 39.5381 46.0852 39.5394C46.1029 39.5407 46.1201 39.5454 46.1359 39.5534C46.1518 39.5614 46.1659 39.5724 46.1774 39.5859C46.1889 39.5993 46.1977 39.6149 46.2031 39.6318L46.7163 41.1929C46.7274 41.2265 46.7247 41.2631 46.7089 41.2947C46.6931 41.3263 46.6654 41.3504 46.6319 41.3617C46.618 41.3659 46.6036 41.3682 46.589 41.3684Z" fill="#BA68C8"/>
<path d="M50.8751 38.38C50.8439 38.3806 50.8135 38.3705 50.7891 38.3511C50.7646 38.3318 50.7476 38.3046 50.7411 38.2741C50.7339 38.2396 50.7406 38.2037 50.7596 38.1742C50.7787 38.1446 50.8086 38.1237 50.8429 38.116L52.195 37.8252C52.2305 37.8177 52.2676 37.8247 52.298 37.8445C52.3284 37.8644 52.3497 37.8955 52.3571 37.931C52.3646 37.9666 52.3576 38.0036 52.3378 38.034C52.3179 38.0645 52.2868 38.0857 52.2513 38.0932L50.8992 38.3826C50.8911 38.3827 50.883 38.3818 50.8751 38.38Z" fill="#BA68C8"/>
<path d="M48.448 42.537C48.4197 42.537 48.3922 42.528 48.3693 42.5114C48.3465 42.4948 48.3294 42.4714 48.3207 42.4445L47.179 38.9779C47.1733 38.9612 47.171 38.9436 47.1722 38.9259C47.1733 38.9083 47.178 38.8911 47.1858 38.8753C47.1937 38.8595 47.2046 38.8454 47.2179 38.8338C47.2312 38.8222 47.2467 38.8134 47.2634 38.8078C47.2802 38.8021 47.298 38.7999 47.3156 38.8011C47.3333 38.8024 47.3506 38.8071 47.3664 38.8151C47.3822 38.8231 47.3963 38.8341 47.4079 38.8476C47.4194 38.861 47.4281 38.8767 47.4336 38.8935L48.5753 42.3601C48.5809 42.3769 48.5832 42.3947 48.5819 42.4123C48.5806 42.43 48.5759 42.4473 48.5679 42.4631C48.5599 42.4789 48.5489 42.493 48.5354 42.5045C48.522 42.5161 48.5064 42.5248 48.4895 42.5303C48.476 42.5345 48.4621 42.5367 48.448 42.537Z" fill="#BA68C8"/>
<path d="M50.309 39.434C50.2734 39.4377 50.2379 39.4272 50.2101 39.4047C50.1823 39.3822 50.1646 39.3496 50.1609 39.3141C50.1572 39.2785 50.1677 39.243 50.1902 39.2152C50.2127 39.1874 50.2453 39.1697 50.2808 39.166L53.6817 38.437C53.6994 38.4319 53.718 38.4304 53.7362 38.4327C53.7545 38.435 53.7721 38.4411 53.7879 38.4505C53.8038 38.4599 53.8175 38.4725 53.8282 38.4875C53.839 38.5024 53.8465 38.5194 53.8504 38.5374C53.8543 38.5554 53.8544 38.574 53.8508 38.5921C53.8471 38.6101 53.8398 38.6273 53.8293 38.6424C53.8187 38.6575 53.8052 38.6702 53.7895 38.6799C53.7738 38.6895 53.7563 38.6958 53.738 38.6983L50.3371 39.4273L50.309 39.434Z" fill="#BA68C8"/>
<path d="M49.5053 43.0921C49.477 43.092 49.4495 43.0831 49.4266 43.0665C49.4038 43.0499 49.3868 43.0265 49.378 42.9996L48.8098 41.2723C48.8003 41.239 48.8041 41.2033 48.8204 41.1727C48.8367 41.142 48.8642 41.1189 48.8971 41.1082C48.9301 41.0974 48.9659 41.0999 48.9971 41.115C49.0283 41.1301 49.0525 41.1567 49.0644 41.1893L49.6326 42.9125C49.6436 42.9463 49.6407 42.983 49.6246 43.0147C49.6086 43.0463 49.5806 43.0703 49.5468 43.0813C49.5336 43.0869 49.5196 43.0905 49.5053 43.0921Z" fill="#BA68C8"/>
<path d="M45.9206 37.9869C45.8382 37.9871 45.7573 37.9654 45.6861 37.9239L35.1001 31.8149C34.9954 31.7512 34.9199 31.6491 34.8896 31.5304C34.8593 31.4117 34.8766 31.2858 34.9379 31.1798C34.9991 31.0737 35.0995 30.9958 35.2174 30.9627C35.3354 30.9297 35.4616 30.9441 35.5691 31.0028L46.1551 37.1119C46.2444 37.1636 46.3142 37.2432 46.3537 37.3386C46.3931 37.4339 46.4001 37.5397 46.3733 37.6393C46.3466 37.739 46.2878 37.8271 46.2059 37.8899C46.1241 37.9528 46.0238 37.9869 45.9206 37.9869Z" fill="#263238"/>
</svg>
