<svg width="200" height="200" viewBox="0 0 200 200" fill="none" xmlns="http://www.w3.org/2000/svg">
<path d="M148.642 121.04C148.642 121.04 145.842 145.6 126.802 156.96C107.682 168.24 89.6021 166.8 75.6821 162C61.7621 157.2 52.6421 143.84 49.7621 137.76C46.8021 131.68 46.0821 123.6 46.1621 119.04L47.2821 119.36C47.2821 119.36 58.8021 127.68 68.8821 130.16C68.8821 130.16 74.1621 139.92 74.6421 139.92C75.1221 139.92 76.9621 140 76.9621 140L77.5221 141.12C77.5221 141.12 81.6021 142.96 84.4021 146.24L110.962 145.04C110.962 145.04 119.282 148.96 120.722 140.48L121.762 139.04L126.242 136.96L130.402 129.68C130.402 129.68 147.522 120.24 147.682 120.16C147.842 120.16 148.242 120.16 148.402 120.16C148.482 120.4 148.642 121.04 148.642 121.04Z" fill="white"/>
<path d="M144.479 134.08C144.479 134.08 127.439 162.4 95.8388 161.36C64.2388 160.32 48.7188 134.64 48.7188 134.64C48.7188 134.64 56.4787 164.24 93.1988 165.44C129.839 166.64 141.519 143.2 144.479 134.56" fill="#252468"/>
<path d="M95.8408 166.48C110.641 166.96 123.521 162.32 134.401 152.56C141.441 146.24 145.121 137.52 147.041 131.36C149.121 124.72 149.521 119.6 149.521 119.36C149.521 118.88 149.201 118.4 148.721 118.4C148.241 118.4 147.761 118.72 147.761 119.28C147.761 119.52 146.081 139.68 133.281 151.2C118.561 164.48 99.8408 168 77.7608 161.68C58.0008 156.08 46.4008 134.88 46.9608 118.48C46.9608 118 46.5608 117.52 46.0808 117.52C45.6008 117.52 44.8808 116.8 44.8808 117.36C44.5608 126.24 47.8408 137.12 53.3608 145.36C59.3608 154.32 67.8408 160.72 77.2808 163.44C83.6808 165.28 89.9208 166.32 95.8408 166.48Z" fill="#252468"/>
<path d="M28.7162 52.96C28.6362 52.64 28.2362 49.92 26.3162 48.72C25.1163 47.92 23.8362 48.48 23.0362 49.04C22.3162 50.64 21.0362 54.72 22.4762 55.76C22.9562 56.08 23.4362 56.24 23.8362 56.08C24.7162 55.84 25.1962 54.72 25.1962 54.72C25.2762 54.56 25.4362 54.48 25.5962 54.56C25.7562 54.64 25.8362 54.8 25.7562 54.96C25.7562 54.96 25.5962 55.2 25.4362 55.52C25.1962 55.92 24.7162 56.4 24.0762 56.64C23.5962 56.8 23.1162 56.72 22.5562 56.48C22.3962 57.12 22.0762 57.68 21.7562 58.24C20.5562 60 18.6363 61.28 18.4762 61.36C18.3162 61.44 18.1562 61.44 18.0762 61.28C17.9962 61.12 17.9963 60.96 18.1562 60.88C18.1562 60.88 21.6762 58.48 22.0762 56.08C20.6362 54.8 21.5162 51.44 22.1562 49.68C22.0762 49.68 21.9962 49.68 21.9162 49.68C21.9162 49.68 20.3962 48.8 18.7962 49.12C17.9962 49.28 15.6762 52 14.3962 55.36C13.5962 57.6 13.0363 60.72 14.9563 63.28C16.3163 65.04 17.7562 66 19.2762 66.08C21.1162 66.24 22.5562 65.2 22.7962 64.96C25.0362 62.24 28.0763 57.6 28.7162 52.96Z" fill="#545580"/>
<g opacity="0.25">
<path d="M15.9965 58.24C14.7965 58.4 13.8365 58.08 13.8365 58.08C13.1965 61.84 16.3165 65.6 16.3165 65.6C16.4765 65.68 16.7165 65.76 16.8765 65.76C18.7165 66.24 20.2365 65.44 20.5565 65.28C23.0365 63.04 26.5565 59.44 28.1565 55.44C28.0765 55.28 27.1165 52.16 25.5165 53.36C24.0765 54.4 23.1965 56.08 22.4765 56.56C22.7165 56.64 22.9565 56.72 23.1965 56.72C24.0765 56.64 24.7165 55.68 24.7165 55.6C24.7965 55.44 24.9565 55.44 25.1165 55.52C25.2765 55.6 25.2765 55.76 25.1965 55.92C25.1965 55.92 25.0365 56.16 24.7965 56.4C24.4765 56.72 23.9165 57.12 23.2765 57.2C22.7965 57.28 22.3165 57.12 21.8365 56.72C21.5965 57.28 21.1965 57.84 20.7165 58.32C19.1965 59.84 17.1165 60.8 16.9565 60.8C16.7965 60.88 16.6365 60.8 16.5565 60.64C16.4765 60.48 16.5565 60.32 16.7165 60.24C16.7165 60.24 20.6365 58.48 21.3565 56.24C20.9565 55.76 20.8765 55.04 20.9565 54.32C20.9565 54.32 17.1965 58.08 15.9965 58.24Z" fill="#232664"/>
</g>
<g opacity="0.4">
<path d="M14.0016 52.64C14.0016 52.56 17.0416 46 18.2416 44.72C19.2016 43.68 21.2016 44.16 21.6816 44.4C21.8416 43.92 22.0016 43.44 22.0816 43.04C22.0016 43.04 21.9216 43.04 21.8416 43.04C21.8416 43.04 20.3216 42.16 18.7216 42.48C17.9216 42.64 15.6016 45.36 14.3216 48.72C13.9216 49.84 13.6016 51.28 13.6016 52.64C13.6816 52.8 14.0016 52.64 14.0016 52.64Z" fill="white"/>
</g>
<path d="M23.841 65.84C23.761 65.92 23.761 65.9199 23.681 65.9999C23.601 66.0799 21.761 67.68 19.201 67.44C17.281 67.28 15.521 66.1599 14.001 64.0799C12.161 61.6799 11.921 58.5599 13.201 54.9599C14.401 51.6799 16.961 48.24 18.481 47.92C19.841 47.6 21.041 48 21.841 48.32C23.041 47.36 25.041 46.3199 27.041 47.5999C29.521 49.2799 30.001 52.7199 30.001 52.7999C30.081 53.3599 29.681 53.84 29.121 53.92C28.561 54 28.081 53.6 28.001 53.04C28.001 53.04 27.681 50.3999 25.921 49.1999C24.481 48.2399 22.801 50.0799 22.801 50.0799C22.481 50.3999 21.921 50.4799 21.521 50.2399C21.521 50.2399 20.241 49.44 18.961 49.76C18.321 50 15.841 52.7999 14.801 56.4799C14.081 59.0399 14.321 61.1999 15.601 62.8799C16.801 64.4799 18.081 65.28 19.361 65.44C21.041 65.6 22.401 64.4799 22.401 64.4799C22.801 64.0799 23.441 64.1599 23.841 64.5599C24.081 64.9599 24.081 65.52 23.841 65.84Z" fill="#252468"/>
<path d="M158.801 150.56C162.881 148.4 168.481 148.32 172.081 148.48C172.401 148.56 174.081 149.12 174.961 150.72C175.681 152.08 175.761 153.76 175.041 155.84C174.081 158.88 171.121 160.24 168.881 160.8C165.441 161.68 161.841 161.36 161.281 160.8C160.081 159.76 160.001 157.92 160.001 157.92C160.001 157.84 159.921 157.76 159.921 157.68C161.681 157.2 165.041 156.08 165.201 154.16C167.361 153.12 171.281 154.64 171.361 154.64C171.521 154.72 171.681 154.64 171.761 154.48C171.841 154.32 171.761 154.16 171.601 154.08C171.441 154 169.281 153.2 167.201 153.2C166.481 153.2 165.841 153.28 165.281 153.52C165.201 152.96 164.961 152.48 164.561 152.16C164.081 151.76 163.361 151.68 162.881 151.68C162.481 151.68 162.241 151.76 162.241 151.76C162.081 151.76 162.001 151.92 162.001 152.08C162.001 152.24 162.161 152.32 162.321 152.32C162.321 152.32 163.521 152.08 164.161 152.64C164.481 152.96 164.641 153.36 164.641 154C164.641 155.84 160.481 157.04 158.801 157.44C157.921 157.12 156.721 156.4 156.641 154.96C156.641 152.72 158.561 150.8 158.801 150.56Z" fill="#545580"/>
<path d="M158.801 149.92C158.161 148.64 155.121 142.56 153.361 136.48C151.521 130.4 151.041 127.52 150.961 126.96L152.481 124.32C152.881 123.92 158.321 118.24 164.081 115.92L168.081 114.72C168.801 115.36 173.201 119.36 175.121 128.56C177.041 137.76 175.921 146.56 175.681 148.24C173.761 148 164.881 146.88 158.801 149.92Z" fill="white"/>
<path d="M113.363 57.6C107.283 54.72 102.483 53.84 98.2428 53.84C94.3228 53.84 90.9628 54.64 87.6828 55.36C79.1228 57.36 71.6028 62.24 66.6428 69.12C62.4828 74.88 60.4028 81.44 60.3228 88.64C60.2428 94.24 62.0828 98.88 65.7628 102.56C74.0028 110.8 89.8428 112.56 101.683 112.56C109.363 112.56 134.563 111.28 135.603 94.4C136.323 79.76 126.803 63.92 113.363 57.6Z" fill="#252468"/>
<path d="M152.077 123.84L149.117 121.36C151.357 116.24 157.437 111.6 158.637 110.72C160.397 112.48 162.237 114.4 163.357 115.6C158.077 117.92 153.117 122.8 152.077 123.84Z" fill="#5DB075"/>
<path d="M149.039 120.24C149.759 115.76 150.159 111.2 150.079 106.64C150.799 106.64 152.799 106.72 154.239 107.12C154.879 107.28 156.479 108.72 158.159 110.32C156.879 111.28 151.599 115.44 149.039 120.24Z" fill="url(#paint0_linear_1614_53414)"/>
<path d="M101.361 44.8C92.961 44.8 83.361 48.5601 74.241 55.4401C65.441 62.0801 57.761 70.9601 52.801 80.48C43.281 98.7201 45.441 115.04 45.681 116.48C49.921 120.4 63.361 127.6 63.441 127.68C63.521 127.68 63.521 127.76 63.521 127.76L67.681 135.04L72.481 137.6C72.881 135.6 74.641 127.92 76.241 126.88C78.081 125.68 105.921 125.92 109.681 127.2C113.521 128.48 116.241 137.68 116.721 139.2H119.041C119.601 138.56 122.961 133.2 125.041 129.84C125.041 129.76 125.121 129.76 125.201 129.68C136.801 126.88 147.281 119.76 148.401 118.88C149.681 97.4401 141.681 75.2801 126.801 59.4401C118.481 50.4801 108.641 44.8 101.361 44.8ZM136.081 94.4801C135.041 111.84 109.441 113.2 101.601 113.2C89.681 113.2 73.681 111.44 65.281 103.04C61.521 99.2801 59.681 94.4001 59.681 88.7201C59.761 81.3601 61.921 74.7201 66.081 68.8001C71.121 61.76 78.721 56.8 87.441 54.8C94.161 53.28 101.681 51.5201 113.521 57.0401C120.081 60.1601 126.001 65.5201 130.161 72.3201C134.401 79.2001 136.481 87.1201 136.081 94.4801Z" fill="white"/>
<path d="M80.1572 152.24C80.9572 153.12 83.1972 155.52 84.1572 155.6C85.6772 155.76 103.277 157.28 106.077 156.4C108.877 155.52 110.077 153.68 110.077 153.6C110.157 153.52 114.557 147.2 116.317 139.52C116.077 138.64 113.277 128.96 109.597 127.76C107.597 127.12 99.4372 126.72 92.2372 126.72C84.0772 126.64 77.3572 126.96 76.6372 127.44C75.3572 128.32 73.6772 135.44 73.1172 138.16C73.1972 145.92 80.0772 152.16 80.1572 152.24Z" fill="#5DB075"/>
<g opacity="0.25">
<path d="M64.9619 137.76C65.1219 137.92 72.8819 141.36 72.8819 141.36C72.6419 140.4 72.4819 139.36 72.4819 138.24L67.3619 135.52C67.2819 135.52 67.2819 135.44 67.2819 135.44L63.1219 128.16C62.2419 127.68 55.2819 123.92 49.9219 120.4C50.0819 121.2 50.4819 122.64 51.0419 124.56C51.0419 124.56 58.9619 128.72 60.9619 130C62.9619 131.12 64.8819 137.52 64.9619 137.76Z" fill="#252468"/>
</g>
<g opacity="0.25">
<path d="M160.161 153.52C158.161 153.2 159.681 150.24 159.761 150.16C163.761 148.48 168.801 148.4 172.081 148.56C172.401 148.64 174.081 149.2 174.961 150.8C175.041 150.96 175.121 151.12 175.201 151.28C175.201 151.28 174.801 156.16 171.681 158.32C171.681 158.32 171.201 157.36 170.241 156.72C169.281 156 164.161 155.92 164.161 155.92C164.721 155.44 165.121 154.88 165.201 154.24C167.361 153.2 171.281 154.72 171.361 154.72C171.521 154.8 171.681 154.72 171.761 154.56C171.841 154.4 171.761 154.24 171.601 154.16C171.441 154.08 169.281 153.28 167.201 153.28C166.481 153.28 165.841 153.36 165.281 153.6C165.201 153.04 164.961 152.56 164.561 152.24C164.081 151.84 163.361 151.76 162.881 151.76C162.481 151.76 162.241 151.84 162.241 151.84C162.081 151.84 162.001 152 162.001 152.16C162.001 152.32 162.161 152.4 162.321 152.4C162.321 152.4 163.521 152.16 164.161 152.72C164.321 152.88 164.481 153.12 164.561 153.36C163.761 153.2 161.921 153.84 160.161 153.52Z" fill="#232664"/>
</g>
<g opacity="0.15">
<path d="M174.482 143.12L174.162 145.04H171.522C171.522 145.04 169.042 124.4 162.402 125.12C155.762 125.76 153.602 131.28 153.602 131.28C152.802 129.12 152.162 126.24 151.922 125.36L152.402 124.48C152.802 124.08 158.242 118.4 164.002 116.08L166.082 115.44H166.962C176.642 128 174.482 143.12 174.482 143.12Z" fill="#252468"/>
</g>
<g opacity="0.25">
<path d="M157.761 118.96C157.441 119.2 157.121 119.44 156.801 119.68L153.281 115.52C153.441 115.36 153.601 115.2 153.761 114.96C154.721 116 157.681 119.04 157.761 118.96Z" fill="#252468"/>
</g>
<g opacity="0.25">
<path d="M150.56 111.52L150.32 108.16C150.32 108.16 152.24 108.16 153.92 109.04C154.56 109.36 155.6 110.32 156.8 111.44C156.08 112 155.28 112.72 154.32 113.6C153.92 113.2 153.6 112.88 153.44 112.72C152.64 112.08 150.56 111.52 150.56 111.52Z" fill="#252468"/>
</g>
<g opacity="0.25">
<path d="M161.437 116.24L159.997 117.36C159.597 117.6 159.197 117.84 158.797 118.16H158.877C158.877 118.16 156.397 115.68 154.797 114C155.677 113.12 156.557 112.4 157.277 111.84C159.277 113.84 161.357 116.24 161.437 116.24Z" fill="#252468"/>
</g>
<g opacity="0.25">
<path opacity="0.5" d="M121.92 141.36C122.08 141.2 125.84 133.2 128.08 132.32C130.32 131.44 142 126.72 143.2 126.24C143.76 124.4 144.16 123.04 144.4 122.24C140 124.8 133.04 128.4 125.6 130.24C119.76 139.76 119.52 139.76 119.28 139.76H116.8C116.56 140.72 116.32 141.68 116 142.56C116.08 142.56 121.76 141.52 121.92 141.36Z" fill="#252468"/>
</g>
<g opacity="0.1">
<path d="M81.2031 150.8C82.8031 152.88 85.2031 154.16 87.8431 154.4L94.7231 155.2L102.723 154.96C105.443 154.88 107.923 153.36 109.203 151.04C109.763 150 110.403 149.12 110.803 148.16C112.723 144.24 113.603 141.92 114.083 138.32C114.083 138.32 111.523 144.24 106.403 147.76C101.363 151.28 94.6431 150.4 94.6431 150.4C94.6431 150.4 87.9231 150.72 82.8031 147.28C77.7631 143.76 75.2031 138.4 75.2031 138.4C75.6831 142 77.4431 145.28 79.2831 148.24C79.9231 149.04 80.4831 149.92 81.2031 150.8Z" fill="#252468"/>
</g>
<g opacity="0.15">
<path d="M124.083 127.04L145.683 116.96C145.763 115.36 145.523 110.88 145.523 110.88C141.923 113.84 131.203 118.4 131.203 118.4L130.723 112.88C118.403 122.88 97.2033 122.56 97.2033 122.56C97.2033 122.56 76.0833 122.88 63.6833 112.88L63.2033 118.4C63.2033 118.4 52.4833 113.84 48.8833 110.88C48.8833 110.88 47.6033 113.36 47.6833 114.96L65.2833 125.2L69.0433 133.04L73.0433 135.04C73.7633 132 75.0433 127.68 76.1633 126.96C78.0033 125.76 105.843 126 109.603 127.28C112.563 128.24 114.883 134 116.003 137.28L118.483 136.96L124.083 127.04Z" fill="#252468"/>
</g>
<g opacity="0.4">
<path d="M163.68 160C165.36 160.24 172.56 158.96 172.56 158.96C172.56 158.96 172.72 159.04 172.72 159.12C171.52 160 170.16 160.56 168.96 160.88C165.52 161.76 161.92 161.44 161.36 160.88C160.16 159.84 160.08 158 160.08 158C160.08 157.92 160 157.84 160 157.76C160.4 157.68 160.96 157.52 161.52 157.28C161.6 157.84 162.24 159.84 163.68 160Z" fill="white"/>
</g>
<g opacity="0.4">
<path d="M160.557 155.76C162.717 155.2 164.237 153.92 164.637 153.6C164.637 153.76 164.717 153.92 164.717 154.08C164.717 155.92 160.557 157.12 158.877 157.52C158.237 157.28 157.517 156.88 157.117 156.24C157.437 156.24 158.637 156.24 160.557 155.76Z" fill="white"/>
</g>
<g opacity="0.4">
<path d="M149.043 101.36C149.043 101.6 149.443 102 149.443 102L152.483 98.96C151.923 98.4 151.443 97.92 151.203 97.76C151.203 97.76 151.122 97.76 151.122 97.84L149.043 99.52C148.883 99.68 148.643 100 148.562 100.08C148.643 100.16 149.043 101.12 149.043 101.36Z" fill="white"/>
</g>
<g opacity="0.4">
<path d="M131.997 144.24C131.837 144.4 128.637 145.28 128.077 145.6C127.517 145.92 126.477 147.28 126.477 147.44C126.477 147.6 132.797 145.52 133.037 145.36C133.197 145.2 136.397 138 136.397 138C134.957 139.44 132.157 144.08 131.997 144.24Z" fill="white"/>
</g>
<g opacity="0.4">
<path d="M115.197 136.16C114.637 133.68 111.677 130.16 110.797 128.4C110.557 128 110.318 127.68 110.078 127.36L109.997 127.28C109.517 126.96 106.557 126.72 102.238 126.64C99.8375 126.64 97.2775 126.56 95.0375 126.56C94.7975 126.56 94.5575 126.56 94.3975 126.56C93.9975 126.56 93.5975 126.56 93.2775 126.56C92.8775 126.56 92.4775 126.56 92.1575 126.56C91.9175 126.56 91.6775 126.56 91.5175 126.56C89.2775 126.56 86.7175 126.56 84.3175 126.64C79.9975 126.72 77.0375 126.96 76.5575 127.28L76.4775 127.36C76.2375 127.6 75.9975 128 75.7575 128.4C74.9575 130.08 73.9975 133.36 73.4375 135.84C73.4375 136.08 73.4375 136.32 73.5175 136.48C73.5175 136.48 77.5175 128.96 77.8375 128.88C77.9975 128.8 84.0775 128.8 89.3575 128.8V128.88C89.3575 128.88 107.598 128.96 108.878 129.92C110.638 131.2 115.517 138.32 115.517 138.32C115.677 138.16 115.197 136.48 115.197 136.16Z" fill="white"/>
</g>
<g opacity="0.25">
<path d="M84.3203 126.72C86.7203 126.72 89.2803 126.64 91.5203 126.64C88.9603 126.64 86.4803 126.64 84.3203 126.72Z" fill="#232664"/>
</g>
<g opacity="0.4">
<path d="M84.3203 126.72C86.7203 126.72 89.2803 126.64 91.5203 126.64C88.9603 126.64 86.4803 126.64 84.3203 126.72Z" fill="white"/>
</g>
<g opacity="0.4">
<path d="M172.16 147.36C172.16 147.36 165.6 145.28 159.6 147.36C159.6 147.36 156.16 141.04 154.88 136.88C153.6 132.72 152 131.36 152 131.36C152 131.36 155.6 144.96 158.56 149.68C158.56 149.68 166.16 147.84 172.08 147.92V147.36H172.16Z" fill="white"/>
</g>
<g opacity="0.4">
<path d="M59.1226 85.84C59.1226 85.84 55.4426 95.92 63.9226 104.32C72.4026 112.72 83.6826 115.76 103.683 115.28C123.683 114.8 132.003 109.92 135.843 102.64C139.683 95.36 135.843 86 135.843 86C135.843 86 139.523 99.92 127.123 107.2C114.723 114.48 91.2826 114.88 75.2026 108.88C59.0426 102.8 59.6826 89.84 59.1226 85.84Z" fill="white"/>
</g>
<path d="M119.281 140.48H116.641C116.161 140.48 115.761 140.16 115.681 139.76C114.641 135.84 112.001 129.28 109.441 128.4C105.601 127.12 79.2809 127.12 77.0409 128C76.2409 128.72 74.7209 133.84 73.8409 138.24C73.7609 138.56 73.6009 138.8 73.2809 138.96C72.9609 139.12 72.6409 139.12 72.4009 138.96L67.2009 136.16C67.0409 136.08 66.8809 135.92 66.8009 135.76L62.7209 128.64C60.8009 127.6 48.8809 121.12 44.8809 117.36C44.7209 117.2 44.6409 117.04 44.5609 116.8C44.4009 116.08 41.6809 99.28 51.7609 79.92C56.8009 70.24 64.5609 61.2 73.5209 54.4C82.8809 47.36 92.7209 43.52 101.361 43.52C109.121 43.52 119.041 49.2 128.001 58.64C134.881 65.92 140.481 74.88 144.321 84.56C148.721 95.76 150.641 107.36 149.921 119.12C149.921 119.44 149.761 119.68 149.521 119.84C149.041 120.16 138.481 127.68 126.161 130.8C125.681 131.52 124.561 133.36 123.441 135.2C120.001 140.48 119.921 140.48 119.281 140.48ZM117.361 138.48H118.881C119.681 137.36 122.321 133.28 124.641 129.52C124.801 129.28 124.961 129.12 125.281 129.04C136.161 126.4 146.001 120 148.001 118.56C149.201 97.44 141.201 75.6 126.641 60C118.241 51.04 108.561 45.44 101.521 45.44C93.2809 45.44 83.8409 49.12 74.8809 55.92C65.9209 62.56 58.4009 71.36 53.4409 80.8C44.4009 98.16 46.0009 113.68 46.3209 116.08C50.7209 120 63.6009 126.96 63.7609 126.96C63.9209 127.04 64.0809 127.2 64.1609 127.36L68.2409 134.48L72.0809 136.48C72.8809 133.04 74.3209 127.28 75.9209 126.24C77.2809 125.28 87.7609 125.28 92.2409 125.36C99.3609 125.44 107.761 125.76 110.001 126.48C113.921 127.76 116.561 135.84 117.361 138.48Z" fill="#252468"/>
<path d="M79.9237 153.44C79.6837 153.44 79.4437 153.36 79.2837 153.2C78.9637 152.96 71.9238 146.56 71.8438 138.08C71.8438 137.52 72.2437 137.12 72.8037 137.04C73.3637 137.04 73.7638 137.44 73.8438 138C73.9237 145.6 80.5638 151.6 80.6438 151.68C81.0437 152.08 81.1237 152.64 80.7237 153.12C80.4837 153.28 80.2437 153.44 79.9237 153.44Z" fill="#252468"/>
<path d="M110.32 154.72C110.16 154.72 109.92 154.64 109.76 154.56C109.28 154.24 109.2 153.6 109.52 153.2C109.6 153.12 113.92 146.88 115.68 139.28C115.84 138.72 116.32 138.4 116.88 138.56C117.44 138.72 117.76 139.2 117.6 139.76C115.76 147.76 111.36 154.08 111.12 154.4C110.96 154.64 110.64 154.72 110.32 154.72Z" fill="#252468"/>
<path d="M43.2874 92.16L44.9674 89.68C44.8874 89.12 44.5674 86.24 43.1274 80.08C41.6874 73.92 39.0474 67.68 38.4874 66.4C32.1674 69.12 23.3674 67.44 21.6874 67.04C21.3674 68.72 19.6874 77.44 21.0474 86.72C22.4074 96.08 26.4874 100.32 27.2074 100.96L31.2074 100C37.0474 97.84 42.8874 92.48 43.2874 92.16Z" fill="white"/>
<path d="M38.4798 65.5999C38.7198 65.3599 40.7998 63.5999 40.8798 61.3599C40.9598 59.9199 39.7598 59.1199 38.8798 58.7199C37.1998 58.9599 32.9598 59.9199 32.7998 61.7599C32.7998 62.3999 32.8798 62.7999 33.1998 63.1199C33.8398 63.7599 35.0398 63.5999 35.0398 63.5999C35.1998 63.5999 35.3598 63.6799 35.3598 63.8399C35.3598 63.9999 35.2798 64.1599 35.1198 64.1599C35.1198 64.1599 34.7998 64.2399 34.4798 64.1599C33.9998 64.1599 33.3598 63.9999 32.8798 63.5199C32.4798 63.1999 32.3198 62.7199 32.2398 62.1599C31.6798 62.3999 30.9598 62.3999 30.3198 62.3999C28.2398 62.2399 26.0798 61.2799 25.9998 61.1999C25.8398 61.1199 25.7598 60.9599 25.8398 60.7999C25.9198 60.6399 26.0798 60.5599 26.2398 60.6399C26.2398 60.6399 30.1598 62.3999 32.3198 61.5199C32.6398 59.5999 35.9998 58.6399 37.8398 58.3199C37.7598 58.2399 37.7598 58.1599 37.7598 58.0799C37.7598 58.0799 37.7598 56.3199 36.6398 55.1199C36.0798 54.5599 32.5598 53.9199 29.0398 54.6399C26.7198 55.1199 23.7598 56.2399 22.5598 59.1999C21.7598 61.1999 21.6798 62.9599 22.3998 64.3999C23.1998 66.0799 24.8798 66.7199 25.1998 66.7999C28.6398 67.2799 34.2398 67.5199 38.4798 65.5999Z" fill="#545580"/>
<path d="M45.4456 96.5599C45.5256 96.0799 45.6856 95.5199 45.7656 95.0399L43.4456 92.7999C42.3256 93.7599 37.1256 98.3999 31.7656 100.32C32.8056 101.6 34.5656 103.68 36.1656 105.52C37.3656 104.8 42.8856 101.52 45.4456 96.5599Z" fill="#5DB075"/>
<path d="M36.6406 105.84C38.2406 107.6 39.6806 109.04 40.3206 109.28C41.6806 109.76 43.4406 109.92 44.1606 110C44.0806 107.76 44.1606 103.6 45.1206 98.24C42.4006 102.4 37.8406 105.12 36.6406 105.84Z" fill="url(#paint1_linear_1614_53414)"/>
<g opacity="0.25">
<path d="M27.36 58.7999C26.48 57.9999 26 57.0399 26 57.0399C22.72 59.0399 22 63.9199 22 63.9199C22.08 64.0799 22.16 64.3199 22.24 64.4799C23.04 66.1599 24.72 66.7999 25.04 66.8799C28.32 67.2799 33.36 67.5199 37.44 66.0799C37.52 65.9199 39.2 63.1199 37.28 62.7199C35.6 62.3199 33.68 62.7999 32.88 62.5599C32.96 62.7999 33.04 63.0399 33.28 63.1999C33.92 63.8399 35.12 63.6799 35.12 63.6799C35.28 63.6799 35.44 63.7599 35.44 63.9199C35.44 64.0799 35.36 64.2399 35.2 64.2399C35.2 64.2399 34.88 64.3199 34.56 64.2399C34.08 64.2399 33.44 64.0799 32.96 63.5999C32.56 63.2799 32.4 62.7999 32.32 62.2399C31.68 62.3999 30.96 62.3999 30.32 62.3999C28.24 62.2399 26.08 61.2799 26 61.1999C25.84 61.1199 25.76 60.9599 25.84 60.7999C25.92 60.6399 26.08 60.5599 26.24 60.6399C26.24 60.6399 30.16 62.3999 32.32 61.5199C32.4 60.8799 32.88 60.3999 33.44 59.9199C33.44 59.9199 28.24 59.5199 27.36 58.7999Z" fill="#232664"/>
</g>
<g opacity="0.12">
<path opacity="0.15" d="M33.3608 90.88C26.7208 91.12 25.4408 70.4 25.4408 70.4L22.8008 70.24L22.4008 72.16C22.4008 72.16 19.2808 87.12 28.2408 100.32H29.1208L31.2008 99.84C37.0408 97.84 42.8808 92.56 43.2808 92.16L43.8408 91.28C43.6808 90.32 43.2008 87.52 42.5608 85.28C42.5608 85.28 40.0808 90.56 33.3608 90.88Z" fill="#252468"/>
</g>
<g opacity="0.25">
<path d="M40.8041 102.96C39.8441 103.76 38.9641 104.4 38.1641 104.88C39.2041 106 40.2441 107.04 40.8041 107.36C42.1641 108.24 43.6841 108.4 44.1641 108.48C44.1641 107.52 44.1641 106.4 44.3241 105.04C44.0841 104.96 42.2441 104.32 41.5241 103.6C41.3641 103.6 41.1241 103.28 40.8041 102.96Z" fill="#252468"/>
</g>
<g opacity="0.25">
<path d="M41.4416 101.6C41.6016 101.44 41.7616 101.28 42.0016 101.12L38.6416 96.5599C38.3216 96.7999 38.0016 97.0399 37.6016 97.1999C37.6816 97.1999 40.7216 100.8 41.4416 101.6Z" fill="#252468"/>
</g>
<g opacity="0.25">
<path d="M37.7656 104.48C38.4856 104 39.4456 103.36 40.4056 102.56C38.8856 100.88 36.4056 98 36.4056 98C36.4056 98 36.4056 98 36.4856 98C36.0856 98.24 35.6856 98.48 35.2856 98.72L33.7656 99.76C33.7656 99.76 35.8456 102.32 37.7656 104.48Z" fill="#252468"/>
</g>
<g opacity="0.4">
<path d="M40.5647 60.16C40.1647 59.44 39.4447 59.04 38.8847 58.72C37.4447 58.88 34.4047 59.6 33.2847 60.88C33.2047 61.04 33.0447 61.2 32.9647 61.28C32.8847 61.44 32.8047 61.6 32.8047 61.76C32.8047 62 32.8047 62.16 32.8847 62.4C32.9647 62.32 34.6447 60.88 37.1247 60.4C38.9647 60 40.0847 60.08 40.5647 60.16Z" fill="white"/>
</g>
<g opacity="0.4">
<path d="M25.3646 56.4C25.4446 56.4 32.6446 55.6 34.3246 55.92C35.7646 56.24 36.2446 58.16 36.4046 58.72C36.8846 58.56 37.4446 58.48 37.8446 58.4C37.7646 58.32 37.7646 58.24 37.7646 58.16C37.7646 58.16 37.7646 56.4 36.6446 55.2C36.0846 54.64 32.5646 54 29.0446 54.72C27.8446 54.96 26.4846 55.36 25.2846 56.16C25.0446 56.24 25.3646 56.4 25.3646 56.4Z" fill="white"/>
</g>
<g opacity="0.4">
<path d="M45.4422 96.56C45.6022 96 45.6822 95.52 45.8422 94.96L43.5222 92.72C43.2822 92.96 42.8822 93.36 42.2422 93.84L45.2022 97.12C45.2822 96.88 45.3622 96.72 45.4422 96.56Z" fill="white"/>
</g>
<g opacity="0.4">
<path d="M24.7266 68C24.7266 68 31.1266 70.48 37.2866 68.8C37.2866 68.8 40.3266 75.28 41.3666 79.6C42.3266 83.84 43.9266 85.28 43.9266 85.28C43.9266 85.28 41.1266 71.44 38.4066 66.48C38.4066 66.48 30.7266 67.84 24.8066 67.36L24.7266 68Z" fill="white"/>
</g>
<path d="M44.1672 111.28C43.4472 111.2 41.4472 111.04 39.9272 110.48C38.0072 109.76 32.3272 102.88 30.5672 100.72C30.3272 100.48 30.3272 100.16 30.4072 99.8399C30.4872 99.5199 30.7272 99.2799 31.0472 99.1999C36.8872 97.1999 42.8072 91.6799 42.8872 91.5999C43.2872 91.1999 43.9272 91.1999 44.2472 91.5999L46.8072 94.1599C47.2072 94.5599 47.2072 95.1999 46.8072 95.5999C46.4072 95.9999 45.7672 95.9999 45.3672 95.5999L43.4472 93.6799C41.7672 95.1199 37.5272 98.6399 32.8872 100.56C36.0072 104.4 39.6072 108.32 40.4872 108.64C42.0872 109.28 44.4072 109.36 44.4072 109.36C44.9672 109.36 45.3672 109.84 45.3672 110.4C45.3672 110.96 44.8872 111.36 44.3272 111.36C44.4072 111.28 44.3272 111.28 44.1672 111.28Z" fill="#252468"/>
<path d="M36.0821 106.72C35.7621 106.72 35.4421 106.48 35.2821 106.16C35.0421 105.68 35.2021 105.04 35.6821 104.8C35.7621 104.8 42.0821 101.44 44.8021 96.1599C45.0421 95.6799 45.6821 95.5199 46.1621 95.7599C46.6421 95.9999 46.8021 96.6399 46.5621 97.1199C43.5221 102.96 36.8821 106.48 36.6421 106.64C36.4821 106.72 36.2421 106.8 36.0821 106.72Z" fill="#252468"/>
<path d="M27.0436 102.08C26.8036 102.08 26.6436 102 26.4836 101.84C26.2436 101.68 21.3636 97.3599 19.7636 86.7199C18.2436 76.2399 20.3236 66.7199 20.4836 66.3199C20.5636 66.0799 20.7236 65.8399 20.9636 65.6799C21.2036 65.5199 21.4436 65.5199 21.6836 65.5199C21.7636 65.5199 31.7636 67.8399 38.2436 64.8799C38.4836 64.7999 38.7236 64.7999 39.0436 64.8799C39.2836 64.9599 39.5236 65.1999 39.6036 65.4399C39.7636 65.7599 42.8036 72.6399 44.4036 79.6799C46.0036 86.7199 46.2436 89.5199 46.2436 89.5999C46.2436 89.8399 46.2436 89.9999 46.0836 90.2399L44.3236 92.8799C44.0036 93.3599 43.4436 93.4399 42.9636 93.1999C42.4836 92.8799 42.4036 92.3199 42.6436 91.8399L44.1636 89.5199C44.0836 88.6399 43.6836 85.7599 42.4036 80.2399C41.1236 74.7999 38.9636 69.3599 38.0836 67.2799C32.3236 69.4399 24.8836 68.3199 22.1636 67.8399C21.6836 70.4799 20.4836 78.3199 21.6836 86.5599C22.8836 94.7999 26.2436 98.9599 27.3636 100.16L31.0436 99.2799C31.6036 99.1199 32.0836 99.4399 32.2436 99.9999C32.4036 100.56 32.0836 101.04 31.5236 101.2L27.3636 102.24C27.2836 102.08 27.1236 102.16 27.0436 102.08Z" fill="#252468"/>
<path d="M24.9604 68.16C24.8804 68.16 24.8004 68.16 24.7204 68.08C24.6404 68.08 22.2404 67.28 21.1204 64.96C20.3204 63.2 20.3204 61.12 21.2804 58.8C22.4004 56 24.9604 54.16 28.7204 53.44C32.1604 52.72 36.4004 53.2 37.5204 54.32C38.4804 55.28 38.8004 56.56 38.9604 57.36C40.4004 57.84 42.3204 59.12 42.2404 61.44C42.0804 64.48 39.4404 66.56 39.2804 66.72C38.8804 67.04 38.2404 66.96 37.9204 66.56C37.6004 66.16 37.6804 65.52 38.0804 65.2C38.0804 65.2 40.1604 63.52 40.2404 61.44C40.3204 59.68 37.8404 59.2 37.8404 59.2C37.3604 59.12 37.0404 58.72 37.0404 58.24C37.0404 58.24 37.0404 56.72 36.1604 55.84C35.6004 55.44 31.9204 54.72 28.3204 55.76C25.7604 56.48 24.0004 57.76 23.2804 59.68C22.5604 61.52 22.4804 63.04 23.0404 64.24C23.7604 65.76 25.4404 66.32 25.4404 66.32C26.0004 66.48 26.2404 67.04 26.0804 67.6C25.8404 67.92 25.3604 68.16 24.9604 68.16Z" fill="#252468"/>
<path d="M34.4833 64.88C33.8433 64.88 33.0433 64.64 32.4033 64.08C32.0033 63.68 31.4433 62.96 31.5233 61.68C31.6833 58.56 37.6033 57.6 38.7233 57.44C39.2833 57.36 39.7633 57.76 39.8433 58.32C39.9233 58.88 39.5233 59.36 38.9633 59.44C36.4033 59.76 33.5233 60.88 33.4433 61.84C33.4433 62.4 33.6033 62.56 33.6833 62.64C34.0033 62.96 34.6433 62.96 34.9633 62.88C35.5233 62.8 36.0033 63.2 36.0833 63.76C36.1633 64.32 35.7633 64.8 35.2033 64.88C35.2033 64.88 34.8833 64.88 34.4833 64.88Z" fill="#252468"/>
<path d="M30.2435 63.12C28.0835 62.96 26.0035 62.08 25.6835 61.92C25.2035 61.68 24.9635 61.12 25.2035 60.64C25.4435 60.16 26.0035 59.9199 26.4835 60.1599C27.4435 60.6399 30.5635 61.6799 32.0835 60.9599C32.5635 60.7199 33.2035 60.88 33.4435 61.44C33.6835 61.92 33.5235 62.56 32.9635 62.8C32.1635 63.04 31.2035 63.2 30.2435 63.12Z" fill="#252468"/>
<path d="M150.08 105.36C149.92 105.36 149.84 105.36 149.76 105.36C149.2 105.36 148.8 105.84 148.8 106.4C148.8 106.96 149.28 107.36 149.84 107.36C149.84 107.36 152.4 107.28 154.08 107.84C154.96 108.08 158.8 111.84 162.16 115.44C157.68 117.68 153.6 121.44 152.08 122.96L149.2 120.56C148.8 120.24 148.16 120.24 147.84 120.72C147.52 121.12 147.52 121.76 148 122.08L151.52 125.04C151.92 125.36 152.56 125.36 152.88 124.96C152.96 124.88 158.48 119.04 164.24 116.64C164.56 116.48 164.8 116.24 164.8 115.92C164.88 115.6 164.8 115.28 164.56 115.04C162.72 113.04 156.56 106.48 154.64 105.92C153.04 105.44 150.88 105.36 150.08 105.36Z" fill="#252468"/>
<path d="M158.642 109.36C158.482 109.36 158.242 109.44 158.082 109.52C157.762 109.76 150.562 114.88 147.922 120.88C147.682 121.36 147.922 122 148.402 122.16C148.882 122.4 149.522 122.16 149.682 121.68C152.082 116.24 159.042 111.2 159.122 111.2C159.602 110.88 159.682 110.24 159.362 109.84C159.282 109.52 158.962 109.36 158.642 109.36Z" fill="#252468"/>
<path d="M167.919 113.44C167.839 113.44 167.759 113.44 167.599 113.52L163.439 114.8C162.879 114.96 162.639 115.52 162.799 116.08C162.959 116.64 163.519 116.88 164.079 116.72L167.679 115.6C168.799 116.72 172.479 120.64 174.159 128.8C175.839 136.96 175.199 144.88 174.879 147.52C172.159 147.2 164.719 146.56 159.039 149.04C157.999 147.04 155.519 141.68 153.919 136.4C152.319 130.96 151.679 128.16 151.519 127.2L152.879 124.8C153.119 124.32 152.959 123.68 152.479 123.44C151.999 123.2 151.359 123.36 151.119 123.84L149.519 126.56C149.439 126.72 149.359 126.96 149.359 127.2C149.359 127.28 149.759 130.08 151.839 136.96C153.919 143.92 157.359 150.56 157.519 150.88C157.679 151.12 157.839 151.28 158.079 151.36C158.319 151.44 158.639 151.44 158.799 151.28C165.119 148 175.199 149.6 175.279 149.68C175.519 149.76 175.839 149.68 175.999 149.52C176.239 149.36 176.399 149.12 176.399 148.88C176.479 148.48 177.999 138.8 175.839 128.48C173.599 117.92 168.399 113.92 168.239 113.76C168.399 113.52 168.159 113.44 167.919 113.44Z" fill="#252468"/>
<path d="M172.159 147.28C171.679 147.28 171.279 147.6 171.199 148.08C171.039 148.64 171.439 149.12 171.919 149.28C171.999 149.28 173.599 149.76 174.399 151.2C175.039 152.4 175.039 153.92 174.479 155.76C173.839 157.68 172.239 159.12 169.679 160C166.159 161.2 162.399 160.72 161.839 160.4C160.879 159.52 160.799 158 160.799 158C160.799 157.52 160.399 157.12 159.919 157.04C159.839 157.04 157.439 156.64 157.359 154.96C157.279 152.88 159.279 151.12 159.279 151.04C159.679 150.64 159.759 150.08 159.359 149.6C158.959 149.2 158.399 149.12 157.999 149.52C157.919 149.6 155.359 151.92 155.359 154.96C155.439 157.28 157.359 158.4 158.879 158.8C159.039 159.6 159.439 160.88 160.479 161.76C161.679 162.8 165.919 162.96 169.279 162.08C172.959 161.12 175.439 159.12 176.319 156.24C177.119 153.84 177.039 151.76 176.079 150.08C174.799 147.84 172.399 147.2 172.319 147.2C172.319 147.28 172.239 147.28 172.159 147.28Z" fill="#252468"/>
<path d="M162.802 151.04C162.402 151.04 162.082 151.12 162.002 151.12C161.442 151.2 161.122 151.76 161.202 152.32C161.282 152.88 161.842 153.2 162.402 153.12C162.642 153.04 163.362 153.04 163.682 153.28C163.762 153.36 163.922 153.52 163.922 154.08C163.922 155.04 161.122 156.32 158.562 156.8C158.002 156.88 157.682 157.44 157.762 158C157.842 158.56 158.402 158.88 158.962 158.8C160.162 158.56 165.922 157.28 165.922 154.08C165.922 152.8 165.362 152.16 164.962 151.76C164.322 151.2 163.442 151.04 162.802 151.04Z" fill="#252468"/>
<path d="M167.199 152.56C166.239 152.56 165.279 152.72 164.479 153.2C163.999 153.44 163.839 154.08 164.079 154.56C164.319 155.04 164.959 155.2 165.439 154.96C166.879 154.08 170.079 155.04 171.119 155.44C171.599 155.6 172.239 155.36 172.399 154.88C172.559 154.4 172.319 153.76 171.839 153.6C171.519 153.44 169.359 152.56 167.199 152.56Z" fill="#252468"/>
<path d="M101.601 113.84C89.5209 113.84 73.3609 112 64.8009 103.44C60.8809 99.52 58.9609 94.56 58.9609 88.64C59.0409 81.12 61.2009 74.32 65.5209 68.32C70.7209 61.12 78.4009 56.08 87.2809 54.08C94.0809 52.56 101.761 50.72 113.841 56.4C120.561 59.52 126.561 65.04 130.801 72C135.121 79.04 137.201 87.04 136.801 94.56C136.401 101.76 131.921 107.04 123.521 110.4C115.681 113.44 106.401 113.84 101.601 113.84ZM87.7609 56C79.3609 57.92 72.0809 62.72 67.2009 69.52C63.1209 75.12 61.0409 81.6 61.0409 88.64C61.0409 94 62.7209 98.56 66.2409 102.08C74.3209 110.16 89.9209 111.84 101.601 111.84C109.121 111.84 133.841 110.56 134.801 94.32C135.681 79.92 126.321 64.32 113.041 58.16C101.601 52.88 94.5609 54.48 87.7609 56Z" fill="#252468"/>
<path d="M135.04 40.8801C135.6 39.5201 135.6 38.2401 135.04 36.9601C134.08 34.6401 131.52 33.1201 130.08 32.6401C128.24 32.0801 126.4 33.1201 125.68 33.6001C129.04 35.3601 132.16 37.7601 135.04 40.8801Z" fill="#5DB075"/>
<path d="M60.2438 66.16C60.9638 65.52 63.6838 63.2 68.2438 61.2C71.7638 59.68 77.0438 58.08 83.6038 58.08C86.0038 58.08 88.6437 58.32 91.3638 58.8C103.844 61.04 118.804 68.48 130.084 75.52C118.404 60.24 103.364 52.4 92.6438 48.56C80.7238 44.24 71.4438 43.84 71.3638 43.84C71.2038 43.84 58.4037 43.12 55.7637 50.08C53.2037 56.64 56.4038 62.64 60.2438 66.16Z" fill="#545580"/>
<path d="M126.563 47.92C127.283 55.28 121.763 63.2 120.723 64.56C124.483 67.92 128.163 71.84 131.443 76.4C136.723 79.76 141.123 83.04 143.923 85.52C144.803 82.88 149.443 67.36 140.243 49.44C138.723 46.4 136.883 43.84 134.963 41.68L134.883 41.6C131.923 38.32 128.563 35.84 125.123 34C125.043 34 125.043 34 124.963 33.92C121.123 31.92 117.043 30.64 113.203 29.92C116.963 31.92 125.363 37.44 126.563 47.92Z" fill="#5DB075"/>
<path d="M120.324 64.48C121.364 63.04 126.724 55.28 126.004 48.32C124.564 35.68 112.084 30.32 111.044 29.92C104.804 28.96 99.0437 29.36 95.3637 29.76C92.0837 30.16 89.0437 31.04 86.3237 32.32C78.6437 36 73.2038 42.08 71.8438 43.68C74.0037 43.84 82.4037 44.72 92.7237 48.4C100.724 51.2 110.884 56.08 120.324 64.48Z" fill="#5DB075"/>
<g opacity="0.25">
<path d="M61.1228 50.48C56.0028 56.08 60.7228 62.88 62.1628 64.72C63.5228 63.76 65.6028 62.4 68.3228 61.28C71.8428 59.76 77.1228 58.16 83.6828 58.16C86.0828 58.16 88.7228 58.4 91.4428 58.88C100.643 60.56 111.203 65.04 120.643 70.08C122.483 71.04 123.443 71.6 123.443 71.6C103.603 50.32 67.0428 44 61.1228 50.48Z" fill="#252468"/>
</g>
<g opacity="0.05">
<path d="M113.918 33.8401C113.918 38.8001 104.718 47.3601 93.9184 44.6401C83.1184 41.9201 83.9184 35.8401 83.9184 35.8401C78.2384 38.7201 74.3984 43.6001 74.3984 43.6001C78.0784 44.0801 84.8784 45.2001 92.8784 48.0801C100.238 50.7201 109.598 55.2001 118.558 62.6401C120.478 59.9201 123.438 55.0401 123.438 49.2801C122.478 38.0801 113.918 33.8401 113.918 33.8401Z" fill="#252468"/>
</g>
<g opacity="0.05">
<path d="M142.959 64.16C142.959 64.16 141.119 65.52 135.439 62.96C129.759 60.4 126.639 52.64 126.639 52.64C126.559 52.56 126.399 52.8 126.159 53.12C124.879 58.64 121.519 63.44 120.719 64.48C124.479 67.84 128.159 71.76 131.439 76.32C135.759 79.04 139.439 81.68 142.159 83.92C145.439 74.64 142.959 64.16 142.959 64.16Z" fill="#252468"/>
</g>
<g opacity="0.25">
<path d="M134.398 38.24C134.078 37.2 131.678 35.44 130.238 34.88C129.198 34.4 128.158 34.64 127.758 34.8C130.078 36.24 132.238 38 134.318 40.08C134.478 39.76 134.638 39.04 134.398 38.24Z" fill="#67BC45"/>
</g>
<g opacity="0.4">
<path d="M62.8838 46.4C70.8838 43.68 100.004 49.6 115.124 60.64C107.204 54.64 99.1238 50.88 92.6438 48.56C80.7238 44.24 71.4438 43.84 71.3638 43.84C71.2038 43.84 58.4038 43.12 55.7638 50.08C54.4038 53.76 54.7238 57.28 56.0038 60.24C55.8438 57.36 55.9238 48.72 62.8838 46.4Z" fill="white"/>
</g>
<g opacity="0.4">
<path d="M137.121 47.1201C141.521 53.8401 144.081 60.5601 145.201 63.7601C144.401 59.2801 142.881 54.4801 140.321 49.3601C138.801 46.3201 136.961 43.7601 135.041 41.6001L134.961 41.5201C132.001 38.2401 128.641 35.7601 125.201 33.9201C125.121 33.9201 125.121 33.9201 125.041 33.8401C121.201 31.8401 117.121 30.5601 113.281 29.8401C114.561 30.5601 116.401 31.6001 118.321 33.2001C119.921 33.8401 131.441 38.4801 137.121 47.1201Z" fill="white"/>
</g>
<path d="M144.081 86.96C143.841 86.96 143.601 86.88 143.441 86.72C136.481 80.4 111.521 63.76 91.2012 60.08C81.2812 58.32 73.6012 60.32 68.8812 62.32C63.7612 64.56 60.9612 67.2 60.9612 67.2C60.5612 67.52 60.0012 67.6 59.6012 67.2C55.2812 63.44 51.6812 56.8 54.4812 49.52C57.2012 42.48 68.2412 42.4 70.8812 42.48C72.2412 40.8 77.7612 34.56 85.8412 30.72C88.7212 29.36 91.9212 28.4 95.2812 28C101.681 27.2 111.281 27.04 120.721 30.48C130.001 33.92 136.961 40 141.441 48.72C146.801 59.2 147.521 68.8 147.201 75.04C146.801 81.84 145.121 86.08 145.041 86.24C144.881 86.56 144.641 86.8 144.321 86.8C144.241 86.96 144.161 86.96 144.081 86.96ZM83.6012 57.44C86.0812 57.44 88.7212 57.68 91.5212 58.16C110.081 61.52 134.081 76.16 143.601 84.32C144.081 82.56 144.881 79.36 145.121 75.04C145.441 69.12 144.801 59.84 139.601 49.84C128.641 28.64 105.121 28.96 95.4412 30.16C92.2412 30.56 89.2812 31.36 86.6412 32.64C77.9212 36.8 72.1612 44.16 72.0812 44.24C71.8412 44.48 71.5212 44.64 71.2012 44.64C71.0412 44.64 58.7212 43.92 56.3212 50.4C54.0012 56.4 56.7212 61.92 60.2412 65.28C61.4412 64.32 64.0012 62.4 67.9212 60.64C71.6012 58.96 76.9612 57.44 83.6012 57.44Z" fill="#252468"/>
<path d="M131.358 77.6801C131.038 77.6801 130.718 77.5201 130.558 77.2801C118.878 61.2801 103.438 53.2001 92.4784 49.2801C80.6384 45.0401 71.4384 44.5601 71.3584 44.5601C70.7984 44.5601 70.3984 44.0801 70.3984 43.5201C70.3984 42.9601 70.8784 42.5601 71.4384 42.5601C71.8384 42.5601 80.9584 43.0401 93.1184 47.3601C104.318 51.3601 120.158 59.6001 132.158 76.0801C132.478 76.5601 132.398 77.1201 131.918 77.4401C131.758 77.6001 131.518 77.6801 131.358 77.6801Z" fill="#252468"/>
<path d="M120.32 65.52C120.08 65.52 119.92 65.44 119.68 65.28C119.28 64.96 119.2 64.32 119.52 63.92C119.6 63.84 126 55.44 125.28 48C123.84 35.28 110.88 30.16 110.72 30.16C110.24 30 109.92 29.36 110.16 28.88C110.32 28.4 110.96 28.08 111.44 28.32C111.6 28.4 115.04 29.68 118.72 32.8C123.6 36.88 126.56 42.08 127.28 47.84C128.08 56.08 121.44 64.8 121.12 65.2C120.96 65.44 120.64 65.52 120.32 65.52Z" fill="#252468"/>
<path d="M135.123 42.4C134.963 42.4 134.803 42.4 134.723 42.32C134.243 42.08 134.003 41.52 134.243 40.96C134.883 39.68 134.963 38.4 134.403 37.2C133.523 35.12 131.203 33.76 129.923 33.28C127.923 32.64 125.843 34.4 125.763 34.4C125.363 34.72 124.723 34.72 124.403 34.32C124.083 33.92 124.083 33.28 124.483 32.96C124.563 32.88 127.443 30.48 130.483 31.44C132.483 32.08 135.123 33.92 136.243 36.48C136.963 38.24 136.883 40.08 136.003 41.92C135.843 42.16 135.523 42.4 135.123 42.4Z" fill="#252468"/>
<path d="M89.5194 101.04C100.653 101.04 109.679 90.5813 109.679 77.6799C109.679 64.7786 100.653 54.3199 89.5194 54.3199C78.3853 54.3199 69.3594 64.7786 69.3594 77.6799C69.3594 90.5813 78.3853 101.04 89.5194 101.04Z" fill="url(#paint2_radial_1614_53414)"/>
<path d="M111.277 102.08C122.411 102.08 131.437 91.6214 131.437 78.72C131.437 65.8186 122.411 55.36 111.277 55.36C100.143 55.36 91.1172 65.8186 91.1172 78.72C91.1172 91.6214 100.143 102.08 111.277 102.08Z" fill="url(#paint3_radial_1614_53414)"/>
<path d="M107.199 140L105.359 139.92L105.439 138.16L111.199 138.4L111.119 140.16L109.279 140.08L109.119 145.12L106.959 145.04L107.199 140Z" fill="#252468"/>
<path d="M98.6403 139.6L98.5603 140.8L101.2 140.88L101.12 142.64L98.5603 142.48L98.4003 144.72L96.3203 144.64L96.6403 137.84L101.68 138L101.6 139.76L98.6403 139.6Z" fill="#252468"/>
<path d="M90.8025 137.6L92.9625 137.68L92.7225 142.64L95.5225 142.8L95.4425 144.56L90.5625 144.4L90.8025 137.6Z" fill="#252468"/>
<path d="M89.7566 142.56L89.6766 144.32L84.4766 144.08L84.7966 137.28L89.8366 137.52L89.7566 139.28L86.7966 139.12L86.7166 139.92L89.3566 140L89.2766 141.68L86.6366 141.6V142.48L89.7566 142.56Z" fill="#252468"/>
<path d="M80.72 144.08C80.24 144.08 79.68 144 79.2 143.84C78.72 143.68 78.32 143.52 78 143.28L78.72 141.6C79.04 141.84 79.36 142 79.68 142.08C80.08 142.24 80.4 142.24 80.72 142.32C81.04 142.32 81.2 142.32 81.36 142.24C81.52 142.16 81.52 142.08 81.52 142C81.52 141.84 81.44 141.76 81.28 141.68C81.12 141.6 80.88 141.52 80.48 141.44C80 141.28 79.6 141.2 79.28 141.04C78.96 140.88 78.72 140.72 78.48 140.4C78.24 140.08 78.16 139.68 78.16 139.2C78.16 138.8 78.32 138.4 78.56 138.08C78.8 137.76 79.12 137.44 79.6 137.28C80.08 137.12 80.56 137.04 81.2 137.04C81.6 137.04 82.08 137.12 82.48 137.28C82.88 137.36 83.28 137.52 83.52 137.76L82.8 139.36C82.24 138.96 81.6 138.8 81.12 138.8C80.56 138.8 80.32 138.88 80.32 139.2C80.32 139.36 80.4 139.44 80.56 139.52C80.72 139.6 80.96 139.68 81.36 139.76C81.84 139.84 82.24 140 82.56 140.16C82.88 140.32 83.12 140.48 83.36 140.8C83.6 141.12 83.68 141.52 83.68 142C83.68 142.4 83.52 142.8 83.28 143.12C83.04 143.44 82.72 143.68 82.24 143.92C81.84 144.08 81.36 144.16 80.72 144.08Z" fill="#252468"/>
<path fill-rule="evenodd" clip-rule="evenodd" d="M103.603 137.12C104.163 137.12 104.562 137.6 104.562 138.16C104.562 138.72 104.082 139.12 103.522 139.12C102.962 139.12 102.562 138.64 102.562 138.08C102.562 137.52 103.043 137.04 103.603 137.12Z" fill="white"/>
<path fill-rule="evenodd" clip-rule="evenodd" d="M102.96 139.68L104.08 139.76C104.32 139.76 104.56 140 104.48 140.24L104.32 144.96L102.32 144.88L102.48 140.16C102.48 139.84 102.72 139.68 102.96 139.68Z" fill="white"/>
<path d="M112.794 48.0001C112.314 47.6801 111.834 47.2801 111.354 46.9601C111.674 46.4801 111.994 45.9201 112.234 45.4401C113.754 46.4801 115.274 47.6001 116.634 48.8801C116.314 49.3601 115.994 49.9201 115.674 50.4001C115.274 50.0001 114.794 49.6001 114.314 49.2001C113.434 50.6401 112.554 52.0801 111.754 53.4401C111.274 52.9601 110.794 52.5601 110.234 52.1601C111.034 50.8001 111.914 49.3601 112.794 48.0001Z" fill="#252468"/>
<path d="M105.834 43.6C105.674 43.92 105.514 44.24 105.354 44.56C106.074 44.96 106.794 45.36 107.514 45.76C107.274 46.24 106.954 46.72 106.714 47.2C105.994 46.8 105.274 46.4 104.554 46C104.234 46.56 103.914 47.12 103.674 47.68C103.114 47.36 102.554 47.04 101.914 46.8C102.794 45.04 103.754 43.2 104.794 41.36C106.314 42 107.754 42.72 109.194 43.52C108.874 44 108.634 44.48 108.394 44.96C107.514 44.48 106.634 44.08 105.834 43.6Z" fill="#252468"/>
<path d="M99.5209 39.52C100.161 39.68 100.801 39.92 101.441 40.08C100.721 41.44 100.081 42.72 99.4409 44.08C100.241 44.4 101.121 44.72 101.921 45.04C101.681 45.52 101.441 46 101.201 46.4C99.8409 45.76 98.4009 45.2 96.9609 44.72C97.6809 43.12 98.5609 41.36 99.5209 39.52Z" fill="#252468"/>
<path d="M96.7194 43.28C96.4794 43.68 96.3194 44.16 96.0794 44.56C94.5594 44.08 92.9594 43.68 91.3594 43.44C92.0794 41.84 92.7994 40.16 93.6794 38.4C95.2794 38.64 96.9594 38.96 98.4794 39.36C98.2394 39.84 97.9994 40.24 97.8394 40.72C96.8794 40.48 95.9994 40.24 95.0394 40.08C94.9594 40.32 94.8794 40.48 94.7194 40.72C95.5194 40.88 96.3994 41.04 97.1994 41.28C96.9594 41.68 96.7994 42.16 96.5594 42.56C95.7594 42.32 94.9594 42.16 94.1594 42C94.0794 42.24 93.9194 42.48 93.8394 42.64C94.8794 42.72 95.8394 42.96 96.7194 43.28Z" fill="#252468"/>
<path d="M87.8375 43.04C87.3575 42.96 86.8775 42.88 86.4775 42.8C86.0775 42.72 85.6775 42.56 85.4375 42.4C85.8375 42 86.1575 41.68 86.5575 41.28C86.7975 41.44 87.0375 41.52 87.3575 41.6C87.6775 41.68 87.9975 41.76 88.3175 41.76C88.5575 41.76 88.7975 41.76 88.9575 41.76C89.1175 41.76 89.1975 41.68 89.1975 41.6C89.2775 41.52 89.1975 41.44 89.0375 41.36C88.8775 41.28 88.6375 41.2 88.3175 41.12C87.9175 41.04 87.5175 40.88 87.2775 40.8C87.0375 40.72 86.7975 40.56 86.6375 40.32C86.4775 40.08 86.4775 39.84 86.6375 39.44C86.7975 39.12 86.9575 38.88 87.3575 38.56C87.6775 38.32 88.0775 38.08 88.5575 37.92C89.0375 37.76 89.5975 37.68 90.2375 37.76C90.6375 37.76 91.0375 37.84 91.4375 38C91.8375 38.08 92.0775 38.24 92.3175 38.48C91.9175 38.88 91.5175 39.28 91.1175 39.68C90.6375 39.36 90.1575 39.2 89.5975 39.2C89.0375 39.2 88.7975 39.28 88.6375 39.44C88.5575 39.52 88.6375 39.6 88.7975 39.68C88.9575 39.76 89.1975 39.84 89.5175 39.92C89.9175 40 90.3175 40.16 90.5575 40.24C90.7975 40.4 91.0375 40.56 91.1975 40.8C91.3575 41.04 91.2775 41.36 91.1975 41.68C91.0375 42 90.7975 42.24 90.5575 42.48C90.2375 42.72 89.8375 42.88 89.3575 42.96C88.9575 43.12 88.4775 43.12 87.8375 43.04Z" fill="#252468"/>
<path fill-rule="evenodd" clip-rule="evenodd" d="M111.198 43.6001C111.678 43.8401 111.758 44.4801 111.518 44.9601C111.198 45.4401 110.638 45.6001 110.158 45.2801C109.678 44.9601 109.518 44.4001 109.838 43.9201C110.158 43.4401 110.798 43.2801 111.198 43.6001Z" fill="white"/>
<path fill-rule="evenodd" clip-rule="evenodd" d="M109.439 45.52C109.759 45.68 109.999 45.92 110.319 46.08C110.559 46.24 110.559 46.48 110.479 46.72C109.679 48 108.959 49.36 108.239 50.56C107.759 50.16 107.199 49.84 106.719 49.52C107.439 48.24 108.079 46.96 108.879 45.68C108.959 45.44 109.279 45.44 109.439 45.52Z" fill="white"/>
<path opacity="0.2" d="M96.3222 190.56C118.458 190.56 136.402 188.948 136.402 186.96C136.402 184.972 118.458 183.36 96.3222 183.36C74.1866 183.36 56.2422 184.972 56.2422 186.96C56.2422 188.948 74.1866 190.56 96.3222 190.56Z" fill="#232664"/>
<path d="M90.3984 96.72C90.3984 96.72 92.0784 99.44 98.2384 98.56C104.398 97.68 105.438 93.92 105.438 93.92" stroke="#5DB075" stroke-width="2" stroke-miterlimit="10" stroke-linecap="round" stroke-linejoin="round"/>
<path d="M39.0372 56.88C38.9572 56.08 38.6372 54.96 37.7572 54C37.5972 55.12 37.3572 56.24 37.1172 57.36C37.1172 57.52 37.1172 57.68 37.1172 57.68C37.1172 58.16 37.4372 58.56 37.9172 58.64C37.9172 58.64 40.3972 59.12 40.3172 60.88C40.2372 62.96 38.1572 64.64 38.1572 64.64C37.7572 64.96 37.6772 65.6 37.9972 66C38.3172 66.4 38.9572 66.48 39.3572 66.16C39.4372 66.08 42.1572 63.92 42.3172 60.88C42.3972 58.64 40.4772 57.36 39.0372 56.88Z" fill="#252468"/>
<path d="M34.9618 63.84C34.9618 63.84 30.6418 62.96 31.0418 61.44C31.4418 59.92 33.3618 56.72 37.9218 58.64C43.4418 61.04 37.6018 64.08 34.9618 63.84Z" fill="#545580"/>
<path d="M32.3965 63.84C31.6765 63.6 30.7965 63.12 30.1565 62.32C29.7565 61.76 29.3565 60.8 29.8365 59.44C30.9565 56.08 38.1565 56.88 39.5965 57.12C40.2365 57.2 40.7165 57.76 40.6365 58.4C40.5565 59.04 39.9965 59.44 39.2765 59.36C36.1565 58.96 32.3965 59.2 32.0765 60.24C31.8365 60.88 31.9965 61.12 32.0765 61.2C32.3165 61.6 35.6765 62.88 36.0765 62.88C36.7165 62.96 37.1965 63.52 37.1165 64.16C37.0365 64.8 35.9965 65.2 35.3565 65.12C35.3565 65.04 32.8765 64 32.3965 63.84Z" fill="#252468"/>
<path d="M17.6772 67.36L35.1172 69.28L34.3172 75.12L17.1172 72.72L17.6772 67.36Z" fill="#5DB075"/>
<path d="M20.2397 39.12L37.6797 41.12L36.9597 46.96L19.6797 44.56L20.2397 39.12Z" fill="#5DB075"/>
<path d="M16.7969 66.16L34.8769 68.16" stroke="#252468" stroke-width="3" stroke-miterlimit="10"/>
<path d="M19.1172 44.88L37.1972 46.88" stroke="#252468" stroke-width="3" stroke-miterlimit="10"/>
<path d="M19.1231 45.52C19.4431 45.52 37.0431 47.52 37.0431 47.52L34.3231 67.52L17.2031 65.28L19.1231 45.52Z" fill="white"/>
<path d="M31.5996 75.28L18.5596 73.76C16.9596 73.6 15.8396 72.16 15.9996 70.56L19.1996 42.64C19.3596 41.04 20.7996 39.92 22.3996 40.08L35.4396 41.6C37.0396 41.76 38.1596 43.2 37.9996 44.8L34.7996 72.72C34.6396 74.32 33.1996 75.44 31.5996 75.28Z" stroke="#252468" stroke-width="3" stroke-miterlimit="10"/>
<path d="M25.1162 71.6001C25.6464 71.6001 26.0762 71.1703 26.0762 70.6401C26.0762 70.1099 25.6464 69.6801 25.1162 69.6801C24.5861 69.6801 24.1562 70.1099 24.1562 70.6401C24.1562 71.1703 24.5861 71.6001 25.1162 71.6001Z" fill="#252468"/>
<path d="M79.3594 151.92C79.3594 151.92 82.7194 155.28 85.9194 155.52C89.1994 155.76 103.359 156.4 103.359 156.4C103.359 156.4 109.119 156 110.639 153.12" stroke="#252468" stroke-width="2.5" stroke-miterlimit="10" stroke-linecap="round" stroke-linejoin="round"/>
<path d="M93.2085 79.2508C93.7241 74.7291 92.1848 70.8404 89.7703 70.565C87.3558 70.2897 84.9805 73.7321 84.4648 78.2538C83.9492 82.7755 85.4886 86.6642 87.9031 86.9396C90.3176 87.2149 92.6929 83.7725 93.2085 79.2508Z" fill="#5DB075"/>
<path d="M114.482 80.6539C114.998 76.1322 113.458 72.2434 111.044 71.9681C108.629 71.6928 106.254 75.1352 105.738 79.6569C105.223 84.1786 106.762 88.0673 109.177 88.3426C111.591 88.618 113.966 85.1756 114.482 80.6539Z" fill="#5DB075"/>
<defs>
<linearGradient id="paint0_linear_1614_53414" x1="153.624" y1="120.229" x2="153.624" y2="106.661" gradientUnits="userSpaceOnUse">
<stop stop-color="white"/>
<stop offset="1" stop-color="#B4B7DC"/>
</linearGradient>
<linearGradient id="paint1_linear_1614_53414" x1="41.1233" y1="97.9739" x2="40.3983" y2="109.745" gradientUnits="userSpaceOnUse">
<stop stop-color="white"/>
<stop offset="1" stop-color="#B4B7DC"/>
</linearGradient>
<radialGradient id="paint2_radial_1614_53414" cx="0" cy="0" r="1" gradientUnits="userSpaceOnUse" gradientTransform="translate(89.0224 77.8579) scale(24.1999 25.9883)">
<stop stop-color="#54B848"/>
<stop offset="0.7056" stop-color="#54B848" stop-opacity="0"/>
</radialGradient>
<radialGradient id="paint3_radial_1614_53414" cx="0" cy="0" r="1" gradientUnits="userSpaceOnUse" gradientTransform="translate(110.78 78.9263) scale(24.1999 25.9883)">
<stop stop-color="#54B848"/>
<stop offset="0.7056" stop-color="#54B848" stop-opacity="0"/>
</radialGradient>
</defs>
</svg>
