<svg width="200" height="200" viewBox="0 0 200 200" fill="none" xmlns="http://www.w3.org/2000/svg">
<path d="M51.1986 77.2001C51.1986 77.2001 51.7586 46.8801 72.1586 35.6001C108.479 15.5201 128.559 43.3601 128.559 43.3601L142.159 62.6401L135.279 48.6401C131.599 41.1201 125.759 34.8001 118.399 30.8001C112.479 27.6001 104.559 25.0401 94.4786 25.3601C67.7586 25.9201 48.7986 42.1601 44.5586 75.6801L51.1986 77.2001Z" fill="white" stroke="#2A2866" stroke-width="3" stroke-miterlimit="10"/>
<path d="M154.079 90.88C152.879 90.56 151.839 89.68 151.039 88.72C150.079 87.52 149.359 86.08 148.719 84.72C146.799 80.64 145.039 76.48 143.359 72.32C142.239 69.6 141.119 66.88 140.639 64C140.559 63.36 140.479 62.72 140.639 62.16C141.039 60.96 142.319 60.32 143.519 59.84C143.839 59.76 144.079 59.6 144.399 59.68C144.879 59.76 145.119 60.24 145.359 60.64C148.879 67.2 152.319 73.84 155.679 80.56C156.559 82.4 157.519 84.16 157.999 86.16C158.479 88.64 157.279 91.68 154.079 90.88Z" fill="#5DB075" stroke="#2A2866" stroke-width="3" stroke-miterlimit="10"/>
<path d="M167.999 83.76C168.639 82.08 168.559 80.16 168.319 78.32C167.839 75.44 166.879 72.64 165.679 69.92C164.559 67.28 163.279 64.72 161.919 62.16C161.199 60.8 160.399 59.36 159.199 58.32C157.519 56.88 155.199 56.32 152.959 56.4C150.719 56.48 148.639 57.2 146.559 58.08C148.639 63.28 150.719 68.4 152.799 73.6C154.879 78.8 156.959 84 159.839 88.8C159.919 88.88 161.999 88.72 162.239 88.64C163.039 88.48 163.919 88 164.559 87.6C166.079 86.64 167.359 85.36 167.999 83.76Z" fill="#5DB075" stroke="#2A2866" stroke-width="3" stroke-miterlimit="10"/>
<path d="M148.721 59.8404C148.161 58.7204 147.361 57.4404 146.161 57.4404C145.041 57.4404 144.161 58.5604 144.081 59.6804C144.001 60.8004 144.401 61.8404 144.801 62.8804C148.321 71.2804 151.841 79.6004 156.081 87.6004C156.561 88.4004 156.961 89.2804 157.681 89.9204C158.401 90.5604 159.361 90.9604 160.241 90.6404C161.121 90.4004 161.761 89.4404 161.521 88.4804C161.681 87.7604 160.641 86.0804 160.241 85.2004C159.681 83.9204 159.201 82.7204 158.641 81.4404C157.601 79.0404 156.561 76.6404 155.441 74.2404C153.281 69.4404 151.041 64.6404 148.721 59.8404Z" fill="white" stroke="#2A2866" stroke-width="3" stroke-miterlimit="10"/>
<path opacity="0.37" d="M154.079 74.3198C153.919 73.9198 153.359 73.4398 153.119 73.7598C153.039 73.8398 153.039 73.9998 153.039 74.1598C153.039 74.9598 153.279 75.8398 153.519 76.6398C154.879 80.5598 156.399 84.4798 158.079 88.3198C158.479 89.1198 160.079 90.6398 160.719 89.1998C161.119 88.1598 159.279 85.4398 158.799 84.3998C157.199 81.0398 155.599 77.6798 154.079 74.3198Z" fill="white"/>
<path opacity="0.37" d="M166.801 82.0798C167.361 80.0798 167.121 77.9198 166.481 75.9198C166.081 74.7998 165.521 73.5998 164.561 72.9598C164.401 72.8798 164.241 72.7998 164.081 72.7998C163.601 72.7998 163.361 73.3598 163.281 73.9198C163.201 75.1998 163.601 76.3998 163.841 77.5998C164.081 78.7998 163.761 80.3198 162.721 80.8798C162.241 81.1198 161.521 81.1198 161.201 81.5998C160.961 81.9198 160.961 82.4798 160.961 82.9598C161.041 83.7598 161.121 84.4798 161.441 85.1998C162.961 88.6398 166.241 83.9998 166.801 82.0798Z" fill="white"/>
<path d="M51.8398 121.04C51.8398 121.04 54.6398 145.6 73.6798 156.96C92.7198 168.32 110.88 166.8 124.8 162C138.72 157.2 147.84 143.84 150.72 137.76C153.68 131.68 154.4 123.6 154.32 119.04L153.2 119.36C153.2 119.36 141.68 127.68 131.6 130.16C131.6 130.16 126.32 139.92 125.84 139.92C125.36 139.92 123.52 140 123.52 140L122.96 141.12C122.96 141.12 118.88 142.96 116.08 146.24L89.5198 145.04C89.5198 145.04 81.1998 148.96 79.7598 140.48L78.7198 139.04L74.2398 136.96L70.0798 129.68C70.0798 129.68 52.9598 120.24 52.7998 120.16C52.6398 120.16 52.2398 120.16 52.0798 120.16C51.9998 120.4 51.8398 121.04 51.8398 121.04Z" fill="white"/>
<path d="M55.9219 134.08C55.9219 134.08 72.9619 162.4 104.562 161.36C136.162 160.32 151.682 134.64 151.682 134.64C151.682 134.64 143.922 164.24 107.202 165.44C70.5619 166.64 58.8819 143.2 55.9219 134.56" fill="#252468"/>
<path d="M104.641 166.48C89.8409 166.96 76.9609 162.32 66.0809 152.56C59.0409 146.24 55.3609 137.52 53.4409 131.36C51.3609 124.72 50.9609 119.6 50.9609 119.36C50.9609 118.88 51.2809 118.4 51.7609 118.4C52.2409 118.4 52.7209 118.72 52.7209 119.28C52.7209 119.52 54.4009 139.68 67.2009 151.2C81.9209 164.48 100.641 168 122.721 161.68C142.481 156.08 154.081 134.88 153.521 118.48C153.521 118 153.921 117.52 154.401 117.52C154.881 117.52 155.601 116.8 155.601 117.36C155.921 126.24 152.641 137.12 147.121 145.36C141.121 154.32 132.641 160.72 123.201 163.44C116.801 165.28 110.561 166.32 104.641 166.48Z" fill="#252468"/>
<path d="M87.1189 57.5998C93.1989 54.7198 97.9989 53.8398 102.239 53.8398C106.159 53.8398 109.519 54.6398 112.799 55.3598C121.359 57.3598 128.879 62.2398 133.839 69.1198C137.999 74.8798 140.079 81.4398 140.159 88.6398C140.239 94.2398 138.399 98.8798 134.719 102.56C126.479 110.8 110.639 112.56 98.7989 112.56C91.1189 112.56 65.9189 111.28 64.8789 94.3998C64.0789 79.7598 73.5989 63.9198 87.1189 57.5998Z" fill="#252468"/>
<path d="M73.4392 59.5198C58.6392 75.2798 50.5592 97.5198 51.8392 118.96C53.0392 119.76 63.4392 126.96 75.0392 129.76C75.1192 129.76 75.1992 129.84 75.1992 129.92C77.2792 133.28 80.6392 138.64 81.1992 139.28H83.5192C83.9992 137.68 86.7192 128.56 90.5592 127.28C94.3992 126 122.159 125.76 123.999 126.96C125.599 128 127.279 135.68 127.759 137.68L132.559 135.12L136.719 127.84C136.719 127.76 136.799 127.76 136.799 127.76C136.959 127.68 150.319 120.48 154.559 116.56C154.799 115.2 156.959 98.8798 147.439 80.5598C142.479 71.0398 134.879 62.1598 125.999 55.5198C117.119 48.5598 107.519 44.7998 99.1192 44.7998C91.8392 44.7998 81.9992 50.4798 73.4392 59.5198ZM70.2392 72.3198C74.3992 65.5198 80.2392 60.0798 86.8792 57.0398C98.7192 51.5198 106.239 53.2798 112.959 54.7998C121.679 56.7998 129.279 61.7598 134.319 68.7998C138.559 74.6398 140.719 81.3598 140.719 88.7198C140.799 94.4798 138.879 99.2798 135.119 103.04C126.799 111.44 110.799 113.2 98.7992 113.2C90.9592 113.2 65.3592 111.84 64.3192 94.4798C63.9992 87.1198 66.0792 79.1998 70.2392 72.3198Z" fill="white"/>
<path d="M120.32 152.24C119.52 153.12 117.28 155.52 116.32 155.6C114.8 155.76 97.2002 157.28 94.4002 156.4C91.6002 155.52 90.4002 153.68 90.4002 153.6C90.3202 153.52 85.9202 147.2 84.1602 139.52C84.4002 138.64 87.2002 128.96 90.8802 127.76C92.8802 127.12 101.04 126.72 108.24 126.72C116.4 126.64 123.12 126.96 123.84 127.44C125.12 128.32 126.8 135.44 127.36 138.16C127.28 145.92 120.4 152.16 120.32 152.24Z" fill="#5DB075"/>
<g opacity="0.25">
<path d="M135.44 137.76C135.28 137.92 127.52 141.36 127.52 141.36C127.76 140.4 127.92 139.36 127.92 138.24L133.04 135.52C133.12 135.52 133.12 135.44 133.12 135.44L137.28 128.16C138.16 127.68 145.12 123.92 150.48 120.4C150.32 121.2 149.92 122.64 149.36 124.56C149.36 124.56 141.44 128.72 139.44 130C137.44 131.12 135.6 137.52 135.44 137.76Z" fill="#252468"/>
</g>
<g opacity="0.25">
<path opacity="0.5" d="M78.5581 141.36C78.3981 141.2 74.6381 133.2 72.3981 132.32C70.1581 131.44 58.4781 126.72 57.2781 126.24C56.7181 124.4 56.3181 123.04 56.0781 122.24C60.4781 124.8 67.4381 128.4 74.8781 130.24C80.7181 139.76 80.9581 139.76 81.1981 139.76H83.6781C83.9181 140.72 84.1581 141.68 84.4781 142.56C84.3981 142.56 78.6381 141.52 78.5581 141.36Z" fill="#252468"/>
</g>
<g opacity="0.1">
<path d="M119.278 150.8C117.678 152.88 115.278 154.16 112.638 154.4L105.758 155.2L97.7584 154.96C95.0384 154.88 92.5584 153.36 91.2784 151.04C90.7184 150 90.0784 149.12 89.6784 148.16C87.7584 144.24 86.8784 141.92 86.3984 138.32C86.3984 138.32 88.9584 144.24 94.0784 147.76C99.1984 151.28 105.838 150.4 105.838 150.4C105.838 150.4 112.558 150.72 117.678 147.28C122.718 143.76 125.278 138.4 125.278 138.4C124.798 142 123.038 145.28 121.198 148.24C120.558 149.04 119.918 149.92 119.278 150.8Z" fill="#252468"/>
</g>
<g opacity="0.15">
<path d="M76.4015 127.04L54.8015 116.96C54.7215 115.36 54.9615 110.88 54.9615 110.88C58.5615 113.84 69.2815 118.4 69.2815 118.4L69.7615 112.88C82.0815 122.88 103.281 122.56 103.281 122.56C103.281 122.56 124.401 122.88 136.801 112.88L137.281 118.4C137.281 118.4 148.001 113.84 151.601 110.88C151.601 110.88 152.881 113.36 152.801 114.96L135.201 125.2L131.441 133.04L127.441 135.04C126.721 132 125.441 127.68 124.321 126.96C122.481 125.76 94.6415 126 90.8815 127.28C87.9215 128.24 85.6015 134 84.4815 137.28L82.0015 136.96L76.4015 127.04Z" fill="#252468"/>
</g>
<g opacity="0.4">
<path d="M51.3619 101.36C51.3619 101.6 50.9619 102 50.9619 102L47.9219 98.9598C48.4819 98.3998 48.9619 97.9198 49.2019 97.7598C49.2019 97.7598 49.2819 97.7598 49.2819 97.8398L51.3619 99.5198C51.5219 99.6798 51.7619 99.9998 51.8419 100.08C51.8419 100.16 51.4419 101.12 51.3619 101.36Z" fill="white"/>
</g>
<g opacity="0.4">
<path d="M68.4781 144.24C68.6381 144.4 71.8381 145.28 72.3981 145.6C72.9581 145.92 73.9981 147.28 73.9981 147.44C73.9981 147.6 67.6781 145.52 67.4381 145.36C67.2781 145.2 64.0781 138 64.0781 138C65.4381 139.44 68.3181 144.08 68.4781 144.24Z" fill="white"/>
</g>
<g opacity="0.4">
<path d="M85.2003 136.16C85.7603 133.68 88.7203 130.16 89.6003 128.4C89.8403 128 90.0803 127.68 90.3203 127.36L90.4003 127.28C90.8803 126.96 93.8403 126.72 98.1603 126.64C100.56 126.64 103.12 126.56 105.36 126.56C105.6 126.56 105.84 126.56 106 126.56C106.4 126.56 106.8 126.56 107.12 126.56C107.52 126.56 107.92 126.56 108.24 126.56C108.48 126.56 108.72 126.56 108.88 126.56C111.12 126.56 113.68 126.56 116.08 126.64C120.4 126.72 123.36 126.96 123.84 127.28L123.92 127.36C124.16 127.6 124.4 128 124.64 128.4C125.44 130.08 126.4 133.36 126.96 135.84C126.96 136.08 126.96 136.32 126.88 136.48C126.88 136.48 122.88 128.96 122.56 128.88C122.4 128.8 116.32 128.8 111.04 128.8V128.88C111.04 128.88 92.8003 128.96 91.5203 129.92C89.7603 131.2 84.8803 138.32 84.8803 138.32C84.7203 138.16 85.2003 136.48 85.2003 136.16Z" fill="white"/>
</g>
<g opacity="0.25">
<path d="M116.079 126.72C113.679 126.72 111.119 126.64 108.879 126.64C111.519 126.64 113.999 126.64 116.079 126.72Z" fill="#232664"/>
</g>
<g opacity="0.4">
<path d="M116.079 126.72C113.679 126.72 111.119 126.64 108.879 126.64C111.519 126.64 113.999 126.64 116.079 126.72Z" fill="white"/>
</g>
<g opacity="0.4">
<path d="M141.36 85.8398C141.36 85.8398 145.04 95.9198 136.56 104.32C128 112.72 116.8 115.76 96.8003 115.28C76.8003 114.8 68.4803 109.92 64.6403 102.64C60.8003 95.3598 64.6403 85.9998 64.6403 85.9998C64.6403 85.9998 60.9603 99.9198 73.3603 107.2C85.7603 114.48 109.2 114.88 125.28 108.88C141.36 102.8 140.8 89.8398 141.36 85.8398Z" fill="white"/>
</g>
<path d="M77.1199 135.28C75.9999 133.44 74.8799 131.6 74.3999 130.88C62.0799 127.76 51.4399 120.24 51.0399 119.92C50.7999 119.76 50.6399 119.44 50.6399 119.2C49.9199 107.44 51.7599 95.7596 56.2399 84.6396C60.0799 75.0396 65.6799 66.0796 72.5599 58.7196C81.4399 49.1996 91.4399 43.5996 99.1999 43.5996C107.84 43.5996 117.76 47.4396 127.04 54.4796C136 61.1996 143.76 70.2396 148.8 79.9996C158.96 99.3596 156.16 116.16 156 116.88C156 117.12 155.84 117.28 155.68 117.44C151.6 121.2 139.76 127.68 137.84 128.72L133.76 135.84C133.68 136 133.52 136.16 133.36 136.24L128.16 139.04C127.92 139.2 127.52 139.2 127.28 139.04C127.04 138.88 126.8 138.64 126.72 138.32C125.84 133.92 124.32 128.72 123.52 128.08C121.28 127.2 95.0399 127.2 91.1199 128.48C88.5599 129.36 85.9199 135.92 84.8799 139.84C84.7999 140.24 84.3999 140.56 83.9199 140.56H81.2799C80.4799 140.48 80.3999 140.48 77.1199 135.28ZM90.4799 126.48C92.7199 125.76 101.2 125.36 108.24 125.36C112.64 125.36 123.12 125.36 124.56 126.24C126.16 127.28 127.6 133.04 128.4 136.48L132.24 134.48L136.32 127.36C136.4 127.2 136.56 127.04 136.72 126.96C136.88 126.88 149.76 119.92 154.16 116.08C154.48 113.68 156.16 98.0796 147.04 80.7996C142.08 71.3596 134.56 62.5596 125.84 55.9996C116.88 49.2796 107.36 45.5196 99.1999 45.5196C92.0799 45.5196 82.4799 51.1196 74.0799 60.0796C59.4399 75.6796 51.5199 97.5196 52.7199 118.64C54.7199 120 64.5599 126.48 75.4399 129.12C75.6799 129.2 75.9199 129.36 76.0799 129.6C78.3999 133.36 80.9599 137.52 81.8399 138.56H83.3599C83.9199 135.84 86.5599 127.76 90.4799 126.48Z" fill="#252468"/>
<path d="M120.559 153.44C120.799 153.44 121.039 153.36 121.199 153.2C121.519 152.96 128.559 146.56 128.639 138.08C128.639 137.52 128.239 137.12 127.679 137.04C127.119 137.04 126.719 137.44 126.639 138C126.559 145.6 119.919 151.6 119.839 151.68C119.439 152.08 119.359 152.64 119.759 153.12C119.999 153.28 120.239 153.44 120.559 153.44Z" fill="#252468"/>
<path d="M90.161 154.72C90.321 154.72 90.561 154.64 90.721 154.56C91.201 154.24 91.281 153.6 90.961 153.2C90.881 153.12 86.561 146.88 84.801 139.28C84.641 138.72 84.161 138.4 83.601 138.56C83.041 138.72 82.721 139.2 82.881 139.76C84.721 147.76 89.121 154.08 89.361 154.4C89.521 154.64 89.841 154.72 90.161 154.72Z" fill="#252468"/>
<path d="M76.9613 110.32C68.5613 107.04 64.0813 101.68 63.6813 94.4795C63.2813 86.9595 65.3613 78.9595 69.6813 71.9195C73.9213 65.0395 79.9213 59.5195 86.6413 56.3195C98.6413 50.7195 106.401 52.4795 113.201 53.9995C122.081 55.9995 129.841 61.1195 134.961 68.2395C139.281 74.2395 141.441 81.0395 141.521 88.5595C141.601 94.4795 139.601 99.4395 135.681 103.36C127.121 111.92 110.961 113.76 98.8813 113.76C94.0013 113.84 84.8013 113.44 76.9613 110.32ZM112.641 55.9995C105.841 54.4795 98.8013 52.7995 87.3613 58.1595C74.1613 64.3995 64.8013 79.9995 65.6813 94.3995C66.6413 110.64 91.3613 111.92 98.8813 111.92C110.561 111.92 126.241 110.24 134.241 102.16C137.761 98.6395 139.521 94.0795 139.441 88.7195C139.361 81.6795 137.281 75.1995 133.281 69.5995C128.401 62.7195 121.041 57.9195 112.641 55.9995Z" fill="#252468"/>
<path d="M140.16 66.1595C139.44 65.5195 136.72 63.1995 132.16 61.1995C128.64 59.6795 123.36 58.0795 116.8 58.0795C114.4 58.0795 111.76 58.3195 109.04 58.7995C96.5603 61.0395 81.6003 68.4795 70.3203 75.5195C82.0003 60.2395 97.0403 52.3995 107.76 48.5595C119.68 44.2395 128.96 43.8395 129.04 43.8395C129.2 43.8395 142 43.1195 144.64 50.0795C147.28 56.6395 144.08 62.6395 140.16 66.1595Z" fill="#545580"/>
<path d="M73.8396 47.9199C73.1196 55.2799 78.6396 63.1999 79.6796 64.5599C75.9196 67.9199 72.2396 71.8399 68.9596 76.3999C63.6796 79.7599 59.2796 83.0399 56.4796 85.5199C55.5996 82.8799 50.9596 67.3599 60.1596 49.4399C61.6796 46.3999 63.5196 43.8399 65.4396 41.6799L65.5196 41.5999C68.4796 38.3199 71.8396 35.8399 75.2796 33.9999C75.3596 33.9999 75.3596 33.9999 75.4396 33.9199C79.2796 31.9199 83.3596 30.6399 87.1996 29.9199C83.4396 31.9199 75.0396 37.4399 73.8396 47.9199Z" fill="#5DB075"/>
<path d="M80.0783 64.48C79.0383 63.04 73.6783 55.28 74.3983 48.32C75.8383 35.68 88.3183 30.32 89.3583 29.92C95.5983 28.96 101.358 29.36 105.038 29.76C108.318 30.16 111.358 31.04 114.078 32.32C121.758 36 127.198 42.08 128.558 43.68C126.398 43.84 117.998 44.72 107.678 48.4C99.7583 51.2 89.5983 56.08 80.0783 64.48Z" fill="#5DB075"/>
<g opacity="0.25">
<path d="M139.359 50.4792C144.479 56.0792 139.759 62.8792 138.319 64.7192C136.959 63.7592 134.879 62.3992 132.159 61.2792C128.639 59.7592 123.359 58.1592 116.799 58.1592C114.399 58.1592 111.759 58.3992 109.039 58.8792C99.8391 60.5592 89.2791 65.0392 79.8391 70.0792C77.9991 71.0392 77.0391 71.5992 77.0391 71.5992C96.8791 50.3192 133.439 43.9992 139.359 50.4792Z" fill="#252468"/>
</g>
<g opacity="0.05">
<path d="M86.5591 33.8398C86.5591 38.7998 95.7591 47.3598 106.559 44.6398C117.359 41.9198 116.559 35.8398 116.559 35.8398C122.239 38.7198 126.079 43.5998 126.079 43.5998C122.399 44.0798 115.599 45.1998 107.599 48.0798C100.239 50.7198 90.8791 55.1998 81.9191 62.6398C79.9991 59.9198 77.0391 55.0398 77.0391 49.2798C77.9991 38.0798 86.5591 33.8398 86.5591 33.8398Z" fill="#252468"/>
</g>
<g opacity="0.05">
<path d="M57.4382 64.1595C57.4382 64.1595 59.2782 65.5195 64.9582 62.9595C70.6382 60.3995 73.7582 52.6395 73.7582 52.6395C73.8382 52.5595 73.9982 52.7995 74.2382 53.1195C75.5182 58.6395 78.8782 63.4395 79.6782 64.4795C75.9182 67.8395 72.2382 71.7595 68.9582 76.3195C64.6382 79.0395 60.9582 81.6795 58.2382 83.9195C55.0382 74.6395 57.4382 64.1595 57.4382 64.1595Z" fill="#252468"/>
</g>
<g opacity="0.25">
<path d="M66.0794 38.2393C66.3994 37.1993 68.7994 35.4393 70.2394 34.8793C71.2794 34.3993 72.3194 34.6393 72.7194 34.7993C70.3994 36.2393 68.2394 37.9993 66.1594 40.0793C65.9994 39.7593 65.8394 39.0393 66.0794 38.2393Z" fill="#67BC45"/>
</g>
<g opacity="0.4">
<path d="M137.599 46.3995C129.599 43.6795 100.479 49.5995 85.3594 60.6395C93.2794 54.6395 101.359 50.8795 107.839 48.5595C119.759 44.2395 129.039 43.8395 129.119 43.8395C129.279 43.8395 142.079 43.1195 144.719 50.0795C146.079 53.7595 145.759 57.2795 144.479 60.2395C144.639 57.3595 144.559 48.7195 137.599 46.3995Z" fill="white"/>
</g>
<g opacity="0.4">
<path d="M63.3612 47.1198C58.9612 53.8398 56.4013 60.5598 55.2812 63.7598C56.0813 59.2798 57.6012 54.4798 60.1612 49.3598C61.6812 46.3198 63.5213 43.7598 65.4413 41.5998L65.5213 41.5198C68.4813 38.2398 71.8412 35.7598 75.2812 33.9198C75.3612 33.9198 75.3613 33.9198 75.4413 33.8398C79.2813 31.8398 83.3613 30.5598 87.2013 29.8398C85.9213 30.5598 84.0812 31.5998 82.1612 33.1998C80.5612 33.8398 69.0412 38.4798 63.3612 47.1198Z" fill="white"/>
</g>
<path d="M56.1599 86.9596C55.8399 86.8796 55.5999 86.6396 55.4399 86.3996C55.3599 86.2396 53.6799 81.9996 53.2799 75.1996C52.8799 68.9596 53.5999 59.3596 59.0399 48.8796C63.5199 40.1596 70.4799 34.0796 79.7599 30.6396C89.1999 27.1996 98.7999 27.3596 105.2 28.1596C108.56 28.5596 111.76 29.4396 114.64 30.8796C122.72 34.7196 128.24 41.0396 129.6 42.6396C132.16 42.5596 143.28 42.6396 146 49.6796C148.8 56.9596 145.2 63.5996 140.88 67.3596C140.48 67.6796 139.92 67.6796 139.52 67.3596C139.52 67.3596 136.72 64.6396 131.6 62.4796C126.88 60.4796 119.2 58.3996 109.28 60.2396C88.9599 63.9196 63.9999 80.5596 57.0399 86.8796C56.8799 87.0396 56.6399 87.1196 56.3999 87.1196C56.3199 86.9596 56.2399 86.9596 56.1599 86.9596ZM132.48 60.5596C136.4 62.2396 139.04 64.2396 140.16 65.1996C143.68 61.8396 146.4 56.3196 144.08 50.3196C141.6 43.9196 129.28 44.5596 129.2 44.5596C128.88 44.5596 128.56 44.3996 128.32 44.1596C128.24 44.0796 122.56 36.7196 113.76 32.5596C111.04 31.2796 108.08 30.3996 104.96 30.0796C95.3599 28.9596 71.7599 28.5596 60.7999 49.7596C55.5999 59.8396 54.9599 69.0396 55.2799 74.9596C55.5199 79.2796 56.3199 82.5596 56.7999 84.2396C66.3999 76.0796 90.3199 61.4396 108.88 58.0796C111.68 57.5996 114.32 57.3596 116.8 57.3596C123.52 57.4396 128.8 58.9596 132.48 60.5596Z" fill="#252468"/>
<path d="M69.1209 77.6796C69.4409 77.6796 69.7609 77.5196 69.9209 77.2796C81.6009 61.2796 97.0409 53.1996 108.001 49.2796C119.841 45.0396 129.041 44.5596 129.121 44.5596C129.681 44.5596 130.081 44.0796 130.081 43.5196C130.081 42.9596 129.601 42.5596 129.041 42.5596C128.641 42.5596 119.521 43.0396 107.361 47.3596C96.1609 51.3596 80.3209 59.5996 68.3209 76.0796C68.0009 76.5596 68.0809 77.1196 68.5609 77.4396C68.7209 77.5996 68.9609 77.6796 69.1209 77.6796Z" fill="#252468"/>
<path d="M80.0796 65.5199C80.3196 65.5199 80.4796 65.4399 80.7196 65.2799C81.1196 64.9599 81.1996 64.3199 80.8796 63.9199C80.7996 63.8399 74.3996 55.4399 75.1196 47.9999C76.5596 35.2799 89.5196 30.1599 89.6796 30.1599C90.1596 29.9999 90.4796 29.3599 90.2396 28.8799C90.0796 28.3999 89.4396 28.0799 88.9596 28.3199C88.7996 28.3999 85.3596 29.6799 81.6796 32.7999C76.7996 36.7999 73.8396 41.9999 73.1996 47.8399C72.3996 56.0799 79.0396 64.7999 79.3596 65.1999C79.5196 65.4399 79.7596 65.5199 80.0796 65.5199Z" fill="#252468"/>
<path d="M92.3202 100.48C103.454 100.48 112.48 90.0211 112.48 77.1198C112.48 64.2184 103.454 53.7598 92.3202 53.7598C81.1861 53.7598 72.1602 64.2184 72.1602 77.1198C72.1602 90.0211 81.1861 100.48 92.3202 100.48Z" fill="url(#paint0_radial_1614_51058)"/>
<path d="M116.082 98.4798C127.216 98.4798 136.242 88.0211 136.242 75.1198C136.242 62.2184 127.216 51.7598 116.082 51.7598C104.948 51.7598 95.9219 62.2184 95.9219 75.1198C95.9219 88.0211 104.948 98.4798 116.082 98.4798Z" fill="url(#paint1_radial_1614_51058)"/>
<path opacity="0.2" d="M103.842 190.56C125.977 190.56 143.922 188.949 143.922 186.96C143.922 184.972 125.977 183.36 103.842 183.36C81.7062 183.36 63.7617 184.972 63.7617 186.96C63.7617 188.949 81.7062 190.56 103.842 190.56Z" fill="#232664"/>
<path d="M153.922 111.6C154.962 109.76 155.282 107.92 155.362 106.88C157.842 109.92 158.962 113.2 159.362 116.16C158.322 114.88 156.322 112.72 153.922 111.6Z" fill="url(#paint2_linear_1614_51058)"/>
<path d="M133.202 124.88C133.922 128.08 134.402 133.84 131.442 139.2C128.962 140.24 126.882 140 125.522 138.56C123.122 136.16 122.882 130.64 124.242 127.36C126.002 123.2 132.082 124.64 133.202 124.88Z" fill="#545580"/>
<path d="M133.76 124.64C133.76 124.56 133.76 124.56 133.76 124.48C133.52 123.44 133.28 122.72 133.2 122.32C137.36 120.56 140.8 117.76 143.04 115.84C144.32 114.72 145.36 113.92 145.92 113.76C147.44 113.36 150.08 114.88 150.24 114.96C150.56 115.2 157.36 120.48 157.76 127.52C158.32 130.48 156.56 136.32 156.56 136.4C156.56 136.4 154.32 141.6 145.6 141.68C145.44 141.68 145.36 141.68 145.2 141.68C137.28 141.6 133.2 139.84 132.16 139.28C135.04 133.76 134.48 127.92 133.76 124.64Z" fill="white"/>
<path d="M150.883 114.8C152.083 114.08 152.963 113.12 153.603 112.08C156.563 113.44 159.043 116.64 159.443 117.28C159.683 121.28 158.723 124.64 158.083 126.32C157.203 120.32 152.243 115.92 150.883 114.8Z" fill="#5DB075"/>
<path d="M123.443 133.2C123.283 131.44 123.443 129.68 123.923 128.16L124.243 127.68C124.723 129.84 131.443 134.64 133.443 133.44C133.123 135.12 132.643 136.88 131.763 138.64C126.083 139.12 124.003 135.36 123.443 133.2Z" fill="#232664"/>
<path d="M159.441 117.28C159.681 121.28 158.721 124.64 158.081 126.32C157.681 123.68 156.481 121.28 155.121 119.44C156.001 117.68 156.481 115.92 156.641 114.24C158.161 115.52 159.201 116.88 159.441 117.28Z" fill="#252468"/>
<path d="M145.121 140.32C138.641 140.16 134.081 138 132.961 137.36C133.761 135.28 134.161 133.28 134.241 131.36C134.561 128.96 134.001 126.16 134.001 126.16C134.001 126.16 137.681 131.68 144.881 132.88C151.281 133.92 156.641 130 157.601 127.28C157.601 127.36 157.601 127.52 157.601 127.6C158.161 130.56 156.401 136.4 156.401 136.48C156.401 136.48 155.921 137.52 154.641 138.72C153.121 139.44 150.081 140.4 145.121 140.32Z" fill="#252468"/>
<path d="M147.041 115.92C146.161 116.16 139.601 121.68 133.441 123.52C133.281 123.04 133.201 122.64 133.121 122.4C137.281 120.64 140.721 117.84 142.961 115.92C144.241 114.8 145.281 114 145.841 113.84C147.361 113.44 150.001 114.96 150.161 115.04C150.241 115.12 151.121 115.84 152.321 116.96L154.081 119.2C154.081 119.2 147.921 115.68 147.041 115.92Z" fill="white"/>
<path d="M153.922 111.6C154.962 109.76 155.282 107.92 155.362 106.88C155.602 107.2 155.922 107.6 156.162 107.92C156.082 108.8 155.842 110.56 155.122 112.24C154.722 112 154.322 111.76 153.922 111.6Z" fill="white"/>
<path d="M124.883 126.24C127.203 123.52 132.163 124.64 133.123 124.88C133.203 125.36 133.363 125.92 133.443 126.56C132.403 126.32 127.523 125.2 124.883 126.24Z" fill="white"/>
<path d="M153.601 112.08C154.001 112.24 154.401 112.48 154.801 112.8C154.161 114 153.361 115.12 152.081 115.92C151.521 115.44 151.121 115.04 150.801 114.8C152.081 114.08 152.961 113.12 153.601 112.08Z" fill="white"/>
<path d="M157.763 128.48C157.363 128.4 157.043 128.08 157.043 127.6C156.643 120.72 149.843 115.52 149.763 115.52C149.523 115.36 149.363 115.04 149.363 114.72C149.363 114.4 149.523 114.16 149.843 114C154.163 111.6 154.163 106.16 154.163 106.08C154.163 105.68 154.403 105.36 154.723 105.2C155.123 105.04 155.523 105.2 155.763 105.44C160.403 110.8 160.963 116.64 160.643 120.56C160.243 124.8 158.803 127.84 158.723 127.92C158.563 128.24 158.243 128.4 157.923 128.4C157.923 128.48 157.843 128.48 157.763 128.48ZM151.843 114.88C153.523 116.32 156.723 119.68 158.163 124C158.403 122.96 158.643 121.68 158.803 120.32C159.203 115.84 158.163 111.84 155.763 108.4C155.363 110.32 154.323 112.96 151.843 114.88Z" fill="#252468"/>
<path d="M159.762 118.08C159.922 118.08 160.162 118 160.322 117.92C160.722 117.6 160.882 117.04 160.562 116.64C160.402 116.48 157.522 112.4 153.842 110.8C153.362 110.64 152.802 110.8 152.642 111.28C152.482 111.76 152.642 112.32 153.122 112.48C156.322 113.84 159.042 117.6 159.042 117.6C159.202 118 159.522 118.08 159.762 118.08Z" fill="#252468"/>
<path d="M145.52 142.96C155.12 142.88 157.52 137.12 157.6 136.88V136.8C157.68 136.56 159.44 130.64 158.8 127.36C158.72 126.88 158.24 126.56 157.68 126.64C157.2 126.72 156.88 127.2 156.96 127.76C157.44 130.48 156 135.76 155.84 136.32C155.68 136.8 153.52 141.12 145.44 141.2C145.28 141.2 145.2 141.2 145.04 141.2C138.32 141.12 134.4 139.84 132.8 139.12C136.24 132.24 134.56 125.2 133.76 122.8C137.76 120.96 141.04 118.32 143.2 116.48C144.24 115.6 145.44 114.64 145.84 114.56C146.8 114.32 148.72 115.12 149.68 115.68C150.16 115.92 150.72 115.76 150.96 115.36C151.2 114.88 151.04 114.32 150.64 114.08C150.32 113.92 147.36 112.24 145.44 112.72C144.64 112.96 143.6 113.76 142.08 115.04C139.68 117.04 136.48 119.76 132.32 121.44C131.84 121.6 131.6 122.16 131.84 122.64C131.84 122.72 135.2 131.36 130.8 139.12C130.56 139.52 130.72 140.08 131.12 140.4C131.28 140.48 135.52 142.96 145.04 143.12C145.28 142.96 145.36 142.96 145.52 142.96Z" fill="#252468"/>
<path d="M128.641 141.12C129.601 141.12 130.721 140.88 132.001 140.4C132.481 140.24 132.721 139.68 132.481 139.2C132.321 138.72 131.761 138.48 131.281 138.72C128.961 139.68 127.121 139.52 125.921 138.24C123.761 136 123.521 130.8 124.801 127.68C126.481 123.68 133.121 125.6 133.201 125.6C133.681 125.76 134.241 125.44 134.321 124.96C134.481 124.48 134.161 123.92 133.681 123.84C133.361 123.76 125.361 121.44 123.041 126.96C121.521 130.64 121.761 136.64 124.561 139.52C125.441 140.32 126.721 141.12 128.641 141.12Z" fill="#252468"/>
<path d="M53.8392 122.08C52.5592 120.4 51.9992 118.64 51.7592 117.6C49.7592 120.96 49.0392 124.32 49.1192 127.28C49.9192 126 51.5992 123.52 53.8392 122.08Z" fill="url(#paint3_linear_1614_51058)"/>
<path d="M76.16 132.48C75.92 135.76 76.1601 141.52 79.8401 146.48C82.4801 147.12 84.4001 146.64 85.68 145.04C87.76 142.32 87.2 136.88 85.36 133.76C83.12 129.84 77.28 132 76.16 132.48Z" fill="#545580"/>
<path d="M75.6002 132.319C75.6002 132.239 75.6002 132.239 75.6002 132.159C75.6802 131.119 75.8402 130.319 75.9202 129.919C71.5202 128.719 67.7602 126.399 65.2802 124.879C63.8402 123.999 62.7202 123.279 62.1602 123.199C60.6402 123.039 58.2402 124.879 58.0802 124.959C57.8402 125.199 51.8402 131.359 52.4002 138.399C52.2402 141.439 54.8002 146.959 54.8002 147.039C54.8002 147.039 57.6802 151.919 66.4002 150.719C66.5602 150.719 66.6402 150.719 66.8002 150.639C74.5602 149.439 78.4802 147.119 79.4402 146.479C75.5202 141.519 75.3602 135.599 75.6002 132.319Z" fill="white"/>
<path d="M57.2772 124.88C55.9972 124.32 54.9572 123.44 54.2372 122.56C51.5172 124.32 49.5172 127.76 49.1172 128.48C49.4372 132.48 50.8772 135.68 51.6772 137.28C51.7572 131.2 56.0772 126.16 57.2772 124.88Z" fill="#5DB075"/>
<path d="M86.9591 139.36C86.8791 137.6 86.4791 135.84 85.7591 134.48L85.3591 134.08C85.1991 136.32 79.1991 141.92 77.0391 141.04C77.5991 142.64 78.3191 144.32 79.4391 145.92C85.1991 145.6 86.7191 141.6 86.9591 139.36Z" fill="#232664"/>
<path d="M49.1172 128.48C49.4372 132.48 50.8772 135.68 51.6772 137.28C51.7572 134.56 52.6372 132.08 53.6772 130C52.5572 128.4 51.9172 126.64 51.4372 125.04C50.1572 126.56 49.3572 128.08 49.1172 128.48Z" fill="#252468"/>
<path d="M66.4797 149.36C72.8797 148.32 77.1197 145.52 78.0797 144.8C77.0397 142.88 76.3197 140.88 75.9997 139.04C75.3597 136.72 75.5197 133.84 75.5197 133.84C75.5197 133.84 72.5597 139.84 65.6797 141.92C59.5197 143.84 53.5997 140.64 52.3197 138.08C52.3197 138.16 52.3197 138.32 52.3197 138.4C52.1597 141.44 54.7197 146.96 54.7197 147.04C54.7197 147.04 55.3597 148.08 56.7997 149.04C58.3997 149.6 61.5997 150.16 66.4797 149.36Z" fill="#252468"/>
<path d="M61.1987 125.439C62.0787 125.519 69.3587 130.159 75.6787 131.119C75.7587 130.639 75.8388 130.239 75.8388 129.999C71.4388 128.799 67.6787 126.479 65.1987 124.959C63.7587 124.079 62.6387 123.359 62.0787 123.279C60.5587 123.119 58.1587 124.959 57.9987 125.039C57.9187 125.119 57.1187 125.919 56.1587 127.279L54.7188 129.759C54.7188 129.679 60.3187 125.359 61.1987 125.439Z" fill="white"/>
<path d="M53.8372 122.08C52.5572 120.4 51.9972 118.64 51.7572 117.6C51.5172 118 51.3572 118.32 51.1172 118.72C51.2772 119.6 51.7572 121.28 52.7972 122.88C53.1172 122.56 53.4372 122.32 53.8372 122.08Z" fill="white"/>
<path d="M84.5581 132.64C81.9181 130.24 77.1181 132 76.1581 132.4C76.1581 132.88 76.0781 133.44 76.0781 134.08C77.1981 133.68 81.8381 132 84.5581 132.64Z" fill="white"/>
<path d="M54.2372 122.56C53.8372 122.8 53.4372 123.12 53.1172 123.44C53.8372 124.48 54.8772 125.52 56.2372 126.16C56.7172 125.6 57.0372 125.2 57.3572 124.88C55.9972 124.32 55.0372 123.44 54.2372 122.56Z" fill="white"/>
<path d="M52.1607 139.36C51.8407 139.44 51.4407 139.28 51.2807 138.96C51.2007 138.88 49.3607 136.08 48.4007 131.92C47.5207 128.08 47.2807 122.16 51.1207 116.24C51.3607 115.92 51.7607 115.76 52.0807 115.84C52.4807 115.92 52.7207 116.24 52.8007 116.64C52.8007 116.72 53.6007 122.08 58.1607 123.84C58.4807 123.92 58.6407 124.24 58.7207 124.48C58.8007 124.8 58.7207 125.12 58.4807 125.36C58.4007 125.44 52.4007 131.44 52.9607 138.32C52.9607 138.72 52.7207 139.12 52.3207 139.28C52.2407 139.36 52.2407 139.36 52.1607 139.36ZM51.6007 119.2C49.6807 122.96 49.2007 127.12 50.1607 131.44C50.4807 132.8 50.8807 134 51.2807 134.96C52.0807 130.4 54.8807 126.72 56.3207 125.04C53.6007 123.52 52.2407 121.04 51.6007 119.2Z" fill="#252468"/>
<path d="M48.8789 129.36C48.7189 129.36 48.4789 129.36 48.3189 129.28C47.8389 129.04 47.6789 128.48 47.9189 128C47.9989 127.84 50.3189 123.36 53.7589 121.36C54.2389 121.12 54.7989 121.28 55.0389 121.68C55.2789 122.16 55.1189 122.72 54.7189 122.96C51.6789 124.72 49.5989 128.8 49.5989 128.88C49.4389 129.2 49.1989 129.36 48.8789 129.36Z" fill="#252468"/>
<path d="M66.4005 152.079C56.8805 153.359 53.7605 147.919 53.6005 147.759V147.679C53.5205 147.439 50.9605 141.839 51.1205 138.479C51.1205 137.999 51.6005 137.599 52.0805 137.599C52.5605 137.599 52.9605 138.079 52.9605 138.559C52.8005 141.279 55.0405 146.319 55.2805 146.879C55.5205 147.279 58.2405 151.359 66.2405 150.319C66.4005 150.319 66.4805 150.319 66.6405 150.239C73.2805 149.279 77.0405 147.439 78.4805 146.559C74.1605 140.159 74.8805 132.959 75.2805 130.479C71.0405 129.279 67.4405 127.039 65.0405 125.519C63.9205 124.799 62.5605 123.999 62.1605 123.919C61.2005 123.839 59.3605 124.879 58.4805 125.599C58.0805 125.919 57.5205 125.839 57.2005 125.439C56.8805 125.039 56.9605 124.479 57.3605 124.159C57.6805 123.919 60.3205 121.919 62.3205 122.079C63.2005 122.159 64.3205 122.879 66.0005 123.919C68.6405 125.599 72.2405 127.839 76.5605 128.879C77.0405 129.039 77.3605 129.519 77.2005 129.999C77.2005 130.079 75.1205 139.039 80.4805 146.159C80.8005 146.559 80.7205 147.119 80.3205 147.439C80.1605 147.599 76.3205 150.559 66.8805 151.999C66.7205 151.999 66.5605 151.999 66.4005 152.079Z" fill="#252468"/>
<path d="M82.8795 147.839C81.9195 147.999 80.7995 147.919 79.4395 147.599C78.9595 147.439 78.6395 146.959 78.7995 146.479C78.9595 146 79.4395 145.679 79.9195 145.839C82.3195 146.479 84.0795 146.079 85.1995 144.639C87.0395 142.159 86.5595 136.879 84.8795 134.079C82.6395 130.319 76.3195 133.119 76.2395 133.199C75.7595 133.439 75.1995 133.199 75.0395 132.719C74.7995 132.239 75.0395 131.679 75.5195 131.519C75.8395 131.359 83.4395 127.999 86.4795 133.199C88.4795 136.639 89.1195 142.639 86.7195 145.839C85.9995 146.639 84.7995 147.599 82.8795 147.839Z" fill="#252468"/>
<path d="M112.004 39.0399C111.364 39.1199 110.804 39.2799 110.164 39.4399C110.004 38.9599 109.844 38.3999 109.684 37.9199C111.604 37.5199 113.604 37.1199 115.684 36.8799C115.844 37.4399 116.004 37.9199 116.084 38.4799C115.444 38.5599 114.804 38.6399 114.164 38.7199C114.564 40.1599 114.964 41.6799 115.284 43.1199C114.564 43.1999 113.924 43.3599 113.204 43.4399C112.884 41.9199 112.484 40.4799 112.004 39.0399Z" fill="#252468"/>
<path d="M103.601 41.0397C103.761 41.3597 103.841 41.6797 104.001 41.9997C104.801 41.7597 105.601 41.5197 106.481 41.2797C106.641 41.7597 106.801 42.2397 106.961 42.7197C106.161 42.9597 105.361 43.1197 104.561 43.3597C104.801 43.9997 105.041 44.5597 105.201 45.1997C104.561 45.3597 103.921 45.5997 103.281 45.7597C102.561 43.9197 101.761 41.9997 100.961 40.2397C102.561 39.6797 104.161 39.1997 105.841 38.7197C106.001 39.1997 106.241 39.6797 106.401 40.1597C105.521 40.4797 104.561 40.7197 103.601 41.0397Z" fill="#252468"/>
<path d="M95.6836 42.3195C96.3236 42.0795 96.9636 41.7595 97.6036 41.5195C98.2436 42.7995 98.8836 44.1595 99.5236 45.5195C100.324 45.1995 101.204 44.8795 102.004 44.6395C102.164 45.1195 102.404 45.5995 102.564 46.0795C101.124 46.5595 99.6836 47.0395 98.3236 47.5995C97.5236 45.8395 96.6436 43.9995 95.6836 42.3195Z" fill="#252468"/>
<path d="M96.9623 46.5597C97.2023 47.0397 97.3623 47.4397 97.6023 47.9197C96.1623 48.4797 94.7223 49.1197 93.3623 49.8397C92.4023 48.1597 91.4423 46.3997 90.4023 44.7997C91.8423 44.0797 93.2823 43.3597 94.8023 42.7197C95.0423 43.1997 95.2823 43.5997 95.5223 44.0797C94.6423 44.4797 93.7623 44.8797 92.9623 45.2797C93.0423 45.4397 93.2023 45.6797 93.2823 45.9197C94.0023 45.5997 94.8023 45.1997 95.5223 44.8797C95.7623 45.2797 96.0023 45.7597 96.1623 46.1597C95.4423 46.4797 94.6423 46.7997 93.9223 47.1197C94.0823 47.3597 94.1623 47.5997 94.3223 47.8397C95.2023 47.2797 96.0823 46.8797 96.9623 46.5597Z" fill="#252468"/>
<path d="M90.4819 51.4395C90.0819 51.6795 89.6819 51.8395 89.2819 51.9195C88.8819 52.0795 88.4819 52.0795 88.1619 52.0795C88.0819 51.5995 88.0019 51.1195 87.9219 50.5595C88.2419 50.5595 88.5619 50.4795 88.8819 50.3995C89.2019 50.3195 89.5219 50.2395 89.7619 50.0795C90.0019 49.9195 90.1619 49.8395 90.2419 49.7595C90.3219 49.6795 90.3219 49.5995 90.2419 49.4395C90.1619 49.3595 90.0819 49.2795 89.9219 49.2795C89.7619 49.2795 89.5219 49.3595 89.2019 49.4395C88.8019 49.5995 88.4019 49.6795 88.0819 49.7595C87.7619 49.8395 87.4419 49.7595 87.1219 49.6795C86.8019 49.5995 86.4819 49.3595 86.2419 49.0395C86.0019 48.7195 85.9219 48.3995 85.9219 48.0795C85.9219 47.7595 86.0019 47.3595 86.3219 47.0395C86.5619 46.7195 86.9619 46.3995 87.4419 46.0795C87.7619 45.9195 88.1619 45.7595 88.5619 45.5995C88.9619 45.5195 89.3619 45.4395 89.6819 45.4395C89.7619 45.9195 89.8419 46.3995 89.9219 46.9595C89.2819 46.9595 88.7219 47.1195 88.2419 47.3595C87.8419 47.5995 87.6819 47.8395 87.7619 47.9995C87.8419 48.0795 87.9219 48.1595 88.0819 48.0795C88.2419 48.0795 88.4819 47.9995 88.8019 47.9195C89.2019 47.7595 89.6019 47.6795 89.9219 47.5995C90.2419 47.5195 90.5619 47.5995 90.8819 47.6795C91.2019 47.7595 91.4419 47.9995 91.6819 48.3995C91.8419 48.7195 91.9219 49.0395 91.9219 49.4395C91.9219 49.7595 91.7619 50.1595 91.5219 50.4795C91.2819 50.8795 90.9619 51.1995 90.4819 51.4395Z" fill="#252468"/>
<path fill-rule="evenodd" clip-rule="evenodd" d="M107.443 37.4401C108.003 37.2801 108.643 37.6001 108.803 38.0801C108.963 38.5601 108.643 39.0401 108.083 39.2001C107.523 39.3601 106.963 39.0401 106.803 38.5601C106.563 38.0801 106.883 37.6001 107.443 37.4401Z" fill="white"/>
<path fill-rule="evenodd" clip-rule="evenodd" d="M107.763 39.8399C108.163 39.7599 108.483 39.6799 108.883 39.5999C109.123 39.5199 109.363 39.6799 109.443 39.9199C109.923 41.2799 110.323 42.6399 110.723 43.9999C110.083 44.1599 109.443 44.2399 108.803 44.3999C108.403 43.0399 107.923 41.6799 107.443 40.3999C107.363 40.0799 107.523 39.8399 107.763 39.8399Z" fill="white"/>
<path d="M154.799 37.3599C152.879 34.9599 151.759 31.9999 151.679 28.6399C151.519 20.6399 157.839 14.0799 165.839 13.8399C173.839 13.6799 180.399 19.9999 180.639 27.9999C180.879 35.9999 174.479 42.5599 166.479 42.7999C164.239 42.8799 162.159 42.3999 160.239 41.5199L153.759 43.8399L154.799 37.3599Z" fill="white"/>
<g opacity="0.5">
<path d="M160.48 18.16C153.92 21.76 151.36 29.68 154.16 36.4C153.84 36 153.6 35.52 153.36 35.12C149.52 28.16 152 19.36 158.96 15.44C165.92 11.6 174.72 14.08 178.64 21.04C178.88 21.52 179.12 22 179.28 22.4C175.12 16.56 166.96 14.56 160.48 18.16Z" fill="white"/>
</g>
<path d="M166.479 44.0804C164.319 44.1604 162.159 43.7603 160.159 42.8804L154.159 45.0404C153.759 45.2004 153.279 45.1203 152.879 44.8004C152.559 44.4804 152.399 44.0804 152.399 43.6004L153.359 37.6004C151.439 34.9604 150.399 31.9204 150.319 28.6404C150.159 20.0004 157.039 12.8004 165.679 12.5604C174.319 12.4004 181.519 19.2804 181.759 27.9204C181.919 36.0804 175.919 42.8804 167.999 43.8404C167.519 44.0804 167.039 44.0804 166.479 44.0804ZM152.159 28.7204C152.239 31.7604 153.279 34.7204 155.199 37.1204C155.439 37.4404 155.519 37.7604 155.439 38.1604L154.719 42.8004L159.359 41.1204C159.679 41.0404 160.079 41.0404 160.399 41.1204C162.319 42.0004 164.319 42.4004 166.399 42.3204C174.079 42.1604 180.159 35.7604 179.999 28.0804C179.839 20.4004 173.439 14.3204 165.759 14.4804C165.279 14.4804 164.799 14.5604 164.319 14.5604C157.359 15.4404 151.999 21.5204 152.159 28.7204Z" fill="#252468"/>
<g opacity="0.13">
<path d="M154.72 37.2808C159.04 40.0808 164.64 40.8808 169.84 38.8808C175.6 36.6408 179.44 31.6008 180.32 25.8408C180.48 26.5608 180.56 27.2808 180.56 28.0808C180.72 36.0808 174.4 42.6408 166.4 42.8808C164.16 42.9608 162.08 42.4808 160.16 41.6008L153.68 43.9208L154.72 37.4408C154.8 37.3608 154.72 37.2808 154.72 37.2808Z" fill="#252468"/>
</g>
<path d="M159.6 30.3202C160.748 30.3202 161.68 29.3889 161.68 28.2402C161.68 27.0914 160.748 26.1602 159.6 26.1602C158.451 26.1602 157.52 27.0914 157.52 28.2402C157.52 29.3889 158.451 30.3202 159.6 30.3202Z" fill="#252468"/>
<path d="M166.4 30.3202C167.549 30.3202 168.48 29.3889 168.48 28.2402C168.48 27.0914 167.549 26.1602 166.4 26.1602C165.252 26.1602 164.32 27.0914 164.32 28.2402C164.32 29.3889 165.252 30.3202 166.4 30.3202Z" fill="#252468"/>
<path d="M173.119 30.3202C174.268 30.3202 175.199 29.3889 175.199 28.2402C175.199 27.0914 174.268 26.1602 173.119 26.1602C171.97 26.1602 171.039 27.0914 171.039 28.2402C171.039 29.3889 171.97 30.3202 173.119 30.3202Z" fill="#252468"/>
<path d="M43.5188 38.8003C45.4388 36.4003 46.5588 33.4403 46.6388 30.0803C46.7988 22.0803 40.4788 15.5203 32.4788 15.2803C24.4788 15.1203 17.9188 21.4403 17.6788 29.4403C17.5188 37.4403 23.8388 44.0003 31.8388 44.2403C34.0788 44.3203 36.1588 43.8403 38.0788 42.9603L44.5588 45.2803L43.5188 38.8003Z" fill="white"/>
<g opacity="0.5">
<path d="M37.9211 19.6004C44.4811 23.2004 47.0411 31.1204 44.2411 37.8404C44.5611 37.4404 44.8011 36.9604 45.0411 36.5604C48.8811 29.6004 46.4011 20.8004 39.4411 16.8804C32.4811 13.0404 23.6811 15.5204 19.7611 22.4804C19.5211 22.9604 19.2811 23.4404 19.1211 23.8404C23.2811 17.9204 31.3611 16.0004 37.9211 19.6004Z" fill="white"/>
</g>
<path d="M30.2396 45.3602C22.3996 44.4002 16.3196 37.6002 16.4796 29.4402C16.6396 20.8002 23.9196 13.8402 32.5597 14.0802C41.1996 14.2402 48.1597 21.5202 47.9197 30.1602C47.8397 33.4402 46.7996 36.5602 44.8796 39.1202L45.8396 45.1202C45.9196 45.6002 45.7596 46.0002 45.3596 46.3202C45.0396 46.6402 44.5596 46.7202 44.0796 46.5602L38.0796 44.4002C36.0796 45.2002 33.9996 45.6002 31.7597 45.6002C31.3596 45.5202 30.7996 45.4402 30.2396 45.3602ZM33.9996 15.9202C33.5196 15.8402 33.0396 15.8402 32.5597 15.8402C24.8796 15.6802 18.4796 21.7602 18.3196 29.4402C18.1596 37.1202 24.2397 43.5202 31.9197 43.6802C33.9997 43.7602 35.9997 43.2802 37.9197 42.4802C38.2397 42.3202 38.5597 42.3202 38.9597 42.4802L43.5996 44.1602L42.8796 39.5202C42.7996 39.1202 42.8797 38.8002 43.1196 38.4802C45.0396 36.0802 46.0797 33.2002 46.1597 30.0802C46.3197 22.8802 40.9597 16.8002 33.9996 15.9202Z" fill="#252468"/>
<g opacity="0.13">
<path d="M43.6008 38.6402C39.2808 41.4402 33.6808 42.2402 28.4808 40.2402C22.7208 38.0002 18.8808 32.9602 18.0008 27.2002C17.8408 27.9202 17.7608 28.6402 17.7608 29.4402C17.6008 37.4402 23.9208 44.0002 31.9208 44.2402C34.1608 44.3202 36.2408 43.8402 38.1608 42.9602L44.6408 45.2802L43.6008 38.8002C43.6008 38.7202 43.6008 38.7202 43.6008 38.6402Z" fill="#252468"/>
</g>
<path d="M121.12 151.92C121.12 151.92 117.76 155.28 114.56 155.52C111.28 155.76 97.1198 156.4 97.1198 156.4C97.1198 156.4 91.3598 156 89.8398 153.12" stroke="#252468" stroke-width="2.5" stroke-miterlimit="10" stroke-linecap="round" stroke-linejoin="round"/>
<path d="M54.8016 78.0797C55.7616 78.9597 56.1616 80.2397 56.4016 81.4397C56.6416 82.9597 56.5616 84.5597 56.4816 86.0797C56.1616 90.5597 55.6816 95.0397 55.1216 99.5197C54.8016 102.4 54.4016 105.36 53.4416 108.08C53.2016 108.64 52.9616 109.28 52.5616 109.68C51.6016 110.56 50.1616 110.48 48.8816 110.32C48.5616 110.32 48.2416 110.24 48.0016 110C47.6816 109.68 47.6016 109.12 47.6016 108.72C47.7616 101.28 48.0016 93.7597 48.3216 86.3197C48.4016 84.3197 48.5616 82.2397 49.0416 80.3197C49.8416 77.8397 52.4016 75.7597 54.8016 78.0797Z" fill="#5DB075" stroke="#2A2866" stroke-width="3" stroke-miterlimit="10"/>
<path d="M39.2007 77.4397C37.7607 78.6397 36.9607 80.3196 36.3207 81.9996C35.2807 84.7996 34.8007 87.6797 34.4807 90.6397C34.1607 93.5196 34.0007 96.3996 33.9207 99.2796C33.8407 100.88 33.8407 102.48 34.4007 104C35.1207 106.08 36.8807 107.68 38.8807 108.72C40.8807 109.76 43.1207 110.16 45.2807 110.4C46.0007 104.88 46.7207 99.3596 47.4407 93.8397C48.1607 88.3196 48.8807 82.7196 48.7207 77.1996C48.7207 77.1196 46.8007 76.2396 46.5607 76.1596C45.7607 75.9196 44.8007 75.9196 44.0007 75.9196C42.2407 75.8396 40.5607 76.3997 39.2007 77.4397Z" fill="#5DB075" stroke="#2A2866" stroke-width="3" stroke-miterlimit="10"/>
<path d="M42.161 105.92C42.081 107.2 42.081 108.88 43.441 109.76C44.641 110.56 46.321 110.24 47.121 109.36C47.921 108.48 48.161 107.28 48.321 106.08C49.761 96.56 50.161 90.16 50.481 80.48C50.481 79.44 50.561 78.4 50.161 77.44C49.761 76.4 48.961 75.44 47.841 74.96C46.721 74.56 45.441 75.6 45.121 76.56C44.481 77.12 44.561 78.56 44.481 79.52C44.241 80.96 44.241 81.52 44.081 82.96C43.681 85.76 43.361 88.48 43.041 91.28C42.321 96.96 42.641 100.24 42.161 105.92Z" fill="white" stroke="#2A2866" stroke-width="3" stroke-miterlimit="10"/>
<path opacity="0.1" d="M46.0817 92.1596C46.0817 91.6796 45.8417 91.0396 45.4417 91.2796C45.2817 91.3596 45.2017 91.4397 45.2017 91.5997C44.8017 92.3197 44.7217 93.1997 44.6417 93.9997C44.1617 98.1597 43.8417 102.32 43.7617 106.48C43.7617 107.36 44.5617 109.44 45.7617 108.4C46.5617 107.6 46.0817 104.32 46.0817 103.28C46.0017 99.5997 46.0817 95.9196 46.0817 92.1596Z" fill="#252468"/>
<path opacity="0.37" d="M39.5999 80.4799C38.4799 82.1599 37.7599 84.2399 37.5999 86.2399C37.4399 87.4399 37.4399 88.7199 37.9999 89.6799C38.0799 89.8399 38.1599 89.9199 38.3199 89.9999C38.7199 90.1599 39.1199 89.7599 39.3599 89.2799C39.9199 88.1599 39.9999 86.8799 40.3199 85.6799C40.6399 84.4799 43.5199 79.1999 42.8799 78.3199C42.1599 77.6799 40.0799 79.7599 39.5999 80.4799Z" fill="white"/>
<path d="M118.242 81.1202C120.716 81.1202 122.722 79.1144 122.722 76.6402C122.722 74.1659 120.716 72.1602 118.242 72.1602C115.767 72.1602 113.762 74.1659 113.762 76.6402C113.762 79.1144 115.767 81.1202 118.242 81.1202Z" fill="#5DB075"/>
<path d="M91.3589 82.96C93.8331 82.96 95.8389 80.9542 95.8389 78.48C95.8389 76.0058 93.8331 74 91.3589 74C88.8847 74 86.8789 76.0058 86.8789 78.48C86.8789 80.9542 88.8847 82.96 91.3589 82.96Z" fill="#5DB075"/>
<path d="M108.639 88.4002L102.319 88.1602C101.359 88.1602 100.639 89.0402 100.879 89.9202C101.439 91.6802 102.639 94.1602 105.199 94.3202C107.839 94.4802 109.199 92.0802 109.839 90.2402C110.239 89.3602 109.599 88.4002 108.639 88.4002Z" fill="#5DB075"/>
<path d="M32.8809 28.8796C33.2009 28.5596 33.5209 28.2396 33.9209 27.9196C34.6409 27.1996 35.0409 26.3196 34.9609 25.2796C34.9609 24.8796 34.8009 24.5596 34.6409 24.3196C34.4809 23.9996 34.2409 23.7596 33.9209 23.5196C33.6009 23.2796 33.2809 23.1196 32.9609 23.0396C32.6409 22.9596 32.2409 22.8796 31.9209 22.8796C30.3209 22.9596 29.4409 23.8396 29.2809 25.5196C29.2009 26.0796 28.8009 26.4796 28.2409 26.4796C27.6009 26.4796 27.0409 25.9196 27.1209 25.2796C27.2009 24.1596 27.6009 23.1996 28.1609 22.3996C29.0409 21.2796 30.1609 20.7196 31.6809 20.6396C32.3209 20.6396 32.9609 20.7196 33.6009 20.8796C34.2409 21.1196 34.8009 21.3596 35.3609 21.7596C35.8409 22.1596 36.3209 22.6396 36.6409 23.1996C36.9609 23.7596 37.2009 24.3996 37.2009 25.0396C37.2809 26.3196 36.9609 27.4396 36.2409 28.3996C36.1609 28.4796 36.1609 28.4796 36.0809 28.5596C35.7609 28.8796 35.3609 29.1996 35.0409 29.5196C34.7209 29.8397 34.3209 30.2396 34.0009 30.5596C33.2009 31.3596 32.8809 32.3196 32.9609 33.4396V33.6796C32.9609 34.2396 32.5609 34.7996 31.9209 34.7996C31.3609 34.7996 30.8009 34.3996 30.8009 33.7596V33.5196C30.7209 31.9196 30.9609 30.6396 31.6809 29.7596C31.7609 29.6796 31.7609 29.5996 31.8409 29.5996C32.3209 29.4396 32.6409 29.1996 32.8809 28.8796ZM30.8809 36.9596C31.5209 36.2396 32.5609 36.1596 33.2809 36.7996L33.3609 36.8796C34.0009 37.4396 34.0809 38.4796 33.5209 39.1196C32.8809 39.8396 31.8409 39.9196 31.1209 39.2796L31.0409 39.1996C30.4009 38.6396 30.3209 37.6796 30.8809 36.9596Z" fill="#252468"/>
<path d="M112.4 151.52C112.08 151.52 111.76 151.52 111.44 151.44C110.24 151.36 109.12 151.04 107.92 150.64C106.08 150 104.32 149.12 102.72 148C99.5197 145.76 96.7997 142.96 95.1197 139.36C94.7197 138.48 94.3997 137.52 94.3197 136.56C94.2397 135.6 94.4797 134.72 95.0397 134C95.5997 133.36 96.0797 132.64 96.6397 132C97.5997 130.96 98.6397 130.88 99.7597 131.68C100.88 132.48 101.92 133.36 102.96 134.24C103.84 134.96 103.92 136.08 103.28 137.04C102.8 137.68 102.32 138.32 101.84 138.88C101.76 139.04 101.76 139.04 101.84 139.2C102.56 140.32 103.44 141.2 104.48 142.08C105.52 142.96 106.56 143.68 107.76 144.24C108.08 144.4 108.4 144.48 108.72 144.64C108.88 144.72 108.88 144.64 109.04 144.56C109.44 144 109.84 143.52 110.32 142.96C110.64 142.56 111.04 142.24 111.52 142.08C112.24 141.84 112.88 142.08 113.44 142.48C114.48 143.28 115.44 144.08 116.48 144.88C117.6 145.76 117.76 146.88 116.96 148C116.4 148.8 115.76 149.52 115.2 150.24C114.72 150.8 114.16 151.04 113.52 151.2C113.44 151.2 113.44 151.2 113.36 151.28C112.96 151.44 112.72 151.44 112.4 151.52ZM95.4397 136.48C95.5997 137.68 95.9997 138.56 96.3997 139.44C97.6797 141.92 99.4397 143.92 101.52 145.76C103.52 147.52 105.84 148.8 108.32 149.68C109.6 150.16 110.88 150.48 112.24 150.48C113.04 150.48 113.84 150.32 114.4 149.6C114.96 148.96 115.52 148.24 116 147.52C116.4 146.96 116.32 146.4 115.84 146C114.8 145.12 113.76 144.32 112.64 143.44C112.24 143.12 111.68 143.12 111.28 143.52C111.2 143.6 111.12 143.68 111.04 143.84C110.56 144.4 110.08 145.04 109.68 145.6C109.36 146 109.04 146.08 108.56 145.92C108.24 145.76 107.92 145.68 107.6 145.52C106.08 144.88 104.8 143.92 103.52 142.88C102.48 142 101.52 141.04 100.88 139.84C100.48 139.2 100.56 138.96 100.96 138.4C101.44 137.84 101.92 137.2 102.4 136.64C102.8 136.08 102.72 135.6 102.24 135.2C101.44 134.56 100.64 133.92 99.9197 133.28C99.5997 133.04 99.3597 132.8 99.0397 132.64C98.5597 132.32 98.0797 132.32 97.6797 132.8C97.5997 132.88 97.5197 132.96 97.4397 133.04C97.0397 133.6 96.5597 134.16 96.1597 134.64C95.5197 135.12 95.3597 135.84 95.4397 136.48Z" fill="#252468" stroke="#252468" stroke-width="2" stroke-miterlimit="10"/>
<path d="M95.4412 136.48C95.3612 135.84 95.5212 135.12 96.0812 134.56C96.5612 134 96.9612 133.44 97.3612 132.96C97.4412 132.88 97.5212 132.8 97.6012 132.72C98.0012 132.32 98.4812 132.24 98.9612 132.56C99.2812 132.8 99.5212 133.04 99.8412 133.2C100.641 133.84 101.441 134.48 102.161 135.12C102.641 135.52 102.721 136.08 102.321 136.56C101.841 137.2 101.361 137.76 100.881 138.32C100.401 138.88 100.401 139.12 100.801 139.76C101.521 140.96 102.481 141.92 103.441 142.8C104.641 143.84 106.001 144.8 107.521 145.44C107.841 145.6 108.161 145.68 108.481 145.84C108.961 146 109.281 145.92 109.601 145.52C110.081 144.96 110.561 144.32 110.961 143.76C111.041 143.68 111.121 143.6 111.201 143.44C111.601 143.04 112.081 143.04 112.561 143.36C113.601 144.16 114.721 145.04 115.761 145.92C116.321 146.4 116.401 146.88 115.921 147.44C115.441 148.16 114.881 148.8 114.321 149.52C113.761 150.16 113.041 150.32 112.161 150.4C110.801 150.4 109.521 150.08 108.241 149.6C105.681 148.72 103.441 147.36 101.441 145.68C99.3612 143.92 97.5212 141.84 96.3212 139.36C95.9212 138.48 95.6012 137.6 95.4412 136.48Z" fill="white"/>
<defs>
<radialGradient id="paint0_radial_1614_51058" cx="0" cy="0" r="1" gradientUnits="userSpaceOnUse" gradientTransform="translate(91.8246 77.2846) scale(24.1999 25.9883)">
<stop stop-color="#54B848"/>
<stop offset="0.7056" stop-color="#54B848" stop-opacity="0"/>
</radialGradient>
<radialGradient id="paint1_radial_1614_51058" cx="0" cy="0" r="1" gradientUnits="userSpaceOnUse" gradientTransform="translate(115.612 75.3403) scale(24.1999 25.9883)">
<stop stop-color="#54B848"/>
<stop offset="0.7056" stop-color="#54B848" stop-opacity="0"/>
</radialGradient>
<linearGradient id="paint2_linear_1614_51058" x1="159.34" y1="111.472" x2="153.926" y2="111.502" gradientUnits="userSpaceOnUse">
<stop stop-color="white"/>
<stop offset="1" stop-color="#B4B7DC"/>
</linearGradient>
<linearGradient id="paint3_linear_1614_51058" x1="48.494" y1="122.728" x2="53.8614" y2="122.017" gradientUnits="userSpaceOnUse">
<stop stop-color="white"/>
<stop offset="1" stop-color="#B4B7DC"/>
</linearGradient>
</defs>
</svg>
