<svg width="100" height="100" viewBox="0 0 100 100" fill="none" xmlns="http://www.w3.org/2000/svg">
<g clip-path="url(#clip0_1614_52666)">
<path fill-rule="evenodd" clip-rule="evenodd" d="M88.0699 46.3612H82.5165V40.9632H100V46.3612H94.4544V61.6234H88.0699V46.3612ZM62.0971 46.2136V49.7554H70.0039V55.0136H62.0971V61.6234H55.7126V40.9632H71.1068V46.2136H62.0971ZM38.1204 40.9632H44.5126V56.2253H53.0641V61.6234H38.1204V40.9632ZM35.4796 56.3729V61.6234H19.7204V40.9632H35.1223V46.2136H26.0039V48.6369H34.0117V53.6544H26.0039V56.3729H35.4796ZM8.25631 62.0971C6.70819 62.0984 5.16603 61.9054 3.66602 61.5224C2.36479 61.2162 1.12511 60.6909 0 59.969L2.05825 54.8971C3.00282 55.4852 4.02148 55.9449 5.08738 56.2641C6.12913 56.6004 7.21605 56.7758 8.31068 56.7845C8.95224 56.836 9.59752 56.754 10.2058 56.5437C10.3741 56.4754 10.5181 56.3583 10.6191 56.2074C10.7202 56.0565 10.7737 55.8788 10.7728 55.6971C10.7638 55.4736 10.6836 55.2588 10.5439 55.0842C10.4041 54.9095 10.2122 54.7841 9.99612 54.7263C9.20208 54.4218 8.3836 54.1853 7.54951 54.0195C6.30492 53.7512 5.0821 53.3903 3.89126 52.9399C2.89597 52.5405 2.02099 51.8902 1.35146 51.0525C0.584245 50.0169 0.209882 48.7424 0.295146 47.4564C0.282283 46.2041 0.630107 44.9746 1.29709 43.9146C2.02396 42.8012 3.06455 41.9282 4.28738 41.4059C5.81242 40.7543 7.46074 40.4416 9.11845 40.4894C10.4085 40.4891 11.694 40.6429 12.9476 40.9476C14.1175 41.2163 15.2371 41.6699 16.2641 42.2913L14.3456 47.3399C12.7457 46.3817 10.928 45.8471 9.06408 45.7865C7.42524 45.7865 6.60194 46.2214 6.60194 47.0835C6.61432 47.2929 6.69112 47.4934 6.82181 47.6575C6.95251 47.8215 7.13071 47.9412 7.33204 48.0001C8.11402 48.2912 8.91957 48.5147 9.73981 48.668C10.9855 48.9045 12.2092 49.2448 13.3981 49.6855C14.4073 50.0757 15.2984 50.7206 15.9845 51.5573C16.7736 52.5749 17.1656 53.8448 17.0874 55.1302C17.1021 56.3778 16.754 57.6029 16.0854 58.6564C15.3574 59.781 14.3148 60.6669 13.0874 61.2039C11.5617 61.8514 9.91261 62.1563 8.25631 62.0971Z" fill="#B4B4B4"/>
<path d="M76.818 44.0233C78.5081 44.0233 79.8782 42.6532 79.8782 40.9631C79.8782 39.273 78.5081 37.903 76.818 37.903C75.1279 37.903 73.7578 39.273 73.7578 40.9631C73.7578 42.6532 75.1279 44.0233 76.818 44.0233Z" fill="#5DB075"/>
<path fill-rule="evenodd" clip-rule="evenodd" d="M75.1483 45.9106H78.4881C78.8555 45.9106 79.2079 46.056 79.4685 46.3151C79.729 46.5742 79.8763 46.9258 79.8784 47.2932V61.6233H73.7891V47.2932C73.791 46.9311 73.9341 46.5841 74.1879 46.3259C74.4418 46.0677 74.7863 45.9187 75.1483 45.9106Z" fill="#5DB075"/>
</g>
<defs>
<clipPath id="clip0_1614_52666">
<rect width="100" height="100" fill="white"/>
</clipPath>
</defs>
</svg>
