<svg width="164" height="164" viewBox="0 0 164 164" fill="none" xmlns="http://www.w3.org/2000/svg">
<g clip-path="url(#clip0_1614_51465)">
<path d="M48.5468 86.9856C43.9548 86.9856 40.2812 81.7376 40.2812 75.2432C40.2812 68.7488 44.0204 63.5008 48.5468 63.5008C53.0732 63.5008 56.8124 68.7488 56.8124 75.2432C56.8124 81.7376 53.1388 86.9856 48.5468 86.9856Z" fill="#5DB075"/>
<path d="M48.5465 64.4848C52.4825 64.4848 55.8281 69.4048 55.8281 75.2432C55.8281 81.0816 52.4825 86.0016 48.5465 86.0016C44.6105 86.0016 41.2649 81.0816 41.2649 75.2432C41.2649 69.4048 44.6105 64.4848 48.5465 64.4848ZM48.5465 62.5168C43.4297 62.5168 39.2969 68.224 39.2969 75.2432C39.2969 82.2624 43.4297 87.9696 48.5465 87.9696C53.6633 87.9696 57.7961 82.2624 57.7961 75.2432C57.7961 68.224 53.6633 62.5168 48.5465 62.5168Z" fill="#2A2866"/>
<path d="M53.398 87.9696C58.5064 87.9696 62.6476 82.2718 62.6476 75.2432C62.6476 68.2146 58.5064 62.5168 53.398 62.5168C48.2896 62.5168 44.1484 68.2146 44.1484 75.2432C44.1484 82.2718 48.2896 87.9696 53.398 87.9696Z" fill="#2A2866"/>
<path d="M56.0933 87.9696C61.2018 87.9696 65.3429 82.2718 65.3429 75.2432C65.3429 68.2146 61.2018 62.5168 56.0933 62.5168C50.9849 62.5168 46.8438 68.2146 46.8438 75.2432C46.8438 82.2718 50.9849 87.9696 56.0933 87.9696Z" fill="#5DB075"/>
<path d="M57.3373 87.3136C62.1921 87.3136 66.1277 81.9095 66.1277 75.2432C66.1277 68.5769 62.1921 63.1728 57.3373 63.1728C52.4825 63.1728 48.5469 68.5769 48.5469 75.2432C48.5469 81.9095 52.4825 87.3136 57.3373 87.3136Z" fill="#2A2866"/>
<path d="M48.6797 65.2064C48.6797 65.2064 55.3053 59.696 60.2253 65.7968" stroke="#2A2866" stroke-width="3" stroke-miterlimit="10"/>
<path d="M60.8141 85.28C60.8141 85.28 54.2541 90.7904 48.5469 84.6896" stroke="#2A2866" stroke-width="2.8" stroke-miterlimit="10"/>
<path d="M78.9866 89.1504C78.9866 89.1504 74.0666 85.8704 61.9962 80.8192C61.9962 80.8192 63.7674 79.7696 58.585 104.107C52.0906 112.438 48.0234 138.154 47.4986 139.203C46.9738 140.253 43.8906 148.781 43.8906 148.781L48.8106 150.158L50.713 151.667C50.713 151.667 52.6154 155.275 53.7962 156.062C54.977 156.85 56.8138 156.456 56.8138 156.456L53.009 141.237C53.009 141.237 58.5194 135.792 64.817 115.85C74.5914 104.894 72.4922 94.9232 78.9866 89.1504Z" fill="#FFA083" stroke="#2A2866" stroke-width="3" stroke-miterlimit="10"/>
<path d="M62.7188 164C62.7188 156.194 62.9156 150.093 64.5556 134.283C104.047 122.606 116.38 136.579 116.38 136.579C122.743 144.386 122.087 160.851 120.381 164H62.7188Z" fill="#2A2866" stroke="#2A2866" stroke-width="3" stroke-miterlimit="10"/>
<path d="M99.1938 61.5984C99.1938 61.5984 105.163 61.664 111.395 61.664C123.531 61.664 129.501 66.6496 130.091 75.5056C130.419 80.4912 127.927 86.7232 124.122 92.3648C120.317 98.0064 110.477 108.634 110.674 112.438C110.871 116.243 111.133 123.918 116.381 136.579C96.4386 134.349 79.973 145.107 64.557 134.283C66.9842 120.638 67.9026 111.979 67.509 109.88C66.525 104.763 58.7186 96.432 60.8178 86.3296C61.9986 80.7536 59.8338 73.6032 73.9378 69.1424C82.5314 66.3872 99.1938 61.5984 99.1938 61.5984Z" fill="white"/>
<mask id="mask0_1614_51465" style="mask-type:luminance" maskUnits="userSpaceOnUse" x="60" y="61" width="71" height="79">
<path d="M99.1938 61.5984C99.1938 61.5984 105.163 61.664 111.395 61.664C123.531 61.664 129.501 66.6496 130.091 75.5056C130.419 80.4912 127.927 86.7232 124.122 92.3648C120.317 98.0064 110.477 108.634 110.674 112.438C110.871 116.243 111.133 123.918 116.381 136.579C96.4386 134.349 79.973 145.107 64.557 134.283C66.9842 120.638 67.9026 111.979 67.509 109.88C66.525 104.763 58.7186 96.432 60.8178 86.3296C61.9986 80.7536 59.8338 73.6032 73.9378 69.1424C82.5314 66.3872 99.1938 61.5984 99.1938 61.5984Z" fill="white"/>
</mask>
<g mask="url(#mask0_1614_51465)">
<path d="M100.246 60.4832C98.1471 57.8592 92.8335 58.5808 88.3727 62.1888C83.9119 65.7312 81.7471 80.8848 83.8463 83.5088C85.9455 86.1328 96.5071 76.5552 98.4095 70.7168C100.181 65.272 102.346 63.1072 100.246 60.4832Z" fill="#FFA083"/>
</g>
<mask id="mask1_1614_51465" style="mask-type:luminance" maskUnits="userSpaceOnUse" x="60" y="61" width="71" height="79">
<path d="M99.1938 61.5984C99.1938 61.5984 105.163 61.664 111.395 61.664C123.531 61.664 129.501 66.6496 130.091 75.5056C130.419 80.4912 127.927 86.7232 124.122 92.3648C120.317 98.0064 110.477 108.634 110.674 112.438C110.871 116.243 111.133 123.918 116.381 136.579C96.4386 134.349 79.973 145.107 64.557 134.283C66.9842 120.638 67.9026 111.979 67.509 109.88C66.525 104.763 58.7186 96.432 60.8178 86.3296C61.9986 80.7536 59.8338 73.6032 73.9378 69.1424C82.5314 66.3872 99.1938 61.5984 99.1938 61.5984Z" fill="white"/>
</mask>
<g mask="url(#mask1_1614_51465)">
<path opacity="0.2" d="M95.1304 36.6048C95.1304 61.5328 79.9112 81.7376 61.2152 81.7376C42.5192 81.7376 27.2344 61.5328 27.2344 36.6048C27.2344 11.6768 43.6344 44.4112 62.396 44.4112C81.1576 44.4112 95.1304 11.6112 95.1304 36.6048Z" fill="#002634"/>
</g>
<mask id="mask2_1614_51465" style="mask-type:luminance" maskUnits="userSpaceOnUse" x="60" y="61" width="71" height="79">
<path d="M99.1938 61.5984C99.1938 61.5984 105.163 61.664 111.395 61.664C123.531 61.664 129.501 66.6496 130.091 75.5056C130.419 80.4912 127.927 86.7232 124.122 92.3648C120.317 98.0064 110.477 108.634 110.674 112.438C110.871 116.243 111.133 123.918 116.381 136.579C96.4386 134.349 79.973 145.107 64.557 134.283C66.9842 120.638 67.9026 111.979 67.509 109.88C66.525 104.763 58.7186 96.432 60.8178 86.3296C61.9986 80.7536 59.8338 73.6032 73.9378 69.1424C82.5314 66.3872 99.1938 61.5984 99.1938 61.5984Z" fill="white"/>
</mask>
<g mask="url(#mask2_1614_51465)">
<path opacity="0.2" d="M106.932 111.914C105.489 112.832 62.455 120.77 53.2054 149.437C43.9558 178.104 34.6406 72.6192 34.6406 72.6192L94.5334 95.12L106.932 111.914Z" fill="#002634"/>
</g>
<path d="M99.1938 61.5984C99.1938 61.5984 105.163 61.664 111.395 61.664C123.531 61.664 129.501 66.6496 130.091 75.5056C130.419 80.4912 127.927 86.7232 124.122 92.3648C120.317 98.0064 110.477 108.634 110.674 112.438C110.871 116.243 111.133 123.918 116.381 136.579C96.4386 134.349 79.973 145.107 64.557 134.283C66.9842 120.638 67.9026 111.979 67.509 109.88C66.525 104.763 58.7186 96.432 60.8178 86.3296C61.9986 80.7536 59.8338 73.6032 73.9378 69.1424C82.5314 66.3872 99.1938 61.5984 99.1938 61.5984Z" stroke="#2A2866" stroke-width="3" stroke-miterlimit="10" stroke-linecap="round" stroke-linejoin="round"/>
<path d="M90.4619 51.6272C90.4619 51.6272 88.9531 65.928 88.9531 67.3712C88.9531 71.7008 96.8907 69.6672 99.7771 66.8464C102.598 64.0256 105.484 41.9184 105.484 41.9184C105.484 41.9184 96.7595 59.1056 90.4619 51.6272Z" fill="#FFA083"/>
<mask id="mask3_1614_51465" style="mask-type:luminance" maskUnits="userSpaceOnUse" x="88" y="41" width="18" height="29">
<path d="M90.4619 51.6272C90.4619 51.6272 88.9531 65.928 88.9531 67.3712C88.9531 71.7008 96.8907 69.6672 99.7771 66.8464C102.598 64.0256 105.484 41.9184 105.484 41.9184C105.484 41.9184 96.7595 59.1056 90.4619 51.6272Z" fill="white"/>
</mask>
<g mask="url(#mask3_1614_51465)">
<path opacity="0.5" d="M103.057 48.2816C103.057 48.2816 100.039 66.7152 80.3594 65.3376L84.1642 54.5136L103.057 48.2816Z" fill="#D86D50"/>
</g>
<path d="M111.849 82.2624C111.849 82.2624 122.541 81.1472 125.625 90.0032C125.625 90.0032 117.425 111.848 104.633 114.669C95.3829 116.702 65.4693 88.9536 65.4693 88.9536C65.4693 88.9536 64.2885 83.7056 69.4053 84.3616C92.2341 87.3136 102.074 99.9744 102.074 99.9744C103.649 96.1696 106.338 90.528 111.849 82.2624Z" fill="#FFA083"/>
<mask id="mask4_1614_51465" style="mask-type:luminance" maskUnits="userSpaceOnUse" x="65" y="82" width="61" height="33">
<path d="M111.849 82.2624C111.849 82.2624 122.541 81.1472 125.625 90.0032C125.625 90.0032 117.425 111.848 104.633 114.669C95.3829 116.702 65.4693 88.9536 65.4693 88.9536C65.4693 88.9536 64.2885 83.7056 69.4053 84.3616C92.2341 87.3136 102.074 99.9744 102.074 99.9744C103.649 96.1696 106.338 90.528 111.849 82.2624Z" fill="white"/>
</mask>
<g mask="url(#mask4_1614_51465)">
<path opacity="0.5" d="M129.103 81.6064C129.103 81.6064 117.229 106.075 104.765 111.979C100.96 113.816 70.7188 93.7424 70.7188 93.7424L99.1891 124.181L120.968 116.965L131.924 96.104L129.103 81.6064Z" fill="#D86D50"/>
</g>
<path d="M111.849 82.2624C111.849 82.2624 122.541 81.1472 125.625 90.0032C125.625 90.0032 117.425 111.848 104.633 114.669C95.3829 116.702 65.4693 88.9536 65.4693 88.9536C65.4693 88.9536 64.2885 83.7056 69.4053 84.3616C92.2341 87.3136 102.074 99.9744 102.074 99.9744C103.649 96.1696 106.338 90.528 111.849 82.2624Z" stroke="#2A2866" stroke-width="3" stroke-miterlimit="10"/>
<path d="M67.0447 90.528C67.0447 90.528 58.3854 81.7376 57.8606 79.4416C56.6798 73.9968 65.3391 70.0608 65.3391 70.0608L74.0639 71.5696L73.1455 83.5088" fill="#FFA083"/>
<path d="M67.0447 90.528C67.0447 90.528 58.3854 81.7376 57.8606 79.4416C56.6798 73.9968 65.3391 70.0608 65.3391 70.0608L74.0639 71.5696L73.1455 83.5088" stroke="#2A2866" stroke-width="3" stroke-miterlimit="10"/>
<path d="M73.8039 88.9536C68.1623 88.9536 63.5703 82.7872 63.5703 75.2432C63.5703 67.6992 68.1623 61.5328 73.8039 61.5328C79.4455 61.5328 84.0375 67.6992 84.0375 75.2432C84.1031 82.7872 79.4455 88.9536 73.8039 88.9536Z" fill="#5DB075"/>
<path d="M73.8035 62.5168C78.9203 62.5168 83.0531 68.224 83.0531 75.2432C83.0531 82.2624 78.9203 87.9696 73.8035 87.9696C68.6867 87.9696 64.5539 82.2624 64.5539 75.2432C64.5539 68.224 68.6867 62.5168 73.8035 62.5168ZM73.8035 60.5488C67.6371 60.5488 62.5859 67.1088 62.5859 75.2432C62.5859 83.3776 67.6371 89.9376 73.8035 89.9376C79.9699 89.9376 85.0211 83.3776 85.0211 75.2432C85.0211 67.1088 80.0355 60.5488 73.8035 60.5488Z" fill="#2A2866"/>
<path d="M78.6558 87.9696C83.7643 87.9696 87.9054 82.2718 87.9054 75.2432C87.9054 68.2146 83.7643 62.5168 78.6558 62.5168C73.5474 62.5168 69.4062 68.2146 69.4062 75.2432C69.4062 82.2718 73.5474 87.9696 78.6558 87.9696Z" fill="#2A2866"/>
<path d="M81.3512 87.9696C86.4596 87.9696 90.6008 82.2718 90.6008 75.2432C90.6008 68.2146 86.4596 62.5168 81.3512 62.5168C76.2427 62.5168 72.1016 68.2146 72.1016 75.2432C72.1016 82.2718 76.2427 87.9696 81.3512 87.9696Z" fill="#5DB075"/>
<path d="M82.5951 87.3137C87.4499 87.3137 91.3855 81.9095 91.3855 75.2432C91.3855 68.5769 87.4499 63.1729 82.5951 63.1729C77.7403 63.1729 73.8047 68.5769 73.8047 75.2432C73.8047 81.9095 77.7403 87.3137 82.5951 87.3137Z" fill="#2A2866"/>
<path d="M74.0625 64.944C74.0625 64.944 80.6881 59.4336 85.6081 65.5344" stroke="#2A2866" stroke-width="3" stroke-miterlimit="10"/>
<path d="M86.203 85.0177C86.203 85.0177 79.1182 90.528 73.4766 84.4272" stroke="#2A2866" stroke-width="2.8" stroke-miterlimit="10"/>
<path d="M49.2656 160.261C44.6736 160.261 41 155.013 41 148.518C41 142.024 44.7392 136.776 49.2656 136.776C53.792 136.776 57.5312 142.024 57.5312 148.518C57.5312 155.013 53.792 160.261 49.2656 160.261Z" fill="#5DB075"/>
<path d="M49.2652 137.826C53.2012 137.826 56.5468 142.746 56.5468 148.584C56.5468 154.422 53.2012 159.342 49.2652 159.342C45.3292 159.342 41.9836 154.422 41.9836 148.584C41.918 142.746 45.2636 137.826 49.2652 137.826ZM49.2652 135.858C44.1484 135.858 40.0156 141.565 40.0156 148.584C40.0156 155.603 44.1484 161.31 49.2652 161.31C54.382 161.31 58.5148 155.603 58.5148 148.584C58.5148 141.499 54.382 135.858 49.2652 135.858Z" fill="#2A2866"/>
<path d="M44.4137 161.245C49.5221 161.245 53.6633 155.547 53.6633 148.518C53.6633 141.49 49.5221 135.792 44.4137 135.792C39.3052 135.792 35.1641 141.49 35.1641 148.518C35.1641 155.547 39.3052 161.245 44.4137 161.245Z" fill="#2A2866"/>
<path d="M41.7262 161.245C46.8346 161.245 50.9758 155.547 50.9758 148.518C50.9758 141.49 46.8346 135.792 41.7262 135.792C36.6177 135.792 32.4766 141.49 32.4766 148.518C32.4766 155.547 36.6177 161.245 41.7262 161.245Z" fill="#5DB075"/>
<path d="M40.4779 160.589C45.3327 160.589 49.2683 155.185 49.2683 148.518C49.2683 141.852 45.3327 136.448 40.4779 136.448C35.6231 136.448 31.6875 141.852 31.6875 148.518C31.6875 155.185 35.6231 160.589 40.4779 160.589Z" fill="#2A2866"/>
<path d="M49.1394 158.555C49.1394 158.555 42.5138 164.066 37.5938 157.965" stroke="#2A2866" stroke-width="3" stroke-miterlimit="10"/>
<path d="M37 138.547C37 138.547 43.56 133.037 49.2672 139.138" stroke="#2A2866" stroke-width="2.8" stroke-miterlimit="10"/>
<path fill-rule="evenodd" clip-rule="evenodd" d="M90.5298 59.9584C88.2994 59.9584 86.5938 58.712 84.6258 56.744L84.5602 56.6784C81.149 52.6768 78.6562 46.3136 80.7554 41.2624C81.0178 40.4096 81.0834 39.36 80.9522 37.9824C80.8866 37.6544 80.8866 37.3264 80.821 36.9328C80.2962 33.128 79.6402 28.4048 83.3794 24.9936C85.5442 22.632 88.9554 21.2544 92.4322 21.2544C94.5314 21.2544 96.4994 21.7792 98.205 22.7632C101.223 23.0912 103.715 24.0752 105.552 25.7152C109.554 29.5856 111.259 35.8176 109.947 41.9184C109.554 52.6768 104.371 54.9072 98.9266 57.3344C98.1394 57.6624 97.2866 58.056 96.4994 58.4496H96.4338H96.3682C93.941 59.3024 92.1698 59.9584 90.5298 59.9584Z" fill="#FFA083"/>
<path d="M92.4343 22.304C94.3367 22.304 96.2391 22.7632 97.8791 23.7472C100.437 23.944 102.93 24.7312 104.898 26.4368C108.9 30.3072 110.146 36.408 108.965 41.7872C108.506 53.5296 102.405 54.448 96.0423 57.4656C93.6151 58.3184 91.9751 58.9088 90.5975 58.9088C88.8919 58.9088 87.5143 58.1216 85.4151 55.9568C82.5287 52.5456 79.6423 46.5104 81.7415 41.5248C82.1351 40.344 82.1351 39.032 82.0039 37.7856C81.4791 33.7184 80.4295 28.9952 84.1031 25.6496C86.0055 23.5504 89.2199 22.304 92.4343 22.304ZM92.4343 20.336C88.6295 20.336 85.0215 21.8448 82.6599 24.4032C78.5927 28.1424 79.3143 33.128 79.8391 37.1296C79.9047 37.4576 79.9047 37.8512 79.9703 38.1792C80.1015 39.36 80.1015 40.2128 79.8391 41C77.6087 46.4448 80.2327 53.136 83.8407 57.4L83.9063 57.4656L83.9719 57.5312C86.0711 59.6304 87.9735 61.008 90.5319 61.008C92.3031 61.008 94.2711 60.2864 96.6983 59.4336L96.7639 59.368L96.8295 59.3024C97.6167 58.9088 98.4695 58.5808 99.2567 58.1872C104.701 55.76 110.409 53.3328 110.868 42.0496C112.18 35.6208 110.409 29.1264 106.21 25.0592C104.242 23.288 101.684 22.2384 98.5351 21.9104C96.6983 20.8608 94.5991 20.336 92.4343 20.336Z" fill="#2A2866"/>
<path d="M77.603 29.7168C77.5374 29.4544 76.7502 22.8944 79.571 19.5488C80.0958 18.9584 80.6206 18.5648 81.2766 18.2368C81.8014 17.9744 82.3918 17.7776 82.9822 17.712C83.3102 17.6464 83.6382 17.6464 83.9006 17.6464C85.7374 17.6464 87.3118 18.368 88.6238 19.8768L88.755 20.008L88.6894 20.2048C88.4926 20.5984 87.5086 21.3856 85.147 23.3536C83.507 24.7312 81.6046 26.24 80.6206 27.224C79.243 28.6672 78.259 29.848 78.259 29.848L77.7998 30.4384L77.603 29.7168Z" fill="#252468"/>
<path d="M83.8332 17.9744C85.8668 17.9744 87.31 18.9584 88.294 20.0736C87.966 20.7296 82.2588 24.9936 80.2908 27.0272C78.8476 28.4704 77.8636 29.6512 77.8636 29.6512C77.8636 29.6512 76.9452 23.0256 79.766 19.7456C80.2252 19.2208 80.6844 18.8272 81.3404 18.4992C81.7996 18.2368 82.3244 18.1056 82.9148 18.04C83.2428 17.9744 83.5708 17.9744 83.8332 17.9744ZM83.8332 17.3184C83.5052 17.3184 83.1772 17.3184 82.8492 17.384C82.1932 17.4496 81.6028 17.6464 81.078 17.9088C80.422 18.2368 79.8316 18.696 79.3068 19.2864C76.3548 22.7632 77.2076 29.4544 77.2732 29.7168L77.47 31.2256L78.454 30.0448C78.454 30.0448 79.438 28.864 80.8156 27.4208C81.734 26.5024 83.6364 24.928 85.2764 23.616C87.8348 21.5168 88.7532 20.7952 88.95 20.336L89.1468 19.9424L88.8844 19.6144C87.4412 18.1056 85.7356 17.3184 83.8332 17.3184Z" fill="#252468"/>
<path d="M103.252 34.5712C103.252 34.5712 101.612 32.8656 100.628 32.8C99.5123 32.6688 94.1987 32.8 94.1331 31.9472C94.0019 30.504 93.8051 30.0448 95.3795 30.1104C96.1667 30.176 100.496 30.6352 101.415 31.2256C102.53 32.0128 102.727 32.8 103.252 34.5712Z" fill="#2A2866"/>
<path d="M82.3281 34.2432C82.3281 34.2432 83.3777 32.6032 84.2305 32.5376C85.1489 32.4064 89.8065 32.5376 89.5441 31.6848C89.0849 30.3072 89.2161 29.9792 87.9697 30.1104C87.3137 30.176 84.0993 30.504 83.3777 31.0944C82.5249 31.816 82.4593 32.5376 82.3281 34.2432Z" fill="#2A2866"/>
<path d="M87.7741 37.7856C87.7741 38.9008 87.1836 39.8192 86.5276 39.8192C85.8716 39.8192 85.2812 38.9008 85.2812 37.7856C85.2812 36.6704 85.8716 35.752 86.5276 35.752C87.1836 35.752 87.7741 36.6704 87.7741 37.7856Z" fill="#252468"/>
<path d="M99.0537 37.4576C99.0537 38.5728 98.4633 39.4912 97.7417 39.4912C97.0201 39.4912 96.4297 38.5728 96.4297 37.4576C96.4297 36.3424 97.0201 35.424 97.7417 35.424C98.4633 35.424 99.0537 36.2768 99.0537 37.4576Z" fill="#252468"/>
<path d="M103.644 55.8912C103.644 55.8912 99.774 75.1776 89.0156 82" stroke="#2A2866" stroke-width="3" stroke-miterlimit="10" stroke-linecap="round" stroke-linejoin="round"/>
<path d="M89.4794 60.7456L88.7578 67.5024" stroke="#2A2866" stroke-width="3" stroke-miterlimit="10" stroke-linecap="round" stroke-linejoin="round"/>
<path d="M93.6141 44.0176C93.6141 44.0176 92.6957 44.8704 91.5805 44.8704C90.4653 44.8704 89.5469 44.0176 89.5469 44.0176C89.5469 44.0176 90.3997 44.0832 91.5149 44.0832C92.6957 44.0832 93.6141 44.0176 93.6141 44.0176Z" fill="#2A2866"/>
<path fill-rule="evenodd" clip-rule="evenodd" d="M102.731 9.38079C95.0554 2.82079 80.4922 21.9104 80.4922 21.7136C80.5578 21.5168 102.731 9.38079 102.731 9.38079Z" fill="#2A2866"/>
<path fill-rule="evenodd" clip-rule="evenodd" d="M84.8228 12.464C77.6068 18.2368 80.2308 27.0928 80.2308 27.0928L84.8228 12.464Z" fill="url(#paint0_linear_1614_51465)"/>
<path fill-rule="evenodd" clip-rule="evenodd" d="M81.9375 17.9088L84.1679 19.68L84.8895 20.2704L85.2175 20.5328L85.6111 23.8128L92.4991 26.3712L94.2047 27.7488L95.1887 28.536L96.7631 29.7824L97.5503 30.3728L99.0591 31.6192L100.699 32.9312L100.896 33.0624L101.355 33.456L101.421 33.5216L101.945 33.9152L103.192 34.8992L105.225 36.5392L105.947 37.1296L107.784 38.5728L108.243 38.9008L108.965 39.4912L109.293 39.7536H109.358L109.949 40.2128L110.08 40.2784L110.211 40.4096L110.342 40.5408L110.867 40.9344L110.933 41L111.523 41.4592C111.589 41.3936 111.851 41.0656 112.245 40.5408C112.31 40.4752 112.376 40.4096 112.376 40.344C112.442 40.2784 112.442 40.2128 112.507 40.2128C112.573 40.1472 112.638 40.0816 112.638 40.016C112.638 39.9504 112.704 39.9504 112.704 39.8848C112.77 39.8192 112.77 39.7536 112.835 39.688C112.901 39.6224 112.966 39.4912 113.032 39.4256C113.163 39.2944 113.294 39.0976 113.425 38.9008C113.425 38.9008 113.426 38.9008 113.491 38.8352C113.754 38.4416 114.016 38.048 114.278 37.6544C114.344 37.5888 114.41 37.4576 114.475 37.392C114.606 37.2608 114.672 37.1296 114.737 36.9984C114.803 36.8672 114.869 36.8016 114.869 36.736L114.934 36.6704C115 36.6048 115 36.5392 115.065 36.4736C115.065 36.4736 115.066 36.408 115.131 36.408C115.197 36.3424 115.197 36.2768 115.262 36.2112C115.262 36.2112 115.262 36.1456 115.328 36.1456C115.394 36.08 115.459 35.9488 115.525 35.8176C115.787 35.3584 116.05 34.8336 116.312 34.3744C116.378 34.2432 116.443 34.112 116.509 33.9808C116.574 33.784 116.706 33.5872 116.771 33.456C116.837 33.3904 116.837 33.3248 116.902 33.1936C116.902 33.128 116.968 33.0624 116.968 32.9968C117.034 32.8 117.165 32.5376 117.165 32.3408C117.23 32.0784 117.296 31.816 117.361 31.6192C117.361 31.488 117.362 31.3568 117.427 31.2912C117.427 31.2256 117.427 31.2256 117.427 31.16C117.427 30.9632 117.427 30.7664 117.427 30.5696C117.493 29.0608 117.427 27.552 117.23 26.0432C117.165 25.584 117.099 25.1248 117.034 24.7312V24.6656C116.968 24.4032 116.968 24.1408 116.902 23.8784C116.706 22.7632 116.443 21.7136 116.115 20.664C115.918 20.008 115.656 19.4176 115.393 18.7616C115.328 18.5648 115.262 18.4336 115.197 18.2368V18.1712C115.066 17.9088 114.934 17.6464 114.803 17.384C114.738 17.2528 114.672 17.1216 114.606 16.9904C114.475 16.728 114.344 16.5312 114.213 16.3344C114.082 16.1376 114.016 16.0064 113.885 15.8096C113.885 15.744 113.819 15.744 113.819 15.6784C113.622 15.416 113.491 15.2192 113.294 14.9568C112.966 14.4976 112.573 14.104 112.179 13.6448C111.982 13.5136 111.851 13.3168 111.654 13.12C111.523 12.9888 111.392 12.8576 111.195 12.7264C110.998 12.5296 110.802 12.3984 110.605 12.2672C110.408 12.136 110.277 12.0048 110.08 11.8736C109.949 11.808 109.818 11.6768 109.752 11.6112L109.686 11.5456C108.506 10.824 107.194 10.2336 105.619 9.84C105.357 9.7744 105.094 9.7088 104.832 9.6432C104.11 9.512 103.323 9.3808 102.601 9.3808C102.142 9.3808 101.683 9.3808 101.224 9.3808C97.1567 9.5776 89.9407 16.4656 86.4639 18.3024C86.3327 18.368 89.0879 13.3168 88.9567 13.3824C88.8911 13.448 88.7599 13.5136 88.6943 13.5136C88.5631 13.5792 88.3663 13.6448 88.2351 13.776C87.2511 14.3008 86.3983 14.8256 85.6111 15.3504C83.3807 16.7936 81.9375 17.9088 81.9375 17.9088Z" fill="#2A2866"/>
<path fill-rule="evenodd" clip-rule="evenodd" d="M74.4586 48.9376C74.3274 48.872 71.3754 46.8384 68.8826 42.9024C67.833 41.328 67.4394 38.376 71.2442 33.5216C72.9498 31.3568 75.3114 29.0608 77.9354 27.0272C79.2474 25.9776 80.1658 24.0096 80.625 21.1232C80.7562 20.0736 80.8874 18.9584 80.8874 17.6464V17.5808C80.953 15.3504 80.8218 13.1856 80.6906 11.808V11.6768C80.5594 9.5776 80.4938 9.0528 81.1498 8.6592L81.2154 8.5936L81.3466 8.528C81.5434 8.4624 81.7402 8.4624 82.0026 8.4624C82.265 8.4624 88.9562 8.5936 91.5146 17.5152L91.9082 18.8272L86.529 18.696C86.201 19.9424 85.3482 22.5664 83.7082 25.5184C83.0522 26.7648 82.265 27.9456 81.4778 28.9952C79.1818 32.0784 77.2794 32.9312 75.6394 33.7184C74.393 34.3088 73.409 34.7024 72.2938 36.08C72.2282 36.2112 72.1626 36.2768 72.097 36.408C70.8506 38.9664 73.9338 44.8048 75.7706 47.56L78.5258 51.6272L74.4586 48.9376Z" fill="#5DB075"/>
<path d="M82.135 9.51201C83.6438 9.51201 88.6294 10.6272 90.7286 17.8432L85.9398 17.7776C85.9398 17.7776 85.2182 21.1232 82.9878 25.1248C82.3974 26.24 81.6758 27.3552 80.823 28.536C76.887 33.784 74.4598 32.0784 71.639 35.6208C71.5078 35.8176 71.3766 35.9488 71.311 36.1456C69.4742 39.8848 74.7878 47.888 75.0502 48.2816C74.8534 48.1504 72.0982 46.248 69.7366 42.5088C68.359 40.344 69.671 37.2608 72.0326 34.3088C73.8694 32.0128 76.2966 29.7824 78.5926 28.0112C80.3638 26.6336 81.2166 24.1408 81.6102 21.4512C81.807 20.2704 81.8726 19.024 81.9382 17.8432C82.0038 15.5472 81.8726 13.448 81.7414 11.9392C81.6758 10.6272 81.6102 9.77441 81.7414 9.77441C81.807 9.51201 81.9382 9.51201 82.135 9.51201ZM82.135 7.54401C81.807 7.54401 81.479 7.60961 81.2166 7.67521C81.151 7.67521 81.0198 7.74081 80.8886 7.80641C79.5766 8.39681 79.6422 9.57761 79.839 11.808V11.9392C79.9046 13.3168 80.0358 15.416 80.0358 17.5808V17.6464C79.9702 18.8928 79.9046 20.008 79.7734 20.992C79.3798 23.616 78.5926 25.4528 77.4774 26.3056C74.7878 28.4048 72.3606 30.7664 70.5894 32.9312C66.391 38.2448 66.9814 41.5248 68.1622 43.4272C70.7862 47.56 73.935 49.6592 74.0662 49.7904L82.2006 55.2352L76.7558 47.1008C74.3286 43.4272 72.295 38.6384 73.1478 36.9328C73.2134 36.8672 73.2134 36.8016 73.279 36.736C74.1974 35.5552 75.0502 35.1616 76.231 34.6368C77.9366 33.9152 80.0358 32.9312 82.463 29.6512C83.3158 28.536 84.103 27.2896 84.759 26.0432C86.1366 23.4848 86.9894 21.1888 87.4486 19.7456L90.7286 19.8112L93.4182 19.8768L92.6966 17.3184C90.4006 9.57761 84.9558 7.54401 82.135 7.54401Z" fill="#2A2866"/>
<path fill-rule="evenodd" clip-rule="evenodd" d="M86.9247 13.5136C85.4159 14.6944 85.2191 19.9424 82.0703 26.5024C82.9887 24.8624 83.7103 23.5504 83.7103 23.5504C83.7103 23.5504 87.5807 16.728 90.5983 18.8272C90.6639 18.8272 90.7295 18.8272 90.7951 18.8272C90.8607 18.7616 88.6959 12.0704 86.9247 13.5136Z" fill="#2A2866"/>
<path fill-rule="evenodd" clip-rule="evenodd" d="M114.603 44.0176C114.603 44.0176 111.848 49.0032 114.603 52.0864C117.358 55.104 115.915 57.072 116.374 58.7776C116.834 60.4832 122.672 63.1728 122.672 63.1728L102.664 61.9264L103.582 55.3008C103.582 55.3008 107.059 54.12 107.387 51.6272C107.715 49.1344 109.093 47.3632 109.093 47.3632L114.603 44.0176Z" fill="#2A2866"/>
<path fill-rule="evenodd" clip-rule="evenodd" d="M84.1639 54.776C84.1639 54.776 84.5575 57.7936 82.5895 58.9088C80.6871 60.024 79.7031 62.5168 79.7031 62.5168L87.7719 65.4688L89.0839 62.1888L88.2967 60.1552L84.1639 54.776Z" fill="#2A2866"/>
<path fill-rule="evenodd" clip-rule="evenodd" d="M117.493 28.7984C117.493 28.7984 118.346 35.8176 116.641 41.9184C114.935 48.0192 113.033 48.9376 114.673 52.0208C116.313 55.104 106.407 55.3664 106.407 55.3664L109.359 46.6416C109.359 46.6416 117.821 38.2448 108.637 29.6512C99.4533 21.0576 117.493 28.7984 117.493 28.7984Z" fill="#2A2866"/>
<path fill-rule="evenodd" clip-rule="evenodd" d="M115.131 36.3424C115.131 36.3424 113.294 32.7344 108.374 36.8016C108.374 36.8016 107.587 37.5232 106.865 39.5568C106.865 39.36 106.8 39.1632 106.8 38.9664C106.8 38.9664 106.8 41.984 106.406 44.0832C106.865 44.7392 107.259 45.3952 107.653 46.1168C108.571 46.3792 111.064 46.0512 112.507 44.6736C116.377 41 115.131 36.3424 115.131 36.3424Z" fill="#F79F84"/>
<path fill-rule="evenodd" clip-rule="evenodd" d="M87.6406 49.2C88.0342 50.0528 88.6902 51.6928 90.4614 51.8896C93.2166 52.2176 98.3334 48.872 98.3334 48.872C98.1366 48.9376 97.9398 49.0032 97.8086 49.0688C93.2822 50.3808 89.543 49.7248 87.6406 49.2Z" fill="#2A2866"/>
<path fill-rule="evenodd" clip-rule="evenodd" d="M86.5234 48.1504C86.7858 48.216 87.1138 49.0688 87.6386 49.2C89.541 49.7248 93.2146 50.3808 97.741 49.0688C93.6738 50.184 92.6242 48.1504 88.4914 48.544C87.8354 48.6096 87.9666 48.8064 87.5074 48.8064C87.0482 48.8064 86.7202 48.1504 86.5234 48.1504Z" fill="#2A2866"/>
<path d="M97.2871 35.8832C97.3527 35.8832 97.4183 35.8832 97.5495 35.8832C97.6151 35.8832 97.6151 35.8832 97.6807 35.8832C98.1399 35.8832 98.6647 36.0144 99.2551 36.3424C99.2551 36.3424 99.3863 36.408 99.5175 36.5392C99.5831 36.6048 99.6487 36.6704 99.7143 36.736C100.829 37.064 101.879 36.6704 102.01 36.5392C102.01 36.5392 101.223 36.4736 100.698 36.2768C99.9111 35.9488 98.7303 35.5552 98.1399 35.4896C96.8935 35.3584 96.1719 36.4736 96.1719 36.4736C96.1719 36.408 96.6967 35.9488 97.2871 35.8832Z" fill="#2A2866" stroke="#2A2866" stroke-width="0.5" stroke-miterlimit="10"/>
<path d="M87.3825 36.1456C87.3169 36.1456 87.2514 36.08 87.1202 36.08C87.0546 36.08 87.0546 36.08 86.989 36.08C86.5298 36.0144 86.005 36.08 85.349 36.2768C85.349 36.2768 85.2177 36.3424 85.0865 36.4736C85.0209 36.5392 84.9553 36.5392 84.8897 36.6048C83.7089 36.8016 82.7906 36.2768 82.5938 36.08C82.5938 36.08 83.381 36.08 83.9058 35.9488C84.7585 35.752 85.9393 35.4896 86.5953 35.5552C87.8417 35.6208 88.4322 36.8016 88.4322 36.8016C88.4978 36.8016 87.9729 36.2768 87.3825 36.1456Z" fill="#2A2866" stroke="#2A2866" stroke-width="0.5" stroke-miterlimit="10"/>
<path d="M111.852 82.2624L115.328 73.3408" stroke="#2A2866" stroke-width="3" stroke-miterlimit="10" stroke-linecap="round" stroke-linejoin="round"/>
<path d="M108.373 34.6368C104.306 27.3552 94.8592 19.7456 86.2656 22.6976C88.496 21.8448 90.9232 21.2544 93.2848 21.648C105.158 23.8128 108.373 34.6368 108.373 34.6368Z" fill="#5DB075"/>
<path d="M112.569 26.4368C106.599 20.664 95.3816 16.0064 87.9688 21.32C89.8055 19.8768 92.0359 18.6304 94.3975 18.3024C106.599 16.5968 112.569 26.4368 112.569 26.4368Z" fill="#5DB075"/>
<path d="M91.0547 18.8928C93.4819 14.3664 99.1891 9.57758 104.503 11.2832C103.125 10.7584 101.616 10.496 100.173 10.6928C92.6947 11.9392 91.0547 18.8928 91.0547 18.8928Z" fill="#5DB075"/>
</g>
<defs>
<linearGradient id="paint0_linear_1614_51465" x1="64.8182" y1="29.6707" x2="78.4689" y2="22.0156" gradientUnits="userSpaceOnUse">
<stop offset="0.0104009" stop-color="#E3214D"/>
<stop offset="1" stop-color="#98143E"/>
</linearGradient>
<clipPath id="clip0_1614_51465">
<rect width="164" height="164" fill="white"/>
</clipPath>
</defs>
</svg>
