<svg width="64" height="64" viewBox="0 0 64 64" fill="none" xmlns="http://www.w3.org/2000/svg">
<g clip-path="url(#clip0_1746_10679)">
<path d="M32 64C49.6731 64 64 49.6731 64 32C64 14.3269 49.6731 0 32 0C14.3269 0 0 14.3269 0 32C0 49.6731 14.3269 64 32 64Z" fill="#54B848"/>
<path d="M13.7616 25.3434C13.7616 25.3434 14.0176 13.9514 21.6336 9.72745C35.2656 2.17545 42.7536 12.6714 42.7536 12.6714L47.8736 19.9034L45.3136 14.6554C43.9056 11.8394 41.7296 9.47145 38.9776 7.93545C36.7376 6.71945 33.7936 5.75945 30.0176 5.88745C19.9696 6.14345 12.8656 12.2234 11.2656 24.8314L13.7616 25.3434Z" fill="white"/>
<path d="M14.2084 25.9195L10.8164 25.1515L10.8804 24.7675C12.4164 12.6075 19.2644 5.75955 30.0804 5.43955C33.4724 5.37555 36.5444 6.07955 39.2964 7.55155C42.1124 9.08755 44.3524 11.4555 45.8244 14.4635L48.3844 19.7115L47.6164 20.1595L42.4964 12.9275C42.4964 12.9275 40.6404 10.3675 37.1844 8.76755C32.5764 6.65555 27.4564 7.10355 21.9524 10.1115C14.6564 14.1435 14.3364 25.2155 14.3364 25.3435L14.2084 25.9195ZM11.7764 24.4475L13.3124 24.7675C13.4404 22.3995 14.4644 13.1835 21.3764 9.34355C28.5444 5.37555 34.1124 6.39955 37.4404 7.93555C41.0884 9.66355 43.0084 12.2875 43.0724 12.3515L44.9284 14.9755L44.8004 14.7835C43.3924 11.9675 41.2804 9.72755 38.6564 8.25555C36.0964 6.84755 33.1524 6.14355 29.9524 6.27155C19.8404 6.59155 13.3124 12.9915 11.7764 24.4475Z" fill="#2A2866"/>
<path d="M52.3516 30.4645C51.8396 30.4005 51.4556 30.0805 51.1996 29.6965C50.8156 29.2485 50.5596 28.7365 50.3036 28.1605C49.5996 26.6245 48.9596 25.0885 48.2556 23.4885C47.8076 22.4645 47.4236 21.4405 47.2316 20.3525C47.1676 20.0965 47.1676 19.9045 47.2316 19.6485C47.3596 19.2005 47.8716 18.9445 48.3196 18.7525C48.4476 18.6885 48.5116 18.6885 48.6396 18.6885C48.8316 18.7525 48.8956 18.8805 49.0236 19.0725C50.3676 21.5685 51.6476 24.0005 52.8636 26.4965C53.1836 27.2005 53.5676 27.8405 53.6956 28.6085C54.0156 29.6325 53.5036 30.7845 52.3516 30.4645Z" fill="#54B848"/>
<path d="M52.6719 30.9763C52.5439 30.9763 52.3519 30.9763 52.2239 30.9123C51.7119 30.7843 51.2639 30.4643 50.8159 29.9523C50.4319 29.4403 50.1119 28.8643 49.8559 28.3523C49.1519 26.8163 48.4479 25.2163 47.8079 23.6803C47.3599 22.6563 46.9759 21.5683 46.7199 20.4803C46.6559 20.2243 46.6559 19.9043 46.7199 19.5843C46.9119 18.8803 47.6799 18.5603 48.0639 18.4323C48.1919 18.3683 48.3839 18.3043 48.6399 18.3683C49.0239 18.4323 49.2159 18.8163 49.3439 18.9443C50.6879 21.3763 51.9679 23.9363 53.1839 26.4323C53.5039 27.0723 53.8879 27.8403 54.0799 28.6083C54.2719 29.3763 54.0799 30.1443 53.6319 30.5923C53.4399 30.8483 53.1199 30.9763 52.6719 30.9763ZM52.4159 30.0803C52.7359 30.1443 52.9279 30.1443 53.1199 29.9523C53.3759 29.6963 53.4399 29.2483 53.3119 28.8003C53.1199 28.0963 52.7999 27.3923 52.4799 26.8163C51.1999 24.3203 49.9199 21.8243 48.6399 19.3923C48.6399 19.3283 48.5759 19.3283 48.5759 19.2643H48.5119C48.1279 19.3923 47.7439 19.5843 47.6799 19.8403C47.6159 19.9683 47.6799 20.0963 47.6799 20.3523C47.8719 21.3763 48.2559 22.4003 48.7039 23.3603C49.3439 24.8963 49.9839 26.4963 50.6879 27.9683C50.9439 28.4803 51.1999 28.9923 51.5199 29.3763C51.8399 29.7603 52.0959 29.9523 52.4159 30.0803Z" fill="#2A2866"/>
<path d="M57.5352 27.8402C57.7912 27.2002 57.7272 26.4962 57.6632 25.7922C57.4712 24.7042 57.0872 23.6802 56.7032 22.6562C56.2552 21.6322 55.8072 20.6722 55.2952 19.7122C55.0392 19.2002 54.7192 18.6242 54.2712 18.2402C53.6312 17.6642 52.7992 17.4722 51.9672 17.5362C51.1352 17.6002 50.3672 17.8562 49.5352 18.1762C50.3032 20.0962 51.0712 22.0802 51.8392 24.0002C52.6072 25.9202 53.3752 27.9042 54.4632 29.6962C54.4632 29.7602 55.2312 29.6962 55.3592 29.6322C55.6792 29.5682 55.9992 29.3762 56.2552 29.2482C56.8312 28.9282 57.2792 28.4162 57.5352 27.8402Z" fill="#54B848"/>
<path d="M54.7849 30.1442C54.2729 30.1442 54.2089 29.9522 54.1449 29.8882C53.0569 28.0962 52.2249 26.0482 51.4569 24.1282L48.9609 17.9202L49.4089 17.7282C50.1769 17.4082 51.0089 17.1522 51.9689 17.0882C52.9929 17.0242 53.9529 17.3442 54.5929 17.9202C55.1049 18.3682 55.4249 18.8802 55.6809 19.5202C56.2569 20.6082 56.7049 21.5682 57.0889 22.4642C57.6009 23.7442 57.9209 24.7682 58.1129 25.7282C58.2409 26.6242 58.2409 27.3922 57.9849 27.9682C57.7289 28.6082 57.2169 29.1842 56.5129 29.6322C56.1929 29.8242 55.8729 30.0162 55.4889 30.0802C55.1689 30.1442 54.9129 30.1442 54.7849 30.1442ZM50.1129 18.4322L52.2889 23.8082C52.9929 25.6002 53.7609 27.5202 54.7849 29.2482C54.9769 29.2482 55.2969 29.1842 55.3609 29.1842C55.6169 29.1202 55.9369 28.9282 56.0649 28.8642C56.4489 28.6722 56.8969 28.2882 57.1529 27.6482C57.3449 27.2002 57.3449 26.6242 57.2169 25.8562C57.0889 24.9602 56.7689 24.0002 56.2569 22.7842C55.8729 21.8882 55.4249 20.9922 54.8489 19.9042C54.5929 19.3922 54.3369 18.9442 53.9529 18.5602C53.4409 18.1122 52.7369 17.9202 51.9689 17.9842C51.3289 18.0482 50.6889 18.2402 50.1129 18.4322Z" fill="#2A2866"/>
<path d="M50.3032 18.8159C50.1112 18.3679 49.7912 17.9199 49.3432 17.9199C48.8952 17.9199 48.5752 18.3039 48.5752 18.7519C48.5112 19.1999 48.7032 19.5839 48.8312 19.9679C50.1112 23.1039 51.4552 26.2399 53.0552 29.2479C53.2472 29.5679 53.3752 29.8879 53.6312 30.0799C53.8872 30.2719 54.2712 30.4639 54.5912 30.3359C54.9112 30.2079 55.1672 29.8879 55.0392 29.5039C55.1032 29.2479 54.7192 28.6079 54.5912 28.2879C54.3992 27.8399 54.2072 27.3279 54.0152 26.8799C53.6312 25.9839 53.2472 25.0879 52.7992 24.1919C52.0312 22.4639 51.1992 20.6079 50.3032 18.8159Z" fill="white"/>
<path d="M54.4642 30.8477C54.0802 30.8477 53.6962 30.7197 53.4402 30.3997C53.1202 30.0797 52.9282 29.6957 52.7362 29.4397C51.1362 26.4317 49.7922 23.2317 48.5122 20.0957C48.3202 19.7117 48.1282 19.1997 48.1922 18.6877C48.2562 18.1117 48.7682 17.4717 49.4082 17.4717C50.2402 17.4717 50.6242 18.3037 50.7522 18.6237C51.6482 20.4157 52.4802 22.2717 53.3122 24.0637C53.6962 24.9597 54.1442 25.8557 54.5282 26.7517C54.7202 27.1997 54.9122 27.7117 55.1042 28.1597C55.1042 28.2237 55.1682 28.3517 55.2322 28.4157C55.4882 28.8637 55.6162 29.1837 55.6162 29.5037C55.7442 30.0157 55.3602 30.5917 54.7842 30.7837C54.6562 30.8477 54.5282 30.8477 54.4642 30.8477ZM49.3442 18.3677C49.2162 18.3677 49.0242 18.5597 49.0242 18.8157C49.0242 19.1357 49.1522 19.5197 49.2802 19.8397C50.5602 22.9117 51.9042 26.1117 53.5042 29.0557C53.6962 29.3757 53.8242 29.6317 54.0162 29.8237C54.2082 29.9517 54.4002 30.0797 54.5922 30.0157C54.7202 30.0157 54.7842 29.8877 54.7842 29.7597V29.6317V29.5037C54.7842 29.4397 54.5922 29.0557 54.5282 28.8637C54.4642 28.7357 54.4002 28.6077 54.4002 28.5437C54.2082 28.0957 54.0162 27.5837 53.8242 27.1357C53.4402 26.2397 53.0562 25.3437 52.6082 24.4477C51.7762 22.6557 50.9442 20.7997 50.0482 19.0077C49.7282 18.6237 49.5362 18.3677 49.3442 18.3677Z" fill="#2A2866"/>
<g opacity="0.37">
<path d="M52.3503 24.2557C52.2863 24.1277 52.0943 23.9357 51.9663 24.0637C51.9023 24.1277 51.9023 24.1277 51.9023 24.1917C51.9023 24.5117 51.9663 24.8317 52.0943 25.0877C52.6063 26.5597 53.1823 28.0317 53.8223 29.5037C53.9503 29.8237 54.5903 30.3997 54.7823 29.8237C54.9103 29.4397 54.2703 28.4157 54.0783 28.0317C53.5023 26.8157 52.9263 25.5357 52.3503 24.2557Z" fill="white"/>
</g>
<g opacity="0.37">
<path d="M57.0867 27.2001C57.2787 26.4321 57.2147 25.6641 56.9587 24.8961C56.8307 24.4481 56.5747 24.0001 56.2547 23.8081C56.1907 23.7441 56.1267 23.7441 56.0627 23.7441C55.8707 23.7441 55.8067 23.9361 55.7427 24.1281C55.6787 24.5761 55.8707 25.0241 55.9347 25.5361C55.9987 25.9841 55.9347 26.5601 55.4867 26.7521C55.2947 26.8801 55.0387 26.8801 54.9107 27.0081C54.7827 27.1361 54.7827 27.3281 54.8467 27.5201C54.8467 27.7761 54.9107 28.0961 55.0387 28.3521C55.6787 29.6321 56.8947 27.9041 57.0867 27.2001Z" fill="white"/>
</g>
<path d="M14.0156 41.7924C14.0156 41.7924 15.0396 51.0084 22.2076 55.2324C29.3756 59.4564 36.1596 58.9444 41.4076 57.0884C46.6556 55.2964 50.0476 50.3044 51.1356 48.0004C52.2236 45.6964 52.4796 42.6884 52.4796 41.0244L52.0956 41.1524C52.0956 41.1524 47.8076 44.2884 43.9676 45.1844C43.9676 45.1844 41.9836 48.8324 41.7916 48.8324C41.5996 48.8324 40.8956 48.8324 40.8956 48.8324L40.7036 49.2804C40.7036 49.2804 39.1676 49.9844 38.0796 51.2004L28.0956 50.7524C28.0956 50.7524 24.9596 52.2244 24.4476 49.0244L24.0636 48.6404L22.3996 47.8084L20.8636 45.0564L14.3996 41.4724C14.3996 41.4724 14.2076 41.4724 14.1436 41.4724C14.0796 41.5364 14.0156 41.7924 14.0156 41.7924Z" fill="white"/>
<path d="M15.5508 46.6562C15.5508 46.6562 21.9508 57.2802 33.7908 56.8962C45.6308 56.5122 51.4548 46.8482 51.4548 46.8482C51.4548 46.8482 48.5108 57.9203 34.8148 58.4323C21.1188 58.9443 16.7028 50.1122 15.5508 46.8482" fill="#252468"/>
<path d="M33.7913 58.8159C28.2233 59.0079 23.4233 57.2799 19.3273 53.5679C16.7033 51.1999 15.2953 47.9359 14.5913 45.6319C13.8233 43.1359 13.6953 41.2159 13.6953 41.1519C13.6953 40.9599 13.8233 40.7679 14.0153 40.7679C14.2073 40.7679 14.3353 40.8959 14.3993 41.0879C14.3993 41.1519 15.0393 48.7039 19.8393 53.0559C25.3433 58.0479 32.3833 59.3279 40.6393 56.9599C47.9993 54.9119 52.3513 46.9759 52.1593 40.8319C52.1593 40.6399 52.2873 40.5119 52.4793 40.4479C52.6713 40.4479 52.9273 40.1919 52.9273 40.3839C53.0553 43.7119 51.8393 47.8079 49.7273 50.8799C47.4873 54.2719 44.2873 56.6399 40.7673 57.6639C38.3353 58.3679 36.0313 58.7519 33.7913 58.8159Z" fill="#252468"/>
<path d="M27.2003 17.9842C29.5043 16.8962 31.2963 16.5762 32.8963 16.5762C34.3683 16.5762 35.5843 16.8962 36.8643 17.1522C40.0643 17.9202 42.8803 19.7122 44.7363 22.3362C46.2723 24.5122 47.1043 26.9442 47.1043 29.6962C47.1043 31.8082 46.4643 33.5362 45.0563 34.9442C41.9843 38.0162 36.0323 38.7202 31.6163 38.7202C28.7363 38.7202 19.2643 38.2082 18.8803 31.9362C18.6243 26.3042 22.1443 20.3522 27.2003 17.9842Z" fill="#252468"/>
<path d="M22.0812 18.7516C16.5132 24.7036 13.5052 33.0236 14.0172 41.0236C14.4652 41.3436 18.3692 44.0316 22.7212 45.0556C22.7212 45.0556 22.7852 45.0556 22.7852 45.1196C23.5532 46.3996 24.8332 48.3836 25.0252 48.6396H25.9212C26.1132 48.0636 27.1372 44.6076 28.5452 44.1596C29.9532 43.7116 40.3852 43.5836 41.0892 44.0316C41.6652 44.4156 42.3052 47.2956 42.4972 48.0636L44.2892 47.1036L45.8892 44.3516C45.8892 44.3516 45.8892 44.3516 45.9532 44.2876C46.0172 44.2876 51.0092 41.5356 52.6092 40.0636C52.6732 39.5516 53.5052 33.4076 49.9212 26.5596C48.0652 22.9756 45.1852 19.6476 41.8572 17.1516C38.4652 14.5916 34.8172 13.1836 31.6812 13.1836C28.9932 13.1836 25.2812 15.2956 22.0812 18.7516ZM20.9292 23.5516C22.4652 20.9916 24.7052 18.9436 27.1372 17.7916C31.5532 15.7436 34.4332 16.3836 36.9292 16.9596C40.1932 17.7276 43.0092 19.5836 44.9292 22.2076C46.5292 24.3836 47.2972 26.8796 47.3612 29.6956C47.3612 31.8716 46.6572 33.6636 45.2492 35.0716C42.1132 38.2076 36.0972 38.9116 31.6172 38.9116C28.6732 38.9116 19.0732 38.3996 18.6892 31.8716C18.5612 29.0556 19.3292 26.1116 20.9292 23.5516Z" fill="white"/>
<path d="M39.6789 53.5038C39.3589 53.8238 38.5269 54.7198 38.2069 54.7838C37.6309 54.8478 31.0389 55.4238 29.9509 55.1038C28.9269 54.7838 28.4149 54.0798 28.4149 54.0798C28.4149 54.0798 26.7509 51.7118 26.0469 48.7678C26.1109 48.4478 27.1989 44.7998 28.5429 44.3518C29.3109 44.0958 32.3829 43.9678 35.0709 43.9678C38.1429 43.9678 40.6389 44.0318 40.8949 44.2238C41.4069 44.5438 42.0469 47.2318 42.2389 48.2558C42.2389 51.1358 39.6789 53.4398 39.6789 53.5038Z" fill="#54B848"/>
<g opacity="0.25">
<path d="M45.3776 48.0641C45.3136 48.1281 42.4336 49.4081 42.4336 49.4081C42.4976 49.0241 42.5616 48.6401 42.5616 48.2561L44.4816 47.2321C44.4816 47.2321 44.5456 47.2321 44.5456 47.1681L46.1456 44.4161C46.4656 44.2241 49.0896 42.8161 51.0736 41.5361C51.0096 41.8561 50.8816 42.3681 50.6896 43.0721C50.6896 43.0721 47.7456 44.6081 46.9776 45.1201C46.2096 45.6321 45.3776 48.0001 45.3776 48.0641Z" fill="#252468"/>
</g>
<g opacity="0.25">
<path opacity="0.5" d="M23.9988 49.4082C23.9348 49.3442 22.5268 46.3362 21.6948 46.0162C20.8628 45.6962 16.4468 43.9042 15.9988 43.7122C15.8068 43.0082 15.6148 42.4962 15.5508 42.2402C17.2148 43.2002 19.7748 44.5442 22.5908 45.2482C24.7668 48.8322 24.8948 48.8322 24.9588 48.8322H25.8548C25.9188 49.2162 26.0468 49.5362 26.1748 49.8562C26.1748 49.8562 24.0628 49.4722 23.9988 49.4082Z" fill="#252468"/>
</g>
<g opacity="0.1">
<path d="M39.2958 52.9279C38.6558 53.6959 37.7598 54.2079 36.7998 54.2719L34.2398 54.5279L31.2318 54.3999C30.2078 54.3359 29.3118 53.8239 28.7998 52.9279C28.6078 52.5439 28.3518 52.2239 28.2238 51.8399C27.5198 50.3679 27.1998 49.4719 27.0078 48.1279C27.0078 48.1279 27.9678 50.3679 29.8878 51.6479C31.8078 52.9279 34.3038 52.6719 34.3038 52.6719C34.3038 52.6719 36.8638 52.7999 38.7198 51.4559C40.6398 50.1759 41.5998 48.1279 41.5998 48.1279C41.4078 49.4719 40.7678 50.6879 40.0638 51.8399C39.7438 52.2879 39.5518 52.6079 39.2958 52.9279Z" fill="#252468"/>
</g>
<g opacity="0.15">
<path d="M23.1671 44.0322L15.0391 40.2561C15.0391 39.6801 15.1031 37.9521 15.1031 37.9521C16.4471 39.0401 20.4791 40.7681 20.4791 40.7681L20.6711 38.7201C25.2791 42.4961 33.2151 42.3681 33.2151 42.3681C33.2151 42.3681 41.1511 42.4961 45.7591 38.7201L45.9511 40.7681C45.9511 40.7681 49.9831 39.0401 51.3271 37.9521C51.3271 37.9521 51.7751 38.9121 51.7751 39.4881L45.1831 43.3281L43.7751 46.2722L42.2391 47.0401C41.9831 45.8881 41.4711 44.2881 41.0871 43.9681C40.3831 43.5201 29.9511 43.5841 28.5431 44.0961C27.4551 44.4801 26.5591 46.6561 26.1111 47.8721L25.2151 47.7441L23.1671 44.0322Z" fill="#252468"/>
</g>
<g opacity="0.4">
<path d="M13.8245 34.4319C13.8245 34.4959 13.6325 34.6879 13.6325 34.6879L12.4805 33.5359C12.7365 33.3439 12.8645 33.1519 12.9285 33.0879L13.6965 33.7279C13.7605 33.7919 13.8245 33.9199 13.8885 33.9199C13.9525 33.9839 13.8245 34.3039 13.8245 34.4319Z" fill="white"/>
</g>
<g opacity="0.4">
<path d="M20.2226 50.4964C20.2866 50.5604 21.5026 50.8804 21.6946 51.0084C21.8866 51.1364 22.2706 51.6484 22.2706 51.7124C22.2706 51.7764 19.9026 51.0084 19.8386 50.9444C19.7746 50.8804 18.5586 48.1924 18.5586 48.1924C19.0706 48.7044 20.1586 50.4324 20.2226 50.4964Z" fill="white"/>
</g>
<g opacity="0.4">
<path d="M26.4967 47.4878C26.6887 46.5918 27.8407 45.2478 28.1607 44.6078C28.2247 44.4798 28.3527 44.3518 28.4167 44.2238C28.6087 44.0958 29.6967 44.0318 31.2967 43.9678C32.1927 43.9678 33.1527 43.9678 33.9847 43.9678C34.0487 43.9678 34.1767 43.9678 34.2407 43.9678C34.3687 43.9678 34.4967 43.9678 34.6887 43.9678C34.8167 43.9678 35.0087 43.9678 35.1367 43.9678C35.2007 43.9678 35.3287 43.9678 35.3927 43.9678C36.2247 43.9678 37.1847 43.9678 38.0807 43.9678C39.6807 44.0318 40.8327 44.0958 40.9607 44.2238C41.0247 44.3518 41.1527 44.4798 41.2167 44.6078C41.5367 45.2478 41.8567 46.4638 42.1127 47.4238C42.1127 47.5518 42.1127 47.6158 42.0487 47.6798C42.0487 47.6798 40.5127 44.8638 40.4487 44.7998C40.3847 44.7998 38.1447 44.7998 36.1607 44.7998C36.1607 44.7998 29.3127 44.8638 28.8007 45.1838C28.1607 45.6318 26.3047 48.3198 26.3047 48.3198C26.3047 48.1918 26.4967 47.5518 26.4967 47.4878Z" fill="white"/>
</g>
<g opacity="0.4">
<path d="M47.5519 28.6084C47.5519 28.6084 48.9599 32.3844 45.7599 35.5204C42.5599 38.6564 38.3359 39.8084 30.8479 39.6164C23.3599 39.4244 20.2239 37.5684 18.7519 34.8804C17.2799 32.1924 18.7519 28.6084 18.7519 28.6084C18.7519 28.6084 17.4079 33.7924 22.0159 36.5444C26.6239 39.2964 35.4559 39.4244 41.4719 37.1844C47.4879 34.9444 47.3599 30.0804 47.5519 28.6084Z" fill="white"/>
</g>
<path d="M23.4868 47.1039C23.0388 46.3999 22.6548 45.7599 22.4628 45.4399C17.8548 44.2879 13.8868 41.4719 13.6948 41.3439C13.6308 41.2799 13.5668 41.1519 13.5668 41.0879C13.3108 36.6719 14.0148 32.3199 15.6788 28.0959C17.0868 24.5119 19.2628 21.1199 21.8228 18.3679C25.1508 14.7839 28.8628 12.6719 31.8068 12.6719C35.0708 12.6719 38.7828 14.1439 42.2388 16.7679C45.6308 19.3279 48.5108 22.7199 50.4308 26.3039C54.2068 33.5999 53.1828 39.8719 53.1188 40.1279C53.1188 40.1919 53.0548 40.2559 52.9908 40.3199C51.4548 41.7279 47.0388 44.1599 46.2708 44.5439L44.7348 47.2319C44.6708 47.2959 44.6708 47.3599 44.6068 47.3599L42.6228 48.3839C42.4948 48.4479 42.3668 48.4479 42.3028 48.3839C42.1748 48.3199 42.1108 48.2559 42.1108 48.1279C41.7908 46.4639 41.2148 44.5439 40.8948 44.2879C40.0628 43.9679 30.2068 43.9679 28.7348 44.4799C27.7748 44.7999 26.8148 47.2319 26.3668 48.7679C26.3028 48.9599 26.1748 49.0239 25.9828 49.0239H24.9588C24.7668 49.0879 24.7028 49.0879 23.4868 47.1039ZM28.4788 43.8399C29.3108 43.5839 32.5108 43.4559 35.1348 43.3919C36.7988 43.3919 40.7028 43.3919 41.2148 43.7119C41.7908 44.0959 42.3668 46.2719 42.6228 47.5519L44.0308 46.7839L45.5668 44.0959C45.6308 44.0319 45.6308 43.9679 45.6948 43.9679C45.7588 43.9679 50.5588 41.3439 52.2228 39.8719C52.3508 38.9759 52.9908 33.1519 49.5348 26.6239C47.6788 23.1039 44.8628 19.7759 41.5988 17.3439C38.2068 14.7839 34.6868 13.4399 31.6148 13.4399C28.9268 13.4399 25.3428 15.5519 22.2068 18.8799C16.7028 24.7039 13.7588 32.8959 14.2068 40.8319C14.9748 41.3439 18.6228 43.7759 22.7188 44.7359C22.7828 44.7359 22.9108 44.7999 22.9748 44.9279C23.8708 46.3359 24.8308 47.8719 25.1508 48.3199H25.7268C25.9828 47.3599 27.0068 44.3519 28.4788 43.8399Z" fill="#252468"/>
<path d="M39.7444 53.9516C39.8084 53.9516 39.9364 53.9516 40.0004 53.8876C40.1284 53.7596 42.7524 51.3916 42.8164 48.1916C42.8164 47.9996 42.6244 47.8076 42.4324 47.8076C42.2404 47.8076 42.0484 47.9996 42.0484 48.1916C41.9844 51.0076 39.5524 53.3116 39.4884 53.3116C39.3604 53.4396 39.2964 53.6956 39.4884 53.8236C39.5524 53.8876 39.6804 53.9516 39.7444 53.9516Z" fill="#252468"/>
<path d="M28.3507 54.4638C28.4147 54.4638 28.4787 54.4638 28.5427 54.3998C28.7347 54.2718 28.7347 54.0798 28.6067 53.8878C28.6067 53.8878 26.9427 51.5198 26.3027 48.6398C26.2387 48.4478 26.0467 48.3198 25.8547 48.3838C25.6627 48.4478 25.5347 48.6398 25.5987 48.8318C26.3027 51.8398 27.9667 54.2078 28.0307 54.3358C28.1587 54.3998 28.2227 54.4638 28.3507 54.4638Z" fill="#252468"/>
<path d="M23.4255 37.7604C20.2895 36.5444 18.6255 34.4964 18.4335 31.8084C18.2415 28.9924 19.0735 25.9844 20.6735 23.3604C22.2735 20.8004 24.5135 18.6884 27.0095 17.5364C31.4895 15.4245 34.4335 16.0645 36.9295 16.6405C40.2575 17.4085 43.1375 19.3285 45.1215 22.0165C46.7215 24.2565 47.5535 26.8164 47.5535 29.6324C47.5535 31.8724 46.8495 33.7284 45.3775 35.2004C42.1775 38.4004 36.0975 39.1044 31.5535 39.1044C29.8255 39.1044 26.3695 38.9124 23.4255 37.7604ZM36.8015 17.4085C34.2415 16.8325 31.6175 16.1925 27.3295 18.2405C22.4015 20.5444 18.8815 26.3685 19.2015 31.8084C19.5855 37.8884 28.8015 38.3364 31.6175 38.3364C36.0335 38.3364 41.8575 37.6964 44.8655 34.6884C46.2095 33.3444 46.8495 31.6804 46.8495 29.6324C46.8495 27.0084 46.0175 24.5764 44.5455 22.4644C42.6895 19.9044 39.9375 18.1125 36.8015 17.4085Z" fill="#252468"/>
<path d="M47.1072 21.1831C46.8512 20.9271 45.8272 20.0951 44.0992 19.3271C42.7552 18.7511 40.8352 18.1751 38.3392 18.1751C37.4432 18.1751 36.4832 18.2391 35.3952 18.4311C30.7232 19.2631 25.0912 22.0791 20.8672 24.7031C25.2192 18.9431 30.9152 16.0631 34.9472 14.5911C39.4272 12.9911 42.8832 12.7991 42.9472 12.7991C43.0112 12.7991 47.8112 12.5431 48.7712 15.1031C49.7952 17.6631 48.5792 19.9031 47.1072 21.1831Z" fill="#545580"/>
<path d="M22.2737 14.3358C22.0177 17.0878 24.0657 20.0318 24.4497 20.5438C23.0417 21.8238 21.6977 23.2958 20.4177 25.0238C18.4337 26.3038 16.7697 27.5198 15.7457 28.4158C15.4257 27.4558 13.6977 21.5678 17.1537 14.9118C17.7297 13.7598 18.4337 12.7998 19.1377 11.9678C19.1377 11.9678 19.1377 11.9678 19.2017 11.9038C20.2897 10.6878 21.5697 9.72776 22.8497 9.08776C22.8497 9.08776 22.9137 9.08776 22.9137 9.02376C24.3857 8.25576 25.8577 7.80776 27.3297 7.55176C25.8577 8.38376 22.7217 10.4318 22.2737 14.3358Z" fill="#54B848"/>
<path d="M24.5794 20.6079C24.1954 20.0959 22.1474 17.1519 22.4674 14.5279C23.0434 9.79188 27.6514 7.74388 28.0354 7.61588C30.4034 7.29588 32.5154 7.42388 33.9234 7.55188C35.1394 7.67988 36.2914 7.99988 37.3154 8.51188C40.1954 9.91988 42.2434 12.1599 42.7554 12.7999C41.9234 12.8639 38.7874 13.1839 34.9474 14.5919C31.9394 15.6159 28.1634 17.4719 24.5794 20.6079Z" fill="#54B848"/>
<g opacity="0.25">
<path d="M46.7873 15.3593C48.7073 17.4713 46.9153 20.0313 46.4033 20.6713C45.8913 20.2873 45.1233 19.8393 44.0993 19.3913C42.7553 18.8153 40.8353 18.2393 38.3393 18.2393C37.4433 18.2393 36.4833 18.3033 35.3953 18.4953C31.9393 19.1353 27.9713 20.7993 24.4513 22.7193C23.7473 23.1033 23.3633 23.2953 23.3633 23.2953C30.8513 15.2953 44.6113 12.9273 46.7873 15.3593Z" fill="#252468"/>
</g>
<g opacity="0.05">
<path d="M27.0083 9.08789C27.0083 10.9439 30.4643 14.1439 34.4963 13.1199C38.5283 12.0959 38.2723 9.85589 38.2723 9.85589C40.3843 10.9439 41.8563 12.7359 41.8563 12.7359C40.4483 12.9279 37.9523 13.3119 34.9443 14.3999C32.1923 15.3599 28.6723 17.0879 25.3443 19.8399C24.6403 18.8159 23.4883 16.9599 23.4883 14.8479C23.8083 10.6879 27.0083 9.08789 27.0083 9.08789Z" fill="#252468"/>
</g>
<g opacity="0.05">
<path d="M16.1308 20.4794C16.1308 20.4794 16.8348 20.9914 18.9468 20.0314C21.0588 19.0714 22.2748 16.1914 22.2748 16.1914C22.3388 16.1914 22.4028 16.2554 22.4668 16.3834C22.9148 18.4314 24.1948 20.2234 24.5148 20.6714C23.1068 21.9514 21.7628 23.4234 20.4828 25.1514C18.8828 26.1754 17.4748 27.1994 16.4508 28.0314C15.1708 24.3834 16.1308 20.4794 16.1308 20.4794Z" fill="#252468"/>
</g>
<g opacity="0.25">
<path d="M19.3292 10.7515C19.4572 10.3675 20.3532 9.72752 20.8652 9.47152C21.2492 9.27952 21.6332 9.40752 21.7612 9.47152C20.9292 9.98352 20.0972 10.6875 19.3292 11.4555C19.3292 11.3275 19.2652 11.0715 19.3292 10.7515Z" fill="#67BC45"/>
</g>
<g opacity="0.4">
<path d="M46.1465 13.8236C43.1385 12.7996 32.1945 15.0396 26.5625 19.1996C29.5705 16.9596 32.5785 15.5516 35.0105 14.6556C39.4905 13.0556 42.9465 12.8636 43.0105 12.8636C43.0745 12.8636 47.8745 12.6076 48.8345 15.1676C49.3465 16.5756 49.2185 17.8556 48.7705 18.9436C48.7705 17.9196 48.7705 14.6556 46.1465 13.8236Z" fill="white"/>
</g>
<g opacity="0.4">
<path d="M18.3049 14.0792C16.6409 16.5752 15.6809 19.1352 15.2969 20.3512C15.6169 18.6872 16.1289 16.8312 17.1529 14.9752C17.7289 13.8232 18.4329 12.8632 19.1369 12.0312C19.1369 12.0312 19.1369 12.0312 19.2009 11.9672C20.2889 10.7512 21.5689 9.79123 22.8489 9.15123C22.8489 9.15123 22.9129 9.15123 22.9129 9.08723C24.3849 8.31923 25.8569 7.87123 27.3289 7.61523C26.8169 7.87123 26.1769 8.25523 25.4729 8.89523C24.7689 9.08723 20.4169 10.8152 18.3049 14.0792Z" fill="white"/>
</g>
<path d="M15.6178 28.9916C15.4898 28.9916 15.4258 28.8636 15.3618 28.7356C15.3618 28.6716 14.7218 27.0716 14.5938 24.5116C14.4658 22.2076 14.7218 18.5596 16.7698 14.6556C18.4338 11.3916 21.0578 9.08758 24.5138 7.80758C28.0338 6.52758 31.6178 6.59158 34.0498 6.84758C35.3298 6.97558 36.4818 7.35958 37.5698 7.87158C40.5778 9.34358 42.6898 11.6476 43.2018 12.2876C44.1618 12.2876 48.3218 12.2876 49.3458 14.9116C50.3698 17.6636 49.0258 20.1596 47.4258 21.5676C47.2978 21.6956 47.0418 21.6956 46.9138 21.5676C46.9138 21.5676 45.8898 20.5436 43.9698 19.7116C42.2418 18.9436 39.3618 18.1756 35.5858 18.8796C27.9058 20.2876 18.5618 26.5596 15.9378 28.9276C15.8738 28.9916 15.8098 29.0556 15.6818 29.0556L15.6178 28.9916ZM44.2258 19.1356C45.6978 19.7756 46.6578 20.4796 47.1058 20.8636C48.3858 19.5836 49.4098 17.5356 48.5778 15.2956C47.6818 12.8636 43.0098 13.1196 43.0098 13.1196C42.8818 13.1196 42.7538 13.0556 42.6898 12.9916C42.6898 12.9916 40.5138 10.2396 37.2498 8.63958C36.2258 8.12758 35.1378 7.87158 33.9218 7.67958C30.3378 7.23158 21.4418 7.10358 17.3458 15.0396C15.4258 18.8156 15.1698 22.2716 15.2978 24.5116C15.3618 26.1116 15.6818 27.3276 15.8738 27.9676C19.4578 24.8956 28.4818 19.3916 35.3938 18.1756C36.4818 17.9836 37.4418 17.9196 38.4018 17.9196C40.8978 17.9196 42.8818 18.4956 44.2258 19.1356Z" fill="#252468"/>
<path d="M20.482 25.5356C20.61 25.5356 20.738 25.4716 20.802 25.4076C25.154 19.3916 30.978 16.3836 35.074 14.9116C39.49 13.3116 42.946 13.1196 43.01 13.1196C43.202 13.1196 43.394 12.9276 43.394 12.7356C43.394 12.5436 43.202 12.3516 43.01 12.3516C42.882 12.3516 39.426 12.5436 34.882 14.1436C30.658 15.6156 24.706 18.7516 20.226 24.8956C20.098 25.0876 20.162 25.2796 20.29 25.4076C20.354 25.4716 20.418 25.5356 20.482 25.5356Z" fill="#252468"/>
<path d="M24.5796 20.9912C24.6436 20.9912 24.7076 20.9912 24.8356 20.9272C25.0276 20.7992 25.0276 20.5432 24.8996 20.4152C24.8996 20.4152 22.4676 17.2152 22.7236 14.4632C23.2996 9.66317 28.1636 7.74317 28.1636 7.67917C28.3556 7.61517 28.4196 7.35917 28.3556 7.16717C28.2916 6.97517 28.0356 6.91117 27.8436 6.97517C27.7796 6.97517 26.4996 7.48717 25.0916 8.63917C23.2356 10.1752 22.1476 12.0952 21.8916 14.2712C21.5716 17.3432 24.0676 20.6712 24.1956 20.7992C24.3876 20.9272 24.5156 20.9912 24.5796 20.9912Z" fill="#252468"/>
<path d="M29.1848 37.5038C33.3557 37.5038 36.7368 33.5782 36.7368 28.7358C36.7368 23.8933 33.3557 19.9678 29.1848 19.9678C25.014 19.9678 21.6328 23.8933 21.6328 28.7358C21.6328 33.5782 25.014 37.5038 29.1848 37.5038Z" fill="url(#paint0_radial_1746_10679)"/>
<path d="M38.0793 36.7362C42.2502 36.7362 45.6313 32.8106 45.6313 27.9682C45.6313 23.1258 42.2502 19.2002 38.0793 19.2002C33.9085 19.2002 30.5273 23.1258 30.5273 27.9682C30.5273 32.8106 33.9085 36.7362 38.0793 36.7362Z" fill="url(#paint1_radial_1746_10679)"/>
<path d="M52.2891 38.2725C52.6731 37.5685 52.8011 36.8645 52.8651 36.4805C53.7611 37.6325 54.2091 38.8485 54.3371 39.9365C53.9531 39.4885 53.1851 38.6565 52.2891 38.2725Z" fill="url(#paint2_linear_1746_10679)"/>
<path d="M44.4817 43.2639C44.7377 44.4799 44.9297 46.5919 43.8417 48.6399C42.8817 49.0239 42.1777 48.9599 41.6017 48.3839C40.7057 47.4879 40.6417 45.4399 41.1537 44.1599C41.7937 42.6239 44.0977 43.1359 44.4817 43.2639Z" fill="#545580"/>
<path d="M44.7377 43.1355C44.6097 42.6875 44.5457 42.4315 44.4817 42.3035C46.0817 41.6635 47.2977 40.5755 48.1937 39.8715C48.7057 39.4875 49.0897 39.1675 49.2817 39.1035C49.8577 38.9755 50.8177 39.5515 50.8817 39.5515C51.0097 39.6155 53.5057 41.5995 53.6977 44.2235C53.8897 45.3115 53.2497 47.5515 53.2497 47.5515C53.2497 47.5515 52.4177 49.5355 49.1537 49.5355C49.0897 49.5355 49.0897 49.5355 49.0257 49.5355C46.0817 49.4715 44.5457 48.8315 44.0977 48.6395C45.1857 46.5915 44.9937 44.3515 44.7377 43.1355Z" fill="white"/>
<path d="M51.1367 39.4879C51.5847 39.2319 51.9047 38.8479 52.1607 38.4639C53.2487 38.9759 54.2087 40.1919 54.3367 40.3839C54.4647 41.8559 54.0807 43.1359 53.8247 43.7759C53.5047 41.5359 51.6487 39.8719 51.1367 39.4879Z" fill="#54B848"/>
<path d="M40.8326 46.3361C40.7686 45.6961 40.8326 44.9921 41.0246 44.4801L41.1526 44.2881C41.3446 45.1201 43.8406 46.9121 44.6086 46.4641C44.4806 47.1041 44.2886 47.7441 43.9686 48.3841C41.8566 48.5761 41.0886 47.1681 40.8326 46.3361Z" fill="#232664"/>
<path d="M54.3344 40.3839C54.4624 41.8559 54.0784 43.1359 53.8224 43.7759C53.6944 42.7519 53.1824 41.9199 52.7344 41.2159C53.0544 40.5759 53.2464 39.8719 53.3104 39.2959C53.8864 39.7439 54.2704 40.2559 54.3344 40.3839Z" fill="#252468"/>
<path d="M48.9581 49.0239C46.5261 48.9599 44.7981 48.1279 44.4141 47.9359C44.7341 47.1679 44.8621 46.3999 44.9261 45.6959C45.0541 44.7999 44.8621 43.7119 44.8621 43.7119C44.8621 43.7119 46.2701 45.7599 48.9581 46.2079C51.3261 46.5919 53.3741 45.1199 53.6941 44.0959C53.6941 44.1599 53.6941 44.1599 53.6941 44.2239C53.8861 45.3119 53.2461 47.5519 53.2461 47.5519C53.2461 47.5519 53.0541 47.9359 52.6061 48.3839C51.9661 48.7039 50.8141 49.0879 48.9581 49.0239Z" fill="#252468"/>
<path d="M49.7285 39.872C49.4085 39.936 46.9125 42.048 44.6085 42.688C44.5445 42.496 44.4805 42.368 44.4805 42.24C46.0805 41.6 47.2965 40.512 48.1925 39.808C48.7045 39.424 49.0885 39.104 49.2805 39.04C49.8565 38.912 50.8165 39.488 50.8805 39.488C50.9445 39.488 51.2645 39.808 51.6485 40.192L52.2885 41.024C52.3525 41.088 50.0485 39.808 49.7285 39.872Z" fill="white"/>
<path d="M52.2891 38.2725C52.6731 37.5685 52.8011 36.8645 52.8651 36.4805C52.9931 36.6085 53.0571 36.7365 53.1851 36.8645C53.1851 37.1845 53.0571 37.8245 52.8011 38.4645C52.5451 38.4005 52.4171 38.3365 52.2891 38.2725Z" fill="white"/>
<path d="M41.4062 43.7757C42.2382 42.7517 44.1583 43.1997 44.4783 43.2637C44.5423 43.4557 44.5422 43.6477 44.6062 43.9037C44.2222 43.7757 42.3662 43.3917 41.4062 43.7757Z" fill="white"/>
<path d="M52.1607 38.4639C52.2887 38.5279 52.4807 38.6559 52.6087 38.7199C52.3527 39.1679 52.0327 39.5519 51.5847 39.8719C51.3927 39.6799 51.2007 39.5519 51.1367 39.4239C51.5847 39.1679 51.9047 38.7839 52.1607 38.4639Z" fill="white"/>
<path d="M53.6946 44.608C53.5666 44.608 53.4386 44.416 53.4386 44.288C53.3106 41.728 50.7506 39.744 50.6866 39.744C50.6226 39.68 50.5586 39.552 50.5586 39.424C50.5586 39.296 50.6226 39.232 50.7506 39.168C52.3506 38.272 52.3506 36.224 52.3506 36.224C52.3506 36.096 52.4146 35.968 52.6066 35.904C52.7346 35.84 52.9266 35.904 52.9906 36.032C54.7186 38.016 54.9106 40.192 54.7826 41.728C54.6546 43.328 54.0786 44.48 54.0786 44.48C54.0146 44.608 53.8866 44.672 53.7586 44.672C53.7586 44.608 53.7586 44.608 53.6946 44.608ZM51.5186 39.488C52.1586 40.064 53.3746 41.28 53.8866 42.944C54.0146 42.56 54.0786 42.112 54.1426 41.6C54.2706 39.936 53.8866 38.4 52.9906 37.12C52.7986 37.76 52.4146 38.784 51.5186 39.488Z" fill="#252468"/>
<path d="M54.4659 40.7037C54.5299 40.7037 54.5939 40.7037 54.6579 40.6397C54.7859 40.5117 54.8499 40.3197 54.7219 40.1277C54.6579 40.0637 53.5699 38.5277 52.2259 37.9517C52.0339 37.8877 51.8419 37.9517 51.7779 38.1437C51.7139 38.3357 51.7779 38.5277 51.9699 38.5917C53.1859 39.1037 54.1459 40.5117 54.2099 40.5117C54.2739 40.6397 54.3379 40.7037 54.4659 40.7037Z" fill="#252468"/>
<path d="M49.1532 50.0478C52.7372 50.0478 53.6332 47.8718 53.6972 47.7438C53.6972 47.6798 54.4012 45.4398 54.1452 44.2238C54.0812 44.0318 53.9532 43.9038 53.7612 43.9678C53.5692 44.0318 53.4412 44.1598 53.5052 44.3518C53.6972 45.3758 53.1212 47.3598 53.0572 47.5518C52.9932 47.7438 52.1612 49.3438 49.1532 49.4078C49.0892 49.4078 49.0892 49.4078 49.0252 49.4078C46.5292 49.4078 45.0572 48.8958 44.4172 48.6398C45.6972 46.0158 45.0572 43.3918 44.8012 42.4958C46.3372 41.7918 47.5532 40.8318 48.3212 40.1278C48.7052 39.8078 49.1532 39.4238 49.2812 39.4238C49.6652 39.3598 50.3692 39.6158 50.7532 39.8718C50.9452 39.9358 51.1372 39.9358 51.2012 39.7438C51.2652 39.5518 51.2652 39.3598 51.0732 39.2958C50.9452 39.2318 49.8572 38.5918 49.0891 38.7838C48.7692 38.8478 48.3852 39.1678 47.8092 39.6798C46.9132 40.4478 45.6972 41.4718 44.1612 42.0478C43.9692 42.1118 43.9052 42.3038 43.9692 42.4958C43.9692 42.4958 45.2492 45.7598 43.5852 48.7038C43.5212 48.8958 43.5212 49.0878 43.7132 49.1518C43.7772 49.2158 45.3772 50.1118 48.9612 50.1758C49.0252 50.0478 49.0892 50.0478 49.1532 50.0478Z" fill="#252468"/>
<path d="M42.8152 49.3445C43.1992 49.3445 43.5832 49.2805 44.0952 49.0885C44.2872 49.0245 44.3512 48.8325 44.2872 48.6405C44.2232 48.4485 44.0312 48.3845 43.8392 48.4485C42.9432 48.8325 42.3032 48.7685 41.7912 48.2565C40.9592 47.4245 40.8952 45.4405 41.3432 44.2885C41.9832 42.7525 44.4792 43.5205 44.4792 43.5205C44.6712 43.5845 44.8632 43.4565 44.9272 43.2645C44.9912 43.0725 44.8632 42.8805 44.6712 42.8165C44.5432 42.7525 41.5352 41.9205 40.7032 43.9685C40.1272 45.3125 40.1912 47.6165 41.2792 48.6405C41.5992 49.0245 42.1112 49.3445 42.8152 49.3445Z" fill="#252468"/>
<path d="M14.7217 42.1757C14.2737 41.5357 14.0177 40.8957 13.9537 40.5117C13.1857 41.7917 12.9297 43.0077 12.9297 44.1597C13.2497 43.6477 13.8897 42.7517 14.7217 42.1757Z" fill="url(#paint3_linear_1746_10679)"/>
<path d="M23.1059 46.0797C23.0419 47.2957 23.1059 49.4717 24.5139 51.3277C25.4739 51.5837 26.2419 51.3917 26.6899 50.7517C27.4579 49.7277 27.2659 47.6797 26.5619 46.5277C25.7299 45.0557 23.5539 45.8877 23.1059 46.0797Z" fill="#545580"/>
<path d="M22.9104 46.0158C22.9744 45.5678 22.9744 45.3118 23.0384 45.1198C21.3744 44.6718 19.9664 43.7758 19.0704 43.1998C18.5584 42.8798 18.1104 42.6238 17.9184 42.5598C17.3424 42.4958 16.4464 43.1998 16.3824 43.1998C16.2544 43.3278 14.0144 45.6318 14.2704 48.2558C14.2064 49.4078 15.1664 51.4558 15.1664 51.4558C15.1664 51.4558 16.2544 53.2478 19.5184 52.8638C19.5824 52.8638 19.5824 52.8638 19.6464 52.8638C22.5904 52.4158 23.9984 51.5838 24.3824 51.3278C22.9104 49.4718 22.7824 47.2318 22.9104 46.0158Z" fill="white"/>
<path d="M16.0642 43.2642C15.5522 43.0722 15.2322 42.7522 14.9122 42.3682C13.8882 43.0082 13.1202 44.3522 12.9922 44.6082C13.1202 46.0802 13.6322 47.2962 13.9522 47.9362C13.9522 45.6322 15.6162 43.7122 16.0642 43.2642Z" fill="#54B848"/>
<path d="M27.2003 48.6402C27.1363 48.0002 27.0083 47.3602 26.7523 46.7842L26.6243 46.6562C26.5603 47.4882 24.3203 49.6002 23.4883 49.2802C23.6803 49.9202 24.0003 50.4962 24.3843 51.1362C26.4963 51.0082 27.0723 49.4722 27.2003 48.6402Z" fill="#232664"/>
<path d="M12.9922 44.6076C13.1202 46.0796 13.6322 47.2956 13.9522 47.9356C13.9522 46.9116 14.2722 46.0156 14.7202 45.2476C14.3362 44.6716 14.0162 43.9676 13.8882 43.3916C13.3762 43.9036 13.0562 44.4156 12.9922 44.6076Z" fill="#252468"/>
<path d="M19.4557 52.4163C21.8877 52.0323 23.4237 50.9443 23.8077 50.6883C23.4237 49.9843 23.1677 49.2163 23.0397 48.5123C22.7837 47.6163 22.8477 46.5283 22.8477 46.5283C22.8477 46.5283 21.7597 48.7683 19.1357 49.6003C16.8317 50.3043 14.5917 49.1523 14.1437 48.1923C14.1437 48.2563 14.1437 48.2563 14.1437 48.3203C14.0797 49.4723 15.0397 51.5203 15.0397 51.5203C15.0397 51.5203 15.2957 51.9043 15.8077 52.2883C16.4477 52.4803 17.6637 52.7363 19.4557 52.4163Z" fill="#252468"/>
<path d="M17.5375 43.4558C17.8575 43.5198 20.6095 45.2478 22.9775 45.5678C22.9775 45.3758 23.0415 45.2478 23.0415 45.1198C21.3775 44.6718 19.9695 43.7758 19.0735 43.1998C18.5615 42.8798 18.1135 42.6238 17.9215 42.5598C17.3455 42.4958 16.4495 43.1998 16.3855 43.1998C16.3215 43.2638 16.0655 43.5198 15.6815 44.0318L15.1055 44.9278C15.1055 45.0558 17.1535 43.3918 17.5375 43.4558Z" fill="white"/>
<path d="M14.7193 42.1757C14.2713 41.5357 14.0153 40.8957 13.9513 40.5117C13.8873 40.6397 13.7593 40.7677 13.6953 40.9597C13.7593 41.2797 13.9513 41.9197 14.3353 42.4957C14.4633 42.3677 14.5913 42.3037 14.7193 42.1757Z" fill="white"/>
<path d="M26.2415 46.1438C25.2815 45.2478 23.4895 45.8878 23.1055 46.0798C23.1055 46.2718 23.1055 46.4638 23.1055 46.7198C23.4895 46.5278 25.2175 45.8878 26.2415 46.1438Z" fill="white"/>
<path d="M14.9128 42.3682C14.7848 42.4322 14.5928 42.5602 14.4648 42.6882C14.7208 43.0722 15.1048 43.4562 15.6168 43.7122C15.8088 43.5202 15.9368 43.3282 16.0008 43.2642C15.5528 43.0082 15.1688 42.6882 14.9128 42.3682Z" fill="white"/>
<path d="M14.0781 48.7042C13.9501 48.7042 13.8221 48.6402 13.7581 48.5762C13.7581 48.5122 13.0541 47.4882 12.6701 45.9522C12.3501 44.4802 12.2221 42.3042 13.6941 40.0642C13.7581 39.9362 13.9501 39.8722 14.0781 39.9362C14.2061 40.0002 14.3341 40.0642 14.3341 40.2562C14.3341 40.2562 14.6541 42.3042 16.3821 42.9442C16.5101 43.0082 16.5741 43.0722 16.5741 43.2002C16.5741 43.3282 16.5741 43.4562 16.4461 43.5202C16.4461 43.5202 14.1421 45.8242 14.3981 48.3842C14.3981 48.5122 14.3341 48.7042 14.1421 48.7682C14.1421 48.6402 14.1421 48.7042 14.0781 48.7042ZM13.8861 41.0882C13.1821 42.4962 12.9901 44.0322 13.3741 45.6962C13.5021 46.2082 13.6301 46.6562 13.8221 47.0402C14.1421 45.3122 15.1661 43.9682 15.6781 43.3282C14.6541 42.7522 14.1421 41.7922 13.8861 41.0882Z" fill="#252468"/>
<path d="M12.8632 44.9281C12.7992 44.9281 12.7352 44.9281 12.6712 44.8641C12.4792 44.8001 12.4152 44.5441 12.5432 44.4161C12.6072 44.3521 13.4392 42.6881 14.7192 41.9201C14.9112 41.7921 15.1032 41.8561 15.1672 42.0481C15.2952 42.2401 15.2312 42.4321 15.0392 42.4961C13.8872 43.1361 13.1192 44.6721 13.1192 44.7361C13.1192 44.8641 12.9912 44.9281 12.8632 44.9281Z" fill="#252468"/>
<path d="M19.4545 53.4401C15.8705 53.8881 14.7185 51.9041 14.6545 51.7761C14.5905 51.7121 13.6305 49.6001 13.6945 48.3201C13.6945 48.1281 13.8865 48.0001 14.0785 48.0001C14.2705 48.0001 14.3985 48.1921 14.3985 48.3841C14.3345 49.4081 15.1665 51.2641 15.2945 51.5201C15.4225 51.6481 16.4465 53.1841 19.3905 52.8001C19.4545 52.8001 19.4545 52.8001 19.5185 52.8001C22.0145 52.4161 23.4225 51.7121 23.9345 51.3921C22.3345 49.0241 22.5905 46.2721 22.7185 45.3761C21.1185 44.9281 19.7745 44.0961 18.8785 43.5201C18.4305 43.2641 17.9825 42.9441 17.7905 42.9441C17.4065 42.8801 16.7665 43.3281 16.3825 43.5841C16.2545 43.7121 15.9985 43.6481 15.8705 43.5201C15.7425 43.3921 15.8065 43.1361 15.9345 43.0081C16.0625 42.9441 17.0225 42.1761 17.7905 42.2401C18.1105 42.3041 18.5585 42.5601 19.1345 42.9441C20.0945 43.5841 21.5025 44.4161 23.1025 44.8001C23.2945 44.8641 23.4225 45.0561 23.3585 45.2481C23.3585 45.3121 22.5905 48.6401 24.5745 51.3281C24.7025 51.4561 24.6385 51.7121 24.5105 51.7761C24.4465 51.8401 23.0385 52.9281 19.4545 53.5041C19.5825 53.3761 19.5185 53.4401 19.4545 53.4401Z" fill="#252468"/>
<path d="M25.6657 51.84C25.2817 51.904 24.8977 51.84 24.3857 51.712C24.1937 51.648 24.0657 51.456 24.1297 51.264C24.1937 51.072 24.3857 50.944 24.5777 51.008C25.4737 51.264 26.1777 51.072 26.5617 50.56C27.2657 49.6 27.0737 47.68 26.4337 46.592C25.6017 45.184 23.2337 46.208 23.2337 46.272C23.0417 46.336 22.8497 46.272 22.7857 46.08C22.7217 45.888 22.7857 45.696 22.9777 45.632C23.1057 45.568 25.9217 44.288 27.0737 46.272C27.8417 47.552 28.0337 49.792 27.1377 51.008C26.8177 51.392 26.3697 51.776 25.6657 51.84Z" fill="#252468"/>
<path d="M36.5444 11.0078C36.2884 11.0718 36.0964 11.0718 35.8404 11.1358C35.7764 10.9438 35.7124 10.7518 35.6484 10.5598C36.3524 10.4318 37.1204 10.2398 37.8884 10.1758C37.9524 10.3678 38.0164 10.5598 38.0164 10.7518C37.7604 10.8158 37.5684 10.8158 37.3124 10.8798C37.4404 11.4558 37.6324 11.9678 37.7604 12.5438C37.5044 12.6078 37.2484 12.6078 36.9924 12.6718C36.8644 12.1598 36.7364 11.5838 36.5444 11.0078Z" fill="#252468"/>
<path d="M33.4107 11.7754C33.4747 11.9034 33.5387 12.0314 33.5387 12.1594C33.8587 12.0954 34.1787 11.9674 34.4347 11.9034C34.4987 12.0954 34.5627 12.2874 34.6267 12.4794C34.3067 12.5434 33.9867 12.6714 33.7307 12.7354C33.7947 12.9914 33.9227 13.1834 33.9867 13.4394C33.7307 13.5034 33.5387 13.5674 33.2827 13.6314C33.0267 12.9274 32.7067 12.2234 32.3867 11.5194C32.9627 11.3274 33.6027 11.1354 34.2427 10.9434C34.3067 11.1354 34.3707 11.3274 34.4347 11.4554C34.1147 11.5834 33.7947 11.7114 33.4107 11.7754Z" fill="#252468"/>
<path d="M30.4023 12.2878C30.6583 12.1598 30.8503 12.0958 31.1063 11.9678C31.3623 12.4798 31.6183 12.9278 31.8103 13.4398C32.1303 13.3118 32.4503 13.1838 32.7703 13.1198C32.8343 13.3118 32.8983 13.5038 32.9623 13.6958C32.4503 13.8878 31.8743 14.0798 31.3623 14.2718C31.1063 13.5678 30.7863 12.9278 30.4023 12.2878Z" fill="#252468"/>
<path d="M30.9125 13.888C30.9765 14.08 31.1045 14.208 31.1685 14.4C30.6565 14.592 30.0805 14.848 29.5685 15.104C29.2485 14.464 28.8645 13.824 28.4805 13.184C28.9925 12.928 29.5685 12.672 30.1445 12.416C30.2085 12.608 30.3365 12.736 30.4005 12.928C30.0805 13.056 29.7605 13.248 29.4405 13.376C29.5045 13.44 29.5045 13.504 29.5685 13.632C29.8245 13.504 30.1445 13.376 30.4005 13.248C30.4645 13.376 30.5925 13.568 30.6565 13.696C30.4005 13.824 30.0805 13.952 29.8245 14.08C29.8885 14.144 29.8885 14.272 29.9525 14.336C30.2725 14.144 30.5925 14.016 30.9125 13.888Z" fill="#252468"/>
<path d="M28.4819 15.68C28.3539 15.744 28.1619 15.808 28.0339 15.872C27.9059 15.936 27.7139 15.936 27.5859 15.936C27.5219 15.744 27.5219 15.552 27.4579 15.36C27.5859 15.36 27.7139 15.36 27.8419 15.296C27.9699 15.296 28.0979 15.232 28.1619 15.168C28.2259 15.104 28.2899 15.104 28.3539 15.04C28.3539 14.976 28.3539 14.976 28.3539 14.912C28.3539 14.848 28.2899 14.848 28.2259 14.848C28.1619 14.848 28.0979 14.848 27.9699 14.912C27.8419 14.976 27.6499 14.976 27.5859 15.04C27.4579 15.04 27.3299 15.04 27.2019 15.04C27.0739 14.976 26.9459 14.912 26.8819 14.784C26.8179 14.656 26.7539 14.528 26.7539 14.4C26.7539 14.272 26.8179 14.144 26.8819 14.016C26.9459 13.888 27.1379 13.76 27.3299 13.632C27.4579 13.568 27.5859 13.504 27.7779 13.44C27.9059 13.376 28.0339 13.376 28.2259 13.376C28.2259 13.568 28.2899 13.76 28.2899 13.952C28.0339 13.952 27.8419 14.016 27.6499 14.08C27.4579 14.144 27.4579 14.272 27.4579 14.336C27.4579 14.4 27.5219 14.4 27.5859 14.4C27.6499 14.4 27.7139 14.336 27.8419 14.336C28.0339 14.272 28.1619 14.272 28.2899 14.208C28.4179 14.208 28.5459 14.208 28.6739 14.272C28.8019 14.336 28.8659 14.4 28.9939 14.528C29.0579 14.656 29.1219 14.784 29.0579 14.912C29.0579 15.04 28.9939 15.168 28.9299 15.296C28.8019 15.488 28.6739 15.616 28.4819 15.68Z" fill="#252468"/>
<path fill-rule="evenodd" clip-rule="evenodd" d="M34.8806 10.4317C35.0726 10.3677 35.3286 10.4957 35.3926 10.6877C35.4566 10.8797 35.3286 11.0717 35.1366 11.0717C34.9446 11.1357 34.6886 11.0077 34.6246 10.8157C34.5606 10.6877 34.6246 10.4957 34.8806 10.4317Z" fill="white"/>
<path fill-rule="evenodd" clip-rule="evenodd" d="M34.9459 11.3282C35.0739 11.2642 35.2019 11.2642 35.3299 11.2002C35.3939 11.2002 35.5219 11.2002 35.5219 11.3282C35.7139 11.8402 35.8419 12.3522 35.9699 12.8642C35.7139 12.9282 35.5219 12.9922 35.2659 12.9922C35.1379 12.4802 34.9459 11.9682 34.7539 11.5202C34.8179 11.4562 34.8819 11.3282 34.9459 11.3282Z" fill="white"/>
<path d="M30.9745 55.36C30.8465 55.36 28.6065 55.168 27.9665 53.952C27.9025 53.824 27.9665 53.632 28.0945 53.504C28.2225 53.44 28.4145 53.504 28.5425 53.632C28.9265 54.4 30.4625 54.656 31.0385 54.656C31.0385 54.656 36.2865 54.4 37.5025 54.336C38.5905 54.272 39.7425 53.056 39.7425 53.056C39.8705 52.928 40.0625 52.928 40.1905 53.056C40.3185 53.184 40.3185 53.376 40.1905 53.504C40.1265 53.568 38.8465 54.848 37.5025 54.976C36.2865 55.168 31.1665 55.36 30.9745 55.36Z" fill="#252468"/>
<path d="M15.1075 25.6632C15.4275 25.9832 15.6195 26.4952 15.6835 26.9432C15.8115 27.5192 15.7475 28.0952 15.6835 28.6712C15.5555 30.3352 15.3635 32.0632 15.1715 33.7272C15.0435 34.8152 14.9155 35.9032 14.5315 36.9272C14.4675 37.1192 14.3395 37.3752 14.2115 37.5032C13.8915 37.8232 13.3155 37.8232 12.8035 37.7592C12.6755 37.7592 12.5475 37.7592 12.4835 37.6312C12.3555 37.5032 12.3555 37.3112 12.3555 37.1192C12.4195 34.3032 12.4835 31.5512 12.6115 28.7352C12.6755 27.9672 12.6755 27.1992 12.8675 26.4952C13.2515 25.5992 14.2115 24.8312 15.1075 25.6632Z" fill="#54B848"/>
<path d="M13.3782 38.2717C13.1862 38.2717 12.9302 38.2717 12.8022 38.2077C12.6742 38.2077 12.4183 38.1437 12.2262 38.0157C11.9062 37.7597 11.9062 37.3757 11.9062 37.1837C11.9703 34.3677 12.0342 31.5517 12.1622 28.7997C12.2262 28.0957 12.2262 27.2637 12.4822 26.4317C12.6742 25.6637 13.2502 25.0877 13.8262 24.8957C14.3382 24.7677 14.9142 24.8957 15.3622 25.3437C15.7462 25.7277 16.0023 26.2397 16.1302 26.8797C16.2583 27.5197 16.1942 28.1597 16.1942 28.7357C16.0662 30.4637 15.8742 32.1277 15.6822 33.7917C15.5542 34.8797 15.4262 36.0317 15.0422 37.1197C14.9142 37.3757 14.8502 37.6957 14.5942 37.8877C14.2102 38.2077 13.7622 38.2717 13.3782 38.2717ZM12.8662 37.3117H12.9303C13.3143 37.3757 13.7622 37.3757 13.9542 37.1837C14.0182 37.1197 14.0823 36.9277 14.2103 36.7357C14.5303 35.7757 14.7222 34.6877 14.7862 33.5997C14.9783 31.9357 15.1702 30.2717 15.2982 28.6077C15.3622 28.0317 15.3622 27.5197 15.2982 26.9437C15.2342 26.4957 15.0423 26.1117 14.8503 25.9197C14.6583 25.7277 14.4023 25.6637 14.2103 25.7277C13.8903 25.7917 13.5702 26.1757 13.4422 26.6237C13.2502 27.3277 13.1862 28.0957 13.1862 28.7997C13.0582 31.5517 12.9303 34.4317 12.9303 37.1837C12.8663 37.2477 12.8662 37.3117 12.8662 37.3117Z" fill="#2A2866"/>
<path d="M9.28088 25.4714C8.76888 25.9194 8.44888 26.5594 8.19288 27.1994C7.80888 28.2234 7.61688 29.3114 7.48888 30.3994C7.36088 31.4874 7.29688 32.5754 7.29688 33.5994C7.29688 34.1754 7.29688 34.8154 7.48888 35.3914C7.74488 36.1594 8.44888 36.7994 9.15288 37.1194C9.92088 37.5034 10.7529 37.6314 11.5849 37.7594C11.8409 35.7114 12.0969 33.5994 12.4169 31.5514C12.6729 29.5034 12.9289 27.3914 12.8649 25.2794C12.8649 25.2154 12.1609 24.8954 12.0329 24.8954C11.7129 24.7674 11.3929 24.8314 11.0729 24.8314C10.4329 24.8314 9.72888 25.0234 9.28088 25.4714Z" fill="#54B848"/>
<path d="M11.9052 38.2718L11.4572 38.2078C10.6892 38.0798 9.72916 37.9518 8.89716 37.5038C7.93716 37.0558 7.29716 36.3518 6.97716 35.5198C6.78516 34.8798 6.78516 34.2398 6.78516 33.5998C6.84916 32.3198 6.91316 31.2958 6.97716 30.3358C7.10516 28.9918 7.36116 27.9038 7.68116 27.0078C8.00116 26.1118 8.38516 25.5358 8.89716 25.0878C9.47316 24.6398 10.1772 24.3838 10.9452 24.3838C11.3292 24.3838 11.7132 24.3838 12.0332 24.5118C13.1212 24.8958 13.1212 25.2158 13.1212 25.3438C13.1852 27.4558 12.9292 29.6318 12.6092 31.6798L11.9052 38.2718ZM9.53716 25.7918C9.15316 26.1118 8.83316 26.6238 8.57716 27.3278C8.25716 28.1598 8.06516 29.1838 7.93716 30.4638C7.80916 31.4238 7.74516 32.4478 7.74516 33.6638C7.74516 34.2398 7.74516 34.8158 7.87316 35.2638C8.06516 35.8398 8.64116 36.4158 9.34516 36.7998C9.92116 37.0558 10.5612 37.2478 11.1372 37.3118L11.9052 31.5518C12.1612 29.6318 12.4172 27.5838 12.4172 25.5998C12.2252 25.5358 11.9692 25.4078 11.9052 25.3438C11.6492 25.2798 11.2652 25.2798 11.1372 25.2798C10.6252 25.2798 10.0492 25.4078 9.53716 25.7918Z" fill="#2A2866"/>
<path d="M10.3687 36.16C10.3047 36.672 10.3687 37.248 10.8167 37.568C11.2647 37.888 11.9047 37.76 12.1607 37.44C12.4807 37.12 12.5447 36.672 12.6087 36.224C13.1207 32.64 13.3127 30.272 13.4407 26.624C13.4407 26.24 13.4407 25.856 13.3127 25.472C13.1847 25.088 12.8647 24.704 12.4167 24.576C11.9687 24.448 11.5207 24.832 11.3927 25.152C11.1367 25.344 11.2007 25.92 11.1367 26.24C11.0727 26.752 11.0727 27.008 10.9447 27.52C10.8167 28.544 10.6887 29.568 10.5607 30.656C10.4327 32.768 10.5607 33.984 10.3687 36.16Z" fill="white"/>
<path d="M11.4553 38.2079C11.1993 38.2079 10.8793 38.1439 10.6233 37.9519C9.85528 37.4399 9.91927 36.4799 9.91927 36.0959C9.98327 35.1359 10.0473 34.3679 10.0473 33.5999C10.0473 32.6399 10.1113 31.7439 10.2393 30.5279C10.3673 29.5039 10.4953 28.4799 10.6233 27.3919C10.6233 27.1359 10.6873 27.0079 10.6873 26.8159C10.6873 26.6239 10.7513 26.3679 10.7513 26.1119C10.7513 26.0479 10.7513 25.9199 10.7513 25.8559C10.7513 25.4719 10.8153 25.0879 11.0073 24.8319C11.1353 24.5119 11.3913 24.2559 11.7113 24.1279C11.9673 23.9999 12.2873 23.9359 12.6073 24.0639C13.1193 24.2559 13.5673 24.7039 13.7593 25.2799C13.9513 25.7279 13.8873 26.2399 13.8873 26.6239C13.7593 30.5279 13.5673 32.8319 13.0553 36.2879C12.9913 36.7359 12.9273 37.3119 12.4793 37.7599C12.2873 38.0159 11.8393 38.2079 11.4553 38.2079ZM12.2873 24.9599C12.2233 24.9599 12.2233 24.9599 12.1593 25.0239C12.0313 25.0879 11.9033 25.2159 11.9033 25.2799L11.8393 25.4079L11.7113 25.4719C11.6473 25.5359 11.6473 25.8559 11.6473 25.9839C11.6473 26.1119 11.6473 26.1759 11.6473 26.3039C11.5833 26.6239 11.5833 26.8159 11.5833 27.0079C11.5833 27.1999 11.5193 27.3279 11.5193 27.5839C11.3913 28.6079 11.2633 29.6959 11.1353 30.7199C11.0073 31.8719 11.0073 32.7679 10.9433 33.6639C10.9433 34.4319 10.8793 35.1999 10.8153 36.1599C10.7513 36.7359 10.8793 36.9919 11.0713 37.1839C11.3273 37.3759 11.7113 37.2479 11.8393 37.1199C12.0313 36.9279 12.0953 36.5439 12.1593 36.1599C12.6713 32.7679 12.7993 30.4639 12.9913 26.6239C12.9913 26.2399 12.9913 25.9199 12.9273 25.6639C12.8633 25.2799 12.6073 25.0239 12.2873 24.9599Z" fill="#2A2866"/>
<g opacity="0.1">
<path d="M11.8398 30.9761C11.8398 30.7841 11.7758 30.5921 11.5838 30.6561L11.5198 30.7201C11.3918 30.9761 11.3278 31.2961 11.3278 31.6161C11.1358 33.1521 11.0078 34.7521 11.0078 36.2881C11.0078 36.6081 11.3278 37.3761 11.7758 36.9921C12.0958 36.6721 11.9038 35.4561 11.9038 35.0721C11.8398 33.7281 11.8398 32.3841 11.8398 30.9761Z" fill="#252468"/>
</g>
<g opacity="0.37">
<path d="M9.40784 26.6237C8.95984 27.2637 8.70384 28.0317 8.63984 28.7997C8.57584 29.2477 8.57584 29.7597 8.76784 30.0797C8.76784 30.1437 8.83184 30.2077 8.89584 30.2077C9.02384 30.2717 9.21584 30.0797 9.27984 29.9517C9.47184 29.5677 9.53584 29.0557 9.66384 28.6077C9.79184 28.1597 10.8798 26.1757 10.6238 25.8557C10.3678 25.5357 9.59984 26.3037 9.40784 26.6237Z" fill="white"/>
</g>
<path d="M38.4648 29.8241C39.3838 29.8241 40.1288 29.0791 40.1288 28.1601C40.1288 27.2411 39.3838 26.4961 38.4648 26.4961C37.5458 26.4961 36.8008 27.2411 36.8008 28.1601C36.8008 29.0791 37.5458 29.8241 38.4648 29.8241Z" fill="#54B848"/>
<path d="M28.4179 30.4637C29.3369 30.4637 30.0819 29.7187 30.0819 28.7997C30.0819 27.8807 29.3369 27.1357 28.4179 27.1357C27.4989 27.1357 26.7539 27.8807 26.7539 28.7997C26.7539 29.7187 27.4989 30.4637 28.4179 30.4637Z" fill="#54B848"/>
<path d="M34.8781 32.5122L32.5101 32.4482C32.1261 32.4482 31.8701 32.7682 31.9981 33.1522C32.1901 33.7922 32.6381 34.7522 33.5981 34.8162C34.5581 34.8802 35.0701 33.9842 35.3261 33.2802C35.5181 32.8962 35.2621 32.5762 34.8781 32.5122Z" fill="#54B848"/>
<path d="M30.6574 50.7523C29.9534 50.7523 29.4414 50.1763 29.4414 49.5363C29.4414 48.8323 30.0174 48.3203 30.6574 48.3203C31.2974 48.3203 31.8734 48.8963 31.8734 49.5363C31.8734 50.2403 31.3614 50.7523 30.6574 50.7523Z" fill="white"/>
<path d="M30.6571 48.64C31.1691 48.64 31.5531 49.024 31.5531 49.536C31.5531 50.048 31.1691 50.432 30.6571 50.432C30.1451 50.432 29.7611 50.048 29.7611 49.536C29.7611 49.024 30.1451 48.64 30.6571 48.64ZM30.6571 48C29.8251 48 29.1211 48.704 29.1211 49.536C29.1211 50.368 29.8251 51.072 30.6571 51.072C31.4891 51.072 32.1931 50.368 32.1931 49.536C32.1931 48.704 31.4891 48 30.6571 48Z" fill="#2A2866"/>
<path d="M34.4347 50.7523C33.7307 50.7523 33.2188 50.1763 33.2188 49.5363C33.2188 48.8323 33.7947 48.3203 34.4347 48.3203C35.0747 48.3203 35.6507 48.8963 35.6507 49.5363C35.6507 50.2403 35.0747 50.7523 34.4347 50.7523Z" fill="white"/>
<path d="M34.4344 48.64C34.9464 48.64 35.3304 49.024 35.3304 49.536C35.3304 50.048 34.9464 50.432 34.4344 50.432C33.9224 50.432 33.5384 50.048 33.5384 49.536C33.4744 49.024 33.9224 48.64 34.4344 48.64ZM34.4344 48C33.6024 48 32.8984 48.704 32.8984 49.536C32.8984 50.368 33.6024 51.072 34.4344 51.072C35.2664 51.072 35.9704 50.368 35.9704 49.536C35.9704 48.704 35.2664 48 34.4344 48Z" fill="#2A2866"/>
<path d="M38.0168 50.7523C37.3128 50.7523 36.8008 50.1763 36.8008 49.5363C36.8008 48.8323 37.3768 48.3203 38.0168 48.3203C38.6568 48.3203 39.2328 48.8963 39.2328 49.5363C39.2968 50.2403 38.7208 50.7523 38.0168 50.7523Z" fill="white"/>
<path d="M38.0165 48.64C38.5285 48.64 38.9125 49.024 38.9125 49.536C38.9125 50.048 38.5285 50.432 38.0165 50.432C37.5045 50.432 37.1205 50.048 37.1205 49.536C37.1205 49.024 37.5685 48.64 38.0165 48.64ZM38.0165 48C37.1845 48 36.4805 48.704 36.4805 49.536C36.4805 50.368 37.1845 51.072 38.0165 51.072C38.8485 51.072 39.5525 50.368 39.5525 49.536C39.6165 48.704 38.9125 48 38.0165 48Z" fill="#2A2866"/>
</g>
<defs>
<radialGradient id="paint0_radial_1746_10679" cx="0" cy="0" r="1" gradientUnits="userSpaceOnUse" gradientTransform="translate(28.9952 28.7788) scale(9.0745 9.7451)">
<stop stop-color="#54B848"/>
<stop offset="0.7056" stop-color="#54B848" stop-opacity="0"/>
</radialGradient>
<radialGradient id="paint1_radial_1746_10679" cx="0" cy="0" r="1" gradientUnits="userSpaceOnUse" gradientTransform="translate(37.9128 28.0501) scale(9.0745 9.7451)">
<stop stop-color="#54B848"/>
<stop offset="0.7056" stop-color="#54B848" stop-opacity="0"/>
</radialGradient>
<linearGradient id="paint2_linear_1746_10679" x1="54.329" y1="38.206" x2="52.2987" y2="38.2174" gradientUnits="userSpaceOnUse">
<stop stop-color="white"/>
<stop offset="1" stop-color="#B4B7DC"/>
</linearGradient>
<linearGradient id="paint3_linear_1746_10679" x1="12.7589" y1="42.4271" x2="14.7716" y2="42.1605" gradientUnits="userSpaceOnUse">
<stop stop-color="white"/>
<stop offset="1" stop-color="#B4B7DC"/>
</linearGradient>
<clipPath id="clip0_1746_10679">
<rect width="64" height="64" fill="white"/>
</clipPath>
</defs>
</svg>
