<svg width="200" height="200" viewBox="0 0 200 200" fill="none" xmlns="http://www.w3.org/2000/svg">
<path d="M50.0013 66.48C45.5213 67.68 40.0013 66.64 36.5613 65.68C36.3213 65.52 34.7213 64.64 34.1613 62.88C33.6813 61.44 34.0013 59.68 35.1213 57.84C36.7213 55.12 39.8413 54.4 42.2413 54.24C45.8413 54.08 49.2013 55.2 49.6813 55.92C50.6413 57.2 50.3213 58.96 50.3213 59.04C50.3213 59.12 50.3213 59.2 50.4013 59.28C48.5613 59.36 45.1213 59.76 44.4813 61.6C42.1613 62.16 38.6413 59.84 38.5613 59.84C38.4013 59.76 38.2413 59.76 38.1613 59.92C38.0813 60.08 38.0813 60.24 38.2413 60.32C38.3213 60.4 40.3213 61.68 42.4013 62.16C43.0413 62.32 43.7613 62.32 44.4013 62.24C44.3213 62.8 44.4813 63.28 44.8013 63.68C45.2013 64.16 45.8413 64.4 46.3213 64.56C46.7213 64.64 46.9613 64.64 46.9613 64.64C47.1213 64.64 47.2813 64.48 47.2813 64.32C47.2813 64.16 47.1213 64 46.9613 64C46.9613 64 45.7613 64 45.2013 63.28C44.9613 62.96 44.8813 62.48 44.9613 61.84C45.3613 60.08 49.6813 59.76 51.4413 59.76C52.2413 60.24 53.2813 61.2 53.0413 62.64C52.6413 64.88 50.3213 66.32 50.0013 66.48Z" fill="#545580"/>
<path d="M49.917 67.1201C50.317 68.5601 51.917 75.0401 52.397 81.3601C52.877 87.6801 52.797 90.6401 52.717 91.2001L50.717 93.4401C50.237 93.7601 43.677 98.1601 37.597 99.2001L33.437 99.6001C32.877 98.8001 29.437 94.0001 29.517 84.5601C29.597 75.2001 32.557 66.8001 33.117 65.2001C34.877 65.7601 43.277 68.8001 49.917 67.1201Z" fill="white"/>
<path d="M50.8762 94L53.2762 97.04C49.9962 101.52 43.0363 104.8 41.7563 105.44C40.3963 103.36 39.0363 101.12 38.1562 99.68C43.7562 98.56 49.6762 94.8 50.8762 94Z" fill="#5DB075"/>
<path d="M53.1181 98.16C51.4381 102.4 50.1581 106.72 49.1981 111.2C48.4781 111.04 46.5581 110.56 45.1981 109.84C44.5581 109.52 43.3581 107.84 42.0781 105.92C43.5181 105.28 49.5981 102.4 53.1181 98.16Z" fill="url(#paint0_linear_1614_53179)"/>
<g opacity="0.25">
<path d="M49.28 63.36C51.12 64.08 49.04 66.64 48.96 66.72C44.72 67.52 39.76 66.56 36.56 65.68C36.32 65.52 34.72 64.64 34.16 62.88C34.08 62.72 34.08 62.48 34 62.32C34 62.32 35.44 57.68 38.96 56.16C38.96 56.16 39.28 57.2 40 58.08C40.8 58.96 45.84 60.16 45.84 60.16C45.2 60.48 44.64 60.96 44.48 61.52C42.16 62.08 38.64 59.76 38.56 59.76C38.4 59.68 38.24 59.68 38.16 59.84C38.08 60 38.08 60.16 38.24 60.24C38.32 60.32 40.32 61.6 42.4 62.08C43.04 62.24 43.76 62.24 44.4 62.16C44.32 62.72 44.48 63.2 44.8 63.6C45.2 64.08 45.84 64.32 46.32 64.48C46.72 64.56 46.96 64.56 46.96 64.56C47.12 64.56 47.28 64.4 47.28 64.24C47.28 64.08 47.12 63.92 46.96 63.92C46.96 63.92 45.76 63.92 45.2 63.2C45.04 63.04 44.96 62.8 44.96 62.48C45.76 62.88 47.68 62.64 49.28 63.36Z" fill="#232664"/>
</g>
<g opacity="0.15">
<path d="M33.1213 70.48L33.8413 68.64L36.4813 69.2C36.4813 69.2 34.5613 89.92 41.2013 90.64C47.8413 91.36 51.1213 86.48 51.1213 86.48C51.4413 88.8 51.5213 91.68 51.4413 92.64L50.8013 93.36C50.3213 93.68 43.7613 98.08 37.6813 99.12L35.5213 99.28L34.6413 99.12C27.7613 84.72 33.1213 70.48 33.1213 70.48Z" fill="#252468"/>
</g>
<g opacity="0.25">
<path d="M44.3203 97.6C44.6403 97.44 45.0403 97.28 45.4403 97.12L48.0003 101.92C47.7603 102.08 47.6003 102.16 47.3603 102.32C46.6403 101.12 44.4003 97.52 44.3203 97.6Z" fill="#252468"/>
</g>
<g opacity="0.25">
<path d="M49.7597 106.4L49.2797 109.76C49.2797 109.76 47.4397 109.36 45.9197 108.08C45.4397 107.6 44.5597 106.48 43.6797 105.12C44.4797 104.72 45.4397 104.16 46.5597 103.52C46.8797 104 47.1197 104.4 47.2797 104.56C47.8397 105.44 49.7597 106.4 49.7597 106.4Z" fill="#252468"/>
</g>
<g opacity="0.25">
<path d="M40.1562 99.44L41.8362 98.64C42.3162 98.48 42.7163 98.32 43.1163 98.16H43.0362C43.0362 98.16 44.8763 101.12 46.1562 103.12C45.1163 103.76 44.0762 104.32 43.2762 104.72C41.7562 102.24 40.1562 99.52 40.1562 99.44Z" fill="#252468"/>
</g>
<g opacity="0.4">
<path d="M47.1962 56.24C45.5962 55.68 38.3163 55.36 38.3163 55.36C38.3163 55.36 38.1562 55.28 38.1562 55.12C39.5163 54.48 40.9562 54.24 42.2362 54.24C45.8362 54.08 49.1962 55.2 49.6762 55.92C50.6362 57.2 50.3163 58.96 50.3163 59.04C50.3163 59.12 50.3162 59.2 50.3962 59.28C49.9162 59.28 49.4362 59.36 48.7962 59.44C48.8762 58.8 48.6362 56.72 47.1962 56.24Z" fill="white"/>
</g>
<g opacity="0.4">
<path d="M49.3609 61.04C47.1209 61.12 45.4409 62 44.9609 62.32C44.9609 62.16 44.9609 62 45.0409 61.84C45.4409 60.08 49.7609 59.76 51.5209 59.76C52.0809 60.08 52.7209 60.64 52.9609 61.44C52.5609 61.2 51.3609 60.96 49.3609 61.04Z" fill="white"/>
</g>
<g opacity="0.4">
<path d="M36.2422 66.8C36.2422 66.8 42.1622 70.24 48.4822 69.44C48.4822 69.44 50.4822 76.32 50.8822 80.72C51.2022 85.12 52.5622 86.72 52.5622 86.72C52.5622 86.72 51.9222 72.64 50.0022 67.36C50.0022 67.36 42.1622 67.52 36.4022 66.16L36.2422 66.8Z" fill="white"/>
</g>
<path d="M48.9628 112.48C49.1228 112.48 49.2028 112.56 49.2028 112.56C49.7628 112.64 50.2428 112.32 50.4028 111.76C50.4828 111.2 50.1628 110.72 49.6028 110.56C49.6028 110.56 47.0428 110.08 45.5228 109.2C44.7228 108.72 41.7628 104.32 39.2028 100.08C44.0828 98.88 48.8028 96.08 50.6428 94.88L52.9628 97.84C53.2828 98.24 53.9228 98.32 54.3228 98C54.7228 97.68 54.8028 97.04 54.4828 96.64L51.6028 92.96C51.2828 92.56 50.7228 92.48 50.2428 92.72C50.1628 92.8 43.5228 97.36 37.3628 98.4C37.0428 98.48 36.8028 98.64 36.6428 98.96C36.4828 99.28 36.4828 99.6 36.7228 99.84C38.0828 102.16 42.7228 109.92 44.4828 110.88C46.0828 111.84 48.1628 112.32 48.9628 112.48Z" fill="#252468"/>
<path d="M41.4412 106.72C41.6012 106.8 41.8412 106.72 42.0012 106.64C42.3212 106.48 50.4812 102.96 54.3212 97.6801C54.6412 97.2001 54.5612 96.6401 54.0812 96.3201C53.6012 96.0001 53.0412 96.08 52.7212 96.56C49.2012 101.36 41.3612 104.8 41.2812 104.8C40.8012 105.04 40.5612 105.6 40.7212 106.08C40.8812 106.48 41.1212 106.72 41.4412 106.72Z" fill="#252468"/>
<path d="M33.1996 100.8C33.2796 100.8 33.3596 100.8 33.5196 100.8L37.8396 100.4C38.3996 100.32 38.7996 99.84 38.7196 99.36C38.6396 98.8 38.1596 98.4 37.6796 98.48L33.9196 98.8C33.0396 97.52 30.3196 92.88 30.3996 84.56C30.4796 76.24 32.7996 68.64 33.6796 66.08C36.2396 66.96 43.4396 69.2 49.4396 67.92C49.9996 70.08 51.3596 75.84 51.7596 81.36C52.1596 87.04 52.1596 89.92 52.1596 90.8L50.3196 92.88C49.9196 93.28 49.9996 93.92 50.3996 94.32C50.7996 94.72 51.4396 94.64 51.8396 94.24L53.9196 91.92C54.0796 91.76 54.1596 91.52 54.1596 91.36C54.1596 91.28 54.3196 88.48 53.8396 81.28C53.2796 74.08 51.2796 66.8 51.1996 66.48C51.1196 66.24 50.9596 66 50.7196 65.84C50.4796 65.68 50.2396 65.68 49.9996 65.76C43.1196 67.68 33.5996 63.92 33.5196 63.84C33.2796 63.76 33.0396 63.76 32.7196 63.84C32.4796 63.92 32.3196 64.16 32.1596 64.4C31.9996 64.8 28.3996 73.92 28.3996 84.48C28.3196 95.28 32.5596 100.24 32.7196 100.48C32.7996 100.64 32.9596 100.72 33.1996 100.8Z" fill="#252468"/>
<path d="M36.2417 66.88C36.7217 66.96 37.1217 66.8 37.3617 66.32C37.6017 65.84 37.3617 65.2 36.8817 64.96C36.8017 64.96 35.3617 64.16 34.8017 62.56C34.4017 61.28 34.7217 59.76 35.7617 58.08C36.8017 56.32 38.7217 55.28 41.3617 54.96C45.1217 54.56 48.6417 55.76 49.1217 56.24C49.8417 57.28 49.6817 58.8 49.6817 58.8C49.6017 59.28 49.9217 59.76 50.3217 59.92C50.4017 59.92 52.7217 60.8 52.3217 62.48C51.9217 64.56 49.6017 65.84 49.6017 65.84C49.1217 66.08 48.9617 66.72 49.2017 67.2C49.4417 67.68 50.0817 67.84 50.5617 67.6C50.7217 67.52 53.6817 65.84 54.2417 62.88C54.7217 60.64 52.9617 59.12 51.6017 58.4C51.6017 57.6 51.4417 56.24 50.6417 55.12C49.7617 53.84 45.6017 52.8 42.0817 52.96C38.2417 53.12 35.4417 54.56 33.9217 57.12C32.6417 59.36 32.2417 61.36 32.8017 63.2C33.6017 65.68 35.7617 66.8 35.9217 66.8C36.1617 66.88 36.2417 66.88 36.2417 66.88Z" fill="#252468"/>
<path d="M46.1586 65.12C46.5586 65.2 46.8786 65.2 46.9586 65.2C47.5186 65.2 47.9186 64.8 47.9986 64.24C47.9986 63.68 47.5986 63.28 47.0386 63.2C46.7986 63.2 46.0786 63.04 45.8386 62.72C45.7586 62.64 45.5986 62.48 45.7586 61.92C45.9986 60.96 48.9586 60.32 51.5986 60.4C52.1586 60.4 52.6386 60 52.6386 59.44C52.6386 58.88 52.2386 58.4 51.6786 58.4C50.4786 58.4 44.5586 58.4 43.9186 61.52C43.6786 62.72 43.9986 63.52 44.3986 64C44.7986 64.72 45.5986 64.96 46.1586 65.12Z" fill="#252468"/>
<path d="M42.2399 62.72C43.1999 62.96 44.1599 62.96 45.0399 62.72C45.5999 62.56 45.8399 62 45.6799 61.44C45.5199 60.88 44.9599 60.64 44.3999 60.8C42.7999 61.28 39.8399 59.76 38.9599 59.12C38.4799 58.8 37.9199 58.96 37.5999 59.44C37.2799 59.92 37.4399 60.48 37.8399 60.8C38.2399 61.04 40.1599 62.24 42.2399 62.72Z" fill="#252468"/>
<path d="M152.319 134.24C152.319 134.24 145.119 157.92 123.919 165.52C102.719 173.12 84.7993 168.4 71.6793 161.04C58.5593 153.68 51.8393 138.96 49.9993 132.4C48.1593 125.84 48.8793 117.76 49.7593 113.36L50.7993 113.92C50.7993 113.92 60.8793 124.16 70.5593 128.56C70.5593 128.56 74.1593 139.2 74.5593 139.28C75.0393 139.36 76.8793 139.76 76.8793 139.76L77.1993 140.96C77.1993 140.96 80.9593 143.52 83.1993 147.28L110.079 151.04C110.079 151.04 117.759 156.4 120.719 148.4L121.999 147.2L126.879 145.92L132.319 139.52C132.319 139.52 151.279 133.36 151.359 133.36C151.519 133.36 151.919 133.44 152.079 133.52C152.319 133.6 152.319 134.24 152.319 134.24Z" fill="white"/>
<path d="M98.0832 59.4401C104.723 57.9201 109.683 58.0801 113.923 58.9601C117.763 59.7601 120.963 61.2801 124.083 62.7201C132.163 66.4801 138.483 72.9601 141.923 80.8801C144.803 87.4401 145.443 94.4001 144.003 101.6C142.883 107.12 140.003 111.36 135.603 114.24C125.683 120.64 109.603 118.96 97.9232 116.4C90.3232 114.72 65.6032 108 68.2432 91.1201C70.5632 76.4801 83.3632 62.8001 98.0832 59.4401Z" fill="#252468"/>
<path d="M84.16 58.48C66.08 70.96 53.28 91.2 50 112.64C50.96 113.68 59.76 123.04 70.72 128.32C70.8 128.32 70.88 128.4 70.88 128.48C72.16 132.24 74.32 138.24 74.8 139.04L77.12 139.52C77.92 138.08 82.56 129.6 86.64 129.12C90.64 128.72 118.32 134.4 119.84 136C121.2 137.36 121.2 145.36 121.2 147.44L126.56 145.92L132.32 139.6C132.32 139.52 132.4 139.52 132.48 139.52C132.64 139.44 147.44 135.2 152.48 132.24C152.96 130.88 158.72 115.2 153.2 95.12C150.32 84.64 144.72 74.16 137.36 65.68C129.84 56.96 121.12 51.12 112.8 49.36C105.52 47.84 94.56 51.36 84.16 58.48ZM78.24 70.48C83.76 64.64 90.8 60.56 98 58.88C110.88 55.92 118 59.28 124.32 62.24C132.48 66.08 138.96 72.64 142.48 80.72C145.36 87.44 146.08 94.48 144.56 101.76C143.36 107.44 140.48 111.84 135.92 114.72C125.84 121.28 109.6 119.52 97.76 116.96C90 115.28 64.96 108.4 67.68 91.04C68.8 83.68 72.56 76.4 78.24 70.48Z" fill="white"/>
<path d="M128.718 149.28C128.558 149.44 120.078 151.12 120.078 151.12C120.558 150.16 120.878 149.2 121.118 148.16L126.718 146.56C126.798 146.56 126.798 146.48 126.878 146.48L132.638 140.16C133.598 139.92 145.998 135.6 151.998 133.28C151.598 134 151.518 135.92 150.558 137.68C150.558 137.68 136.558 141.68 134.318 142.48C132.078 143.12 128.878 149.12 128.718 149.28Z" fill="#232664"/>
<path d="M139.201 147.36C138.561 147.6 135.041 147.68 134.881 147.84C134.721 148 130.721 152.16 128.961 153.28C128.961 153.28 133.841 146.64 134.081 146.48C134.321 146.32 141.361 145.68 141.281 145.76C141.201 146 139.841 147.12 139.201 147.36Z" fill="white"/>
<path d="M62.4834 132.16C62.4034 131.92 59.2034 130.32 58.7234 129.92C58.2434 129.44 57.5234 127.84 57.5234 127.68C57.5234 127.52 63.6834 131.04 63.7634 131.28C63.9234 131.52 65.6034 139.6 65.6034 139.6C64.4834 137.76 62.5634 132.32 62.4834 132.16Z" fill="white"/>
<path d="M79.2822 136.88C80.4022 134.56 84.0822 131.68 85.2822 130.16C85.6022 129.84 85.9222 129.52 86.1622 129.28C86.1622 129.28 86.2422 129.28 86.2422 129.2C86.7222 128.96 89.7622 129.44 94.0022 130.24C96.4022 130.72 98.9622 131.28 101.122 131.76C101.362 131.84 101.522 131.84 101.762 131.92C102.162 132 102.482 132.08 102.882 132.16C103.282 132.24 103.682 132.32 104.002 132.4C104.242 132.48 104.482 132.48 104.642 132.56C106.802 133.04 109.362 133.6 111.762 134.16C116.002 135.2 118.882 136.08 119.282 136.48L119.362 136.56C119.522 136.88 119.682 137.28 119.842 137.68C120.322 139.52 120.482 142.96 120.482 145.52C120.402 145.76 120.322 146 120.242 146.16C120.242 146.16 117.922 137.84 117.602 137.68C117.442 137.6 111.442 136.24 106.242 135.12V135.2C106.242 135.2 88.1622 131.36 86.6422 132C84.6422 132.88 78.2422 138.88 78.2422 138.88C78.4022 138.8 79.2822 137.12 79.2822 136.88Z" fill="white"/>
<path d="M111.917 134.16C109.597 133.6 107.037 133.04 104.797 132.56C107.357 133.12 109.757 133.68 111.917 134.16Z" fill="#232664"/>
<path d="M111.917 134.16C109.597 133.6 107.037 133.04 104.797 132.56C107.357 133.12 109.757 133.68 111.917 134.16Z" fill="white"/>
<path d="M145.68 99.1201C145.68 99.1201 147.2 109.92 136.96 116.4C126.72 122.88 114.96 123.52 95.2801 118.72C75.6001 113.92 68.4001 107.28 66.1601 99.28C63.9201 91.28 69.7601 82.8 69.7601 82.8C69.7601 82.8 63.1201 95.76 73.8401 105.6C84.5601 115.44 107.68 120.96 124.88 118.48C142.08 115.92 144.24 102.96 145.68 99.1201Z" fill="white"/>
<path d="M145.842 146.32C145.842 146.32 123.682 171.04 92.0816 164.16C60.5616 157.28 49.6016 129.2 49.6016 129.2C49.6016 129.2 52.0816 159.76 88.7216 167.68C125.282 175.6 141.202 154.72 145.762 146.8" fill="#252468"/>
<path d="M71.5188 134.24C70.7987 132.16 69.9987 130.08 69.7587 129.28C58.1587 123.6 49.3587 113.84 48.9587 113.44C48.7987 113.2 48.7188 112.96 48.7188 112.72C50.4788 100.88 54.8787 89.84 61.6787 79.68C67.5187 70.96 75.0388 63.36 83.4388 57.6C94.3188 50.16 105.359 46.64 112.959 48.32C121.519 50.16 130.479 56.08 138.159 65.04C145.599 73.68 151.279 84.24 154.239 94.96C160.079 116.32 153.759 132.32 153.439 132.96C153.359 133.12 153.199 133.28 153.039 133.44C148.239 136.32 134.959 140.16 132.879 140.8L127.279 146.96C127.199 147.12 127.039 147.2 126.879 147.2L121.119 148.8C120.799 148.88 120.559 148.8 120.319 148.64C120.079 148.48 119.919 148.16 119.919 147.92C119.999 143.28 119.599 137.84 118.879 136.96C116.959 135.68 90.8788 129.92 86.6388 130.4C83.9188 130.72 79.8388 136.64 77.9188 140.32C77.7588 140.72 77.2787 140.88 76.8787 140.8L74.2388 140.24C73.7588 140.08 73.6788 140 71.5188 134.24ZM86.5587 128.48C88.9587 128.24 97.3587 129.68 104.399 131.2C108.799 132.16 119.119 134.4 120.319 135.6C121.679 137.04 121.839 143.36 121.839 146.64L126.159 145.44L131.759 139.28C131.839 139.12 131.999 139.04 132.159 139.04C132.319 138.96 146.639 134.88 151.839 132C152.639 129.76 157.679 114.64 152.479 95.44C149.599 85.04 144.079 74.64 136.799 66.24C129.359 57.6 120.719 51.92 112.559 50.08C105.519 48.56 94.7188 52 84.4787 59.04C66.6387 71.36 53.9987 91.28 50.6387 112.48C52.3187 114.24 60.6387 122.8 70.9587 127.76C71.1987 127.84 71.3588 128.08 71.4388 128.32C72.7188 131.92 74.5587 137.2 75.1987 138.48L76.7987 138.8C77.9987 136.4 82.3987 128.96 86.5587 128.48Z" fill="#252468"/>
<path d="M76.7223 109.44C69.2023 104.4 65.9223 98.16 67.0423 91.04C68.2423 83.52 72.0023 76.08 77.7623 70.08C83.3623 64.16 90.5623 60 97.8423 58.32C110.962 55.36 118.162 58.72 124.562 61.76C132.882 65.68 139.442 72.32 143.042 80.56C146.002 87.36 146.722 94.64 145.202 102C144.002 107.84 140.962 112.32 136.322 115.36C126.082 122 109.682 120.32 97.6823 117.68C92.8023 116.64 83.7623 114.16 76.7223 109.44ZM123.762 63.36C117.362 60.32 110.722 57.2 98.2423 60.08C83.7623 63.36 71.1223 76.8 68.8823 91.28C66.3223 107.6 90.5623 114.24 98.0023 115.84C109.602 118.4 125.442 120.08 135.202 113.76C139.442 111.04 142.162 106.88 143.282 101.52C144.722 94.48 144.082 87.68 141.282 81.2C137.922 73.44 131.682 67.12 123.762 63.36Z" fill="#252468"/>
<path d="M91.1166 169.2C105.837 172.4 119.677 170.24 132.317 162.56C140.477 157.68 145.837 149.76 148.797 144.08C152.077 137.92 153.357 132.96 153.437 132.72C153.597 132.24 153.277 131.68 152.797 131.6C152.317 131.44 151.757 131.76 151.677 132.24C151.597 132.4 146.397 152 131.357 160.96C114.157 171.28 94.7966 171.28 73.6766 161.04C54.8766 151.84 46.9566 128.88 50.4766 112.88C50.5566 112.4 50.2366 111.92 49.7566 111.76C49.2766 111.68 48.7966 112 48.6366 112.48C46.7966 121.12 47.9966 131.36 52.0766 140.48C56.4766 150.4 63.8366 158.32 72.7966 162.64C79.1966 165.76 85.2766 167.92 91.1166 169.2Z" fill="#252468"/>
<path d="M80.1591 38.24C79.9191 36.8 80.1591 35.44 80.9591 34.32C82.3991 32.24 85.2791 31.28 86.7991 31.12C88.7991 30.96 90.3191 32.32 90.9591 33.04C87.3591 34.16 83.6791 35.76 80.1591 38.24Z" fill="#5DB075"/>
<path d="M148.802 79.36C148.242 78.56 146.002 75.68 141.922 72.72C138.722 70.4 133.922 67.76 127.442 66.32C125.042 65.84 122.402 65.44 119.602 65.36C106.722 64.96 90.3216 69.12 77.6016 73.6C92.4816 60.96 109.042 56.48 120.482 55.04C133.202 53.36 142.482 54.88 142.642 54.96C142.802 54.96 155.602 57.04 156.802 64.48C157.842 71.52 153.362 76.72 148.802 79.36Z" fill="#545580"/>
<path d="M87.0371 47.0401C84.7171 54.1601 88.5571 63.2001 89.2771 64.8001C84.7971 67.3601 80.3971 70.4001 76.0771 74.2401C70.1571 76.4001 65.1171 78.7201 61.7571 80.5601C61.4371 77.7601 60.2371 61.3601 73.1971 45.6801C75.3571 43.0401 77.6771 40.8801 80.1571 39.1201C80.2371 39.1201 80.2371 39.0401 80.2371 39.0401C83.8371 36.4001 87.6771 34.7201 91.5971 33.6001C91.6771 33.6001 91.7571 33.6001 91.7571 33.5201C95.9971 32.4001 100.237 32.0001 104.237 32.0801C99.9971 33.2801 90.4771 36.9601 87.0371 47.0401Z" fill="#5DB075"/>
<path d="M89.6776 64.8C88.9576 63.2 85.3576 54.32 87.5176 47.52C91.6776 35.28 105.118 32.72 106.238 32.48C112.638 32.88 118.238 34.48 121.758 35.68C124.878 36.8 127.678 38.24 130.158 40.16C136.958 45.44 141.038 52.64 141.998 54.56C139.838 54.24 131.358 53.28 120.318 54.72C111.998 55.92 100.878 58.56 89.6776 64.8Z" fill="#5DB075"/>
<g opacity="0.25">
<path d="M151.357 63.68C155.197 70.32 149.117 76.08 147.277 77.52C146.157 76.24 144.397 74.48 141.917 72.72C138.717 70.4 133.917 67.76 127.437 66.32C125.037 65.84 122.397 65.44 119.597 65.36C110.077 65.04 98.7172 67.2 88.2372 70.16C86.2372 70.72 85.1172 71.12 85.1172 71.12C109.277 54.4 146.877 56 151.357 63.68Z" fill="#252468"/>
</g>
<g opacity="0.05">
<path d="M102.642 35.84C101.602 40.8 108.882 51.2 120.082 50.8C131.362 50.4 131.922 44.24 131.922 44.24C136.962 48.32 139.682 54 139.682 54C135.922 53.68 128.962 53.36 120.402 54.48C112.562 55.52 102.322 57.92 91.8416 63.36C90.4816 60.32 88.6416 54.72 89.8416 49.12C93.2816 38.16 102.642 35.84 102.642 35.84Z" fill="#252468"/>
</g>
<g opacity="0.05">
<path d="M67.3638 59.6C67.3638 59.6 68.8838 61.36 75.0438 60.08C81.2038 58.8 86.0038 51.76 86.0038 51.76C86.0838 51.68 86.2438 51.92 86.3238 52.4C86.4038 58.08 88.7238 63.6 89.2838 64.8C84.8038 67.36 80.4038 70.4 76.0838 74.24C71.2838 76 67.0438 77.84 63.8438 79.44C62.6438 69.44 67.3638 59.6 67.3638 59.6Z" fill="#252468"/>
</g>
<g opacity="0.25">
<path d="M81.4399 35.84C81.9999 34.88 84.7199 33.68 86.2399 33.44C87.3599 33.2 88.3199 33.68 88.7199 33.92C86.1599 34.88 83.5999 36.08 81.1199 37.76C81.0399 37.28 81.0399 36.56 81.4399 35.84Z" fill="#232664"/>
</g>
<g opacity="0.4">
<path d="M150.48 59.28C143.12 54.88 113.04 54.4 95.6797 62.16C104.8 57.92 113.6 56 120.48 55.04C133.2 53.36 142.48 54.88 142.64 54.96C142.8 54.96 155.6 57.04 156.8 64.48C157.36 68.4 156.24 71.76 154.4 74.48C155.04 71.68 156.88 63.04 150.48 59.28Z" fill="white"/>
</g>
<g opacity="0.4">
<path d="M76.8031 44C70.9631 49.68 67.0431 55.76 65.2031 58.8C66.9631 54.56 69.4431 50.08 73.1231 45.6C75.2831 42.96 77.6031 40.8 80.0831 39.04C80.1631 39.04 80.1631 38.96 80.1631 38.96C83.7631 36.32 87.6031 34.64 91.5231 33.52C91.6031 33.52 91.6831 33.52 91.6831 33.44C95.9231 32.32 100.163 31.92 104.163 32C102.723 32.4 100.643 33.12 98.4831 34.24C96.7231 34.56 84.3231 36.72 76.8031 44Z" fill="white"/>
</g>
<path d="M61.1162 81.8401C60.8762 81.6801 60.6362 81.4401 60.6362 81.1201C60.6362 80.9601 59.8362 76.4001 60.9562 69.6001C61.9162 63.3601 64.7162 54.0001 72.3162 44.8001C78.6362 37.2001 86.7962 32.6401 96.7162 31.2001C106.796 29.8401 116.236 32.0801 122.396 34.1601C125.676 35.2801 128.556 36.8801 131.116 38.8001C138.316 44.4001 142.396 51.8401 143.356 53.6801C145.836 54.1601 156.876 56.6401 157.996 64.1601C159.196 71.9201 154.236 77.6801 149.196 80.4801C148.796 80.7201 148.236 80.5601 147.996 80.1601C147.996 80.1601 145.756 76.8801 141.196 73.6001C136.956 70.5601 129.836 66.8801 119.596 66.5601C98.7162 65.8401 70.3962 76.9601 62.0762 81.6801C61.8362 81.7601 61.6762 81.8401 61.4362 81.7601C61.2762 81.8401 61.1962 81.8401 61.1162 81.8401ZM142.236 72.2401C145.836 74.8001 147.996 77.3601 148.876 78.5601C153.116 75.9201 157.036 71.0401 156.076 64.5601C155.036 57.6001 142.636 55.6001 142.476 55.6001C142.156 55.5201 141.916 55.3601 141.756 55.1201C141.676 55.0401 137.596 46.4801 129.836 40.4801C127.436 38.6401 124.716 37.1201 121.596 36.0801C112.316 32.8801 88.9562 27.4401 73.5962 46.0801C66.3162 54.9601 63.5962 63.9201 62.7162 69.9201C61.9962 74.3201 62.1562 77.8401 62.2362 79.6001C73.3562 73.6001 100.396 64.2401 119.516 64.8801C122.396 64.9601 125.036 65.3601 127.436 65.8401C134.156 67.2001 139.036 69.9201 142.236 72.2401Z" fill="#252468"/>
<path d="M75.9999 75.3601C76.2399 75.4401 76.5599 75.3601 76.7999 75.1201C91.8399 61.7601 108.88 57.1201 120.56 55.6001C133.2 53.9201 142.48 55.4401 142.56 55.5201C143.04 55.6001 143.52 55.2801 143.6 54.8001C143.68 54.3201 143.36 53.8401 142.88 53.7601C142.48 53.6801 133.36 52.1601 120.4 53.8401C108.48 55.3601 91.0399 60.1601 75.5999 73.8401C75.1999 74.1601 75.1999 74.8001 75.5199 75.1201C75.5999 75.2801 75.7599 75.3601 75.9999 75.3601Z" fill="#252468"/>
<path d="M89.4382 65.7601C89.5982 65.8401 89.8382 65.7601 89.9982 65.6801C90.4782 65.4401 90.6382 64.8801 90.4782 64.4801C90.3982 64.4001 85.9182 54.6401 88.2382 47.4401C92.3982 35.1201 106.398 32.8001 106.558 32.8001C107.038 32.7201 107.438 32.2401 107.358 31.7601C107.278 31.2801 106.798 30.8801 106.318 30.9601C106.158 30.9601 102.478 31.6001 98.1581 33.7601C92.3981 36.7201 88.3982 41.2001 86.4782 46.8001C83.9182 54.7201 88.6382 64.8001 88.7982 65.2801C88.9582 65.5201 89.1982 65.6801 89.4382 65.7601Z" fill="#252468"/>
<path d="M79.8382 39.68C79.9982 39.68 80.0782 39.68 80.2382 39.68C80.7182 39.52 81.0382 39.04 80.8782 38.56C80.5582 37.12 80.7182 35.84 81.5182 34.72C82.8782 32.8 85.4382 31.92 86.8782 31.84C89.0382 31.68 90.7982 33.84 90.7982 33.84C91.1182 34.24 91.6782 34.32 92.0782 34C92.4782 33.68 92.5582 33.12 92.2382 32.72C92.1582 32.56 89.9182 29.68 86.6382 30C84.5582 30.16 81.5182 31.44 79.9182 33.68C78.7982 35.2 78.4782 37.04 78.9582 39.04C79.1982 39.36 79.4382 39.6 79.8382 39.68Z" fill="#252468"/>
<path opacity="0.2" d="M102.08 190.56C124.216 190.56 142.16 188.948 142.16 186.96C142.16 184.972 124.216 183.36 102.08 183.36C79.9444 183.36 62 184.972 62 186.96C62 188.948 79.9444 190.56 102.08 190.56Z" fill="#232664"/>
<path d="M78.3206 110.72L71.6806 141.28C71.1206 143.92 73.9206 146.72 78.0006 147.6L116.481 156C120.481 156.88 124.241 155.44 124.801 152.88L131.441 122.32C132.001 119.68 129.201 116.88 125.121 116L86.6406 107.6C82.6406 106.72 78.8806 108.08 78.3206 110.72Z" fill="#5DB075"/>
<g opacity="0.05">
<path d="M82.2381 130.48C83.5181 134 88.5581 135.12 88.5581 135.12L100.398 137.68L112.238 140.24C112.238 140.24 117.278 141.36 119.918 138.64C122.558 136 125.918 124.32 128.878 120.64L123.438 145.52C123.438 145.52 121.438 148.64 118.398 147.92C115.358 147.2 99.0381 143.68 99.0381 143.68C99.0381 143.68 82.7981 140.16 79.6781 139.44C76.6381 138.8 76.0781 135.12 76.0781 135.12L81.5181 110.24C82.7181 114.88 80.8781 126.88 82.2381 130.48Z" fill="#252468"/>
</g>
<path d="M70.4783 138.16L76.0783 112.24C77.0383 107.76 81.4383 104.96 85.9183 105.92L126.558 114.72C131.038 115.68 133.838 120.08 132.878 124.56L127.278 150.48C126.318 154.96 121.918 157.76 117.438 156.8L76.7983 148C72.3183 147.04 69.4383 142.56 70.4783 138.16ZM85.5183 107.76C82.0783 107.04 78.6383 109.2 77.9183 112.64L72.3183 138.56C71.5983 142 73.7583 145.44 77.1983 146.16L117.838 154.96C121.278 155.68 124.718 153.52 125.438 150.08L131.038 124.16C131.758 120.72 129.598 117.28 126.158 116.56L85.5183 107.76Z" fill="#252468"/>
<path d="M153.203 126.88C154.563 125.36 155.363 123.6 155.683 122.64C157.443 126.16 157.843 129.52 157.523 132.56C156.803 131.04 155.363 128.48 153.203 126.88Z" fill="url(#paint1_linear_1614_53179)"/>
<path d="M130.083 135.36C130.083 138.64 129.363 144.32 125.283 148.96C122.643 149.36 120.723 148.72 119.603 147.04C117.763 144.16 118.723 138.72 120.803 135.84C123.443 132.16 129.043 134.8 130.083 135.36Z" fill="#545580"/>
<path d="M130.718 135.28C130.718 135.2 130.718 135.2 130.718 135.12C130.718 134.08 130.638 133.28 130.638 132.88C135.118 132.08 139.038 130.08 141.598 128.72C143.118 127.92 144.318 127.36 144.878 127.28C146.398 127.28 148.638 129.28 148.798 129.36C149.038 129.68 154.478 136.24 153.358 143.2C153.278 146.24 150.318 151.52 150.238 151.6C150.238 151.6 146.958 156.24 138.398 154.32C138.238 154.32 138.158 154.24 137.998 154.24C130.318 152.4 126.638 149.84 125.758 149.12C129.998 144.48 130.718 138.56 130.718 135.28Z" fill="white"/>
<path d="M149.523 129.36C150.883 128.88 151.923 128.16 152.803 127.28C155.363 129.28 157.123 132.88 157.443 133.6C156.803 137.52 155.123 140.64 154.163 142.16C154.563 136.16 150.643 130.8 149.523 129.36Z" fill="#5DB075"/>
<path d="M118.797 141.36C119.037 139.6 119.597 137.92 120.397 136.56L120.797 136.16C120.797 138.4 126.317 144.56 128.477 143.84C127.837 145.44 126.877 147.04 125.677 148.56C120.077 147.68 118.877 143.6 118.797 141.36Z" fill="#232664"/>
<path d="M157.437 133.6C156.797 137.52 155.117 140.64 154.157 142.16C154.317 139.44 153.677 136.88 152.797 134.8C153.997 133.28 154.877 131.6 155.437 130.08C156.477 131.68 157.197 133.2 157.437 133.6Z" fill="#252468"/>
<path d="M138.403 152.96C132.083 151.36 128.163 148.24 127.203 147.44C128.403 145.6 129.203 143.68 129.763 141.92C130.643 139.68 130.643 136.8 130.643 136.8C130.643 136.8 133.043 143.04 139.763 145.68C145.763 148.08 151.923 145.44 153.363 142.96C153.363 143.04 153.363 143.2 153.283 143.28C153.203 146.32 150.243 151.6 150.163 151.68C150.163 151.68 149.443 152.64 147.923 153.52C146.403 153.92 143.203 154.16 138.403 152.96Z" fill="#252468"/>
<path d="M145.601 129.6C144.641 129.6 137.041 133.6 130.721 134C130.721 133.52 130.641 133.12 130.641 132.8C135.121 132 139.041 130 141.601 128.64C143.121 127.84 144.321 127.28 144.881 127.2C146.401 127.2 148.641 129.2 148.801 129.28C148.881 129.36 149.601 130.24 150.481 131.6L151.761 134.16C151.681 134.4 146.481 129.6 145.601 129.6Z" fill="white"/>
<path d="M153.203 126.88C154.563 125.36 155.363 123.6 155.683 122.64C155.843 123.04 156.083 123.44 156.243 123.84C156.003 124.72 155.363 126.32 154.243 127.84C153.923 127.44 153.603 127.12 153.203 126.88Z" fill="white"/>
<path d="M121.758 134.88C124.558 132.72 129.198 134.88 130.158 135.36C130.158 135.84 130.158 136.4 130.078 137.04C129.038 136.56 124.478 134.4 121.758 134.88Z" fill="white"/>
<path d="M152.803 127.28C153.203 127.6 153.523 127.84 153.843 128.24C152.963 129.28 151.923 130.16 150.483 130.72C150.083 130.08 149.763 129.68 149.523 129.36C150.883 128.88 151.923 128.16 152.803 127.28Z" fill="white"/>
<path d="M153.279 144.16C152.879 144 152.639 143.6 152.719 143.2C153.839 136.4 148.319 129.84 148.239 129.84C147.999 129.6 147.999 129.28 148.079 128.96C148.159 128.64 148.399 128.4 148.719 128.32C153.439 126.88 154.639 121.6 154.639 121.52C154.719 121.12 155.039 120.88 155.439 120.8C155.839 120.72 156.159 120.96 156.399 121.28C159.759 127.52 159.039 133.28 157.839 137.12C156.559 141.2 154.479 143.84 154.399 143.92C154.159 144.16 153.839 144.32 153.519 144.24C153.439 144.24 153.359 144.24 153.279 144.16ZM150.559 129.6C151.839 131.36 154.319 135.36 154.719 139.92C155.199 138.96 155.679 137.84 156.159 136.48C157.519 132.24 157.359 128.08 155.759 124.16C154.959 125.92 153.359 128.32 150.559 129.6Z" fill="#252468"/>
<path d="M157.518 134.56C157.678 134.56 157.918 134.56 158.078 134.48C158.558 134.32 158.798 133.76 158.558 133.28C158.478 133.12 156.558 128.48 153.278 126.16C152.878 125.84 152.318 126 151.998 126.4C151.678 126.8 151.838 127.36 152.238 127.68C155.118 129.68 156.878 134 156.878 134C157.038 134.24 157.278 134.48 157.518 134.56Z" fill="#252468"/>
<path d="M138.243 155.68C147.603 157.68 151.203 152.64 151.363 152.4C151.363 152.4 151.363 152.32 151.443 152.32C151.603 152.08 154.563 146.72 154.723 143.36C154.723 142.88 154.323 142.4 153.843 142.4C153.363 142.4 152.883 142.8 152.883 143.28C152.803 146 150.163 150.88 149.923 151.36C149.603 151.76 146.563 155.52 138.723 153.84C138.563 153.84 138.483 153.76 138.323 153.76C131.763 152.24 128.243 150.08 126.883 149.12C131.763 143.12 131.603 135.92 131.443 133.36C135.763 132.48 139.523 130.56 142.083 129.2C143.283 128.56 144.643 127.84 145.043 127.84C146.003 127.84 147.683 129.04 148.563 129.84C148.963 130.16 149.523 130.16 149.843 129.76C150.163 129.36 150.163 128.8 149.763 128.48C149.523 128.24 146.963 126 144.963 126C144.083 126 142.963 126.64 141.123 127.52C138.403 128.96 134.563 130.88 130.163 131.6C129.683 131.68 129.283 132.16 129.363 132.64C129.363 132.72 130.723 141.84 124.723 148.48C124.403 148.88 124.403 149.44 124.803 149.76C124.963 149.92 128.563 153.2 137.843 155.44C137.923 155.6 138.083 155.68 138.243 155.68Z" fill="#252468"/>
<path d="M122.156 150.16C123.116 150.4 124.236 150.4 125.596 150.16C126.076 150.08 126.476 149.6 126.316 149.12C126.236 148.64 125.756 148.24 125.276 148.4C122.796 148.8 121.116 148.24 120.156 146.72C118.476 144.08 119.436 138.88 121.356 136.24C123.916 132.64 129.916 136 129.996 136C130.476 136.24 131.036 136.08 131.276 135.68C131.516 135.2 131.356 134.64 130.956 134.4C130.636 134.24 123.356 130.24 119.916 135.12C117.596 138.32 116.556 144.32 118.636 147.68C119.196 148.72 120.316 149.76 122.156 150.16Z" fill="#252468"/>
<path d="M73.4402 80.48C74.9602 93.28 85.2002 102.56 96.2402 101.28C107.28 100 115.04 88.56 113.52 75.76C112 62.96 101.76 53.68 90.7202 54.96C79.6802 56.32 71.9202 67.76 73.4402 80.48Z" fill="url(#paint2_radial_1614_53179)"/>
<path d="M104.723 82.32C106.243 95.12 116.483 104.4 127.523 103.12C138.563 101.84 146.323 90.4 144.803 77.6C143.283 64.8 133.043 55.52 122.003 56.8C110.883 58.08 103.203 69.52 104.723 82.32Z" fill="url(#paint3_radial_1614_53179)"/>
<path d="M122.074 44.72C121.434 44.8 120.874 44.88 120.234 44.96C120.154 44.48 119.994 43.92 119.914 43.44C121.834 43.2 123.834 42.96 125.834 42.88C125.914 43.44 125.994 43.92 126.074 44.48C125.434 44.48 124.794 44.56 124.234 44.64C124.474 46.16 124.634 47.6 124.794 49.12C124.154 49.2 123.434 49.2 122.794 49.28C122.554 47.68 122.314 46.16 122.074 44.72Z" fill="#252468"/>
<path d="M113.675 45.9999C113.755 46.3199 113.835 46.6399 113.915 46.9599C114.715 46.7999 115.595 46.6399 116.395 46.4799C116.475 46.9599 116.635 47.4399 116.715 47.9999C115.915 48.1599 115.115 48.3199 114.315 48.4799C114.475 49.1199 114.635 49.6799 114.795 50.3199C114.155 50.4799 113.515 50.5599 112.875 50.7199C112.395 48.7999 111.835 46.8799 111.195 44.9599C112.795 44.5599 114.475 44.2399 116.155 43.9199C116.315 44.3999 116.395 44.8799 116.555 45.4399C115.595 45.5999 114.635 45.7599 113.675 45.9999Z" fill="#252468"/>
<path d="M105.758 46.5599C106.398 46.3199 107.038 46.1599 107.678 45.9199C108.158 47.2799 108.638 48.6399 109.118 50.0799C109.918 49.8399 110.798 49.5999 111.678 49.4399C111.838 49.9199 111.998 50.3999 112.078 50.9599C110.638 51.2799 109.198 51.6799 107.758 52.1599C107.198 50.2399 106.478 48.3999 105.758 46.5599Z" fill="#252468"/>
<path d="M106.56 50.88C106.72 51.36 106.88 51.84 107.04 52.32C105.52 52.8 104.08 53.28 102.72 53.84C101.92 52.08 101.12 50.24 100.32 48.56C101.84 47.92 103.36 47.36 104.88 46.88C105.04 47.36 105.28 47.84 105.44 48.24C104.56 48.56 103.68 48.88 102.72 49.2C102.8 49.44 102.88 49.6 102.96 49.84C103.76 49.52 104.48 49.28 105.28 49.04C105.44 49.52 105.6 49.92 105.76 50.4C104.96 50.64 104.24 50.96 103.44 51.2C103.52 51.44 103.6 51.68 103.76 51.92C104.8 51.52 105.68 51.2 106.56 50.88Z" fill="#252468"/>
<path d="M99.6775 55.28C99.2775 55.44 98.8775 55.6 98.3975 55.68C97.9975 55.76 97.5975 55.76 97.2775 55.76C97.1975 55.28 97.1975 54.72 97.1175 54.24C97.4375 54.24 97.7575 54.24 98.0775 54.24C98.3975 54.16 98.7175 54.08 99.0375 54C99.2775 53.92 99.4375 53.76 99.5175 53.68C99.5975 53.6 99.5975 53.52 99.5975 53.44C99.5175 53.36 99.4375 53.28 99.2775 53.28C99.1175 53.28 98.8775 53.36 98.5575 53.36C98.1575 53.44 97.7575 53.52 97.4375 53.52C97.1175 53.52 96.7975 53.52 96.4775 53.36C96.1575 53.2 95.9175 52.96 95.6775 52.64C95.5175 52.32 95.4375 52 95.4375 51.68C95.4375 51.36 95.5975 50.96 95.9175 50.64C96.2375 50.32 96.6375 50 97.1175 49.76C97.5175 49.6 97.8375 49.44 98.2375 49.36C98.6375 49.28 99.0375 49.28 99.3575 49.28C99.3575 49.76 99.4375 50.32 99.4375 50.8C98.7975 50.8 98.2375 50.88 97.7575 51.04C97.2775 51.28 97.1175 51.44 97.2775 51.68C97.3575 51.76 97.4375 51.84 97.5975 51.84C97.7575 51.84 97.9975 51.76 98.3175 51.68C98.7175 51.6 99.1175 51.52 99.4375 51.52C99.7575 51.52 100.077 51.52 100.397 51.68C100.717 51.84 100.957 52.08 101.117 52.48C101.277 52.8 101.277 53.12 101.277 53.52C101.197 53.84 101.037 54.16 100.797 54.48C100.637 54.8 100.237 55.04 99.6775 55.28Z" fill="#252468"/>
<path fill-rule="evenodd" clip-rule="evenodd" d="M117.836 42.8C118.396 42.72 118.956 43.04 119.036 43.52C119.116 44 118.796 44.48 118.236 44.56C117.676 44.64 117.116 44.32 117.036 43.84C116.956 43.36 117.276 42.88 117.836 42.8Z" fill="white"/>
<path fill-rule="evenodd" clip-rule="evenodd" d="M117.841 45.12C118.241 45.04 118.561 45.04 118.961 44.96C119.201 44.96 119.441 45.04 119.521 45.28C119.761 46.64 120.081 48 120.321 49.44C119.681 49.52 119.041 49.6 118.401 49.68C118.161 48.32 117.841 46.96 117.521 45.6C117.441 45.36 117.601 45.2 117.841 45.12Z" fill="white"/>
<path d="M146.803 40.96C144.883 38.56 143.763 35.6 143.683 32.24C143.523 24.24 149.843 17.68 157.843 17.44C165.843 17.28 172.403 23.6 172.643 31.6C172.803 39.6 166.483 46.16 158.483 46.4C156.243 46.48 154.163 46 152.243 45.12L145.763 47.44L146.803 40.96Z" fill="white"/>
<g opacity="0.5">
<path d="M152.48 21.76C145.92 25.36 143.36 33.28 146.16 40C145.84 39.6 145.6 39.12 145.36 38.72C141.52 31.76 144 22.96 150.96 19.04C157.92 15.2 166.72 17.68 170.64 24.64C170.88 25.12 171.12 25.6 171.28 26C167.12 20.08 158.96 18.16 152.48 21.76Z" fill="white"/>
</g>
<path d="M158.483 47.68C156.323 47.76 154.163 47.36 152.163 46.48L146.163 48.64C145.763 48.8 145.283 48.72 144.883 48.4C144.563 48.08 144.403 47.68 144.403 47.2L145.363 41.2C143.443 38.56 142.403 35.52 142.323 32.24C142.163 23.6 149.043 16.4 157.683 16.16C166.323 16 173.523 22.88 173.763 31.52C173.923 39.68 167.923 46.48 160.003 47.44C159.603 47.68 159.043 47.68 158.483 47.68ZM144.163 32.32C144.243 35.36 145.283 38.32 147.203 40.72C147.443 41.04 147.523 41.36 147.443 41.76L146.723 46.4L151.363 44.72C151.683 44.64 152.083 44.64 152.403 44.72C154.323 45.6 156.323 46 158.403 45.92C166.083 45.76 172.163 39.36 172.003 31.68C171.843 24 165.443 17.92 157.763 18.08C157.283 18.08 156.803 18.16 156.323 18.16C149.363 19.04 144.003 25.12 144.163 32.32Z" fill="#252468"/>
<g opacity="0.13">
<path d="M146.72 40.8799C151.04 43.6799 156.64 44.4799 161.84 42.4799C167.6 40.2399 171.44 35.1999 172.32 29.4399C172.48 30.1599 172.56 30.8799 172.56 31.6799C172.72 39.6799 166.4 46.2399 158.4 46.4799C156.16 46.5599 154.08 46.0799 152.16 45.1999L145.68 47.5199L146.72 41.0399C146.8 40.9599 146.72 40.8799 146.72 40.8799Z" fill="#252468"/>
</g>
<path d="M55.5986 34.3999C57.5186 31.9999 58.6386 29.0399 58.7186 25.6799C58.8786 17.6799 52.5586 11.1199 44.5586 10.8799C36.5586 10.7199 29.9986 17.0399 29.7586 25.0399C29.6786 33.1199 35.9986 39.6799 43.9986 39.8399C46.2386 39.9199 48.3186 39.4399 50.2386 38.5599L56.7186 40.8799L55.5986 34.3999Z" fill="white"/>
<g opacity="0.5">
<path d="M49.9953 15.2C56.5553 18.8 59.1153 26.72 56.3153 33.44C56.6353 33.04 56.8753 32.56 57.1153 32.16C60.9553 25.2 58.4753 16.4 51.5153 12.48C44.5553 8.64003 35.7553 11.12 31.8353 18.08C31.5953 18.56 31.3553 19.04 31.1953 19.44C35.3553 13.6 43.4353 11.6 49.9953 15.2Z" fill="white"/>
</g>
<path d="M42.3178 41.04C34.3978 40.08 28.3978 33.2 28.5578 25.12C28.7978 16.4 35.9978 9.51998 44.6378 9.67998C53.2778 9.83998 60.2378 17.12 59.9978 25.76C59.9178 29.04 58.8778 32.16 56.9578 34.72L57.9178 40.72C57.9978 41.2 57.8378 41.6 57.4378 41.92C57.1178 42.24 56.6378 42.32 56.1578 42.16L50.2378 40C48.2378 40.8 46.1578 41.2 43.9178 41.2C43.4378 41.12 42.8778 41.12 42.3178 41.04ZM46.0778 11.6C45.5978 11.52 45.1178 11.52 44.6378 11.52C36.9578 11.36 30.5578 17.44 30.3978 25.12C30.2378 32.8 36.3178 39.2 43.9978 39.36C46.0778 39.44 48.0778 38.96 49.9978 38.16C50.3178 38 50.6378 38 51.0378 38.16L55.6778 39.84L54.9578 35.2C54.8778 34.8 54.9578 34.48 55.1978 34.16C57.1178 31.76 58.1578 28.88 58.2378 25.76C58.3978 18.56 53.0378 12.48 46.0778 11.6Z" fill="#252468"/>
<g opacity="0.13">
<path d="M55.6789 34.32C51.3589 37.12 45.7589 37.92 40.5589 35.92C34.7989 33.68 30.9589 28.64 30.0789 22.88C29.9189 23.6 29.8389 24.32 29.8389 25.12C29.6789 33.12 35.9989 39.68 43.9989 39.84C46.2389 39.92 48.3189 39.44 50.2389 38.56L56.7189 40.88L55.5989 34.4C55.6789 34.4 55.6789 34.32 55.6789 34.32Z" fill="#252468"/>
</g>
<path d="M120.001 147.84L70.6406 137.12" stroke="#252468" stroke-width="2" stroke-miterlimit="10"/>
<path d="M115.522 128.64L113.602 128.24L114.002 126.4L120.002 127.68L119.602 129.52L117.682 129.12L116.562 134.32L114.402 133.84L115.522 128.64Z" fill="#252468"/>
<path d="M106.639 126.64L106.399 127.92L109.119 128.48L108.719 130.24L105.999 129.68L105.519 131.92L103.359 131.44L104.879 124.4L110.159 125.52L109.759 127.36L106.639 126.64Z" fill="#252468"/>
<path d="M98.8794 123.12L101.039 123.6L99.9194 128.8L102.799 129.44L102.399 131.28L97.3594 130.16L98.8794 123.12Z" fill="#252468"/>
<path d="M96.7991 128.16L96.3991 129.92L91.0391 128.8L92.5591 121.76L97.8391 122.88L97.4391 124.64L94.3191 124L94.1591 124.8L96.8791 125.44L96.4791 127.12L93.7591 126.56L93.5991 127.44L96.7991 128.16Z" fill="#252468"/>
<path d="M87.0384 128.08C86.4784 128 85.9984 127.76 85.5184 127.52C85.0384 127.28 84.6384 127.04 84.3984 126.72L85.5184 125.12C85.7584 125.36 86.0784 125.6 86.4784 125.84C86.7984 126.08 87.1984 126.16 87.5184 126.24C87.8384 126.32 88.0784 126.32 88.1584 126.32C88.3184 126.32 88.3984 126.24 88.3984 126.08C88.3984 125.92 88.3984 125.84 88.2384 125.68C88.0784 125.6 87.8384 125.44 87.4384 125.28C86.9584 125.04 86.5584 124.88 86.2384 124.64C85.9184 124.4 85.6784 124.16 85.5184 123.84C85.3584 123.52 85.2784 123.04 85.4384 122.56C85.5184 122.08 85.7584 121.76 86.0784 121.44C86.3984 121.12 86.7984 120.88 87.2784 120.8C87.7584 120.72 88.3184 120.72 89.0384 120.88C89.5184 120.96 89.9184 121.12 90.3184 121.36C90.7184 121.52 91.0384 121.76 91.3584 122.08L90.3184 123.68C89.7584 123.2 89.1984 122.88 88.6384 122.8C88.0784 122.64 87.7584 122.8 87.6784 123.04C87.6784 123.2 87.6784 123.28 87.8384 123.44C87.9984 123.52 88.2384 123.68 88.6384 123.84C89.1184 124.08 89.5184 124.24 89.8384 124.48C90.1584 124.72 90.3984 124.96 90.5584 125.28C90.7184 125.6 90.7984 126.08 90.6384 126.56C90.5584 127.04 90.3184 127.36 89.9984 127.68C89.6784 128 89.2784 128.24 88.7984 128.32C88.3184 128.24 87.6784 128.24 87.0384 128.08Z" fill="#252468"/>
<path fill-rule="evenodd" clip-rule="evenodd" d="M112.316 124.96C112.876 125.12 113.276 125.68 113.116 126.24C112.956 126.8 112.396 127.2 111.836 127.04C111.276 126.88 110.876 126.32 111.036 125.76C111.196 125.2 111.756 124.8 112.316 124.96Z" fill="white"/>
<path fill-rule="evenodd" clip-rule="evenodd" d="M111.116 127.52L112.236 127.76C112.476 127.84 112.636 128.08 112.636 128.32L111.596 133.2L109.516 132.72L110.556 127.84C110.636 127.68 110.876 127.44 111.116 127.52Z" fill="white"/>
<path d="M44.4769 15.76C39.1169 15.76 34.7969 20.08 34.7969 25.44C34.7969 30.8 39.1169 35.12 44.4769 35.12C49.8369 35.12 54.1569 30.8 54.1569 25.44C54.2369 20.08 49.8369 15.76 44.4769 15.76ZM44.1569 32.08C40.5569 32.08 37.6769 29.2 37.6769 25.6C37.6769 22 40.5569 19.12 44.1569 19.12C47.7569 19.12 50.6369 22 50.6369 25.6C50.7169 29.12 47.7569 32.08 44.1569 32.08Z" fill="#5DB075"/>
<path d="M44.1609 24.64C44.5609 24.64 44.9609 24.96 44.9609 25.44C44.9609 25.92 44.6409 26.24 44.1609 26.24C43.6809 26.24 43.3609 25.92 43.3609 25.44C43.3609 24.96 43.6809 24.64 44.1609 24.64ZM44.1609 22.24C42.4009 22.24 40.9609 23.68 40.9609 25.44C40.9609 27.2 42.4009 28.64 44.1609 28.64C45.9209 28.64 47.3609 27.2 47.3609 25.44C47.3609 23.68 45.9209 22.24 44.1609 22.24Z" fill="#5DB075"/>
<path d="M33.8438 24.8001C33.9237 24.4001 33.9238 24.0001 34.0038 23.6001C34.7238 19.4401 38.0837 16.0001 42.2437 15.2001C43.9237 14.8801 45.5238 14.9601 47.1238 15.4401C47.4438 15.5201 47.6837 15.7601 47.6837 16.0801C47.6837 16.4001 47.4438 16.6401 47.1238 16.6401C46.9638 16.6401 46.8838 16.6401 46.7238 16.5601C44.0838 15.8401 41.5237 16.1601 39.2837 17.6801C36.9637 19.2001 35.6037 21.3601 35.2837 24.1601C34.8037 28.2401 36.9638 32.0001 40.7238 33.6001C44.3238 35.2001 48.6438 34.1601 51.1238 31.2001C52.4038 29.7601 53.1237 28.0801 53.3637 26.1601C53.5237 24.9601 53.3638 23.8401 53.0438 22.7201C52.8838 22.2401 53.2037 21.7601 53.6837 21.8401C53.9237 21.8401 54.2438 22.0001 54.2438 22.3201C54.4038 22.9601 54.4838 23.6801 54.6438 24.3201C54.6438 24.4001 54.6438 24.4801 54.7238 24.5601C54.7238 24.9601 54.7238 25.4401 54.7238 25.8401C54.7238 25.9201 54.7238 25.9201 54.7238 26.0001C54.6438 26.4801 54.6437 26.9601 54.4837 27.4401C53.6837 31.4401 50.2437 34.7201 46.1638 35.4401C45.7638 35.5201 45.3638 35.5201 44.9638 35.6001C44.5638 35.6001 44.0837 35.6001 43.6837 35.6001C43.6037 35.6001 43.6038 35.6001 43.5238 35.6001C43.0438 35.5201 42.5637 35.5201 42.0837 35.3601C38.0837 34.5601 34.7237 31.1201 34.0837 27.0401C34.0037 26.6401 34.0038 26.2401 33.9238 25.8401C33.8438 25.6801 33.8438 25.2001 33.8438 24.8001Z" fill="#252468" stroke="#252468" stroke-width="0.5" stroke-miterlimit="10"/>
<path d="M54.6431 19.04C54.4831 19.2 54.4031 19.36 54.2431 19.52C53.6031 20.24 52.8831 20.88 52.2431 21.6C52.0831 21.84 51.8431 21.92 51.5231 21.92C50.5631 22 49.5231 22.08 48.5631 22.24C48.4831 22.24 48.4031 22.32 48.3231 22.4C47.1231 23.6 45.9231 24.8 44.7231 26C44.4831 26.24 44.3231 26.32 44.0031 26.24C43.6031 26.08 43.4431 25.6 43.6831 25.2C43.7631 25.12 43.7631 25.12 43.8431 25.04C45.0431 23.84 46.2431 22.72 47.3631 21.52C47.4431 21.44 47.5231 21.28 47.5231 21.2C47.6031 20.24 47.7631 19.28 47.8431 18.24C47.8431 18 48.0031 17.76 48.1631 17.6C48.8831 16.88 49.6031 16.16 50.3231 15.44C50.5631 15.2 50.8031 15.12 51.1231 15.2C51.4431 15.28 51.5231 15.6 51.5231 15.84C51.6031 16.56 51.6031 17.2 51.6831 17.92C51.6831 18 51.7631 18.08 51.8431 18.08C52.4831 18.16 53.2031 18.16 53.8431 18.24C54.2431 18.24 54.4831 18.4 54.6431 18.72C54.6431 18.8 54.6431 18.88 54.6431 19.04ZM50.3231 17.2C49.9231 17.6 49.5231 17.92 49.2031 18.32C49.2031 18.32 49.1231 18.4 49.1231 18.48C49.1231 18.8 49.0431 19.12 49.0431 19.44C48.9631 19.92 48.9631 20.4 48.8831 20.8C48.9631 20.8 48.9631 20.8 48.9631 20.8C49.6831 20.72 50.4031 20.64 51.0431 20.56C51.2031 20.56 51.2831 20.48 51.4431 20.4C51.7631 20.08 52.0031 19.84 52.3231 19.52C52.3231 19.52 52.4031 19.44 52.4031 19.36C51.9231 19.36 51.5231 19.28 51.1231 19.28C50.5631 19.28 50.3231 19.04 50.3231 18.48C50.4031 18.08 50.3231 17.68 50.3231 17.2Z" fill="#252468" stroke="#252468" stroke-width="0.5" stroke-miterlimit="10"/>
<path d="M37.0469 25.44C37.1269 22.08 39.4469 19.12 42.8069 18.48C43.9269 18.24 45.0469 18.24 46.0869 18.56C46.4069 18.64 46.6469 18.88 46.6469 19.2C46.6469 19.52 46.4869 19.76 46.1669 19.84C46.0069 19.84 45.8469 19.84 45.6869 19.84C43.0469 19.2 40.2469 20.4 39.0469 22.88C37.2869 26.32 39.3669 30.64 43.2869 31.28C46.5669 31.84 49.6069 29.68 50.0869 26.4C50.2469 25.6 50.1669 24.8 50.0069 24C50.0069 23.84 50.0069 23.68 50.0069 23.52C50.0869 23.28 50.3269 23.12 50.6469 23.12C50.8869 23.12 51.1269 23.28 51.2069 23.6C51.4469 24.48 51.5269 25.28 51.4469 26.16C51.2069 28.48 50.0869 30.32 48.0869 31.52C44.0069 34.16 38.3269 31.84 37.2869 27.04C37.1269 26.56 37.1269 26 37.0469 25.44Z" fill="#252468" stroke="#252468" stroke-width="0.5" stroke-miterlimit="10"/>
<path d="M44.327 22.88C42.967 22.8 41.8469 23.84 41.6869 25.2C41.5269 26.48 42.4069 27.68 43.6869 28C45.2069 28.32 46.807 27.2 46.807 25.6C46.807 25.52 46.807 25.44 46.807 25.36C46.887 25.04 47.207 24.8 47.527 24.88C47.847 24.88 48.0869 25.2 48.0869 25.52C48.0869 26.72 47.607 27.76 46.647 28.48C45.367 29.52 43.927 29.68 42.407 28.96C40.887 28.24 40.247 26.96 40.327 25.28C40.407 23.12 42.3269 21.52 44.4869 21.6C44.7269 21.6 44.887 21.68 45.047 21.84C45.207 22.08 45.287 22.24 45.207 22.48C45.127 22.72 44.887 22.88 44.647 22.88C44.567 22.88 44.407 22.88 44.327 22.88Z" fill="#252468" stroke="#252468" stroke-width="0.5" stroke-miterlimit="10"/>
<path d="M164.401 30.8C166.301 30.8 167.841 29.2599 167.841 27.36C167.841 25.4602 166.301 23.92 164.401 23.92C162.501 23.92 160.961 25.4602 160.961 27.36C160.961 29.2599 162.501 30.8 164.401 30.8Z" fill="#5DB075"/>
<path d="M164.003 40.0801C165.902 40.0801 167.443 38.5399 167.443 36.6401C167.443 34.7402 165.902 33.2001 164.003 33.2001C162.103 33.2001 160.562 34.7402 160.562 36.6401C160.562 38.5399 162.103 40.0801 164.003 40.0801Z" fill="#5DB075"/>
<path d="M148 28.88C148.16 29.12 148.32 29.2 148.56 29.2C153.44 29.2 153.44 29.2 158.32 29.2C158.4 29.2 158.48 29.2 158.64 29.2C158.8 29.12 158.88 29.04 158.88 28.8C158.88 28.64 158.8 28.48 158.56 28.4C158.48 28.4 158.4 28.4 158.32 28.4C153.44 28.4 153.44 28.4 148.56 28.4C148.32 28.4 148.16 28.48 148 28.72C148 28.72 148 28.8 148 28.88Z" fill="#252468" stroke="#252468" stroke-width="0.5" stroke-miterlimit="10"/>
<path d="M163.997 23.6801C166.077 23.6801 167.837 25.3601 167.837 27.5201C167.837 29.6001 166.157 31.2801 164.077 31.3601C161.997 31.3601 160.237 29.6801 160.237 27.5201C160.157 25.4401 161.837 23.6801 163.997 23.6801ZM166.957 27.5201C166.957 25.8401 165.597 24.4801 163.997 24.4801C162.317 24.4801 161.037 25.8401 160.957 27.4401C160.957 29.1201 162.317 30.4801 163.997 30.4801C165.597 30.4801 166.957 29.2001 166.957 27.5201Z" fill="#252468" stroke="#252468" stroke-width="0.5" stroke-miterlimit="10"/>
<path d="M154.56 25.8401C153.36 25.8401 154.08 25.8401 152.88 25.8401C152.8 25.8401 152.64 25.8401 152.56 25.8401C152.4 25.9201 152.32 26.0001 152.32 26.1601C152.32 26.3201 152.4 26.4801 152.56 26.5601C152.64 26.5601 152.72 26.5601 152.88 26.5601C155.36 26.5601 155.84 26.5601 158.32 26.5601C158.4 26.5601 158.56 26.5601 158.64 26.4801C158.72 26.4001 158.88 26.2401 158.88 26.1601C158.88 26.0001 158.72 25.9201 158.64 25.7601C158.56 25.6801 158.4 25.6801 158.32 25.6801C157.04 25.8401 155.84 25.8401 154.56 25.8401Z" fill="#252468" stroke="#252468" stroke-width="0.5" stroke-miterlimit="10"/>
<path d="M163.523 27.84C164.003 27.36 164.403 26.96 164.883 26.48C164.963 26.4 165.043 26.32 165.123 26.32C165.283 26.24 165.443 26.24 165.603 26.4C165.763 26.56 165.763 26.72 165.683 26.88C165.603 26.96 165.523 27.12 165.443 27.2C164.963 27.68 164.483 28.16 164.003 28.64C163.763 28.88 163.523 28.88 163.283 28.64C163.043 28.4 162.803 28.16 162.563 27.92C162.323 27.68 162.323 27.44 162.563 27.28C162.723 27.12 162.963 27.12 163.123 27.36C163.203 27.44 163.283 27.52 163.363 27.6C163.363 27.6 163.443 27.68 163.523 27.84Z" fill="#252468" stroke="#252468" stroke-width="0.5" stroke-miterlimit="10"/>
<path d="M148.562 38C148.723 38.24 148.882 38.32 149.122 38.32C154.002 38.32 153.443 38.32 158.243 38.32C158.323 38.32 158.403 38.32 158.562 38.32C158.722 38.24 158.803 38.16 158.803 37.92C158.803 37.76 158.723 37.6 158.483 37.52C158.403 37.52 158.323 37.52 158.243 37.52C153.363 37.52 153.922 37.52 149.122 37.52C148.882 37.52 148.723 37.6 148.562 37.84C148.562 37.84 148.562 37.92 148.562 38Z" fill="#252468" stroke="#252468" stroke-width="0.5" stroke-miterlimit="10"/>
<path d="M164.005 32.8C166.085 32.8 167.845 34.48 167.845 36.64C167.845 38.72 166.165 40.4 164.085 40.48C162.005 40.48 160.245 38.8 160.245 36.64C160.165 34.48 161.845 32.8 164.005 32.8ZM166.965 36.64C166.965 34.96 165.605 33.6 164.005 33.6C162.325 33.6 161.045 34.96 160.965 36.56C160.965 38.24 162.325 39.6 164.005 39.6C165.605 39.6 166.965 38.24 166.965 36.64Z" fill="#252468" stroke="#252468" stroke-width="0.5" stroke-miterlimit="10"/>
<path d="M154.564 34.8801C153.364 34.8801 155.924 34.8801 154.724 34.8801C154.644 34.8801 154.484 34.8801 154.404 34.8801C154.244 34.9601 154.164 35.0401 154.164 35.2001C154.164 35.3601 154.244 35.5201 154.404 35.6001C154.484 35.6001 154.564 35.6001 154.724 35.6001C157.204 35.6001 155.844 35.6001 158.244 35.6001C158.324 35.6001 158.484 35.6001 158.564 35.5201C158.644 35.4401 158.804 35.2801 158.804 35.2001C158.804 35.0401 158.644 34.9601 158.564 34.8001C158.484 34.7201 158.324 34.7201 158.244 34.7201C157.044 34.8801 155.844 34.8801 154.564 34.8801Z" fill="#252468" stroke="#252468" stroke-width="0.5" stroke-miterlimit="10"/>
<path d="M163.523 36.96C164.003 36.48 164.403 36.08 164.883 35.6C164.963 35.52 165.043 35.44 165.123 35.44C165.283 35.36 165.443 35.36 165.603 35.52C165.763 35.68 165.763 35.84 165.683 36C165.603 36.08 165.523 36.24 165.443 36.32C164.963 36.8 164.483 37.28 164.003 37.76C163.763 38 163.523 38 163.283 37.76C163.043 37.52 162.803 37.28 162.563 37.04C162.323 36.8 162.323 36.56 162.563 36.4C162.723 36.24 162.963 36.24 163.123 36.48C163.203 36.56 163.283 36.64 163.363 36.72C163.363 36.72 163.443 36.8 163.523 36.96Z" fill="#252468" stroke="#252468" stroke-width="0.5" stroke-miterlimit="10"/>
<path d="M124.722 86.56C127.196 86.56 129.202 84.5542 129.202 82.08C129.202 79.6057 127.196 77.6 124.722 77.6C122.248 77.6 120.242 79.6057 120.242 82.08C120.242 84.5542 122.248 86.56 124.722 86.56Z" fill="#5DB075"/>
<path d="M94.5581 84.72C97.0324 84.72 99.0381 82.7143 99.0381 80.24C99.0381 77.7658 97.0324 75.76 94.5581 75.76C92.0839 75.76 90.0781 77.7658 90.0781 80.24C90.0781 82.7143 92.0839 84.72 94.5581 84.72Z" fill="#5DB075"/>
<path d="M111.439 89.28L105.199 88.32C104.239 88.16 103.439 89.04 103.599 89.92C103.919 91.76 104.879 94.32 107.439 94.72C110.079 95.2 111.679 92.88 112.559 91.2C112.879 90.4 112.399 89.44 111.439 89.28Z" fill="#5DB075"/>
<defs>
<linearGradient id="paint0_linear_1614_53179" x1="48.6216" y1="97.2319" x2="45.7384" y2="110.49" gradientUnits="userSpaceOnUse">
<stop stop-color="white"/>
<stop offset="1" stop-color="#B4B7DC"/>
</linearGradient>
<linearGradient id="paint1_linear_1614_53179" x1="158.539" y1="127.954" x2="153.247" y2="126.803" gradientUnits="userSpaceOnUse">
<stop stop-color="white"/>
<stop offset="1" stop-color="#B4B7DC"/>
</linearGradient>
<radialGradient id="paint2_radial_1614_53179" cx="0" cy="0" r="1" gradientUnits="userSpaceOnUse" gradientTransform="translate(94.0256 78.2588) rotate(173.212) scale(24.2002 25.9889)">
<stop stop-color="#54B848"/>
<stop offset="0.7056" stop-color="#54B848" stop-opacity="0"/>
</radialGradient>
<radialGradient id="paint3_radial_1614_53179" cx="0" cy="0" r="1" gradientUnits="userSpaceOnUse" gradientTransform="translate(125.25 80.0696) rotate(173.212) scale(24.2002 25.9889)">
<stop stop-color="#54B848"/>
<stop offset="0.7056" stop-color="#54B848" stop-opacity="0"/>
</radialGradient>
</defs>
</svg>
